<?xml version="1.0" encoding="UTF-8"?>
<svg id="Layer_2" data-name="Layer 2" xmlns="http://www.w3.org/2000/svg" viewBox="0 0 1075.79 248.95">
  <g id="Layer_1-2" data-name="Layer 1">
    <g id="hZXQ17">
      <g>
        <g>
          <path d="M270.23,49.97v139.82s-15.44.02-15.44.02v-15.49s-15.19,0-15.19,0v-15.51s-15.67-.06-15.67-.06l.02-15.44h-15.46s-.08-15.64-.08-15.64h-15.15s0-15.47,0-15.47l-15.5-.02v57.47s21.86,37.94,21.86,37.94l-199.62.03L99.86,34.8l62.33,107.83.08-92.67,15.49-.02v15.49s15.5,0,15.5,0v15.53s15.5,0,15.5,0v15.48s15.28,0,15.28,0l.03,15.63,15.59-.02.05,15.49,15.08.02V49.96s15.44.01,15.44.01ZM79.17,144.93c1.59,1.31,2.99,2.1,4.74,2.32,1.84-.44,3.22-1.21,4.79-2.66,4.15-6.55,4.29-15.16.46-21.96-1.38-1.7-2.96-2.82-4.66-3.37-2.17.14-3.81.94-5.45,2.43-1.56,2.38-2.65,5.02-3.04,7.62l6.85,3.94-6.97,4.11c.8,2.85,1.77,5.19,3.28,7.57ZM113.62,146.77c3.42,1.06,6.26-.85,7.95-3.77,3.2-6.48,2.96-14.39-.6-20.64-1.55-1.51-2.96-2.55-4.46-3.08-2.04.14-3.34.68-5.03,1.82-1.81,2.47-3.02,5.14-3.62,8.14l6.91,4.05-6.79,3.84c.47,3.72,2.03,7.57,5.64,9.64ZM135.74,140.5l-.02,5.76,4.3.32c-1.46,21.66-18.89,37.97-40.22,38.18-21.44-.26-38.95-16.97-40.08-38.37l4.28-.04v-5.83s-14.38-.04-14.38-.04v5.85s4.4.04,4.4.04c1.25,27.01,25.22,47.27,52.09,43.65,21.91-3.21,38.65-21.39,39.61-43.62l4.43-.08-.03-5.82h-14.36Z"/>
          <g>
            <path d="M292.97,195.79c-6.83-3.52-11.47-9.29-13.83-16.4-2.63-8.15-2.74-16.31-1.27-24.86,4.06-20.28,16.07-38.26,33.43-49.46,8.72-5.16,17.78-8.64,27.85-9.15,6.22-.3,11.96.64,17.43,3.34.64-3.96.86-7.93.23-11.91-1.12-6.63-6.35-10.86-13.18-10.78-6.08,0-11.64,2.04-17.24,4.64-9.67,5.19-18.14,12.18-25.51,20.33l-8.03,8.94-17.13-47.03c14.91-13.48,34.25-20.84,54.32-20.93,7.68.29,14.76,1.42,21.75,4.34,10.14,4.23,18.1,11.64,23.12,21.36,2.26,4.4,3.74,8.64,5.19,13.31l.68-24.39h36.74c-8.09,34.94-12.84,69.37-14.88,104.64l-.66,31.85-43.81-.03c6.11-15.21,9.9-30.22,9.79-46.37-2.84,11.04-7.41,21.15-14.88,30.02-10.1,11.71-24.02,19.3-39.34,21.52-7.25.84-14.08.21-20.78-2.99ZM355.35,150.21c4.48-4.86,6.84-10.85,6.92-17.34.31-7.3-2.12-14.19-7.24-19.27-7.43-7.58-18.78-7.64-26.63-.36-9.34,9.23-10.45,24.37-2.72,35.03,3.58,4.69,8.61,7.67,13.89,8.07,6.07.6,11.39-1.74,15.78-6.13Z"/>
            <path d="M500.07,133.71c2.57,5.34,2.32,10.91,1.74,16.69-2.16,11.96-6.54,23.13-13.32,33.2-8.19,11.99-19.25,21.07-32.84,26.19-8.12,2.91-16.36,4.3-24.89,3.5-9.47-.63-16.88-6.68-19.28-15.8-1.35-5.49-1.79-10.91-1.77-16.69-.29-15.16.41-29.74,2.04-44.86,2.56-21.42,6.4-42.2,11.72-63.09,4.17-15.21,9.04-29.73,16.47-43.53,4.28-7.73,8.94-14.71,15.37-20.65,4.1-3.72,8.57-6.71,13.92-8.06,6.02-1.41,12.07-.36,16.72,3.61,3.83,3.65,5.68,8.43,6.38,13.72,1.09,9.06-.31,17.7-2.49,26.62-3.16,13.49-8.14,25.96-13.73,38.63l-16.1,34.45c-6.91,15.62-15.3,30-25.03,43.96l-6.44,9.6.35,1.96,2-.71,16.69-23.16c6.01-7.38,12.43-13.9,20.4-19.08,5.03-3.11,10.28-5.39,16.12-6.12,7.1-.65,13.33,2.79,15.96,9.62Z"/>
          </g>
        </g>
        <g>
          <path d="M733.46,248.95l-55.82-.53c-5.64-7.6-7.71-16.5-5.62-25.65,2.45-10.61,9.16-18.97,18.55-24.58,10.69-6.33,23.11-8.35,35.58-7.2,8.86.91,17.07,2.94,25.57,5.55l20.94,7.07,9.36,1.89c2.62-.26,4.68-1.01,5.7-3.25.91-1.96.5-4.21-.92-6.23-2.91-3.28-6.5-5.45-10.53-7.49-10.21-4.58-20.88-7.38-32.31-8.8l.84-87.68-2.8-.57c-.92,14.92-2.93,29.22-6.5,43.72-2.09,7.92-4.53,15.25-7.95,22.61-3.09,6.29-6.57,12.04-11.55,16.92-5.88,5.86-13.39,9.22-21.7,8.98-9.89-.18-18.76-4.44-25.14-11.93-4.58-5.38-7.64-11.35-9.97-18.06-3.36-9.84-4.67-19.82-4.66-30.34,0-14.23,2.61-27.91,7.94-41.01,3.29-7.67,7.26-14.56,12.83-20.66,9.87-11.19,23.83-17.09,38.78-15.71,8.32.38,15.97,2.96,22.45,8.01,4.75,4.04,8.18,8.92,10.87,14.57l39.25-21.43c1.12-.52,2.2-.76,3.5-.8l.15,22.66.12,54.07.09,48.32c6.08,3.11,11.19,7.23,15.42,12.54,2.86,4.07,4.89,8.44,5.64,13.37.88,5.34-.27,10.34-3,14.97-3.18,4.99-7.34,8.86-12.11,12.49-10.22,7.19-21.61,12.17-33.94,14.45-4.94.77-9.48.56-14.32-.46l-21.4-7.62-22.81-9.69c-4.94-1.82-9.67-3.34-14.86-4.27-2.28,0-4.29.4-5.84,1.79-1.09,2.74-.23,4.96,1.54,7.14,3.28,3.02,6.92,5.29,10.94,7.53,11.72,5.79,23.88,10.28,36.75,13.06l1.56.26-.64,2.01ZM716.05,154.99c3.71-4.38,5.73-9.2,7.74-14.53,5.08-15.24,7.75-30.92,9.06-47.02.37-7.43-.19-14.42-2.28-21.43-1.19-3.78-2.81-7.2-5.5-10.02-4.41-4.33-10.91-4.16-15.39.13-4.17,4.07-6.62,9.14-8.67,14.75-4.57,13.72-6.21,27.93-6.13,42.5.07,9.09.89,17.68,3.36,26.28,1.24,3.66,2.79,6.91,5.23,9.79,1.87,1.82,3.88,2.71,6.36,2.93,2.23-.3,4.23-1.49,6.23-3.38Z"/>
          <g>
            <path d="M961.73,169.7l5.38-8.29c3.91-8.7,10.33-15.82,18.85-20.02,12.85-5.83,27.55-3.43,37.34,6.66,9.76,10.73,12.31,25.87,6.9,39.39-2.87,6.97-7.8,12.34-14.05,16.55-7.42,4.69-15.49,7.47-24.27,8.69-11.5,1.94-22.9,1.21-33.99-2.24-7.87-2.66-14.79-6.54-20.62-12.39-6.92-7.23-11.02-16.16-11.84-26.23-1.76-15.16,2.98-29.67,13.12-40.95,4.56-4.94,10.14-8.09,16.95-10.54-6.62-3.27-12.33-7.63-16.95-13.47-6.18-7.9-8.8-17.38-8.04-27.49,1.33-14.05,7.54-26.94,17.83-36.55,9.28-8.47,20.54-13.23,33.13-14.6,14.95-1.2,29.91,1.68,43.1,8.47,19.22,10.03,27.98,32.25,20,52.35-5.37,12.8-17.14,21.6-31.02,22.92-10.38.84-19.79-2.88-26.6-10.53-3.74-4.15-6.6-8.69-9.43-13.55-2.24-4.2-4.62-8.15-7.96-11.48-4.13-4.01-9.72-5.42-14.85-2.64-4.93,2.16-7.58,7.38-6.79,13.26.96,8.88,6.26,16.52,14.14,20.78,5.06,2.42,10.25,3.42,16.07,3.63v18.17c-9.44,1.78-18.15,6.04-24.78,13.05-5.73,6.27-8.69,14.2-7.87,22.63.42,3.7,2.65,6.83,6.2,7.73,3.77.72,6.92-.83,10.03-3.31Z"/>
            <polygon points="1072.71 85.35 1072.6 70.83 1070.01 85.12 1067.49 85.35 1065.1 71.32 1064.91 85.36 1062.15 85.11 1062.16 65.23 1066.51 65.22 1068.9 77.64 1071.37 65.21 1075.78 65.23 1075.79 85.15 1072.71 85.35"/>
            <path d="M1056.81,84.99c-.79.32-2.17.35-3.15.12v-17.68s-3.58.03-3.58.03l.16-2.34h9.96s.1,2.32.1,2.32h-3.52s.04,17.55.04,17.55Z"/>
            <g>
              <path d="M867.1,70.27c.41-14.8,12.12-25.78,26.21-25.83,14.25.19,25.78,11.38,26.01,26.05l-.03,68.73c-.49,32.96-27.05,59.06-59.5,59.15-32.45.05-59.47-26.08-59.73-59.13v-69.29c.39-14.48,12.23-25.57,26.24-25.5,14.2.25,25.63,11.41,25.87,26.03v68.77c.34,4.25,3.74,7.13,7.63,7.05,3.92-.06,7.18-3.21,7.28-7.48v-68.56ZM877.86,69.86l-.02,69.42c-.73,10.25-8.62,17.75-18.52,17.61-9.49-.26-17.36-7.59-17.77-17.59v-68.85c-.2-8.87-7.28-15.38-15.73-15.33-8.4.28-15.29,6.96-15.12,15.83v68.33c.3,26.93,22.18,48.3,48.6,48.47,26.31.17,48.5-20.69,49.27-47.45v-70.85c-.7-8.48-7.63-14.44-15.73-14.34-7.86.36-14.64,6.24-14.99,14.76Z"/>
              <path d="M887.89,70.76c.25-3.5,2.5-5.53,5.37-5.49,2.82.03,5.05,2.05,5.27,5.26l-.02,69.73c-1.03,21.3-18.32,37.54-39.1,37.41-21.05-.17-38.18-16.96-38.67-38.36l-.02-68.82c.33-3.19,2.69-5.27,5.54-5.23,2.8.16,4.92,2.21,5.22,5.42v70.17c1.14,15.37,14.19,26.71,29.12,26.17,15.23-.57,27.48-13.07,27.27-28.68v-67.57Z"/>
            </g>
          </g>
        </g>
        <g>
          <rect x="528" y="49.95" width="99.61" height="19.93"/>
          <polygon points="528 69.89 528 169.35 508.16 169.33 508.16 69.79 528 69.89"/>
          <polygon points="627.62 169.33 627.62 69.88 647.61 69.79 647.61 169.33 627.62 169.33"/>
          <polygon points="627.62 169.33 627.62 189.25 528 189.25 528 169.35 627.62 169.33"/>
          <ellipse cx="577.86" cy="119.55" rx="36.01" ry="35.98"/>
        </g>
      </g>
    </g>
  </g>
</svg>