<svg xmlns="http://www.w3.org/2000/svg" width="264" height="241" fill="none" viewBox="0 0 264 241"><path fill="#000" d="M124.954.01H.007v8.795h.146a13.56 13.56 0 0 1 6.706 1.785 13.6 13.6 0 0 1 4.954 4.874 13.67 13.67 0 0 1 .28 13.456l4.704 3.285a13.6 13.6 0 0 1 5.01-4.706 13.54 13.54 0 0 1 13.278.188 13.6 13.6 0 0 1 4.874 4.846 13.646 13.646 0 0 1-4.343 18.385 13.54 13.54 0 0 1-6.524 2.137v6.361h.045c3.572.001 7 1.414 9.54 3.934a13.64 13.64 0 0 1 4.028 9.524v95.14a13.64 13.64 0 0 1-3.99 9.599 13.55 13.55 0 0 1-9.581 3.974h-.042v6.362c2.32.141 4.565.878 6.52 2.139a13.6 13.6 0 0 1 4.643 5.066 13.65 13.65 0 0 1-.309 13.313 13.6 13.6 0 0 1-4.872 4.844 13.54 13.54 0 0 1-13.273.188 13.6 13.6 0 0 1-5.007-4.704l-4.711 3.288a13.66 13.66 0 0 1-.265 13.462 13.6 13.6 0 0 1-4.957 4.875 13.55 13.55 0 0 1-6.712 1.779H0V241h124.954C218.249 241 264 186.779 264 120.5 264 54.22 218.249 0 124.954 0zm.403 228.131h-1.6c-32.835 0-37.237-17.102-37.237-57.266V13.538h38.837c65.826 0 88.563 59.98 88.563 106.972 0 46.993-22.737 107.641-88.563 107.641"/><path fill="#000" d="M105.833 83.256a5 5 0 0 0-2.119.421 5.3 5.3 0 0 0-1.795 1.298 5.9 5.9 0 0 0-1.18 1.964 6.3 6.3 0 0 0-.374 2.312c.047 1.866.749 3.64 1.961 4.958l.654-.584a6.23 6.23 0 0 1-1.366-3.563c0-3.337 2.168-4.6 4.962-4.212v7.809c2.556.776 4.696-1.509 4.696-4.408 0-3.016-2.289-5.995-5.439-5.995m1.843 8.167v-5.377c1.456.453 2.421 1.651 2.421 3.043 0 2.138-1.456 2.692-2.421 2.334m-.071-18.063c1.548 0 2.497 2.125 2.497 3.167 0 1.58-1.051 2.16-2.671 2.16h-1.451c-2.642 0-2.904-.212-2.904-1.888h-.522v6.456h.522c0-2.01.424-2.406 2.904-2.406h1.573c2.122 0 3.719-.79 3.719-3.5 0-1.797-1.048-3.565-1.872-4.252 1.146-.428 1.872-1.37 1.872-3.227 0-1.772-.949-3.136-1.797-3.958a9 9 0 0 0 1.797-.517l-.627-4.05h-.522c0 2.01-.398 2.403-2.904 2.403h-1.248c-2.494 0-2.903-.394-2.903-2.402h-.523V67.8h.523c0-1.676.325-1.889 2.903-1.889h1.634c1.548 0 2.497 2.07 2.497 3.136 0 1.583-1.051 2.193-2.671 2.193h-1.451c-2.642 0-2.904-.245-2.904-1.92h-.522v5.966h.522c0-1.705.291-1.917 2.904-1.917zm-1.773-25.16c-3.003 0-5.469 2.96-5.469 6.573 0 3.612 2.466 6.572 5.469 6.572 3.002 0 5.44-2.964 5.44-6.572s-2.421-6.573-5.44-6.573m0 10.506c-2.38 0-4.31-1.234-4.31-3.933 0-2.7 1.93-3.938 4.31-3.938s4.309 1.268 4.309 3.938-1.933 3.933-4.309 3.933m13.548-30.224c0 2.404-.464 2.751-3.385 2.751h-9.455c-2.908 0-3.386-.337-3.386-2.751h-.609v7.85c0 6.743 3.927 9.677 8.727 9.677s8.727-2.927 8.727-9.677v-7.85zm-.464 7.88c0 5.648-4.248 6.865-7.651 6.865s-7.65-1.217-7.65-6.865v-.101c0-2.36.463-2.698 3.385-2.698h11.93zm16.285 79.991q1.143-.158 2.239-.523l-.778-4.094h-.654c0 2.031-.496 2.432-3.616 2.432h-1.551c-3.106 0-3.638-.401-3.638-2.432h-.651v6.773h.651c0-1.909.438-2.149 3.638-2.149h2.021c1.707 0 3.106 1.848 3.106 3.542 0 1.845-1.305 2.554-3.327 2.554h-1.808c-3.106 0-3.637-.43-3.637-2.432h-.651v7.049h.651c0-2.063.531-2.432 3.637-2.432h1.989c2.64 0 4.632-1.232 4.632-4.001a5.44 5.44 0 0 0-.618-2.397 5.5 5.5 0 0 0-1.62-1.883m-3.201-17.77c-3.003 0-5.47 2.468-5.47 5.478s2.467 5.477 5.47 5.477 5.439-2.467 5.439-5.477-2.422-5.477-5.439-5.477m0 8.76c-2.377 0-4.311-1.032-4.311-3.282s1.948-3.268 4.311-3.268 4.311 1.06 4.311 3.281-1.931 3.281-4.311 3.281m3.492-16.158h-5.747c-2.219 0-3.215 1-3.215 2.445 0 .868.682 2.023 1.655 2.75l.484-.446c-.629-.611-.994-1.222-.994-1.708 0-.84.712-1.183 2.076-1.183h5.748v2.286h.993v-2.267h3.129v-.917c-1.851-.184-3.073-.761-3.443-2.338h-.682zm-8.962-1.378h.592c0-2.124.484-2.533 3.309-2.533h1.793c2.405 0 4.214-.98 4.214-3.898 0-1.844-1.076-3.263-2.036-4.152h9.582l-.707-4.753h-.595c0 2.124-.477 2.504-3.29 2.504h-8.931c-2.826 0-3.309-.369-3.309-2.504h-.592v6.752h.592c0-1.744.368-1.999 3.309-1.999h1.839c1.608 0 2.826 1.844 2.826 3.422 0 1.648-1.188 2.408-3.027 2.408h-1.645c-2.911 0-3.309-.254-3.309-2.25h-.592z"/><path fill="#000" d="M136.233 70.912c.792-.764 1.221-1.746 1.207-2.76 0-2.181-1.94-3.99-4.323-3.99-1.718 0-3.117.91-3.883 2.251-.507-1.393-1.399-2.25-2.543-2.25-1.91 0-2.702 1.605-2.961 3.803-.256 2.25-.741 3.591-2.221 3.591-1.481 0-2.451-1.662-2.451-3.323 0-2.117 1.433-4.742 4.39-2.52l.348-.48c-2.036-3.294-5.978-1.527-5.978 3 0 2.625 1.622 4.742 4.261 4.742 1.939 0 3.816-1.179 4.168-4.876.092-.886.37-2.438 1.206-2.438.837 0 1.177 1.82 1.337 2.999.288 1.743 1.972 3.485 4.327 3.485.943-.001 1.858-.275 2.591-.776.285.214.467.51.51.83 0 1.097-1.528.426-1.432 1.605.063 1.072 2.669.966 2.669-.882-.091-.774-.521-1.491-1.207-2.011zm-3.102-.83c-1.85 0-3.275-.623-3.275-1.93 0-1.305 1.432-1.954 3.275-1.954 1.844 0 3.306.642 3.306 1.955 0 1.312-1.429 1.93-3.306 1.93m7.62-8.738c.214-.009.423-.145.599-.391.177-.247.313-.592.392-.993a4.3 4.3 0 0 0 .053-1.262 3.3 3.3 0 0 0-.304-1.11c-.154-.302-.348-.506-.559-.587s-.429-.034-.627.133-.367.448-.486.807-.182.78-.182 1.212c0 .291.03.58.087.848s.138.51.242.715c.104.203.226.364.361.472a.64.64 0 0 0 .424.156"/><path fill="#000" d="M126.556 63.536h.652c0-2.562.533-3.02 3.645-3.02h6.601l-.779-5.743h-.656c0 2.526-.496 3.02-3.623 3.02h-1.554c-3.112 0-3.645-.494-3.645-3.02h-.652z"/><path fill="#000" d="M135.526 54.773c.779 0 1.928-.79 1.928-2.59 0-1.312-.997-2.788-2.24-3.433.762-.112 1.512-.3 2.24-.56l-.776-4.372h-.656c0 2.163-.496 2.59-3.624 2.59h-1.555c-3.113 0-3.646-.427-3.646-2.59h-.652v7.514h.652c0-2.197.533-2.59 3.646-2.59h1.711c2.493 0 3.646 1.77 3.646 2.522a1 1 0 0 1-.279.78.9.9 0 0 1-.347.223.9.9 0 0 1-.403.046 1.1 1.1 0 0 0-.778.336 1.22 1.22 0 0 0-.342.808c0 1.018.779 1.312 1.45 1.312"/><path fill="#000" d="M143.4 28.482c0 2.486-.464 2.845-3.385 2.845h-9.455c-2.908 0-3.406-.349-3.406-2.845h-.609v8.897c0 4.163 2.183 6.44 4.888 6.44 2.096 0 3.897-1.528 4.594-3.836.786 1.395 2.096 2.34 3.609 2.34 2.414 0 4.363-1.98 4.363-5.784v-8.057zm-8.084 8.865c0 2.608-1.747 3.835-3.869 3.835-2.123 0-3.812-1.227-3.812-3.835v-.777c0-2.49.467-2.845 3.385-2.845h4.306zm7.62-.958c0 2.249-1.482 3.298-3.287 3.298s-3.26-1.046-3.26-3.298v-2.653h6.547z"/></svg>