<svg xmlns="http://www.w3.org/2000/svg" width="210" height="49" fill="none" viewBox="0 0 210 49"><g fill="#f6f5d6" clip-path="url(#a)"><path d="M208.585 42.972c.206.189.159.347.477.142-.064.41.318.52.429.694.175.268-.254.71.207.805l-.318.047c.095.49.063.742.62.726l-.731.458.206.252c-.413.063-.525.363-.318.726l-1.145.11.62.048c-.047.142-.302.552-.413.615-.127.063-.35-.19-.318.158-.429-.473-.795-.031-1.145-.031-.413 0-.874-.3-1.351-.174.222-.379-.096-.52-.318-.221-.048.063.079.268-.112.221-.063-.174-.016-.426-.063-.568-.175-.6-.334-.142-.509-.363-.016-.032.048-.142.016-.19-.112-.142-.573-.205-.7-.378l.414-.048-.223-.505-.286.08c-.032-.285-.493-.269-.271-.506.128-.015.366.363.462.048.063-.19-.207-.142-.207-.206-.048-.33.238-.33.413-.52l-.206-.363.938-.41-.302-.569.318-.157-.207-.41c.636.283.906-.206 1.463-.364a2.3 2.3 0 0 1 1.558.11c.27.127.763.522.986.727"/><path d="M208.585 42.972c.206.189.159.347.477.142-.064.41.318.52.429.694.175.268-.254.71.207.805l-.318.047c.095.49.063.742.62.726l-.731.458.206.252c-.413.063-.525.363-.318.726l-1.145.11.62.048c-.047.142-.302.552-.413.615-.127.063-.35-.19-.318.158-.429-.473-.795-.031-1.145-.031-.413 0-.874-.3-1.351-.174.222-.379-.096-.52-.318-.221-.048.063.079.268-.112.221-.063-.174-.016-.426-.063-.568-.175-.6-.334-.142-.509-.363-.016-.032.048-.142.016-.19-.112-.142-.573-.205-.7-.378l.414-.048-.223-.505-.286.08c-.032-.285-.493-.269-.271-.506.128-.015.366.363.462.048.063-.19-.207-.142-.207-.206-.048-.33.238-.33.413-.52l-.206-.363.938-.41-.302-.569.318-.157-.207-.41c.636.283.906-.206 1.463-.364a2.3 2.3 0 0 1 1.558.11c.27.127.763.522.986.727m-74.606-11.773c.254.142.413-.11.175.49l.222.11-.207.884h.827c-.143.331-.524 1.026-.588 1.341-.08.379-.032.284-.127.6-.143.473-.112.631.095 1.057-.429-.126-1.177.395-.525.52.08.316-.174.143-.286.222-.175.126-.047.505-.127.694h.318c-.159.568-.382.3-.843.316l.589.363c-.159.394-.048.868-.493 1.041l.222.568-.318-.205.112.316h-.318l.318.615c-1.002-.363-.462 1.215-1.559.931l.302.348-.508.473.62.158c-.239.284-.748.079-.859.442l-.191-.08.112.522c-.652-.142-.636.331-.986.615-.445.363-.668.142-.922.221-.144.047-.144.3-.223.316-.191.031-.302-.158-.429-.19-.112-.016-.255.08-.366.048-.636-.174-.811-.679-1.209-1.01-.222-.19-.413-.095-.429-.11-.016-.032-.143-.332-.286-.538-.08-.11-.08-.284-.191-.394-.127-.11-.35.047-.366.016-.016-.032.032-.237 0-.332-.047-.142-.365-.473-.445-.615-.238-.379-.493-.773-.604-1.215l-.413-.047.302-.206c-.477-.205-.191-.773-.255-.883-.238-.41-1.129-.569-.684.205-.254-.048-.508-.158-.731.047l.731.205c-.27.221-.508.505-.524.884.063.063.827-.363.731.11h-.366c0 .332-.445.616-.508.726-.032.048.016.474-.048.679-.159.473-.7.789-.795.978-.08.206-.016.442-.111.616-.096.173-.43.205-.557.489-.159.379.064 1.057-.429.963.159.363-.318.52-.318.552s.159.11.159.205c0 .032-.207.553-.223.568-.079.11-.27.095-.35.174-.381.347-.652.742-1.224.726-.334 0-1.065-.284-1.288-.521-.064-.079 0-.205-.032-.237-.27-.347-.636-.489-.381-1.057l-.302-.047c.461-.3.54-.442.524-.979h-.318l.207-.205h-.191l.096-.205-.318-.11c.842-.095.683-.648.954-1.153 0-.031.302-.457.318-.473.111-.11.429-.063.556-.237.318-.457-.27-1.01-.159-1.136l.414.205v-.3h.413l-.207-.552.509-.268-.318-.158.207-.253-.414-.11c.525.095.366-.126.541-.347.207-.269.572-.458 0-.537.064-.094.238-.11.286-.19.223-.346.35-.615.652-.946.302-.347.763-.694.827-1.136l-.207.047.223-.268-.111-.49.318-.22-.318-.253h.318l-.08-.158c.207-.078.191-.615.175-.883l.62.205c.048-.41-.382.031-.318-.474.016-.189.175-.126.191-.205.016-.11-.127-.426-.032-.568h.366c-.414-.49.986-.71 1.304-.71.127 0 1.001.237 1.113.3.365.173.445.915.524 1.01.096.126.986.19.191.6.223.583.541 1.136.763 1.704.08.205.048.631.271.663-.35.441-.159.868.413.678.111.269-.191.158-.207.269-.079.33 0 1.262.477 1.246.112 0 .175-.236.366-.173l-.207.252.287.174v.236l-.191.253h.413l-.302.252c.08.348.414.41.302.79h.318c-.095-.569.302-.932.827-.932l-.62-.41 1.145-.316v-.315l-.318-.095c.238 0 .493.095.54-.174l.191.08v-.616c-.206 0-.365.079-.318-.205h.414c.127-.9.127-1.768 1.256-1.657l-.382-.568.589-.474-.096-.805.318.095v-.3l-.413-.22c.175-.08.652-.443.731-.569.207-.3.143-1.057.732-.773v-.41c.286.11.667-.11.89-.316.08-.031.032.142.08.174"/><path d="M133.963 31.183c.254.142.413-.11.175.49l.222.11-.207.884h.827c-.143.331-.524 1.026-.588 1.341-.08.379-.032.284-.127.6-.143.473-.112.631.095 1.057-.429-.126-1.177.395-.525.52.08.316-.174.143-.286.222-.175.126-.047.505-.127.694h.318c-.159.568-.382.3-.843.316l.589.363c-.159.394-.048.868-.493 1.041l.222.568-.318-.205.112.316h-.318l.318.615c-1.002-.363-.462 1.215-1.559.931l.302.348-.508.473.62.158c-.239.284-.748.079-.859.442l-.191-.08.112.522c-.652-.142-.636.331-.986.615-.445.363-.668.142-.922.221-.144.047-.144.3-.223.316-.191.031-.302-.158-.429-.19-.112-.016-.255.08-.366.048-.636-.174-.811-.679-1.209-1.01-.222-.19-.413-.095-.429-.11-.016-.032-.143-.332-.286-.538-.08-.11-.08-.284-.191-.394-.127-.11-.35.047-.366.016-.016-.032.032-.237 0-.332-.047-.142-.365-.473-.445-.615-.238-.379-.493-.773-.604-1.215l-.413-.047.302-.206c-.477-.205-.191-.773-.255-.883-.238-.41-1.129-.569-.684.205-.254-.048-.508-.158-.731.047l.731.205c-.27.221-.508.505-.524.884.063.063.827-.363.731.11h-.366c0 .332-.445.616-.508.726-.032.048.016.474-.048.679-.159.473-.7.789-.795.978-.08.206-.016.442-.111.616-.096.173-.43.205-.557.489-.159.379.064 1.057-.429.963.159.363-.318.52-.318.552s.159.11.159.205c0 .032-.207.553-.223.568-.079.11-.27.095-.35.174-.381.347-.652.742-1.224.726-.334 0-1.065-.284-1.288-.521-.064-.079 0-.205-.032-.237-.27-.347-.636-.489-.381-1.057l-.302-.047c.461-.3.54-.442.524-.979h-.318l.207-.205h-.191l.096-.205-.318-.11c.842-.095.683-.648.954-1.153 0-.031.302-.457.318-.473.111-.11.429-.063.556-.237.318-.457-.27-1.01-.159-1.136l.414.205v-.3h.413l-.207-.552.509-.268-.318-.158.207-.253-.414-.11c.525.095.366-.126.541-.347.207-.269.572-.458 0-.537.064-.094.238-.11.286-.19.223-.346.35-.615.652-.946.302-.347.763-.694.827-1.136l-.207.047.223-.268-.111-.49.318-.22-.318-.253h.318l-.08-.158c.207-.078.191-.615.175-.883l.62.205c.048-.41-.382.031-.318-.474.016-.189.175-.126.191-.205.016-.11-.127-.426-.032-.568h.366c-.414-.49.986-.71 1.304-.71.127 0 1.001.237 1.113.3.365.173.445.915.524 1.01.096.126.986.19.191.6.223.583.541 1.136.763 1.704.08.205.048.631.271.663-.35.441-.159.868.413.678.111.269-.191.158-.207.269-.079.33 0 1.262.477 1.246.112 0 .175-.236.366-.173l-.207.252.287.174v.236l-.191.253h.413l-.302.252c.08.348.414.41.302.79h.318c-.095-.569.302-.932.827-.932l-.62-.41 1.145-.316v-.315l-.318-.095c.238 0 .493.095.54-.174l.191.08v-.616c-.206 0-.365.079-.318-.205h.414c.127-.9.127-1.768 1.256-1.657l-.382-.568.589-.474-.096-.805.318.095v-.3l-.413-.22c.175-.08.652-.443.731-.569.207-.3.143-1.057.732-.773v-.41c.286.11.667-.11.89-.316.08-.031.032.142.08.174m-28.288-1.152-.111.205c.413-.126.429.205.556.284.255.174.318.063.732.41.254.205.525 0 .27.663.525-.205.493.048.763.268.08.064.255.048.334.142.255.316 0 1.231.843 1.247l-.064.316.318-.11.255 1.546h.366l-.112.363.223.158c-.286-.048-.334.047-.414.3l.509.425c-.191 0-.731.537-.731.584 0 .127.143.237.159.348.079.9-.239.662-.652 1.215-.239.3-.334.757-.461.93-.191.253-.477.459-.62.774-.128.284-.159.616-.302.884l-.811.237.206.457c-.143.174-.397.08-.318.363.096-.016.175-.063.271-.031.302.126 1.224.473.97.852l-.207-.11c.095.252.048.315-.111.52.27.079.27-.3.365-.316.398-.063.382.442.668.474l.429-.221.207.473-.731.158c.111.221.365.047.397.08.096.062.112.41.541.299l.063.3.668-.048.096.269c-.175-.08-.573 0-.62.205.413.079.492.284.683.615.032.016.08-.426.255-.205.079.095-.223.379.047.52.144-.283.35-.394.684-.41.096.332-.509.364-.525.474.207.6.366.773-.095 1.278l.413.205-.524.253.524-.047c.08.647-.429.284-.636.363-.095.031-.636.489-.508.662l-.112-.205h-.206l-.016.174c-.461-.158-.414.158-.764.331l-.254-.52h.413c-.206-.316-.636-.158-1.049-.348-.159-.079-.541-.426-.684-.568l-1.383-.205c-.08-.316.318-.268.525-.316l-.366-.205.159-.158-.318-.047c-.08-.363.382-.19.413-.41-.493.142-.493-.3-.938-.205v-.316l.318-.11c-.302 0-.556-.158-.827-.253-.095-.032-.27.032-.318 0-.111-.079-.222-.552-.413-.726-.175-.158-.382-.142-.525-.316l.62-.362c-.365-.269-.954-.285-1.272-.427-.191-.079-.524-.426-.652-.52-.159-.11-.349-.048-.413-.3l-.779.205c0-.142-.048-.268.095-.363.175-.11.509.063.525-.158-.429.063-.636-.031-.938-.315l-.207.315c-.032-.331.175-.694-.032-1.01-.047-.063-.206-.079-.254-.205-.175-.505.159-.552.175-.631 0-.048-.048-.142-.016-.237.048-.158.286-.868.334-.884l.461.063c.207-.394.254-.489.763-.505.525-.015 1.892.19 2.29 0 .238-.11.54-.583.874-.536l-.095-.52.684-.095c.238-.174 0-.38.063-.505.112-.206.605-.032.207-.79l.191-.11-.111-.363h.318l-.207-.158v-.252c.858-.063-.429-.363 0-.82h-.318l.207-.411h-.732c-.048-.82-.668-.916-1.399-.71-.477.126-.906.426-1.24.584-.159.078-.446-.221-.509.536-.366-.19-.684.237-.938.474l.318.157-.414.206.318.252c-.477.205-1.097.142-.954.868-.381-.047-.62.584-.509.836l-1.351.679v.158c.35.016.334.284.318.568l-.318.047.111.41h-.318l.207.41h-.414l.207.727h-.302l-.334.978.207.095c-.509.426-.445.994-.732 1.562l.318.11c0 .206-.27.269-.302.442-.031.127.096.269.064.332 0 .032-.398.11-.302.568l.222.158c-.365.19-.683.584-1.113.694-.27.063-.747-.063-1.001-.047-.096 0-.223.142-.334.158-.096 0-1.082-.616-.78-.063h-.317v-.41l-.319.204c-.286-.363-.031-.584-.063-.804-.064-.316-.525-.805-.525-.916 0-.205.509-.489-.032-.978l.318-.253-.206-.568.206.048c-.238-.837.239-.41.318-.458.064-.047.064-1.436.525-1.515l-.111-.347.206.047c-.174-.536.255-1.468.939-1.184l.111-.615-.525-.158c.334-.331.477-.726.414-1.183l-.462.41.175-.82h.414v-.632h.286l-.095-.663c.35-.157.27-.252.318-.568-.096-.063-.398.127-.302-.205l.572-.095.254-.268-.572.158-.048-.205c.461-.284.986-.82 1.543-.915.365-.064 1.32-.032 1.43.394.366-.268.43-.6.891-.458l.096-.363c.35.38.445.048.699.016.239-.031.541.095.795-.016.112-.047.048-.22.096-.284.095-.094.254-.126.349-.236.207-.253.287-.726.811-.616.223.047.064.41.271.395.111-.537.572-.553.954-.758.143-.063.191-.268.254-.268.223-.047.461.032.684 0 .032 0 .429-.395.461-.41.238-.048.525.015.763 0"/><path d="m105.691 30.079-.111.205c.413-.126.429.205.556.284.255.174.318.063.732.41.254.205.525 0 .27.663.525-.205.493.048.763.268.08.064.255.048.334.142.255.316 0 1.231.843 1.247l-.064.316.318-.11.255 1.546h.366l-.112.363.223.158c-.286-.048-.334.047-.414.3l.509.425c-.191 0-.731.537-.731.584 0 .127.143.237.159.348.079.9-.239.662-.652 1.215-.239.3-.334.757-.461.93-.191.253-.477.459-.62.774-.128.284-.159.616-.302.884l-.811.237.206.457c-.143.174-.397.08-.318.363.096-.016.175-.063.271-.031.302.126 1.224.473.97.852l-.207-.11c.095.252.048.315-.111.52.27.079.27-.3.365-.316.398-.063.382.442.668.474l.429-.221.207.473-.731.158c.111.221.365.047.397.08.096.062.112.41.541.299l.063.3.668-.048.096.269c-.175-.08-.573 0-.62.205.413.079.492.284.683.615.032.016.08-.426.255-.205.079.095-.223.379.047.52.144-.283.35-.394.684-.41.096.332-.509.364-.525.474.207.6.366.773-.095 1.278l.413.205-.524.253.524-.047c.08.647-.429.284-.636.363-.095.031-.636.489-.508.662l-.112-.205h-.206l-.016.174c-.461-.158-.414.158-.764.331l-.254-.52h.413c-.206-.316-.636-.158-1.049-.348-.159-.079-.541-.426-.684-.568l-1.383-.205c-.08-.316.318-.268.525-.316l-.366-.205.159-.158-.318-.047c-.08-.363.382-.19.413-.41-.493.142-.493-.3-.938-.205v-.316l.318-.11c-.302 0-.556-.158-.827-.253-.095-.032-.27.032-.318 0-.111-.079-.222-.552-.413-.726-.175-.158-.382-.142-.525-.316l.62-.362c-.365-.269-.954-.285-1.272-.427-.191-.079-.524-.426-.652-.52-.159-.11-.349-.048-.413-.3l-.779.205c0-.142-.048-.268.095-.363.175-.11.509.063.525-.158-.429.063-.636-.031-.938-.315l-.207.315c-.032-.331.175-.694-.032-1.01-.047-.063-.206-.079-.254-.205-.175-.505.159-.552.175-.631 0-.048-.048-.142-.016-.237.048-.158.286-.868.334-.884l.461.063c.207-.394.254-.489.763-.505.525-.015 1.892.19 2.29 0 .238-.11.54-.583.874-.536l-.095-.52.684-.095c.238-.174 0-.38.063-.505.112-.206.605-.032.207-.79l.191-.11-.111-.363h.318l-.207-.158v-.252c.858-.063-.429-.363 0-.82h-.318l.207-.411h-.732c-.048-.82-.668-.916-1.399-.71-.477.126-.906.426-1.24.584-.159.078-.446-.221-.509.536-.366-.19-.684.237-.938.474l.318.157-.414.206.318.252c-.477.205-1.097.142-.954.868-.381-.047-.62.584-.509.836l-1.351.679v.158c.35.016.334.284.318.568l-.318.047.111.41h-.318l.207.41h-.414l.207.727h-.302l-.334.978.207.095c-.509.426-.445.994-.732 1.562l.318.11c0 .206-.27.269-.302.442-.031.127.096.269.064.332 0 .032-.398.11-.302.568l.222.158c-.365.19-.683.584-1.113.694-.27.063-.747-.063-1.001-.047-.096 0-.223.142-.334.158-.096 0-1.082-.616-.78-.063h-.317v-.41l-.319.204c-.286-.363-.031-.584-.063-.804-.064-.316-.525-.805-.525-.916 0-.205.509-.489-.032-.978l.318-.253-.206-.568.206.048c-.238-.837.239-.41.318-.458.064-.047.064-1.436.525-1.515l-.111-.347.206.047c-.174-.536.255-1.468.939-1.184l.111-.615-.525-.158c.334-.331.477-.726.414-1.183l-.462.41.175-.82h.414v-.632h.286l-.095-.663c.35-.157.27-.252.318-.568-.096-.063-.398.127-.302-.205l.572-.095.254-.268-.572.158-.048-.205c.461-.284.986-.82 1.543-.915.365-.064 1.32-.032 1.43.394.366-.268.43-.6.891-.458l.096-.363c.35.38.445.048.699.016.239-.031.541.095.795-.016.112-.047.048-.22.096-.284.095-.094.254-.126.349-.236.207-.253.287-.726.811-.616.223.047.064.41.271.395.111-.537.572-.553.954-.758.143-.063.191-.268.254-.268.223-.047.461.032.684 0 .032 0 .429-.395.461-.41.238-.048.525.015.763 0m65.957.189c.398.142.779.11 1.177 0 .111-.032.032-.221.334-.205.238 0 .652.805.938-.3l-.048.52c.684-.11 1.129.269 1.797.174.175-.016.318-.173.557-.19.397 0 .62.38 1.097.111.175.553.747 1.405 1.351 1.547-.238.126-.095.489-.111.505-.08.11-.636 0-.509.315.461-.284.477.032.557.08.175.078.429-.048.381.236l.414-.205v.316c-1.018-.032-.7.473-1.034.994-.032.047-.7.726-.747.757-.016 0-.239-.063-.382-.016-.27.08-.509.221-.795.237l-.111.316c-.143-.426-.668-.316-.573-.726-.222.126-.381.22-.667.205-.191 0-.859-.063-1.034-.11-.111-.016 0-.316-.27-.206l.318.363-.62.363.62-.094v.315c-.382-.19-.445.237-.732.363l.318.316-.413.363.413.205c-.238-.032-.445.41-.413.568.064.347.731-.19.62.268l-.62.11.111.206h-.509l-.318 1.184c.143.11.271 0 .207.268h-.318v.268l.207.158-.414-.11c-.127.283.191.3.207.378.095.568-.382.49-.572 1.073-.143.49.143.395.159.41.031.032-.398.49-.096.821-.652.08-.429.363-.413.82.238-.03.445-.204.62.048l-.557.268c-.238.127.334.474.43.49.27.063.524-.174.747-.032l-.7.458c-.174.094-.111-.174-.206-.19-.43-.11-.907.063-.875.521l.318.11c-.461-.078-.35.316-.429.395-.08.063-.461.032-.588.142v.505c-.382.032-.716-.158-1.098-.095-.365.048-1.129.647-1.415.206l1.145-.363-.413.047c-.096-.268.191-.49.191-.679.047-.694-.637.048-.827-.615l.302.047-.048-.82-.366-.095-.206.205v-.3l.413-.22c-.286.047-.334-.064-.413-.316l.413.11.111-.363-.413-.11c.509-.174.159-.805.827-.773l-.318-.095.095-.3-.191-.063c.064-.142.398-.221.414-.332.063-.268.032-.915.111-1.199.016-.079.207-.063.207-.11 0-.08-.191-.332-.207-.427 0-.047.159-.047.207-.11.127-.237.127-.537.413-.71l-.556-.253-.064-.205c.525-.015.302-.473.334-.505.016-.031.223-.063.302-.157.111-.174.143-.395.302-.521l-.524-.316c.365-.3.651-.537 1.144-.363l-.206-.158.206-.205c-.175-.031-.302-.331-.334-.347-.047-.016-.413.22-.302-.063.032-.095.493-.726.541-.758.111-.047.509.127.604-.236-.334.063-.54.189-.874 0-.096-.063-.032-.284-.334-.206-.048 0-.048.174-.112.19-.286.079-.715.094-.572-.284l-1.67.11-.047-.315c-.7.236-1.113-.521-1.924 0l.095.505h-.207c-.031-.537-.779-.821-1.256-.821l.048-.205.366-.047c-.112-.316-.08-.348-.414-.427-.175-.441.318-1.073.716-1.167.207-.048.413.126.556.047.08-.047.668-.742.859-.852.477-.268.986-.016 1.145-.126l.238-.427c.446.19.764 0 1.145 0 .461 0 .97.111 1.431 0 .112-.031 0-.284.223-.205l.159.206v-.174c.079-.063.541-.047.668-.016.047 0 .127.347.381.205.032-.015-.095-.394.414-.52l-.207.52z"/><path d="M171.648 30.284c.398.142.779.11 1.177 0 .111-.032.032-.221.334-.205.238 0 .652.805.938-.3l-.048.52c.684-.11 1.129.269 1.797.174.175-.016.318-.173.557-.19.397 0 .62.38 1.097.111.175.553.747 1.405 1.351 1.547-.238.126-.095.489-.111.505-.08.11-.636 0-.509.315.461-.284.477.032.557.08.175.078.429-.048.381.236l.414-.205v.316c-1.018-.032-.7.473-1.034.994-.032.047-.7.726-.747.757-.016 0-.239-.063-.382-.016-.27.08-.509.221-.795.237l-.111.316c-.143-.426-.668-.316-.573-.726-.222.126-.381.22-.667.205-.191 0-.859-.063-1.034-.11-.111-.016 0-.316-.27-.206l.318.363-.62.363.62-.094v.315c-.382-.19-.445.237-.732.363l.318.316-.413.363.413.205c-.238-.032-.445.41-.413.568.064.347.731-.19.62.268l-.62.11.111.206h-.509l-.318 1.184c.143.11.271 0 .207.268h-.318v.268l.207.158-.414-.11c-.127.283.191.3.207.378.095.568-.382.49-.572 1.073-.143.49.143.395.159.41.031.032-.398.49-.096.821-.652.08-.429.363-.413.82.238-.03.445-.204.62.048l-.557.268c-.238.127.334.474.43.49.27.063.524-.174.747-.032l-.7.458c-.174.094-.111-.174-.206-.19-.43-.11-.907.063-.875.521l.318.11c-.461-.078-.35.316-.429.395-.08.063-.461.032-.588.142v.505c-.382.032-.716-.158-1.098-.095-.365.048-1.129.647-1.415.206l1.145-.363-.413.047c-.096-.268.191-.49.191-.679.047-.694-.637.048-.827-.615l.302.047-.048-.82-.366-.095-.206.205v-.3l.413-.22c-.286.047-.334-.064-.413-.316l.413.11.111-.363-.413-.11c.509-.174.159-.805.827-.773l-.318-.095.095-.3-.191-.063c.064-.142.398-.221.414-.332.063-.268.032-.915.111-1.199.016-.079.207-.063.207-.11 0-.08-.191-.332-.207-.427 0-.047.159-.047.207-.11.127-.237.127-.537.413-.71l-.556-.253-.064-.205c.525-.015.302-.473.334-.505.016-.031.223-.063.302-.157.111-.174.143-.395.302-.521l-.524-.316c.365-.3.651-.537 1.144-.363l-.206-.158.206-.205c-.175-.031-.302-.331-.334-.347-.047-.016-.413.22-.302-.063.032-.095.493-.726.541-.758.111-.047.509.127.604-.236-.334.063-.54.189-.874 0-.096-.063-.032-.284-.334-.206-.048 0-.048.174-.112.19-.286.079-.715.094-.572-.284l-1.67.11-.047-.315c-.7.236-1.113-.521-1.924 0l.095.505h-.207c-.031-.537-.779-.821-1.256-.821l.048-.205.366-.047c-.112-.316-.08-.348-.414-.427-.175-.441.318-1.073.716-1.167.207-.048.413.126.556.047.08-.047.668-.742.859-.852.477-.268.986-.016 1.145-.126l.238-.427c.446.19.764 0 1.145 0 .461 0 .97.111 1.431 0 .112-.031 0-.284.223-.205l.159.206v-.174c.079-.063.541-.047.668-.016.047 0 .127.347.381.205.032-.015-.095-.394.414-.52l-.207.52zm18.445-.615c-.016.394.461.252.588.41l-.063.426.365-.52.414.41.047-.316h.414l-.207.205 2.019.079.382-.284.064.205h1.176l.048-.205c.239.568.572 0 .731 0 .446-.063.318.205.525.22.334.032.191-.189.414-.22.302-.032 1.113-.095 1.16.22l.128-.204c.19-.11.826.284.922.426.111.142.111.426.222.615.175.3.621.316.573.726l.413-.11c0 .315-.381.252-.318.662.032.19.445-.047.318.206-.079.173-.365.236-.397.268-.016.031.079.173.032.284-.064.142-.446.884-.493.915-.144.095-1.32.41-1.511.41-.636.032-1.367-.063-2.067.016-.27.032-.398.205-.716.221-.524.032-.842-.331-1.431-.095-.318.127-.445.442-.079.553l-.111.6.206.063v.157c-.365.095-.143.332-.206.6-.016.079-.207.063-.207.126 0 .11.111.269.095.332 0 .031-.556.22-.254.6.048.063.238-.032.175.189-.573.063-.286.378-.35.694-.08.49-.207.947-.191 1.484l.223.252-.62-.095c.127.19-.08.363-.064.458.095.836 0 .52-.127 1.262-.096.537.127 1.058.175 1.579-.318-.284-.923.568-.779.725l.477.3c-.303.048-.509.063-.621.363l.621.569-.827-.316c.222.379-.159.726-.525.726l.207.158c.032.3-.414.41 0 .773-.286-.032-.223.19-.207.41-.318.063-.302-.316-.207-.52l-1.033.205c.111-.316-.239-.584-.509-.71-.064-.032-.239.015-.318-.032-.111-.08 0-.521-.429-.395l.111-.41c-.159.032-.827-.11-.827-.268s.302-.142.414-.048l-.318-.41h.413c-.366-.284-.08-.6-.111-.773-.032-.174-.414-.095-.302-.363l.318.047.143-.158c.175-.363-.175-.978.365-1.041l-.238-.095-.064-.205.175-.047-.079-.158h.318c-.159-.11-.112-.379-.128-.395-.111-.126-.477 0-.397-.331l.413.11c-.063-.536.859-.789-.111-1.089.588-.236.318-.189.413-.6 0-.015.064-.062.128-.33.127-.553.238-1.39.811-1.61.031-.363-.35-.316-.621-.316 0-.268.382-.505.398-.536.016-.048-.111-.237-.064-.426.08-.38.414-.884.446-1.31 0-.158-.191-.38-.048-.632l-.207-.094.62-.205c-.159-.08-.572.015-.668 0-.079-.016-.063-.19-.143-.206-.19-.031-.508.127-.811.11-.492-.047-1.144-.41-1.494-.488-.223-.048-.541.19-.763-.174l.206-.158-.206-.047.318-.363c-.271-.11-.398-.032-.621.11v-.615l-.174.22-.557-.11c-.079-.41.668-.205.795-.41.127-.22-.127-.426.366-.473l.143-.553c.159.348 1.018-.11.89-.41l.255.205.334-.41c.413.032 1.144.126 1.526 0 .095-.032.08-.126.08-.205l.111.126.413.079-.413-.568.207-.047z"/><path d="M190.093 29.669c-.016.394.461.252.588.41l-.063.426.365-.52.414.41.047-.316h.414l-.207.205 2.019.079.382-.284.064.205h1.176l.048-.205c.239.568.572 0 .731 0 .446-.063.318.205.525.22.334.032.191-.189.414-.22.302-.032 1.113-.095 1.16.22l.128-.204c.19-.11.826.284.922.426.111.142.111.426.222.615.175.3.621.316.573.726l.413-.11c0 .315-.381.252-.318.662.032.19.445-.047.318.206-.079.173-.365.236-.397.268-.016.031.079.173.032.284-.064.142-.446.884-.493.915-.144.095-1.32.41-1.511.41-.636.032-1.367-.063-2.067.016-.27.032-.398.205-.716.221-.524.032-.842-.331-1.431-.095-.318.127-.445.442-.079.553l-.111.6.206.063v.157c-.365.095-.143.332-.206.6-.016.079-.207.063-.207.126 0 .11.111.269.095.332 0 .031-.556.22-.254.6.048.063.238-.032.175.189-.573.063-.286.378-.35.694-.08.49-.207.947-.191 1.484l.223.252-.62-.095c.127.19-.08.363-.064.458.095.836 0 .52-.127 1.262-.096.537.127 1.058.175 1.579-.318-.284-.923.568-.779.725l.477.3c-.303.048-.509.063-.621.363l.621.569-.827-.316c.222.379-.159.726-.525.726l.207.158c.032.3-.414.41 0 .773-.286-.032-.223.19-.207.41-.318.063-.302-.316-.207-.52l-1.033.205c.111-.316-.239-.584-.509-.71-.064-.032-.239.015-.318-.032-.111-.08 0-.521-.429-.395l.111-.41c-.159.032-.827-.11-.827-.268s.302-.142.414-.048l-.318-.41h.413c-.366-.284-.08-.6-.111-.773-.032-.174-.414-.095-.302-.363l.318.047.143-.158c.175-.363-.175-.978.365-1.041l-.238-.095-.064-.205.175-.047-.079-.158h.318c-.159-.11-.112-.379-.128-.395-.111-.126-.477 0-.397-.331l.413.11c-.063-.536.859-.789-.111-1.089.588-.236.318-.189.413-.6 0-.015.064-.062.128-.33.127-.553.238-1.39.811-1.61.031-.363-.35-.316-.621-.316 0-.268.382-.505.398-.536.016-.048-.111-.237-.064-.426.08-.38.414-.884.446-1.31 0-.158-.191-.38-.048-.632l-.207-.094.62-.205c-.159-.08-.572.015-.668 0-.079-.016-.063-.19-.143-.206-.19-.031-.508.127-.811.11-.492-.047-1.144-.41-1.494-.488-.223-.048-.541.19-.763-.174l.206-.158-.206-.047.318-.363c-.271-.11-.398-.032-.621.11v-.615l-.174.22-.557-.11c-.079-.41.668-.205.795-.41.127-.22-.127-.426.366-.473l.143-.553c.159.348 1.018-.11.89-.41l.255.205.334-.41c.413.032 1.144.126 1.526 0 .095-.032.08-.126.08-.205l.111.126.413.079-.413-.568.207-.047zm-39.052-.427c.239.253 1.384.458 1.749.331.032.285 0 .253-.206.363.159.38.493.348.636.506.095.11.063.315.111.363.016.015.27-.127.525.157.063.08 0 .19.031.237 0 .016.382.11-.047.284-.159.063-.318-.126-.414 0 .239.316.509.174.827.158.159.237-.334.205-.207.316.191.157.525.094.414.615l-.254-.095-.048.205c.381-.047.699.063.938.363l-.318.048c.095.363.095.947.223 1.278.063.142.222.142.254.205.079.158.032.41.223.537l-.827.52.286.316-.493.253.207.157c-.271.206-.589.206-.62.616l1.971.568c-.652.079-2.051-.615-2.496-.158-.239.253-.191.237-.509.52-.127.111-.874.79-.938.822-.048.015-.7 0-.97.078-.159.048-.239.237-.35.253-.175.032-.62-.174-.874-.079l.047.41-.254.08c-.286-.616-.35.189-.493.22-.239-.095-.334-.237-.62-.22-.191 0-.143.189-.223.22-.413.11-.334-.19-.445-.252-.159-.11-.89.047-.922.205l.079.363-.524-.205v.41c-.334.126-.287-.221-.509-.253-.159-.031-.35.064-.557.032-.842-.174-1.447-.552-1.812-1.326l-.621.316.159.458-.318.268.732.047.35.79.111-.222c.27.142.668-.094.763.206l-.318.063-.111.615.207.11.508-.062v.52l.318-.205c-.159.852.764.49.827.52.032.032.112.364.334.458s.445 0 .652.08c.191.047.445.441.763.552.652.236 1.527.236 2.147.347.064 0 .731.742.986.805.318.094.874-.142 1.256.205l1.272.079-.604.3c.095.426.191.457.604.52l-.477.363.064.316-.414.158c.207.094.239.079.207.363-.445-.142-.477.173-.732.236-.174.048-1.749.08-1.939.048-.207-.032-.303-.205-.446-.237-.175-.047-.461.11-.683-.047-.128.126.238.331-.112.315-.127 0-1.192-.284-1.319-.331-.207-.079-.303-.331-.462-.379-.238-.063-.747.316-1.065.19l.111-.41c-.54.063-.779-.348-1.256-.206l-.063-.315h-.668l.207-.253c-.318-.568-.684-.032-.891-.568-.525.49-.874-.047-.684-.616h-.413l.111-.205h-.62c.175-.331-.413-.962-.7-1.12-.159-.079-.445-.079-.524-.158-.048-.032-.239-1.073-.748-.915l.112-.41.365.205c.175-.316-.318-.348-.572-.316l.207-.316h-.286l-.239-.568.207-.11v-.158l-.318-.158.206-.315-.524-.158c.143-.253.365 0 .413-.41l-.62-.269.318-.11c-.064-.269.064-.568.064-.805 0-.158-.175-.332-.159-.52.031-.27.238-.332-.032-.79.795.11.35-1.105.413-1.136.048-.032.207.047.286-.032.287-.236.636-1.31 1.05-1.594.207-.142.461-.126.509-.173.016-.016.254-.347.334-.442.095-.11.063-.3.159-.379.27-.205.747.047.763 0-.048-.41.302-.915.731-.726l-.318-.41c.318-.142.7-.49.732-.82.238.094-.159.71.302.615l-.112-.41c.334.078.35-.253.557-.332.302-.11.668-.047.986-.158.111-.047.366-.457.62-.52.191-.064.397 0 .572-.048.382-.126.843-.284 1.177-.49h.143v.206l.175-.205c.382.11.747-.142 1.05-.174.492-.047 1.51.38 1.176-.441.414-.064.318.378.334.394m-1.654 3.204s-.063-.19-.143-.221c-.238-.127-.509-.174-.715-.38l.318.458-.414.158.112.316c-.239-.032-.652-.063-.859 0-.111.032-.111.22-.254.284-.175.079-.477.047-.636.158-.08.063-.096.268-.239.331-.207.11-.509.032-.731.048l.206.252c-.572.41-1.001.71-1.765.474l.318.615-.731.047.318.048.111.52c-.254.032-.747 0-.731.316-.032.032-.366-.331-.525-.205-.111.095.445.584.414.615-.159.127-1.002.6-.207.616.032.205-.223.047-.302.11-.207.19-.048 1.152.095 1.436l-.461-.205-.048.205c.334.348 1.256.221 1.209-.315-.032-.347-.207-.742-.589-.521l.112-.52c.54.315.683.141 1.113-.238.143-.126.095-.189.445-.441.08-.063.095-.237.191-.253.222-.047 1.113 0 1.272.221v-.41c.381.252 1.177.584 1.145-.11.493.252 1.081.236 1.606.204.461-.031 1.176-.015 1.208-.615l.827.095c.048-.442.556-.774.525-1.168l.318-.063c.032-.158-.143-.08-.207-.174-.111-.158-.08-.442-.413-.442l.238-.094.08-.253-.287-.173.08-.19c-.318.063-.35-.237-.493-.316-.239-.142-.731-.031-.763-.52h-.159c-.048.205-.366.41-.557.284"/><path d="M151.041 29.242c.239.253 1.384.458 1.749.331.032.285 0 .253-.206.363.159.38.493.348.636.506.095.11.063.315.111.363.016.015.27-.127.525.157.063.08 0 .19.031.237 0 .016.382.11-.047.284-.159.063-.318-.126-.414 0 .239.316.509.174.827.158.159.237-.334.205-.207.316.191.157.525.094.414.615l-.254-.095-.048.205c.381-.047.699.063.938.363l-.318.048c.095.363.095.947.223 1.278.063.142.222.142.254.205.079.158.032.41.223.537l-.827.52.286.316-.493.253.207.157c-.271.206-.589.206-.62.616l1.971.568c-.652.079-2.051-.615-2.496-.158-.239.253-.191.237-.509.52-.127.111-.874.79-.938.822-.048.015-.7 0-.97.078-.159.048-.239.237-.35.253-.175.032-.62-.174-.874-.079l.047.41-.254.08c-.286-.616-.35.189-.493.22-.239-.095-.334-.237-.62-.22-.191 0-.143.189-.223.22-.413.11-.334-.19-.445-.252-.159-.11-.89.047-.922.205l.079.363-.524-.205v.41c-.334.126-.287-.221-.509-.253-.159-.031-.35.064-.557.032-.842-.174-1.447-.552-1.812-1.326l-.621.316.159.458-.318.268.732.047.35.79.111-.222c.27.142.668-.094.763.206l-.318.063-.111.615.207.11.508-.062v.52l.318-.205c-.159.852.764.49.827.52.032.032.112.364.334.458s.445 0 .652.08c.191.047.445.441.763.552.652.236 1.527.236 2.147.347.064 0 .731.742.986.805.318.094.874-.142 1.256.205l1.272.079-.604.3c.095.426.191.457.604.52l-.477.363.064.316-.414.158c.207.094.239.079.207.363-.445-.142-.477.173-.732.236-.174.048-1.749.08-1.939.048-.207-.032-.303-.205-.446-.237-.175-.047-.461.11-.683-.047-.128.126.238.331-.112.315-.127 0-1.192-.284-1.319-.331-.207-.079-.303-.331-.462-.379-.238-.063-.747.316-1.065.19l.111-.41c-.54.063-.779-.348-1.256-.206l-.063-.315h-.668l.207-.253c-.318-.568-.684-.032-.891-.568-.525.49-.874-.047-.684-.616h-.413l.111-.205h-.62c.175-.331-.413-.962-.7-1.12-.159-.079-.445-.079-.524-.158-.048-.032-.239-1.073-.748-.915l.112-.41.365.205c.175-.316-.318-.348-.572-.316l.207-.316h-.286l-.239-.568.207-.11v-.158l-.318-.158.206-.315-.524-.158c.143-.253.365 0 .413-.41l-.62-.269.318-.11c-.064-.269.064-.568.064-.805 0-.158-.175-.332-.159-.52.031-.27.238-.332-.032-.79.795.11.35-1.105.413-1.136.048-.032.207.047.286-.032.287-.236.636-1.31 1.05-1.594.207-.142.461-.126.509-.173.016-.016.254-.347.334-.442.095-.11.063-.3.159-.379.27-.205.747.047.763 0-.048-.41.302-.915.731-.726l-.318-.41c.318-.142.7-.49.732-.82.238.094-.159.71.302.615l-.112-.41c.334.078.35-.253.557-.332.302-.11.668-.047.986-.158.111-.047.366-.457.62-.52.191-.064.397 0 .572-.048.382-.126.843-.284 1.177-.49h.143v.206l.175-.205c.382.11.747-.142 1.05-.174.492-.047 1.51.38 1.176-.441.414-.064.318.378.334.394m-1.654 3.204s-.063-.19-.143-.221c-.238-.127-.509-.174-.715-.38l.318.458-.414.158.112.316c-.239-.032-.652-.063-.859 0-.111.032-.111.22-.254.284-.175.079-.477.047-.636.158-.08.063-.096.268-.239.331-.207.11-.509.032-.731.048l.206.252c-.572.41-1.001.71-1.765.474l.318.615-.731.047.318.048.111.52c-.254.032-.747 0-.731.316-.032.032-.366-.331-.525-.205-.111.095.445.584.414.615-.159.127-1.002.6-.207.616.032.205-.223.047-.302.11-.207.19-.048 1.152.095 1.436l-.461-.205-.048.205c.334.348 1.256.221 1.209-.315-.032-.347-.207-.742-.589-.521l.112-.52c.54.315.683.141 1.113-.238.143-.126.095-.189.445-.441.08-.063.095-.237.191-.253.222-.047 1.113 0 1.272.221v-.41c.381.252 1.177.584 1.145-.11.493.252 1.081.236 1.606.204.461-.031 1.176-.015 1.208-.615l.827.095c.048-.442.556-.774.525-1.168l.318-.063c.032-.158-.143-.08-.207-.174-.111-.158-.08-.442-.413-.442l.238-.094.08-.253-.287-.173.08-.19c-.318.063-.35-.237-.493-.316-.239-.142-.731-.031-.763-.52h-.159c-.048.205-.366.41-.557.284m-90.761-4.719c.207.08 1.066.347 1.161.395.207.126.318.615.859.284v.284c.318.047.651.11.89.331.19.174.223.49.366.568.19.127.779.127 1.033.158.127.268-.206.332-.206.363.031.347.604.237.826.553.112.157.366.757.462.962.159.395-.048.694.381.852l-.222.11c-.016.206.27.616.286.727 0 .173-.557.726-.27 1.089h-.414c.414.536.032.584-.19.915-.08.126-.112.331-.223.458-.191.22-.557.205-.732.33-.159.127-.175.49-.35.632-.11.11-.381.126-.508.284-.096.127.031.269 0 .347 0 .032-.398.348-.493.332l.413.11v.316l-.207.047c.398.316.78.395.525.979l.223-.3.302.094c-.175.363.047.49.111.821l-.413-.047.731.363c-.652.6.413.883.413.978.016.221-.397.032-.413.048.16.394.032.6-.413.52l.206.205-.413.158.78-.047-.255.726c.127-.095.652.284.524.41l-.62.11.207.506c-.874.126-.35.773-.731 1.167-.128.142-1.161.821-1.368.947-.19.11-1.32.695-1.4.679-.047 0-.047-.19-.126-.205-.255-.08-.7.347-.954.394-.382.08-1.209-.268-1.225.332-.302-.032-.715-.269-.954-.3-.381-.063-.795.158-1.192-.221l.206-.205c-.302-.206-.683-.08-.954-.158-.143-.047-.286-.221-.381-.237-.127-.016-.239.19-.382.174-.366-.048-.938-.79-1.224-.963-.286-.158-.54-.11-.795-.205-.223-.079-.175-.631-.557-.474l.096-.189c-.16 0-.859-.473-.907-.552-.095-.158-.032-.647-.047-.679-.191-.252-.573-.126-.27-.836l.397-.11-.732-.316c.366-.474.096-.647-.206-1.026l.826-.11c.08-.395-.222-.064-.318-.143-.365-.284.446-2.02.43-2.477l-.207-.174c.318.032.255-.52.318-.757l-.223-.063.732-.774-.207-.363.414.11c0-.504-.668-.046-.525-.615.795.553.493-.378.525-.662 0-.048.238-.742.254-.774.095-.173.286-.205.461-.205l-.318-.11.207-.458-.318-.047c.032-.284.397-.08.413-.095.016-.031-.032-.237 0-.331s.175-.095.191-.158c.08-.19.255-1.278.19-1.357-.03-.048-.19-.048-.238-.11-.047-.064.048-.222-.047-.364-.191-.284-.89-.378-.207-.726l-.111-.347h.318l-.112-.52c.477.047.382-.348.43-.395.063-.047.286 0 .397-.08.16-.078.16-.299.239-.346.731-.426 1.16-.426 1.971-.679.493-.142.302-.394.97.032l.16-.41c.492.173 1.033.031 1.494.11.302.047.859.347 1.16.458m-2.289 3.298c-.302-.221-.747-.048-1.113-.032.223.553.048.395-.207.773l.207.158.111-.315c-.063.615.51.236.732.615h-.732l.096.505-.302.221.302.158c-.255.19-.064.71-.414.678.51.49-.286.71-.318 1.247.54-.047 1.177.3 1.304-.41.334.079.636.331.954.41.557.142 1.781.063 2.258-.205.19-.11.127-.3.239-.41a4.3 4.3 0 0 1 1.176-.726c-.43-.205-.222-.568-.413-.79-.111-.126-.366-.141-.493-.236-.16-.142-.286-.52-.636-.71-.318-.158-.747-.174-1.065-.332l.318-.315c-.636-.221-1.193-.363-1.877-.41l.048.315c-.239.047-.127-.126-.19-.173m-2.068 6.927c-.731-.284-.382 1.026-.97 1.31l-.159-.205c-.143.284.207.316.207.379.063.426-.382.82.509.868l-.732.363.414.047c.397.52-.97.805-.938.884.127.316.429-.08.604-.126.143-.048.286-.032.445-.032.143.253-.398.19-.207.41.16.19.573.11.604.127.048.031.048.189.191.268.191.095.525.047.716.22l.206-.41c.303.19-.143.41-.159.616.477.032 1.002-.442 1.05.316l.159-.19c.556.174 2.162.6 2.64.174.127-.11.715-1.436.46-1.673l.303-.158v-.205c-.414-.095-.557-.568-1.05-.52l.111-.521-.317.205c.333-.521-.764-.9-1.145-.979-.239-.063-.636.016-.875-.063-.159-.063-.127-.268-.238-.284-.16-.032-.493.095-.795 0-.096-.032-.51-.537-.652-.631-.175-.11-.27 0-.35-.016-.016 0-.016-.126-.048-.142"/><path d="M58.531 27.648c.207.08 1.066.347 1.161.395.207.126.318.615.859.284v.284c.318.047.651.11.89.331.19.174.223.49.366.568.19.127.779.127 1.033.158.127.268-.206.332-.206.363.031.347.604.237.826.553.112.157.366.757.462.962.159.395-.048.694.381.852l-.222.11c-.016.206.27.616.286.727 0 .173-.557.726-.27 1.089h-.414c.414.536.032.584-.19.915-.08.126-.112.331-.223.458-.191.22-.557.205-.732.33-.159.127-.175.49-.35.632-.11.11-.381.126-.508.284-.096.127.031.269 0 .347 0 .032-.398.348-.493.332l.413.11v.316l-.207.047c.398.316.78.395.525.979l.223-.3.302.094c-.175.363.047.49.111.821l-.413-.047.731.363c-.652.6.413.883.413.978.016.221-.397.032-.413.048.16.394.032.6-.413.52l.206.205-.413.158.78-.047-.255.726c.127-.095.652.284.524.41l-.62.11.207.506c-.874.126-.35.773-.731 1.167-.128.142-1.161.821-1.368.947-.19.11-1.32.695-1.4.679-.047 0-.047-.19-.126-.205-.255-.08-.7.347-.954.394-.382.08-1.209-.268-1.225.332-.302-.032-.715-.269-.954-.3-.381-.063-.795.158-1.192-.221l.206-.205c-.302-.206-.683-.08-.954-.158-.143-.047-.286-.221-.381-.237-.127-.016-.239.19-.382.174-.366-.048-.938-.79-1.224-.963-.286-.158-.54-.11-.795-.205-.223-.079-.175-.631-.557-.474l.096-.189c-.16 0-.859-.473-.907-.552-.095-.158-.032-.647-.047-.679-.191-.252-.573-.126-.27-.836l.397-.11-.732-.316c.366-.474.096-.647-.206-1.026l.826-.11c.08-.395-.222-.064-.318-.143-.365-.284.446-2.02.43-2.477l-.207-.174c.318.032.255-.52.318-.757l-.223-.063.732-.774-.207-.363.414.11c0-.504-.668-.046-.525-.615.795.553.493-.378.525-.662 0-.048.238-.742.254-.774.095-.173.286-.205.461-.205l-.318-.11.207-.458-.318-.047c.032-.284.397-.08.413-.095.016-.031-.032-.237 0-.331s.175-.095.191-.158c.08-.19.255-1.278.19-1.357-.03-.048-.19-.048-.238-.11-.047-.064.048-.222-.047-.364-.191-.284-.89-.378-.207-.726l-.111-.347h.318l-.112-.52c.477.047.382-.348.43-.395.063-.047.286 0 .397-.08.16-.078.16-.299.239-.346.731-.426 1.16-.426 1.971-.679.493-.142.302-.394.97.032l.16-.41c.492.173 1.033.031 1.494.11.302.047.859.347 1.16.458m-2.289 3.298c-.302-.221-.747-.048-1.113-.032.223.553.048.395-.207.773l.207.158.111-.315c-.063.615.51.236.732.615h-.732l.096.505-.302.221.302.158c-.255.19-.064.71-.414.678.51.49-.286.71-.318 1.247.54-.047 1.177.3 1.304-.41.334.079.636.331.954.41.557.142 1.781.063 2.258-.205.19-.11.127-.3.239-.41a4.3 4.3 0 0 1 1.176-.726c-.43-.205-.222-.568-.413-.79-.111-.126-.366-.141-.493-.236-.16-.142-.286-.52-.636-.71-.318-.158-.747-.174-1.065-.332l.318-.315c-.636-.221-1.193-.363-1.877-.41l.048.315c-.239.047-.127-.126-.19-.173m-2.068 6.927c-.731-.284-.382 1.026-.97 1.31l-.159-.205c-.143.284.207.316.207.379.063.426-.382.82.509.868l-.732.363.414.047c.397.52-.97.805-.938.884.127.316.429-.08.604-.126.143-.048.286-.032.445-.032.143.253-.398.19-.207.41.16.19.573.11.604.127.048.031.048.189.191.268.191.095.525.047.716.22l.206-.41c.303.19-.143.41-.159.616.477.032 1.002-.442 1.05.316l.159-.19c.556.174 2.162.6 2.64.174.127-.11.715-1.436.46-1.673l.303-.158v-.205c-.414-.095-.557-.568-1.05-.52l.111-.521-.317.205c.333-.521-.764-.9-1.145-.979-.239-.063-.636.016-.875-.063-.159-.063-.127-.268-.238-.284-.16-.032-.493.095-.795 0-.096-.032-.51-.537-.652-.631-.175-.11-.27 0-.35-.016-.016 0-.016-.126-.048-.142M83.4 27.806c-.049.379.412.284.572.11l.159.41-.319.111c.525-.063.478.569.939.632l-.318.41c.62 0 .54.71.35 1.136l.476.41-.318.253.175.268h.334l-.318.253c-.047.173.239.252.286.426.064.3-.095 1.341-.047 1.72 0 .095.095.19.08.284l.413-.11-.414.362.732.253c.047.458-.668-.047-.938.205 0 .221.238-.016.35.221.333.726-.144 1.468.27 2.099-.764.395.381 1.61-.318 2.067l.413.268v.19l-.222.063.127.331h.397c0 .395-.604.505-.62.537-.016.016.175.347 0 .52l.318.048-.318.316.302.394-.286.316.19.316-.158.157-.255-.047.318.22c.048.253-.174.427-.174.506 0 .158.54.505.286.884l.62.047-.318.126c.08.332-.064.347-.302.505l.318.221-.112.553-.524-.111.318.252c-.366.474-.461.269-.207.884l-.413.048.318.11-.207.11c.604.285 0 .206-.048.237-.207.174-.048.505-.366.426l.08-.363-.16-.142c-.428.221-.413-.205-.524-.22-.365-.032-1.256.473-1.24-.41h-.684l.525-.727-.318.095.111-.316c-.795-.016-.063-.489-.032-.9.032-.394-.127-.646-.381-.915l.318-.047c-.207-.458-.239-.694 0-1.136-.207.095-.445.016-.525-.205l.525-.11-.318-.364.413-.11-.381-.363h-.446l.112-.521c-.16-.032-.08.142-.175.205-.286.205-.875-.079-1.24-.11-.35-.032-.684-.08-1.034-.11-.318-.032-.668.03-.986 0l.207-.206c-.54.063-1.4.205-1.924.11-.286-.063-.255-.33-.43-.394-.238-.063-.985.221-.985-.22h-.207c0 .252-.175.33-.413.315l.318.52-1.034.048c-.111.3.636.126.731.047l-.317.931.413.11c.016.206-.254.048-.398.127-.286.158-.222.773-.27.947-.032.158-.223.252-.238.426 0 .063.238.552.27.663-.62-.127-.684.678-.731.726 0 0-.144-.08-.239-.063-.557.126-.716.426-.938.52-.191.08-.763-.047-.97-.126-.382-.174-1.24-1.2-1.288-1.625-.032-.269.111-.442.111-.6 0-.047-.524-.458-.413-.584l.318.11.111-.457-.222-.158c.62.158.397-.458.73-.773l-.524-.41c.382-.41.207.11.525.047.016-.269.095-.363.318-.474l-.111-.347.318-.063-.207-.458c.636.237.795-.804 1.018-1.246.063-.127.508-.284.238-.726.461.11.525-.126.827-.363l-.318-.41c.207-.11.413-.442.556-.537.08-.063.255 0 .287-.032 0 0-.096-.157-.08-.252.032-.884.35-.41.604-.742.175-.236.144-1.325.636-1.452l-.11-.347c.62-.031.603-1.041 1.462-.615l-.413-.363c.095-.332.206-.71.62-.663l-.207-.316 1.05-.11-.525-.11c-.032-.6.715-.537.827-.632.047-.047.031-.647.222-.773.16-.11.445 0 .636-.095.143-.079.143-.378.223-.442.095-.063.397-.047.62-.22.461-.348.636-1.074 1.177-1.342l.063.205h.207c0-.079.032-.19.111-.252.207-.206 1.177-.742 1.415-.774.573-.047.764.142 1.161.395.143.095.35.095.461.174.27.173-.222.347-.413.157m-1.686 4.15c-.381-.094-.27-.3-.445-.536-.143.174-.779.395-.859.537-.063.126 0 .331-.127.552-.175.3-.668.284-.843.52-.11.159 0 .3 0 .38-.015.078-.477.6-.556.694-.048.047.032.19.032.19-.096.11-1.018-.08-.938.773 0 .094.334 0 .206.268l-.413-.205c.095.536-.461.883-.318 1.341h-.413l-.207.82 1.924-.204.047.315c.128-.031.223-.11.366-.11.652.031 1.431.173 2.1.126.254-.016.063-.237.254-.221l.254.41c.111-.22.175-.347.477-.315 0-.41-.525-.269-.62-.679-.08-.315.27 0 .413-.094.27-.19-.207-.995 0-1.342l-.318-.047c-.08-.347.207-.142.302-.205l-.206-.569c.174.032.27-.568.27-.678-.016-.3-.302-.758-.27-1.12l-.207.11.08-.71z"/><path d="M83.4 27.806c-.049.379.412.284.572.11l.159.41-.319.111c.525-.063.478.569.939.632l-.318.41c.62 0 .54.71.35 1.136l.476.41-.318.253.175.268h.334l-.318.253c-.047.173.239.252.286.426.064.3-.095 1.341-.047 1.72 0 .095.095.19.08.284l.413-.11-.414.362.732.253c.047.458-.668-.047-.938.205 0 .221.238-.016.35.221.333.726-.144 1.468.27 2.099-.764.395.381 1.61-.318 2.067l.413.268v.19l-.222.063.127.331h.397c0 .395-.604.505-.62.537-.016.016.175.347 0 .52l.318.048-.318.316.302.394-.286.316.19.316-.158.157-.255-.047.318.22c.048.253-.174.427-.174.506 0 .158.54.505.286.884l.62.047-.318.126c.08.332-.064.347-.302.505l.318.221-.112.553-.524-.111.318.252c-.366.474-.461.269-.207.884l-.413.048.318.11-.207.11c.604.285 0 .206-.048.237-.207.174-.048.505-.366.426l.08-.363-.16-.142c-.428.221-.413-.205-.524-.22-.365-.032-1.256.473-1.24-.41h-.684l.525-.727-.318.095.111-.316c-.795-.016-.063-.489-.032-.9.032-.394-.127-.646-.381-.915l.318-.047c-.207-.458-.239-.694 0-1.136-.207.095-.445.016-.525-.205l.525-.11-.318-.364.413-.11-.381-.363h-.446l.112-.521c-.16-.032-.08.142-.175.205-.286.205-.875-.079-1.24-.11-.35-.032-.684-.08-1.034-.11-.318-.032-.668.03-.986 0l.207-.206c-.54.063-1.4.205-1.924.11-.286-.063-.255-.33-.43-.394-.238-.063-.985.221-.985-.22h-.207c0 .252-.175.33-.413.315l.318.52-1.034.048c-.111.3.636.126.731.047l-.317.931.413.11c.016.206-.254.048-.398.127-.286.158-.222.773-.27.947-.032.158-.223.252-.238.426 0 .063.238.552.27.663-.62-.127-.684.678-.731.726 0 0-.144-.08-.239-.063-.557.126-.716.426-.938.52-.191.08-.763-.047-.97-.126-.382-.174-1.24-1.2-1.288-1.625-.032-.269.111-.442.111-.6 0-.047-.524-.458-.413-.584l.318.11.111-.457-.222-.158c.62.158.397-.458.73-.773l-.524-.41c.382-.41.207.11.525.047.016-.269.095-.363.318-.474l-.111-.347.318-.063-.207-.458c.636.237.795-.804 1.018-1.246.063-.127.508-.284.238-.726.461.11.525-.126.827-.363l-.318-.41c.207-.11.413-.442.556-.537.08-.063.255 0 .287-.032 0 0-.096-.157-.08-.252.032-.884.35-.41.604-.742.175-.236.144-1.325.636-1.452l-.11-.347c.62-.031.603-1.041 1.462-.615l-.413-.363c.095-.332.206-.71.62-.663l-.207-.316 1.05-.11-.525-.11c-.032-.6.715-.537.827-.632.047-.047.031-.647.222-.773.16-.11.445 0 .636-.095.143-.079.143-.378.223-.442.095-.063.397-.047.62-.22.461-.348.636-1.074 1.177-1.342l.063.205h.207c0-.079.032-.19.111-.252.207-.206 1.177-.742 1.415-.774.573-.047.764.142 1.161.395.143.095.35.095.461.174.27.173-.222.347-.413.157m-1.686 4.15c-.381-.094-.27-.3-.445-.536-.143.174-.779.395-.859.537-.063.126 0 .331-.127.552-.175.3-.668.284-.843.52-.11.159 0 .3 0 .38-.015.078-.477.6-.556.694-.048.047.032.19.032.19-.096.11-1.018-.08-.938.773 0 .094.334 0 .206.268l-.413-.205c.095.536-.461.883-.318 1.341h-.413l-.207.82 1.924-.204.047.315c.128-.031.223-.11.366-.11.652.031 1.431.173 2.1.126.254-.016.063-.237.254-.221l.254.41c.111-.22.175-.347.477-.315 0-.41-.525-.269-.62-.679-.08-.315.27 0 .413-.094.27-.19-.207-.995 0-1.342l-.318-.047c-.08-.347.207-.142.302-.205l-.206-.569c.174.032.27-.568.27-.678-.016-.3-.302-.758-.27-1.12l-.207.11.08-.71zM31.246 7.038s.031-.11.381.11c.35.238.732.427 1.066.68-.51.347.079.283.206.615l-.206.252c.556.032.286-.3.318-.315.286-.095.174.205.27.205l.254-.11c.048.22.143.71.302.867.207.206.43-.157.223.521l.413.063v.347l-.206.11.19.096c-.19.505.048 1.025.43 1.357l-.207.047v.979l.318.268h-.397c-.143.378-.032.442.19.726-.477.031-.318.662-.413.962-.048.11-.239.127-.318.316-.111.252-.048.552-.143.789-.16.363-.636.552-.827.726-.048.047-.08.49-.127.52-.111.111-.318.095-.414.206-.11.142 0 .347-.27.568-.413.347-.779.363-1.272.252-.111-.031-.016-.284-.398-.094.144.268.477.142.525.52h-.62c-.143.158.096.758-.223.821-.159-.394 0-.568.112-.93l-.732.204.048.205c-.143-.126-.509 0-.572-.063-.127-.063-.16-.394-.382-.457-.207-.048-.509.126-.763 0l.207.52h-.414l-.032-.3h-.302l.207-.378c-.143-.221-.302-.08-.509-.063-.111-.3-.318-.505-.111-.82-.35.141-.938-.253-1.081-.553-.096-.205.063-.395.015-.474-.031-.047-.35-.11-.302-.331l-.318.205v-.3l-.318-.015.064-.206.35-.205-.827-.11c.223-.3-.096-.363-.143-.505-.048-.11.063-.253 0-.41-.08-.174-.684-.506-.78-.774l.62-.205-.73-.41.206-.206-.111-1.041.222-.3-.524-.363.397-.268-.19-.552.524-.11-.27-.364c.19-.458.509-.237.27-.884l.525.11-.207-.615.525-.157-.207-.253c.27-.095.286.284.318.316.016 0 .461-.221.477-.237.255-.22.89-1.357 1.256-1.42.112-.016.223.094.35.047.493-.174.509-.237 1.177-.379.922-.205.986-.347 2.003.016.43.158.668.458.89.616m-1.923 2.335c-.255-.158-.525-.268-.827-.126-.143.063-.16.22-.207.252-.08.048-.286 0-.413.142-.096.095-.382.647-.51.71-.03.016-.651-.11-.81.016v.82l.318-.204c-.143.3 0 .631 0 .978 0 .127-.095.237-.095.316 0 .063.143.031.174.095.016.063-.063.22.08.378.127.127.286 0 .366.063.222.095.381.632.413.868-.207 0-.366-.079-.318.205.382-.094.732.08.62.521h.414l-.112.205c.446.048.636.143.62.616.652-.19 1.384.063 1.972-.316-.286-.457.19-.442.223-.568 0-.063-.08-.237-.064-.347.016-.095.112-.19.127-.268.032-.505-.08-.995.048-1.484h-.318l.207-.11v-.205l-.207-.063.111-.505-.318-.048.318-.363c-.365-.22-.318-.773-.938-.678l.207-.41c-.382-.064-.763-.158-.732-.616-.19.031-.159.158-.11.316-.255.078-.192-.127-.24-.158"/><path d="M31.246 7.038s.031-.11.381.11c.35.238.732.427 1.066.68-.51.347.079.283.206.615l-.206.252c.556.032.286-.3.318-.315.286-.095.174.205.27.205l.254-.11c.048.22.143.71.302.867.207.206.43-.157.223.521l.413.063v.347l-.206.11.19.096c-.19.505.048 1.025.43 1.357l-.207.047v.979l.318.268h-.397c-.143.378-.032.442.19.726-.477.031-.318.662-.413.962-.048.11-.239.127-.318.316-.111.252-.048.552-.143.789-.16.363-.636.552-.827.726-.048.047-.08.49-.127.52-.111.111-.318.095-.414.206-.11.142 0 .347-.27.568-.413.347-.779.363-1.272.252-.111-.031-.016-.284-.398-.094.144.268.477.142.525.52h-.62c-.143.158.096.758-.223.821-.159-.394 0-.568.112-.93l-.732.204.048.205c-.143-.126-.509 0-.572-.063-.127-.063-.16-.394-.382-.457-.207-.048-.509.126-.763 0l.207.52h-.414l-.032-.3h-.302l.207-.378c-.143-.221-.302-.08-.509-.063-.111-.3-.318-.505-.111-.82-.35.141-.938-.253-1.081-.553-.096-.205.063-.395.015-.474-.031-.047-.35-.11-.302-.331l-.318.205v-.3l-.318-.015.064-.206.35-.205-.827-.11c.223-.3-.096-.363-.143-.505-.048-.11.063-.253 0-.41-.08-.174-.684-.506-.78-.774l.62-.205-.73-.41.206-.206-.111-1.041.222-.3-.524-.363.397-.268-.19-.552.524-.11-.27-.364c.19-.458.509-.237.27-.884l.525.11-.207-.615.525-.157-.207-.253c.27-.095.286.284.318.316.016 0 .461-.221.477-.237.255-.22.89-1.357 1.256-1.42.112-.016.223.094.35.047.493-.174.509-.237 1.177-.379.922-.205.986-.347 2.003.016.43.158.668.458.89.616m-1.923 2.335c-.255-.158-.525-.268-.827-.126-.143.063-.16.22-.207.252-.08.048-.286 0-.413.142-.096.095-.382.647-.51.71-.03.016-.651-.11-.81.016v.82l.318-.204c-.143.3 0 .631 0 .978 0 .127-.095.237-.095.316 0 .063.143.031.174.095.016.063-.063.22.08.378.127.127.286 0 .366.063.222.095.381.632.413.868-.207 0-.366-.079-.318.205.382-.094.732.08.62.521h.414l-.112.205c.446.048.636.143.62.616.652-.19 1.384.063 1.972-.316-.286-.457.19-.442.223-.568 0-.063-.08-.237-.064-.347.016-.095.112-.19.127-.268.032-.505-.08-.995.048-1.484h-.318l.207-.11v-.205l-.207-.063.111-.505-.318-.048.318-.363c-.365-.22-.318-.773-.938-.678l.207-.41c-.382-.064-.763-.158-.732-.616-.19.031-.159.158-.11.316-.255.078-.192-.127-.24-.158m84.242-4.814-.525-.047c.128.174.732.442.795.6.064.142 0 .3.048.426.064.158.684.331.08.631.127.22.54.19.62.331.397.632-.334.663-.318.695l.938.363-.207.726.414-.11s-.032.946 0 1.183c.047.22.286.394.286.536.016.174-.255.237-.191.442.493-.079.509.82.747 1.184.143.22.493.773.636.962.048.048.191 0 .287.095.095.126.174.473.159.647h.477l-.207.11c-.032.127.063.269.159.316.286.11 0-.442.366-.316-.303.947.238.79.667 1.342l.573-.205-.112-.931c.493.11.478-.71.319-1.026h.318l-.414-.568c.255-.063.318-.426.366-.679.111-.71.048-1.373-.048-2.067l.414.205-.525-.568.302.047-.095-.473.174-.063c-.143-.395.048-.253.096-.316.159-.268-.207-.678-.175-.694.668 0 .461-.584.111-.931.636.126.493-.41.684-.616.143-.158.445-.031.413-.41.382.19.954.063 1.32.22.334.143.366.837 1.018.506l-.525.205.111.3h.811l-.318.126c.127.158.016.616-.127.694-.111.064-.302-.031-.397.08-.191.252.063 1.751 0 2.146l-.509.173c-.032.142.429.174.493.174.238 0 .365-.253.556-.127-.302.3-.699.521-.811.963-.111.426.191.316.191.395 0 .157-.159.41 0 .662l-.731.206v.205c.318-.174.508-.127.731.158l-.318.11c.143.174.461.19.413.458-.715.079-.445.41-.365.773.016.079-.064.22-.064.284.016.11.318 0 .207.268l-.27.095c.159.395-.303.426-.462.789l.207.205c-.238.41-.954.71-.636 1.247l-.191.11c.271.505-.668.852-.906 1.279l-1.129.11c-.159 0-.398-.505-.954-.505-.159 0-.239.19-.334.142-.079-.031-1.288-1.057-1.415-1.2-.064-.062-.382-.504-.366-.52l.414.316v-.505c-.175-.174-.509-.016-.605-.048-.159-.047-.858-.915-1.001-1.12-.207-.3-.159-.79-.795-.82l.111-.316-.414-.158.223-.11-.223-.869-.159.206-.461-.364.318-.157c-.365 0-.19-.284-.254-.442-.159-.395-.493-.884-.398-1.294l-.604-.237-.063-.6c-.048.206-.35.3-.398.442-.064.19.191.426-.175.395l.302.252c-.461.221-.27.947-.318 1.389l-.413-.11.525.205c0 .236-.096.426-.112.678 0 .426.064 1.09 0 1.452-.016.08-.206 0-.191.19.032.3.334.741.525.994l-.413-.048-.175.206.286.63c.032.174-.35.127-.207.6.048.142.398.11.318.38l-.524-.206c.047.537-.382.537-.573.726-.143.142-.27.473-.477.568-.302.126-1.351 0-1.638-.126-.031 0-.524-.458-.54-.49-.175-.22.048-.473-.509-.362l.223-.174-.223-.963h.62c-.175-.189-.588-.52-.604-.789 0-.11.143-.22.143-.284 0-.236-.127-.52-.111-.726.032-.363.222-.93.27-1.341l-.207-.11.302-.41-.302-.048c-.079-.268.302-.253.318-.379.016-.173-.127-.726-.111-.9 0-.047.493-.378.207-.788l.524.205-.063-.316-.461-.095c-.048-.268.127-.394.318-.568l-.271-.363.35-.347c-.016-.252-.079-.82-.063-1.041.031-.316.413-.505 0-.979l.524.11c-.222-.52.255-.804-.318-1.136l.939.206c.031-.221-.414.031-.319-.253.064-.158.35-.268.525-.268l-.318-.316.318-.11c-.461.094-.286-.269-.413-.553-.048-.11-.239-.015-.207-.173h.811l.111-.363.207.047c-.048-.6.334-.82.89-.82.207 0 1.559.347 1.702.473.207.174.27.537.429.758"/><path d="m113.547 4.576-.525-.047c.128.174.732.442.795.6.064.142 0 .3.048.426.064.158.684.331.08.631.127.22.54.19.62.331.397.632-.334.663-.318.695l.938.363-.207.726.414-.11s-.032.946 0 1.183c.047.22.286.394.286.536.016.174-.255.237-.191.442.493-.079.509.82.747 1.184.143.22.493.773.636.962.048.048.191 0 .287.095.095.126.174.473.159.647h.477l-.207.11c-.032.127.063.269.159.316.286.11 0-.442.366-.316-.303.947.238.79.667 1.342l.573-.205-.112-.931c.493.11.478-.71.319-1.026h.318l-.414-.568c.255-.063.318-.426.366-.679.111-.71.048-1.373-.048-2.067l.414.205-.525-.568.302.047-.095-.473.174-.063c-.143-.395.048-.253.096-.316.159-.268-.207-.678-.175-.694.668 0 .461-.584.111-.931.636.126.493-.41.684-.616.143-.158.445-.031.413-.41.382.19.954.063 1.32.22.334.143.366.837 1.018.506l-.525.205.111.3h.811l-.318.126c.127.158.016.616-.127.694-.111.064-.302-.031-.397.08-.191.252.063 1.751 0 2.146l-.509.173c-.032.142.429.174.493.174.238 0 .365-.253.556-.127-.302.3-.699.521-.811.963-.111.426.191.316.191.395 0 .157-.159.41 0 .662l-.731.206v.205c.318-.174.508-.127.731.158l-.318.11c.143.174.461.19.413.458-.715.079-.445.41-.365.773.016.079-.064.22-.064.284.016.11.318 0 .207.268l-.27.095c.159.395-.303.426-.462.789l.207.205c-.238.41-.954.71-.636 1.247l-.191.11c.271.505-.668.852-.906 1.279l-1.129.11c-.159 0-.398-.505-.954-.505-.159 0-.239.19-.334.142-.079-.031-1.288-1.057-1.415-1.2-.064-.062-.382-.504-.366-.52l.414.316v-.505c-.175-.174-.509-.016-.605-.048-.159-.047-.858-.915-1.001-1.12-.207-.3-.159-.79-.795-.82l.111-.316-.414-.158.223-.11-.223-.869-.159.206-.461-.364.318-.157c-.365 0-.19-.284-.254-.442-.159-.395-.493-.884-.398-1.294l-.604-.237-.063-.6c-.048.206-.35.3-.398.442-.064.19.191.426-.175.395l.302.252c-.461.221-.27.947-.318 1.389l-.413-.11.525.205c0 .236-.096.426-.112.678 0 .426.064 1.09 0 1.452-.016.08-.206 0-.191.19.032.3.334.741.525.994l-.413-.048-.175.206.286.63c.032.174-.35.127-.207.6.048.142.398.11.318.38l-.524-.206c.047.537-.382.537-.573.726-.143.142-.27.473-.477.568-.302.126-1.351 0-1.638-.126-.031 0-.524-.458-.54-.49-.175-.22.048-.473-.509-.362l.223-.174-.223-.963h.62c-.175-.189-.588-.52-.604-.789 0-.11.143-.22.143-.284 0-.236-.127-.52-.111-.726.032-.363.222-.93.27-1.341l-.207-.11.302-.41-.302-.048c-.079-.268.302-.253.318-.379.016-.173-.127-.726-.111-.9 0-.047.493-.378.207-.788l.524.205-.063-.316-.461-.095c-.048-.268.127-.394.318-.568l-.271-.363.35-.347c-.016-.252-.079-.82-.063-1.041.031-.316.413-.505 0-.979l.524.11c-.222-.52.255-.804-.318-1.136l.939.206c.031-.221-.414.031-.319-.253.064-.158.35-.268.525-.268l-.318-.316.318-.11c-.461.094-.286-.269-.413-.553-.048-.11-.239-.015-.207-.173h.811l.111-.363.207.047c-.048-.6.334-.82.89-.82.207 0 1.559.347 1.702.473.207.174.27.537.429.758m-61.297-1.91s.54.3.556.332c.111.094.08.315.111.347.128.11.43-.19.462.331h.35c.063.158-.16.237-.16.347s.382.521-.254.474l.207.173v.82l-.207.253.477.095.366 2.525.397.174c.08.284-.175.189-.318.363l.525.363-.318.568.398.52-.287.364c.398-.08.573.378.112.426v.094c.524.048.206.395.238.584.016.11.255.095.286.205.064.284 0 1.105.048 1.278.064.237.445.395.382.726l.381-.426.763.11-.047.206c-.445-.316-.986.19-.89.663 0 .079.174.063.206.142.143.457 0 .726.525 1.057l-.414-.095v1.137l-.62.11.318.52c-.27 0-.509-.141-.779 0-.366.159-.127.427-.413.427-.286-.142-.255-.584-.286-.6-.175-.189-1.463-.079-1.336-.741l-.318.11v-.316l-.318.111.111-.52c-.366.094-.334-.38-.731-.316.143-.363.604.047.731-.41-.731-.238-.127-1.453-.938-1.61l.318-.206v-.142c-.255.032-.19-.284-.302-.378-.16-.11-.493.015-.636-.206l.525-.11c.095-.568-.27-.805-.303-1.041 0-.127.143-.206.143-.3 0-.048-.222-.632-.333-.663-.287-.079-.477.379-.462.41.032.032.255-.079.207.11-.445-.094-.334.316-.493.6-.095.174-.302.332-.365.474-.064.173.063.426-.064.631-.095.142-.302.095-.398.205-.095.11-.238.616-.445.742l.414.252h-.716c-.016.774-.684 1.137-1.367 1.247l.111.316c-.27.094-.588 0-.684.315l-.46-.315.11.52c-.381-.173-.636.253-.795.284-.063 0-1.065-.142-1.129-.173-.143-.079-.031-.268-.063-.316-.016-.031-.43.253-.732.048-.127-.08-.08-.395-.524-.253l.206-.41c-.11-.095-.842.205-.731-.205l.62-.205c-.525.126-.413-.221-.62-.442-.159-.158-.382-.221-.509-.458-.159-.284.048-.9-.636-.758l.413-.205c-.143-.205-.063-.457-.127-.647-.047-.157-.238-.22-.254-.347-.032-.126.111-.41 0-.6.048-.315.715.08.81-.157-.397-.063-.858-.269-1.255-.11-.112-.348.588-.285.636-.49v-.473c-.016-.08-.16-.064-.223-.221-.111-.3.127-.49-.286-.632l.318-.205-.207-.457.414-.158c-.366-.474-.175-.616-.207-1.026-.048-.6-.16-1.089.095-1.704h-.413c-.08-.332.222-.127.318-.269.127-.189.032-.584.143-.773s.859-.268.684-.931c.445.174.874.11 1.351 0 .032.379.525.852.938.82v2.068h.319c.079.284-.144.158-.207.284-.112.284.111 1.105 0 1.468l.413-.158c-.047.252-.397.331-.46.457 0 .032-.065.632-.065.663.016.11.223.08.287.221.08.19 0 .931.032 1.2l-.207-.316-.302.158.715.52-.095.395.222.11c-.206.158-.381.127-.302.458.191.048 0-.3.255-.205.27.095-.239.9.572.726v-.505l.493-.142c.19-.174 0-.473.016-.49.063-.047.382-.047.588-.346.096-.143-.08-.38.286-.269.064.016 0 .316.255.205l-.302-.347c.016-.268.286-.41.302-.442 0-.063-.064-.173-.064-.284.048-.442.255-.19.461-.3.048-.031.207-.378.334-.457l-.19-.553c.381.016.254-.315.73-.11l-.206-.52c.477-.032.27-.49.366-.71.111-.27.874-1.327.78-1.453-.59.095-.335-.552.11-.315l.223-2.162c.477.015.588-.71.684-.742.381-.158 1.288-.158 1.653.031"/><path d="M52.234 2.651s.54.3.556.332c.111.094.08.315.111.347.128.11.43-.19.462.331h.35c.063.158-.16.237-.16.347s.382.521-.254.474l.207.173v.82l-.207.253.477.095.366 2.525.397.174c.08.284-.175.189-.318.363l.525.363-.318.568.398.52-.287.364c.398-.08.573.378.112.426v.094c.524.048.206.395.238.584.016.11.255.095.286.205.064.284 0 1.105.048 1.278.064.237.445.395.382.726l.381-.426.763.11-.047.206c-.445-.316-.986.19-.89.663 0 .079.174.063.206.142.143.457 0 .726.525 1.057l-.414-.095v1.137l-.62.11.318.52c-.27 0-.509-.141-.779 0-.366.159-.127.427-.413.427-.286-.142-.255-.584-.286-.6-.175-.189-1.463-.079-1.336-.741l-.318.11v-.316l-.318.111.111-.52c-.366.094-.334-.38-.731-.316.143-.363.604.047.731-.41-.731-.238-.127-1.453-.938-1.61l.318-.206v-.142c-.255.032-.19-.284-.302-.378-.16-.11-.493.015-.636-.206l.525-.11c.095-.568-.27-.805-.303-1.041 0-.127.143-.206.143-.3 0-.048-.222-.632-.333-.663-.287-.079-.477.379-.462.41.032.032.255-.079.207.11-.445-.094-.334.316-.493.6-.095.174-.302.332-.365.474-.064.173.063.426-.064.631-.095.142-.302.095-.398.205-.095.11-.238.616-.445.742l.414.252h-.716c-.016.774-.684 1.137-1.367 1.247l.111.316c-.27.094-.588 0-.684.315l-.46-.315.11.52c-.381-.173-.636.253-.795.284-.063 0-1.065-.142-1.129-.173-.143-.079-.031-.268-.063-.316-.016-.031-.43.253-.732.048-.127-.08-.08-.395-.524-.253l.206-.41c-.11-.095-.842.205-.731-.205l.62-.205c-.525.126-.413-.221-.62-.442-.159-.158-.382-.221-.509-.458-.159-.284.048-.9-.636-.758l.413-.205c-.143-.205-.063-.457-.127-.647-.047-.157-.238-.22-.254-.347-.032-.126.111-.41 0-.6.048-.315.715.08.81-.157-.397-.063-.858-.269-1.255-.11-.112-.348.588-.285.636-.49v-.473c-.016-.08-.16-.064-.223-.221-.111-.3.127-.49-.286-.632l.318-.205-.207-.457.414-.158c-.366-.474-.175-.616-.207-1.026-.048-.6-.16-1.089.095-1.704h-.413c-.08-.332.222-.127.318-.269.127-.189.032-.584.143-.773s.859-.268.684-.931c.445.174.874.11 1.351 0 .032.379.525.852.938.82v2.068h.319c.079.284-.144.158-.207.284-.112.284.111 1.105 0 1.468l.413-.158c-.047.252-.397.331-.46.457 0 .032-.065.632-.065.663.016.11.223.08.287.221.08.19 0 .931.032 1.2l-.207-.316-.302.158.715.52-.095.395.222.11c-.206.158-.381.127-.302.458.191.048 0-.3.255-.205.27.095-.239.9.572.726v-.505l.493-.142c.19-.174 0-.473.016-.49.063-.047.382-.047.588-.346.096-.143-.08-.38.286-.269.064.016 0 .316.255.205l-.302-.347c.016-.268.286-.41.302-.442 0-.063-.064-.173-.064-.284.048-.442.255-.19.461-.3.048-.031.207-.378.334-.457l-.19-.553c.381.016.254-.315.73-.11l-.206-.52c.477-.032.27-.49.366-.71.111-.27.874-1.327.78-1.453-.59.095-.335-.552.11-.315l.223-2.162c.477.015.588-.71.684-.742.381-.158 1.288-.158 1.653.031m87.836-.915v.363l.524.048c-.206.236 0 .52.207.663.127.078.318.031.382.078.079.048.016.363.381.505.175.08.334 0 .35 0 .032.016.557.742.175.6-.08-.031-.254-.363-.366-.047-.079.22.207.158.271.252-.128.332.159.332.159.363 0 .142-.144.395-.318.363l.222.158v.868c-.302 0-.302-.41-.731-.316.238.38.874.363.731.931h-.413c.047.11.111.38.079.474 0 .047-.302.079-.191.363.128.126.732-.332.621.11h-.525l.111.41-.604.127c.111.552-.302.615-.604.947-.223.252-.318.741-.875.789l.207.41-.461.11-.112-.205c-.349.348-.89 0-.954 0-.079 0-.159.316-.254.363-.016 0-.286.095-.398.142-.985.41-1.351.174-2.353.221-.35 0-1.097.063-1.097.505l.302-.094c.064.362.573.441.318.82l.843.11-.207.316c.461.221.779.79 1.352.726l-.096.3c.159 0 .271.19.414.174.254-.032.477-.395.509-.363-.032.568 1.685.252 1.765.315 0 .537.254.616.572.931.35-.3.668-.142 1.018-.22.063 0 .175-.3.381-.348.223-.047.461.205.43-.173l.174.205c.255-.016.573.047.811 0 .223-.047 1.098-.49 1.177-.505.143-.032 1.383.063 1.479.126.063.047.047.284.143.379.159.173.811.11.859-.19.222.158.302.348.254.616-.938-.505-.779.19-1.081.49-.175.173-.923.252-1.161.551-.223.284.191.143.159.316-.557.253-1.145-.095-1.701.126-.223.095-.144.348-.175.395-.08.079-.414-.11-.605-.047-.238.078-.429.457-.492.457-.175.032-.7-.079-.907-.063-.874.079-1.749.19-2.623.158-.477 0-1.034-.742-1.606-.395l-.048-.315-.048.41-.206-.316-.16.221-.938-.426c-.381.616-.334-.047-.429-.11s-.302-.063-.461-.158c-.668-.426-.477-.3-1.129-.49-.064-.015-.731-.662-.922-.788a.9.9 0 0 0-.35-.127l.111-.3c-.54 0-.35-.315-.556-.646-.207-.316-.541-.774-.907-.916l.414-.568-.477-.158a1.39 1.39 0 0 0-.461-1.199v-.142c.381-.032.159-.552.206-.836l-.62.205c-.063-.347.541-.269.732-.316-.143-.3-.589-.426-.525-.82l.525.315.206-.473-.318-.158c.048-.332.35-.158.128-.663.047-.205.524-.284.715-.268-.238-.553.191-1.31.827-1.247l-.048-.205-.254.095c0-.6.238-.395.477-.616.254-.237.604-.773.89-.978.271-.205.795-.3.986-.458.509-.442-.064-.978 1.193-.52v-.348L134.933 3c.223-.11.556-.142.747-.221.827-.348 1.861-.837 2.735-.995.509-.094 1.177.016 1.717-.031m-1.494 3.235c-.271-.11-.907.126-1.225.079l.096.19c-.143.204-.97.52-1.002.567-.048.048 0 .221-.079.284-.271.206-.748-.031-.78 0 .175.49-.222.837-.715.947l.079.174-.286.22c.573.032.477.49 1.145.206.016.19-.095.316.159.316.223 0 1.002-.427.891-.726l.206.52.62-.315-.318-.41c.191.031.811-.127.923-.221.015-.016-.064-.363 0-.521.063-.126.254-.126.302-.253.095-.315-.159-.536.334-.71v-.158c-.239.095-.318-.157-.334-.173"/><path d="M140.117 1.783v.363l.524.048c-.206.236 0 .52.207.663.127.078.318.031.382.078.079.048.016.363.381.505.175.08.334 0 .35 0 .032.016.557.742.175.6-.08-.031-.254-.363-.366-.047-.079.22.207.158.271.252-.128.332.159.332.159.363 0 .142-.144.395-.318.363l.222.158v.868c-.302 0-.302-.41-.731-.316.238.38.874.363.731.931h-.413c.047.11.111.38.079.474 0 .047-.302.079-.191.363.128.126.732-.332.621.11h-.525l.111.41-.604.127c.111.552-.302.615-.604.947-.223.252-.318.741-.875.789l.207.41-.461.11-.112-.205c-.349.348-.89 0-.954 0-.079 0-.159.316-.254.363-.016 0-.286.095-.398.142-.985.41-1.351.174-2.353.221-.35 0-1.097.063-1.097.505l.302-.094c.064.362.573.441.318.82l.843.11-.207.316c.461.221.779.79 1.352.726l-.096.3c.159 0 .271.19.414.174.254-.032.477-.395.509-.363-.032.568 1.685.252 1.765.315 0 .537.254.616.572.931.35-.3.668-.142 1.018-.22.063 0 .175-.3.381-.348.223-.047.461.205.43-.173l.174.205c.255-.016.573.047.811 0 .223-.047 1.098-.49 1.177-.505.143-.032 1.383.063 1.479.126.063.047.047.284.143.379.159.173.811.11.859-.19.222.158.302.348.254.616-.938-.505-.779.19-1.081.49-.175.173-.923.252-1.161.551-.223.284.191.143.159.316-.557.253-1.145-.095-1.701.126-.223.095-.144.348-.175.395-.08.079-.414-.11-.605-.047-.238.078-.429.457-.492.457-.175.032-.7-.079-.907-.063-.874.079-1.749.19-2.623.158-.477 0-1.034-.742-1.606-.395l-.048-.315-.048.41-.206-.316-.16.221-.938-.426c-.381.616-.334-.047-.429-.11s-.302-.063-.461-.158c-.668-.426-.477-.3-1.129-.49-.064-.015-.731-.662-.922-.788a.9.9 0 0 0-.35-.127l.111-.3c-.54 0-.35-.315-.556-.646-.207-.316-.541-.774-.907-.916l.414-.568-.477-.158a1.39 1.39 0 0 0-.461-1.199v-.142c.381-.032.159-.552.206-.836l-.62.205c-.063-.347.541-.269.732-.316-.143-.3-.589-.426-.525-.82l.525.315.206-.473-.318-.158c.048-.332.35-.158.128-.663.047-.205.524-.284.715-.268-.238-.553.191-1.31.827-1.247l-.048-.205-.254.095c0-.6.238-.395.477-.616.254-.237.604-.773.89-.978.271-.205.795-.3.986-.458.509-.442-.064-.978 1.193-.52v-.348L134.933 3c.223-.11.556-.142.747-.221.827-.348 1.861-.837 2.735-.995.509-.094 1.177.016 1.717-.031m-1.494 3.235c-.271-.11-.907.126-1.225.079l.096.19c-.143.204-.97.52-1.002.567-.048.048 0 .221-.079.284-.271.206-.748-.031-.78 0 .175.49-.222.837-.715.947l.079.174-.286.22c.573.032.477.49 1.145.206.016.19-.095.316.159.316.223 0 1.002-.427.891-.726l.206.52.62-.315-.318-.41c.191.031.811-.127.923-.221.015-.016-.064-.363 0-.521.063-.126.254-.126.302-.253.095-.315-.159-.536.334-.71v-.158c-.239.095-.318-.157-.334-.173M11.464 1.751c.095.064.27 0 .365.048.064.031.064.237.191.284.16.063.445-.11.668 0l-.414.158c.144.363 0 .82.525.773v.3c-.509-.063-.731.71-1.001.915-.303.253-.986.142-.875.631l-.111-.315-1.034.205v-.284c-.207-.284-1.192.379-1.447.442-.127.031-.318-.095-.413-.032-.048.032-.064.268-.223.347-.461.237-1.145.363-1.622.774-.238.205-.27.505-.35.789l-.413-.048.207.505c-.732 0-.604.3-.843.663-.382.568-.604.994-.747 1.657-.048.19-.398.316.031.426-.477.221-.206.221-.238.505-.048.442.016.268.032.537 0 .252-.096.568 0 .868l-.414-.11v.204c.255.08.287.316.62.205l-.11.316h.81l-.032.52-.047-.204c-.255.015-.462-.221-.62.047l.206.568.207-.11c-.255.678.35.962.366 1.562h.477l-.207.458c.366.126.461.378.652.552.063.063.222 0 .27.032 0 0-.063.173-.032.268.048.126.207.126.223.158.016.047-.095.19-.032.284.048.079 1.288 1.025 1.463 1.136a.52.52 0 0 0 .366.095l-.318.52.318.11v-.315c.524-.142.588.3.858.442.112.063.318 0 .414.063.222.158.159.426.715.363.493-.047 1.113-.079 1.606 0 .143.016.239.332.51.284.095-.016.079-.268.206-.284.207-.031.874.237 1.208.08l-.318-.206c.382.047.414-.395.827-.473.318-.064.572.252.588-.253.477-.22.97.079 1.368.11.207 0 .604-.205.668 0l-.525.111.207.205-.318.063c.031.568-1.05.837-.51 1.484-.11 0-.238-.032-.333 0-.398.142-.732.363-1.065.615-.446.347-.636.032-1.097 0l.206.158c-.063.158-.334.11-.397.174-.032.031.127.189-.08.268-.525.205-1.32 0-1.812.426l-.16-.316-.46.206.317-.206-.715-.205c0 .19-.239.347-.382.284-.063-.031-.047-.331-.254-.19-.032.017.222.443-.302.19v-.252l-.859-.048-.048-.205c-.143.253-.047.41-.477.41l.112-.315c-.223-.142-.923-.158-1.05-.253-.111-.079-.032-.3-.175-.363-.302-.126-.922-.126-.97-.142-.095-.047-.206-.41-.365-.584-.191-.205-.573-.252-.62-.315-.175-.19-.032-.395-.064-.41-.064-.048-.334-.016-.445-.11-.096-.064-.08-.27-.175-.364-.35-.394-.589-.663-1.145-.473.238-.742-.239-.695-.525-1.09-.175-.236-.286-.678-.445-.946-.19-.316-.62-.647-.763-1.168-.048-.22 0-.6-.064-.71-.127-.237-.858-.268-.493-1.057l.414-.063-.175-.253H.079l.206-.379c-.429-.252-.222-1.183-.206-1.657 0-.315-.286-.284.206-.52L.08 10.1c-.065-.332.333-.98.38-1.28.032-.205-.095-.378-.063-.552.016-.142.715-.505.318-.9.54.143.668-.457.62-.867 0-.095-.334 0-.207-.269h.35l.111.19.573-.095c-.191-.3.111-.473.222-.758.112-.284.175-.678.302-.915.112-.237.525-.22.35-.6l.684-.094-.095-.616.413.11-.048-.204h.461v-.41c.112-.048.287-.032.382-.08.334-.189 1.765-.93 2.115-1.01.254-.063.477-.063.731-.047L7.473 1.5c.222-.016.445-.11.683-.11.334 0 .54.284.62-.095l.303.205c.174-.063.047-.268.079-.284.254-.253.557.079.747.063.128 0 .255-.19.414-.158.047 0 .731.19.842.205.223.064.223.316.303.363"/><path d="M11.464 1.751c.095.064.27 0 .365.048.064.031.064.237.191.284.16.063.445-.11.668 0l-.414.158c.144.363 0 .82.525.773v.3c-.509-.063-.731.71-1.001.915-.303.253-.986.142-.875.631l-.111-.315-1.034.205v-.284c-.207-.284-1.192.379-1.447.442-.127.031-.318-.095-.413-.032-.048.032-.064.268-.223.347-.461.237-1.145.363-1.622.774-.238.205-.27.505-.35.789l-.413-.048.207.505c-.732 0-.604.3-.843.663-.382.568-.604.994-.747 1.657-.048.19-.398.316.031.426-.477.221-.206.221-.238.505-.048.442.016.268.032.537 0 .252-.096.568 0 .868l-.414-.11v.204c.255.08.287.316.62.205l-.11.316h.81l-.032.52-.047-.204c-.255.015-.462-.221-.62.047l.206.568.207-.11c-.255.678.35.962.366 1.562h.477l-.207.458c.366.126.461.378.652.552.063.063.222 0 .27.032 0 0-.063.173-.032.268.048.126.207.126.223.158.016.047-.095.19-.032.284.048.079 1.288 1.025 1.463 1.136a.52.52 0 0 0 .366.095l-.318.52.318.11v-.315c.524-.142.588.3.858.442.112.063.318 0 .414.063.222.158.159.426.715.363.493-.047 1.113-.079 1.606 0 .143.016.239.332.51.284.095-.016.079-.268.206-.284.207-.031.874.237 1.208.08l-.318-.206c.382.047.414-.395.827-.473.318-.064.572.252.588-.253.477-.22.97.079 1.368.11.207 0 .604-.205.668 0l-.525.111.207.205-.318.063c.031.568-1.05.837-.51 1.484-.11 0-.238-.032-.333 0-.398.142-.732.363-1.065.615-.446.347-.636.032-1.097 0l.206.158c-.063.158-.334.11-.397.174-.032.031.127.189-.08.268-.525.205-1.32 0-1.812.426l-.16-.316-.46.206.317-.206-.715-.205c0 .19-.239.347-.382.284-.063-.031-.047-.331-.254-.19-.032.017.222.443-.302.19v-.252l-.859-.048-.048-.205c-.143.253-.047.41-.477.41l.112-.315c-.223-.142-.923-.158-1.05-.253-.111-.079-.032-.3-.175-.363-.302-.126-.922-.126-.97-.142-.095-.047-.206-.41-.365-.584-.191-.205-.573-.252-.62-.315-.175-.19-.032-.395-.064-.41-.064-.048-.334-.016-.445-.11-.096-.064-.08-.27-.175-.364-.35-.394-.589-.663-1.145-.473.238-.742-.239-.695-.525-1.09-.175-.236-.286-.678-.445-.946-.19-.316-.62-.647-.763-1.168-.048-.22 0-.6-.064-.71-.127-.237-.858-.268-.493-1.057l.414-.063-.175-.253H.079l.206-.379c-.429-.252-.222-1.183-.206-1.657 0-.315-.286-.284.206-.52L.08 10.1c-.065-.332.333-.98.38-1.28.032-.205-.095-.378-.063-.552.016-.142.715-.505.318-.9.54.143.668-.457.62-.867 0-.095-.334 0-.207-.269h.35l.111.19.573-.095c-.191-.3.111-.473.222-.758.112-.284.175-.678.302-.915.112-.237.525-.22.35-.6l.684-.094-.095-.616.413.11-.048-.204h.461v-.41c.112-.048.287-.032.382-.08.334-.189 1.765-.93 2.115-1.01.254-.063.477-.063.731-.047L7.473 1.5c.222-.016.445-.11.683-.11.334 0 .54.284.62-.095l.303.205c.174-.063.047-.268.079-.284.254-.253.557.079.747.063.128 0 .255-.19.414-.158.047 0 .731.19.842.205.223.064.223.316.303.363m62.776-.142s0-.269.334-.174c-.191.6.588.615.7.742.031.031.254.647.333.836.032.063.175.079.175.095.048.11-.111.789.445.6-.095.378-.143 1.246.207 1.388-.318.221-.175.458-.095.773h-.318l.206.363c-.127.174-.381.08-.318.363.923.158.286.41.16.726-.112.269.206.805-.573.726l.238.095c.287.284-.206.426-.35.6-.397.489-.604 1.12-1.16 1.515-.223.157-.573.173-.716.378.589-.047.461 1.09 1.257.931.079.127-.414.08-.112.253.398.22 1.066.079.827.773.525-.031.89.316 1.304.584.08.047.222.016.254.047.064.08-.031.3.032.38.143.173 1.606.41 1.86.173l.207.22c-.461.222-.477.569.096.458l.063-.3.477.41c.032.159-.302.127-.318.253 0 .016.16.269.207.316.207.158.43-.126.207.41.159.253.286.08.524.063v.363l.414-.047-.62.363.413.252c-.223.032-.493-.063-.7.032-.095.047-.858.852-.922.884-.684.237-1.224-.458-1.86.016l-.223-.537-.493-.095c-.095.016-.016.316-.27.221l-.127-.6c-.334-.047-1.113-.362-1.272-.63-.032-.064.047-.19.031-.206-.222-.142-.779 0-.81-.016-.064-.031-.175-.505-.255-.584-.207-.22-1.05-.189-.906-.647l-.207.206c-.08-.221 0-.774-.238-.9-.112-.063-.302 0-.43-.047-.032 0-.54-.41-.556-.426-.096-.095-.191-.632-.445-.742l-.843.047c.111-.41-.223-.442-.286-.536-.16-.253-.096-.221-.334-.537-.461-.615-.143-.631-.191-1.325.032-.08 1.081-1.358 1.16-1.39.62-.33.589-.015 1.225-.804.334-.426.954-1.657 1.034-2.178.047-.284 0-.584 0-.868l-.303-.047c.27-.6-.095-.473-.35-.663-.095-.079-.11-.19-.254-.284-.668-.442-.556 0-.938.047-.207.032-.382-.157-.509-.173-.032 0-.047.142-.127.19-.27.157-.684.394-.922.567-.318.237-.445.71-.97.679l.525.268c.031.142-.716.915-.525 1.626.032.11.477.189.207.789l-.414-.205.62.82c-.588.032-.143.552-.524.52.365.332.11.569.127.885.031.552.19 1.041-.127 1.546l.62.158-.382.347.111.79.795.362c.016.363-.588-.063-.731.047.207.38-.382.726.111.884l-.111.458-.255-.11-.047.205c.238 0 .493.126.731.063.223-.063.318-.363.51-.221-.112.268-.637.394-.748.536-.064.095-.175.742-.287.931-.238.427-.477.505-.954.442l.414.316-1.304.41-.731-.615-.207.205-.525-.395-.46.284.412-.457c-.54-.332-.333-.663-.445-1.12-.032-.143-.238-.206-.19-.38l.317-.047c-.318-.11-.079-.536-.11-.568-.033-.031-.255.047-.382-.158-.207-.347.27-.473.27-.52l-.143-.474-.461-.205.62-.205-.111-1.026-.255.205c-.27-.457.413-.473.461-.52 0 0-.095-.158-.063-.237.063-.221.381-.316-.016-.426.175-.332-.096-1.01 0-1.326.016-.095.19-.095.254-.19.19-.252-.159-.378.477-.204-.08-.221-.43-.332-.62-.206-.032-.363.445-.205.525-.568l-.414.048v-.316l-.254.205.048-.205-.319-.11c.112-.3.462-.221.684-.111l.143-.158c.032-.331-.27-.93.112-1.01l-.096-.584-.413.048.207-.316-.207-.095c.222-.268.366-.426.207-.773h.413c.048-.173-.19-.047-.207-.173-.031-.127.048-.363 0-.442l-.397-.174c-.127-.268.62-.49.318-.884.413.19.334-.094.525-.252.238-.174.445-.158.492-.19.08-.047.096-.315.303-.363.254-.063.763.08 1.224-.11.254-.095.238-.268.334-.316C69.23.884 71.378.71 72.856.947c.318.047.859.884 1.384.584"/><path d="M74.24 1.547s0-.269.334-.174c-.191.6.588.615.7.742.031.031.254.647.333.836.032.063.175.079.175.095.048.11-.111.789.445.6-.095.378-.143 1.246.207 1.388-.318.221-.175.458-.095.773h-.318l.206.363c-.127.174-.381.08-.318.363.923.158.286.41.16.726-.112.269.206.805-.573.726l.238.095c.287.284-.206.426-.35.6-.397.489-.604 1.12-1.16 1.515-.223.157-.573.173-.716.378.589-.047.461 1.09 1.257.931.079.127-.414.08-.112.253.398.22 1.066.079.827.773.525-.031.89.316 1.304.584.08.047.222.016.254.047.064.08-.031.3.032.38.143.173 1.606.41 1.86.173l.207.22c-.461.222-.477.569.096.458l.063-.3.477.41c.032.159-.302.127-.318.253 0 .016.16.269.207.316.207.158.43-.126.207.41.159.253.286.08.524.063v.363l.414-.047-.62.363.413.252c-.223.032-.493-.063-.7.032-.095.047-.858.852-.922.884-.684.237-1.224-.458-1.86.016l-.223-.537-.493-.095c-.095.016-.016.316-.27.221l-.127-.6c-.334-.047-1.113-.362-1.272-.63-.032-.064.047-.19.031-.206-.222-.142-.779 0-.81-.016-.064-.031-.175-.505-.255-.584-.207-.22-1.05-.189-.906-.647l-.207.206c-.08-.221 0-.774-.238-.9-.112-.063-.302 0-.43-.047-.032 0-.54-.41-.556-.426-.096-.095-.191-.632-.445-.742l-.843.047c.111-.41-.223-.442-.286-.536-.16-.253-.096-.221-.334-.537-.461-.615-.143-.631-.191-1.325.032-.08 1.081-1.358 1.16-1.39.62-.33.589-.015 1.225-.804.334-.426.954-1.657 1.034-2.178.047-.284 0-.584 0-.868l-.303-.047c.27-.6-.095-.473-.35-.663-.095-.079-.11-.19-.254-.284-.668-.442-.556 0-.938.047-.207.032-.382-.157-.509-.173-.032 0-.047.142-.127.19-.27.157-.684.394-.922.567-.318.237-.445.71-.97.679l.525.268c.031.142-.716.915-.525 1.626.032.11.477.189.207.789l-.414-.205.62.82c-.588.032-.143.552-.524.52.365.332.11.569.127.885.031.552.19 1.041-.127 1.546l.62.158-.382.347.111.79.795.362c.016.363-.588-.063-.731.047.207.38-.382.726.111.884l-.111.458-.255-.11-.047.205c.238 0 .493.126.731.063.223-.063.318-.363.51-.221-.112.268-.637.394-.748.536-.064.095-.175.742-.287.931-.238.427-.477.505-.954.442l.414.316-1.304.41-.731-.615-.207.205-.525-.395-.46.284.412-.457c-.54-.332-.333-.663-.445-1.12-.032-.143-.238-.206-.19-.38l.317-.047c-.318-.11-.079-.536-.11-.568-.033-.031-.255.047-.382-.158-.207-.347.27-.473.27-.52l-.143-.474-.461-.205.62-.205-.111-1.026-.255.205c-.27-.457.413-.473.461-.52 0 0-.095-.158-.063-.237.063-.221.381-.316-.016-.426.175-.332-.096-1.01 0-1.326.016-.095.19-.095.254-.19.19-.252-.159-.378.477-.204-.08-.221-.43-.332-.62-.206-.032-.363.445-.205.525-.568l-.414.048v-.316l-.254.205.048-.205-.319-.11c.112-.3.462-.221.684-.111l.143-.158c.032-.331-.27-.93.112-1.01l-.096-.584-.413.048.207-.316-.207-.095c.222-.268.366-.426.207-.773h.413c.048-.173-.19-.047-.207-.173-.031-.127.048-.363 0-.442l-.397-.174c-.127-.268.62-.49.318-.884.413.19.334-.094.525-.252.238-.174.445-.158.492-.19.08-.047.096-.315.303-.363.254-.063.763.08 1.224-.11.254-.095.238-.268.334-.316C69.23.884 71.378.71 72.856.947c.318.047.859.884 1.384.584m93.719-.095c.143.158.445.047.604.205.191.174.127.631.207.852h.62c-.095.347-.175.332-.509.332l-.032.284h-.302l.414.489-.525-.047.413.615-.524-.11v.978l-.318.063c0 .174.397.063.206.3 0 0-.19-.032-.206.063-.032.158.159.41-.096.663l.525.315c-.62.064-1.161.08-1.24.79l.206.094c-.445.174-.175.268-.27.458-.064.126-.175.237-.238.394-.255.632-.032.9-.954.868l.111.316.366-.205c.095.442.429-.063.572.315l-.875.3c-.174.363-.111.79-.206 1.152-.112.395-.589.884-.589 1.326h-.302c.302.19.064.789-.095.994-.08.11-.286.142-.366.253-.207.3-.318 1.12-.493 1.467-.238.474-.763.41-.906.9l.318.047c-.111.142-.318.174-.429.316-.239.268-.398.868-.795 1.2-.096.078-.303.062-.334.11-.032.031.079.205.047.315-.095.316-.381.379-.047.71-.287 0-.477-.173-.732.048-.206.189.175.236.096.457-.446-.252-.509.71-.636.805-.048.032-.875.158-1.018.332 0 .015.143.205 0 .363-.143.173-.572.22-.747.41-.096.11-.08.315-.128.331-.047.048-1.176.237-1.399.316-.159.047-.143.205-.222.22-.287.064-.7-.047-1.018 0l-.064-.315c-.238.032-.54.11-.779.11-1.288 0-2.226-.236-3.307-.662-.652-.253-1.654-.268-1.336-1.215.62.347.875-.426 1.113-.49.127-.047.541.11.7.08.032 0 .127-.3.525-.206.079.016.079.316.381.205l.318-.315.048.315c.27-.126.223-.757.525-.82.349-.08.159.52.365.52-.127-.6.557-.22.795-.22.048 0 .016-.174.112-.19.524-.11.302-.22.524-.3.207-.079.541 0 .764-.015l-.318-.41.413.204.318-.378-.111-.348c.62.016.715-.867.97-1.199.063-.079.747-.868.795-.915.111-.095.318-.11.381-.174.175-.19-.079-1.136.541-.805l-.111-.363c.445-.22.493-.9-.096-.362-.127-.474.557-.332.604-.79.048-.584-.445-.489-.556-.647-.111-.157 0-.489-.048-.52-.032-.032-.286.047-.397-.016-.08-.047-1.066-1.341-1.193-1.547-.143-.205-.636-.93-.684-1.089-.143-.473.239-.205.191-.536-.986-.11-.715-1.215-1.463-1.61l.207-.158-.62-.22.207-.821h-.366c-.159-.284-.159-.52-.048-.82l-.827-.364.414-.41c-.477-.174-.175-.6-.207-.978l.827.11-.731-.363c.143-.647.715-1.01 1.351-.978l-.111-.206h.89l.7.758-.127.49h.524c.048-.143-.413-.08-.206-.316 0 0 .206-.032.254-.08.096.206.509.443.573.537.143.205.699 1.547.779 1.815.031.126-.096.3-.032.395.016.047.413.252.445.426l.366-.316-.112.726.525-.11-.35.3-.063.268c.381.079.843 1.388.97 1.483.063.047.191 0 .286.016l-.175.126v.268l.7.221c.047.284-.064.158-.207.253l.318.473.111-.505h.398c.047-.268-.064-.173-.207-.268.143-.221.334-.458.445-.694.382-.868.954-1.705 1.193-2.525 0-.016.016-.474 0-.49-.048-.142-.223-.126-.27-.189-.016-.032.063-.126.047-.126-.063-.11-.206 0-.175-.11.096-.332.414.157.62.047-.318-.537.589-1.358.589-1.594 0-.11-.191-.253-.159-.395s.286-.236.35-.379c.095-.22.143-.568.381-.867.048-.064.398-.442.43-.458.111-.063.286.079.397.031.127-.063.207-.441.461-.457.159.457.716.505.938.71.143.126.112.331.175.394"/><path d="M167.959 1.436c.143.158.445.047.604.205.191.174.127.631.207.852h.62c-.095.347-.175.332-.509.332l-.032.284h-.302l.414.489-.525-.047.413.615-.524-.11v.978l-.318.063c0 .174.397.063.206.3 0 0-.19-.032-.206.063-.032.158.159.41-.096.663l.525.315c-.62.064-1.161.08-1.24.79l.206.094c-.445.174-.175.268-.27.458-.064.126-.175.237-.238.394-.255.632-.032.9-.954.868l.111.316.366-.205c.095.442.429-.063.572.315l-.875.3c-.174.363-.111.79-.206 1.152-.112.395-.589.884-.589 1.326h-.302c.302.19.064.789-.095.994-.08.11-.286.142-.366.253-.207.3-.318 1.12-.493 1.467-.238.474-.763.41-.906.9l.318.047c-.111.142-.318.174-.429.316-.239.268-.398.868-.795 1.2-.096.078-.303.062-.334.11-.032.031.079.205.047.315-.095.316-.381.379-.047.71-.287 0-.477-.173-.732.048-.206.189.175.236.096.457-.446-.252-.509.71-.636.805-.048.032-.875.158-1.018.332 0 .015.143.205 0 .363-.143.173-.572.22-.747.41-.096.11-.08.315-.128.331-.047.048-1.176.237-1.399.316-.159.047-.143.205-.222.22-.287.064-.7-.047-1.018 0l-.064-.315c-.238.032-.54.11-.779.11-1.288 0-2.226-.236-3.307-.662-.652-.253-1.654-.268-1.336-1.215.62.347.875-.426 1.113-.49.127-.047.541.11.7.08.032 0 .127-.3.525-.206.079.016.079.316.381.205l.318-.315.048.315c.27-.126.223-.757.525-.82.349-.08.159.52.365.52-.127-.6.557-.22.795-.22.048 0 .016-.174.112-.19.524-.11.302-.22.524-.3.207-.079.541 0 .764-.015l-.318-.41.413.204.318-.378-.111-.348c.62.016.715-.867.97-1.199.063-.079.747-.868.795-.915.111-.095.318-.11.381-.174.175-.19-.079-1.136.541-.805l-.111-.363c.445-.22.493-.9-.096-.362-.127-.474.557-.332.604-.79.048-.584-.445-.489-.556-.647-.111-.157 0-.489-.048-.52-.032-.032-.286.047-.397-.016-.08-.047-1.066-1.341-1.193-1.547-.143-.205-.636-.93-.684-1.089-.143-.473.239-.205.191-.536-.986-.11-.715-1.215-1.463-1.61l.207-.158-.62-.22.207-.821h-.366c-.159-.284-.159-.52-.048-.82l-.827-.364.414-.41c-.477-.174-.175-.6-.207-.978l.827.11-.731-.363c.143-.647.715-1.01 1.351-.978l-.111-.206h.89l.7.758-.127.49h.524c.048-.143-.413-.08-.206-.316 0 0 .206-.032.254-.08.096.206.509.443.573.537.143.205.699 1.547.779 1.815.031.126-.096.3-.032.395.016.047.413.252.445.426l.366-.316-.112.726.525-.11-.35.3-.063.268c.381.079.843 1.388.97 1.483.063.047.191 0 .286.016l-.175.126v.268l.7.221c.047.284-.064.158-.207.253l.318.473.111-.505h.398c.047-.268-.064-.173-.207-.268.143-.221.334-.458.445-.694.382-.868.954-1.705 1.193-2.525 0-.016.016-.474 0-.49-.048-.142-.223-.126-.27-.189-.016-.032.063-.126.047-.126-.063-.11-.206 0-.175-.11.096-.332.414.157.62.047-.318-.537.589-1.358.589-1.594 0-.11-.191-.253-.159-.395s.286-.236.35-.379c.095-.22.143-.568.381-.867.048-.064.398-.442.43-.458.111-.063.286.079.397.031.127-.063.207-.441.461-.457.159.457.716.505.938.71.143.126.112.331.175.394M95.802.19s-.016-.269.238-.174v.41c.573-.158.62.584.732 1.026.222.079.477-.095.683-.079.175 0 .302.158.414.158.27 0 1.065-.695 1.208-.584l-.318.52c.414-.157.589 0 .938.064.589.11.223.047.557.22.111.064.27 0 .382.095.318.221.318.569.524.868-.111.095-.62-.489-.62-.047l.255.205.779.158c.143.268-.207.316-.207.363 0 .158.254 1.042.207 1.073h-.318l.111.616c-.684-.174-.779.489-1.336.6-1.113.22-2.242-.38-3.307.015-.048.19-.095.395-.111.6-.064.584 0 .947 0 1.64 0 .695-.43 1.027-.446 1.547 0 .363.16.853.287 1.184-.096.126-1.05.142-.207.363-.27.316.143.568 0 .884.143.079.62-.174.525.205l-.589.205c.096.584-.556.852.064 1.405-.811.426 0 .63.111.82.16.363-.286.19-.318.316l.048.568.477.095c.064.41-.27-.032-.413.252.143.3.254.284 0 .568l.365.205-.063.3s.858 0 .731.253c-.382.41-.636.347-1.145.268.143.268 0 .473-.111.726l.477-.063c.461.394-.175.268-.239.315-.143.095-.016.348-.54.221l-.16.568c-.206.08-.142-.205-.206-.22-.19-.016-.397.157-.62.189-.398.047-.843-.142-1.24-.08-.064-.425-.398-.473-.795-.52l.318-.205-.525-.11.111-.3-.731-.269c0-.394.7-.236.938-.252-.223-.3.334-.568-.048-.616-.318-.031-.54.158-.683-.252h.524c.334-.316-.175-.19-.111-.41l.318-.316-.207-.11c.239-.38.207-.79.048-1.2l-.572-.158c.492-.142.508-.52.826-.678-.047-.284-.731.126-.62-.3.78.032.16-.805.239-1.263.047-.378.477-1.325.477-1.593 0-.363-.016-.269.032-.71.047-.442-.175-.79-.318-1.184h.62l-.302-.11c-.032-.032-.032-.632.031-.726.096-.143.398 0 .366-.19-.318.032-.731 0-.731-.41.365.22.556.016.604-.347l-.302-.38.413-.204c-.254 0-.27-.284-.477-.41-.46-.269-.556.047-.827.047-.08 0-.477-.19-.715-.063-1.352-.395-2.751-.063-4.134-.095l.111-.316h-1.352l-.206-.726a.52.52 0 0 0 .429-.473c0-.347-.302-.205-.223-.568l.302.11-.206-.252.413-.616-.525.11.51-.52.413.158-.207-.41c.35-.221.604.41.7.41.413.031 1.272-.284 1.812-.11l-.111-.3c.43-.158.954.6 1.097.094.43.41.89.142 1.304-.157-.223-.095-.239-.08-.207-.363.048-.048.97.047 1.177 0 .08-.016.08-.19.207-.237.922-.379.556-.284 1.224-.852.095-.08.795-.6.843-.616.318-.126.62.379 1.113.126"/><path d="M95.802.19s-.016-.269.238-.174v.41c.573-.158.62.584.732 1.026.222.079.477-.095.683-.079.175 0 .302.158.414.158.27 0 1.065-.695 1.208-.584l-.318.52c.414-.157.589 0 .938.064.589.11.223.047.557.22.111.064.27 0 .382.095.318.221.318.569.524.868-.111.095-.62-.489-.62-.047l.255.205.779.158c.143.268-.207.316-.207.363 0 .158.254 1.042.207 1.073h-.318l.111.616c-.684-.174-.779.489-1.336.6-1.113.22-2.242-.38-3.307.015-.048.19-.095.395-.111.6-.064.584 0 .947 0 1.64 0 .695-.43 1.027-.446 1.547 0 .363.16.853.287 1.184-.096.126-1.05.142-.207.363-.27.316.143.568 0 .884.143.079.62-.174.525.205l-.589.205c.096.584-.556.852.064 1.405-.811.426 0 .63.111.82.16.363-.286.19-.318.316l.048.568.477.095c.064.41-.27-.032-.413.252.143.3.254.284 0 .568l.365.205-.063.3s.858 0 .731.253c-.382.41-.636.347-1.145.268.143.268 0 .473-.111.726l.477-.063c.461.394-.175.268-.239.315-.143.095-.016.348-.54.221l-.16.568c-.206.08-.142-.205-.206-.22-.19-.016-.397.157-.62.189-.398.047-.843-.142-1.24-.08-.064-.425-.398-.473-.795-.52l.318-.205-.525-.11.111-.3-.731-.269c0-.394.7-.236.938-.252-.223-.3.334-.568-.048-.616-.318-.031-.54.158-.683-.252h.524c.334-.316-.175-.19-.111-.41l.318-.316-.207-.11c.239-.38.207-.79.048-1.2l-.572-.158c.492-.142.508-.52.826-.678-.047-.284-.731.126-.62-.3.78.032.16-.805.239-1.263.047-.378.477-1.325.477-1.593 0-.363-.016-.269.032-.71.047-.442-.175-.79-.318-1.184h.62l-.302-.11c-.032-.032-.032-.632.031-.726.096-.143.398 0 .366-.19-.318.032-.731 0-.731-.41.365.22.556.016.604-.347l-.302-.38.413-.204c-.254 0-.27-.284-.477-.41-.46-.269-.556.047-.827.047-.08 0-.477-.19-.715-.063-1.352-.395-2.751-.063-4.134-.095l.111-.316h-1.352l-.206-.726a.52.52 0 0 0 .429-.473c0-.347-.302-.205-.223-.568l.302.11-.206-.252.413-.616-.525.11.51-.52.413.158-.207-.41c.35-.221.604.41.7.41.413.031 1.272-.284 1.812-.11l-.111-.3c.43-.158.954.6 1.097.094.43.41.89.142 1.304-.157-.223-.095-.239-.08-.207-.363.048-.048.97.047 1.177 0 .08-.016.08-.19.207-.237.922-.379.556-.284 1.224-.852.095-.08.795-.6.843-.616.318-.126.62.379 1.113.126"/></g><defs><clipPath id="a"><path fill="#fff" d="M0 0h210v49H0z"/></clipPath></defs></svg>