<svg xmlns="http://www.w3.org/2000/svg" viewBox="0.45 0.95 401.54 381.81"><path fill="#0a0a0a" fill-rule="evenodd" d="M287 9.428c-7.975.653-15.507 1.737-16.738 2.408-3.169 1.73-3.758 4.882-3.722 19.914.043 17.885-1.296 16.843 21.076 16.414 17.036-.327 17.541-.279 18.069 1.738.298 1.142.884 1.865 1.301 1.607 1.048-.648 1.99 5.706 2.001 13.491.005 3.575-1.109 20.9-2.475 38.5-1.59 20.464-2.49 39.941-2.499 54.027-.015 24.763.004 24.834 7.303 28.736 3.695 1.976 5.812 2.258 18.118 2.418 17.898.232 18.933-.223 20.458-8.983 1.498-8.6 1.348-32.553-.332-53.008-1.341-16.33-1.211-70.093.178-73.69.319-.825.529-1.775.467-2.112s6.688-.701 15.001-.81c15.27-.2 23.201-1.085 24.893-2.777 1.448-1.448 4.022-16.104 4.104-23.359.068-6.048-2.213-13.884-4.067-13.972C361.4 8.611 300.856 8.293 287 9.428m-87 .55c-16.061 1.114-23.88 3.739-30.073 10.097-10.476 10.756-12.054 21.474-11.835 80.407.227 61.15 1.017 66.984 10.299 76.072 9.117 8.926 27.35 14.312 44.084 13.023 15.486-1.194 16.474-1.409 24.345-5.29 10.099-4.981 13.346-9.443 16.713-22.968 2.389-9.602 2.444-10.72 2.455-50.519.008-28.235-.457-46.152-1.52-58.5-2.379-27.643-5.123-33.545-18.396-39.566-7.468-3.387-16.746-4.096-36.072-2.756m-86.097 1.149c-5.663.817-10.484 3.222-11.95 5.96-.608 1.137-1.485 11.186-1.95 22.338-.896 21.512-1.752 26.715-5.095 30.964-3.463 4.403-7.126 5.676-16.428 5.711-9.408.035-13.143-1.614-15.95-7.042-1.838-3.554-3.221-15.44-4.079-35.058-.373-8.525-1.09-16.283-1.594-17.24-1.923-3.652-6.865-5.149-16.643-5.043-10.59.115-18.385 1.679-20.499 4.113-1.23 1.415-1.548 13.679-2.088 80.323-.695 85.904-.641 86.975 4.637 91.416C24.98 189.854 25.889 190 37.402 190c11.875 0 12.323-.079 14.674-2.581 1.333-1.419 2.261-2.656 2.061-2.75s.374-2.644 1.274-5.669 2.306-13.6 3.124-23.5 1.924-22.05 2.458-27 .979-9.334.989-9.741c.029-1.209 6.094-6.648 8.134-7.296 1.036-.329 1.884-.96 1.884-1.403 0-1.195 18.196-1.316 21.285-.142 1.554.591 2.923 2.062 3.294 3.54.35 1.394 1.101 2.24 1.674 1.886.679-.42.802.302.353 2.091-.401 1.596-.301 2.495.239 2.161 1.277-.789 2.018 8.28 2.688 32.904.571 21.01.801 23.745 2.586 30.743 1.48 5.805 4.318 6.757 20.143 6.757 15.504 0 17.222-.78 18.13-8.229.389-3.188 2.002-129.763 2.017-158.271.003-5.072-2.216-9.644-5.418-11.166-2.947-1.401-18.545-2.151-25.088-1.207M16.232 21c0 1.925.206 2.712.457 1.75.252-.962.252-2.538 0-3.5-.251-.962-.457-.175-.457 1.75m190.814 3.73c-4.569 1.799-11.894 9.963-12.711 14.167-3.645 18.76 4.007 31.957 19.087 32.917 13.775.877 24.891-6.895 27.092-18.944.674-3.687-1.568-14.777-3.466-17.148-8.292-10.355-10.84-11.754-21.199-11.643-4.042.043-8.003.337-8.803.651M16.232 28c0 1.925.206 2.712.457 1.75.252-.962.252-2.538 0-3.5-.251-.962-.457-.175-.457 1.75m140.054 34.5c.008 2.75.202 3.756.432 2.236s.223-3.77-.014-5-.425.014-.418 2.764m-140 7c.008 2.75.202 3.756.432 2.236s.223-3.77-.014-5-.425.014-.418 2.764M156.407 84c0 9.075.152 12.787.337 8.25s.185-11.963 0-16.5-.337-.825-.337 8.25M16.3 81c0 3.025.187 4.263.416 2.75s.229-3.987 0-5.5-.416-.275-.416 2.75m.049 14c0 4.675.173 6.587.383 4.25.211-2.338.211-6.163 0-8.5-.21-2.338-.383-.425-.383 4.25m139.961 11.5c.005 3.3.192 4.529.415 2.732s.218-4.497-.01-6c-.229-1.503-.411-.032-.405 3.268M16.232 109c0 1.925.206 2.713.457 1.75.252-.963.252-2.537 0-3.5-.251-.963-.457-.175-.457 1.75m140.068 9c0 3.025.187 4.263.416 2.75s.229-3.987 0-5.5-.416-.275-.416 2.75M15.328 163.5c.005 3.85.185 5.302.402 3.228.216-2.075.213-5.225-.008-7s-.398-.078-.394 3.772M357.2 191.485l-3.284 2.763.008 13.126c.009 14.25.026 15.047.434 19.876.151 1.787-.094 4.01-.544 4.939-.478.985-.394 1.952.2 2.319.56.347.716 1.12.346 1.718-.37.599-.595 3.124-.501 5.611.256 6.771-1.812 15.811-4.087 17.868-1.723 1.557-3.955 1.795-16.867 1.795h-14.881l-4.757-4.758-4.757-4.758-.668-8.742c-.367-4.808-.709-16.617-.759-26.242-.081-15.589-.307-17.855-2.072-20.75-1.09-1.787-2.326-3.284-2.746-3.327-.421-.042-1.665-.354-2.765-.694s-6.832-.573-12.739-.518c-12.273.114-19.263 2.455-20.358 6.819-.324 1.291-.386 11.037-.138 21.658.446 19.145.486 19.431 4.571 33.069 4.7 15.692 6.148 18.937 10.502 23.523 2.631 2.772 2.922 3.547 1.882 5-2.733 3.815-4.176 8.398-7.239 22.99-2.868 13.658-3.196 16.928-3.114 31 .05 8.651.262 16.63.47 17.73.209 1.1.989 5.526 1.735 9.835 1.19 6.876 1.691 8.008 4.092 9.25 3.275 1.693 10.675 1.791 25.412.337 6.873-.678 11.474-1.612 12.406-2.518 1.054-1.024 1.463-3.527 1.416-8.672-.035-3.977-.176-17.92-.313-30.983-.229-22.055-.093-24.216 1.915-30.25 1.19-3.575 2.504-6.499 2.921-6.499s1.264-1.11 1.882-2.467c1.646-3.613 8.921-8.535 12.597-8.523 4.473.014 12.68 4.142 16.925 8.513 6.187 6.37 6.553 11.903 1.388 20.977-2.077 3.65-3.017 4.238-10.745 6.723-10.872 3.496-13.291 6.004-14.997 15.553-1.176 6.577-.936 23.075.424 29.224.304 1.375 2.088 3.921 3.964 5.658 4.326 4.005 9.321 4.606 34.629 4.164l18.488-.322 1.292-2.699c1.768-3.692 3.528-33.997 3.009-51.801-.47-16.14-1.937-21.859-8.215-32.031-5.06-8.198-5.178-9.594-1.708-20.175 2.932-8.94 6.536-31.442 9.349-58.362 1.658-15.869-.479-17.885-20.211-19.076-10.427-.629-10.534-.612-13.792 2.129m-5.005 5.015c.02 1.65.244 2.204.498 1.231s.237-2.323-.037-3-.481.119-.461 1.769m-294.821.16c-4.335.911-6.196 4.349-7.124 13.164-.818 7.772-.741 8.419 1.159 9.75 1.12.784 3.623 1.436 5.564 1.448 6.797.042 11.211 2.99 19.172 12.804.592.729 1.139 2.417 1.216 3.749s.539 2.424 1.028 2.424c1.426.001-.05 11.835-1.812 14.524-2.306 3.519-9.028 6.617-15.665 7.219-7.354.666-10.065-.059-14.383-3.851C40.937 252.981 40 248.1 40 223.874c0-20.302-.052-20.823-2.331-23.472-1.885-2.192-3.405-2.798-7.953-3.176-7.725-.64-12.055.354-15.483 3.556l-2.91 2.718-.7 43.5c-.43 26.683-.321 47.173.281 53 .54 5.225 1.254 15.35 1.588 22.5.986 21.135 3.58 34.106 7.972 39.864 1.418 1.859 5.381 4.882 8.807 6.718 5.988 3.209 6.655 3.338 17.229 3.322 6.05-.009 12.125-.241 13.5-.516 4.922-.984 11-3.22 11-4.046 0-1.862 7.064-.667 12.609 2.132 3.24 1.636 7.751 3.254 10.025 3.596 6.6.993 21.103-1.981 29.436-6.037 9.185-4.47 11.519-6.632 14.606-13.533 4.417-9.877 5.357-23.054 5.992-84 .318-30.525.604-56.85.634-58.5.086-4.671-1.151-8.349-3.17-9.43-1.015-.543-10.166-1.118-20.336-1.278-19.484-.306-21.796.147-21.796 4.271 0 1.001-.394 2.062-.875 2.36-.481.297-.884 3.136-.894 6.309-.028 8.333 1.119 9.268 11.359 9.268 4.554 0 9.418.433 10.809.962 3.151 1.197 9.255 10.325 10.119 15.129C131.506 250.153 120.97 262 109.144 262c-4.801 0-9.499-2.884-11.745-7.208-1.969-3.79-3.361-18.657-3.382-36.108-.009-8.148-.45-15.624-.979-16.613-1.48-2.766-5.599-3.86-17.038-4.526-5.775-.336-11.85-.773-13.5-.971s-3.957-.16-5.126.086m146.341 1.467c-9.208 2.182-21.251 7.546-26.788 11.931-4.845 3.837-12.118 13.147-15.334 19.628-5.167 10.414-8.093 28.663-8.093 50.47 0 5.31-.336 9.447-.747 9.193-.411-.255-.379.575.072 1.844 1.026 2.891.876 35.865-.172 37.559-.424.686-.328 1.248.214 1.248.619 0 .939 7.536.86 20.25l-.126 20.25-.585-18.5-.584-18.5-.216 18.139c-.283 23.783-1.201 22.534 16.284 22.148l13-.287.586-57.5c.57-55.872.943-62.717 4.061-74.484 1.429-5.389 5.918-10.806 12.866-15.525 8.609-5.846 13.318-7.511 16.969-5.998 1.623.672 3.222 2.074 3.552 3.115.33 1.04 1.047 1.892 1.592 1.892s.714.45.374 1-.079 1 .58 1c.86 0 1.042 1.719.645 6.093-.961 10.6-7.752 18.856-16.684 20.285-2.238.357-5.002 1.583-6.142 2.723-2.057 2.057-2.068 2.443-1.528 53.736.3 28.414.854 53.386 1.231 55.492.514 2.872 1.333 4.076 3.276 4.815 1.524.579 12.162.855 25.823.67 20.441-.276 23.439-.522 24.962-2.047 2.149-2.151 2.862-17.202 3.899-82.267.793-49.838.41-54.567-5.436-67-6.731-14.318-20.394-23.749-33.888-23.395-3.706.098-10.241 1.008-14.523 2.022m60.571 4.373c.008 2.75.202 3.756.432 2.236s.223-3.77-.014-5-.425.014-.418 2.764m.092 17.5c0 6.325.163 8.912.361 5.75s.198-8.338 0-11.5-.361-.575-.361 5.75m-68.106 43c0 2.475.195 3.488.434 2.25.238-1.238.238-3.262 0-4.5-.239-1.238-.434-.225-.434 2.25M8.195 274.5c.02 1.65.244 2.204.498 1.231s.237-2.323-.037-3-.481.119-.461 1.769m2 35c.02 1.65.244 2.204.498 1.231s.237-2.323-.037-3-.481.119-.461 1.769m187 44c.02 1.65.244 2.204.498 1.231s.237-2.323-.037-3-.481.119-.461 1.769"/></svg>