<svg xmlns="http://www.w3.org/2000/svg" width="100%" height="100%" viewBox="0.45 0.95 401.54 381.81" version="1.1">
	<path d="M 287 9.428 C 279.025 10.081, 271.493 11.165, 270.262 11.836 C 267.093 13.566, 266.504 16.718, 266.540 31.750 C 266.583 49.635, 265.244 48.593, 287.616 48.164 C 304.652 47.837, 305.157 47.885, 305.685 49.902 C 305.983 51.044, 306.569 51.767, 306.986 51.509 C 308.034 50.861, 308.976 57.215, 308.987 65 C 308.992 68.575, 307.878 85.900, 306.512 103.500 C 304.922 123.964, 304.022 143.441, 304.013 157.527 C 303.998 182.290, 304.017 182.361, 311.316 186.263 C 315.011 188.239, 317.128 188.521, 329.434 188.681 C 347.332 188.913, 348.367 188.458, 349.892 179.698 C 351.390 171.098, 351.240 147.145, 349.560 126.690 C 348.219 110.360, 348.349 56.597, 349.738 53 C 350.057 52.175, 350.267 51.225, 350.205 50.888 C 350.143 50.551, 356.893 50.187, 365.206 50.078 C 380.476 49.878, 388.407 48.993, 390.099 47.301 C 391.547 45.853, 394.121 31.197, 394.203 23.942 C 394.271 17.894, 391.990 10.058, 390.136 9.970 C 361.400 8.611, 300.856 8.293, 287 9.428 M 200 9.978 C 183.939 11.092, 176.120 13.717, 169.927 20.075 C 159.451 30.831, 157.873 41.549, 158.092 100.482 C 158.319 161.632, 159.109 167.466, 168.391 176.554 C 177.508 185.480, 195.741 190.866, 212.475 189.577 C 227.961 188.383, 228.949 188.168, 236.820 184.287 C 246.919 179.306, 250.166 174.844, 253.533 161.319 C 255.922 151.717, 255.977 150.599, 255.988 110.800 C 255.996 82.565, 255.531 64.648, 254.468 52.300 C 252.089 24.657, 249.345 18.755, 236.072 12.734 C 228.604 9.347, 219.326 8.638, 200 9.978 M 113.903 11.127 C 108.240 11.944, 103.419 14.349, 101.953 17.087 C 101.345 18.224, 100.468 28.273, 100.003 39.425 C 99.107 60.937, 98.251 66.140, 94.908 70.389 C 91.445 74.792, 87.782 76.065, 78.480 76.100 C 69.072 76.135, 65.337 74.486, 62.530 69.058 C 60.692 65.504, 59.309 53.618, 58.451 34 C 58.078 25.475, 57.361 17.717, 56.857 16.760 C 54.934 13.108, 49.992 11.611, 40.214 11.717 C 29.624 11.832, 21.829 13.396, 19.715 15.830 C 18.485 17.245, 18.167 29.509, 17.627 96.153 C 16.932 182.057, 16.986 183.128, 22.264 187.569 C 24.980 189.854, 25.889 190, 37.402 190 C 49.277 190, 49.725 189.921, 52.076 187.419 C 53.409 186, 54.337 184.763, 54.137 184.669 C 53.937 184.576, 54.511 182.025, 55.411 179 C 56.311 175.975, 57.717 165.400, 58.535 155.500 C 59.353 145.600, 60.459 133.450, 60.993 128.500 C 61.527 123.550, 61.972 119.166, 61.982 118.759 C 62.011 117.550, 68.076 112.111, 70.116 111.463 C 71.152 111.134, 72 110.503, 72 110.060 C 72 108.865, 90.196 108.744, 93.285 109.918 C 94.839 110.509, 96.208 111.980, 96.579 113.458 C 96.929 114.852, 97.680 115.698, 98.253 115.344 C 98.932 114.924, 99.055 115.646, 98.606 117.435 C 98.205 119.031, 98.305 119.930, 98.845 119.596 C 100.122 118.807, 100.863 127.876, 101.533 152.500 C 102.104 173.510, 102.334 176.245, 104.119 183.243 C 105.599 189.048, 108.437 190, 124.262 190 C 139.766 190, 141.484 189.220, 142.392 181.771 C 142.781 178.583, 144.394 52.008, 144.409 23.500 C 144.412 18.428, 142.193 13.856, 138.991 12.334 C 136.044 10.933, 120.446 10.183, 113.903 11.127 M 16.232 21 C 16.232 22.925, 16.438 23.712, 16.689 22.750 C 16.941 21.788, 16.941 20.212, 16.689 19.250 C 16.438 18.288, 16.232 19.075, 16.232 21 M 207.046 24.730 C 202.477 26.529, 195.152 34.693, 194.335 38.897 C 190.690 57.657, 198.342 70.854, 213.422 71.814 C 227.197 72.691, 238.313 64.919, 240.514 52.870 C 241.188 49.183, 238.946 38.093, 237.048 35.722 C 228.756 25.367, 226.208 23.968, 215.849 24.079 C 211.807 24.122, 207.846 24.416, 207.046 24.730 M 16.232 28 C 16.232 29.925, 16.438 30.712, 16.689 29.750 C 16.941 28.788, 16.941 27.212, 16.689 26.250 C 16.438 25.288, 16.232 26.075, 16.232 28 M 156.286 62.500 C 156.294 65.250, 156.488 66.256, 156.718 64.736 C 156.947 63.216, 156.941 60.966, 156.704 59.736 C 156.467 58.506, 156.279 59.750, 156.286 62.500 M 16.286 69.500 C 16.294 72.250, 16.488 73.256, 16.718 71.736 C 16.947 70.216, 16.941 67.966, 16.704 66.736 C 16.467 65.506, 16.279 66.750, 16.286 69.500 M 156.407 84 C 156.407 93.075, 156.559 96.787, 156.744 92.250 C 156.929 87.713, 156.929 80.287, 156.744 75.750 C 156.559 71.213, 156.407 74.925, 156.407 84 M 16.300 81 C 16.300 84.025, 16.487 85.263, 16.716 83.750 C 16.945 82.237, 16.945 79.763, 16.716 78.250 C 16.487 76.737, 16.300 77.975, 16.300 81 M 16.349 95 C 16.349 99.675, 16.522 101.587, 16.732 99.250 C 16.943 96.912, 16.943 93.087, 16.732 90.750 C 16.522 88.412, 16.349 90.325, 16.349 95 M 156.310 106.500 C 156.315 109.800, 156.502 111.029, 156.725 109.232 C 156.947 107.435, 156.943 104.735, 156.715 103.232 C 156.486 101.729, 156.304 103.200, 156.310 106.500 M 16.232 109 C 16.232 110.925, 16.438 111.713, 16.689 110.750 C 16.941 109.787, 16.941 108.213, 16.689 107.250 C 16.438 106.287, 16.232 107.075, 16.232 109 M 156.300 118 C 156.300 121.025, 156.487 122.263, 156.716 120.750 C 156.945 119.237, 156.945 116.763, 156.716 115.250 C 156.487 113.737, 156.300 114.975, 156.300 118 M 15.328 163.500 C 15.333 167.350, 15.513 168.802, 15.730 166.728 C 15.946 164.653, 15.943 161.503, 15.722 159.728 C 15.501 157.952, 15.324 159.650, 15.328 163.500 M 357.200 191.485 L 353.916 194.248 353.924 207.374 C 353.933 221.624, 353.950 222.421, 354.358 227.250 C 354.509 229.037, 354.264 231.260, 353.814 232.189 C 353.336 233.174, 353.420 234.141, 354.014 234.508 C 354.574 234.855, 354.730 235.628, 354.360 236.226 C 353.990 236.825, 353.765 239.350, 353.859 241.837 C 354.115 248.608, 352.047 257.648, 349.772 259.705 C 348.049 261.262, 345.817 261.500, 332.905 261.500 L 318.024 261.500 313.267 256.742 L 308.510 251.984 307.842 243.242 C 307.475 238.434, 307.133 226.625, 307.083 217 C 307.002 201.411, 306.776 199.145, 305.011 196.250 C 303.921 194.463, 302.685 192.966, 302.265 192.923 C 301.844 192.881, 300.600 192.569, 299.500 192.229 C 298.400 191.889, 292.668 191.656, 286.761 191.711 C 274.488 191.825, 267.498 194.166, 266.403 198.530 C 266.079 199.821, 266.017 209.567, 266.265 220.188 C 266.711 239.333, 266.751 239.619, 270.836 253.257 C 275.536 268.949, 276.984 272.194, 281.338 276.780 C 283.969 279.552, 284.260 280.327, 283.220 281.780 C 280.487 285.595, 279.044 290.178, 275.981 304.770 C 273.113 318.428, 272.785 321.698, 272.867 335.770 C 272.917 344.421, 273.129 352.400, 273.337 353.500 C 273.546 354.600, 274.326 359.026, 275.072 363.335 C 276.262 370.211, 276.763 371.343, 279.164 372.585 C 282.439 374.278, 289.839 374.376, 304.576 372.922 C 311.449 372.244, 316.050 371.310, 316.982 370.404 C 318.036 369.380, 318.445 366.877, 318.398 361.732 C 318.363 357.755, 318.222 343.812, 318.085 330.749 C 317.856 308.694, 317.992 306.533, 320 300.499 C 321.190 296.924, 322.504 294, 322.921 294 C 323.338 294, 324.185 292.890, 324.803 291.533 C 326.449 287.920, 333.724 282.998, 337.400 283.010 C 341.873 283.024, 350.080 287.152, 354.325 291.523 C 360.512 297.893, 360.878 303.426, 355.713 312.500 C 353.636 316.150, 352.696 316.738, 344.968 319.223 C 334.096 322.719, 331.677 325.227, 329.971 334.776 C 328.795 341.353, 329.035 357.851, 330.395 364 C 330.699 365.375, 332.483 367.921, 334.359 369.658 C 338.685 373.663, 343.680 374.264, 368.988 373.822 L 387.476 373.500 388.768 370.801 C 390.536 367.109, 392.296 336.804, 391.777 319 C 391.307 302.860, 389.840 297.141, 383.562 286.969 C 378.502 278.771, 378.384 277.375, 381.854 266.794 C 384.786 257.854, 388.390 235.352, 391.203 208.432 C 392.861 192.563, 390.724 190.547, 370.992 189.356 C 360.565 188.727, 360.458 188.744, 357.200 191.485 M 352.195 196.500 C 352.215 198.150, 352.439 198.704, 352.693 197.731 C 352.947 196.758, 352.930 195.408, 352.656 194.731 C 352.382 194.054, 352.175 194.850, 352.195 196.500 M 57.374 196.660 C 53.039 197.571, 51.178 201.009, 50.250 209.824 C 49.432 217.596, 49.509 218.243, 51.409 219.574 C 52.529 220.358, 55.032 221.010, 56.973 221.022 C 63.770 221.064, 68.184 224.012, 76.145 233.826 C 76.737 234.555, 77.284 236.243, 77.361 237.575 C 77.437 238.908, 77.900 239.999, 78.389 239.999 C 79.815 240, 78.339 251.834, 76.577 254.523 C 74.271 258.042, 67.549 261.140, 60.912 261.742 C 53.558 262.408, 50.847 261.683, 46.529 257.891 C 40.937 252.981, 40 248.100, 40 223.874 C 40 203.572, 39.948 203.051, 37.669 200.402 C 35.784 198.210, 34.264 197.604, 29.716 197.226 C 21.991 196.586, 17.661 197.580, 14.233 200.782 L 11.323 203.500 10.623 247 C 10.193 273.683, 10.302 294.173, 10.904 300 C 11.444 305.225, 12.158 315.350, 12.492 322.500 C 13.478 343.635, 16.072 356.606, 20.464 362.364 C 21.882 364.223, 25.845 367.246, 29.271 369.082 C 35.259 372.291, 35.926 372.420, 46.500 372.404 C 52.550 372.395, 58.625 372.163, 60 371.888 C 64.922 370.904, 71 368.668, 71 367.842 C 71 365.980, 78.064 367.175, 83.609 369.974 C 86.849 371.610, 91.360 373.228, 93.634 373.570 C 100.234 374.563, 114.737 371.589, 123.070 367.533 C 132.255 363.063, 134.589 360.901, 137.676 354 C 142.093 344.123, 143.033 330.946, 143.668 270 C 143.986 239.475, 144.272 213.150, 144.302 211.500 C 144.388 206.829, 143.151 203.151, 141.132 202.070 C 140.117 201.527, 130.966 200.952, 120.796 200.792 C 101.312 200.486, 99 200.939, 99 205.063 C 99 206.064, 98.606 207.125, 98.125 207.423 C 97.644 207.720, 97.241 210.559, 97.231 213.732 C 97.203 222.065, 98.350 223, 108.590 223 C 113.144 223, 118.008 223.433, 119.399 223.962 C 122.550 225.159, 128.654 234.287, 129.518 239.091 C 131.506 250.153, 120.970 262, 109.144 262 C 104.343 262, 99.645 259.116, 97.399 254.792 C 95.430 251.002, 94.038 236.135, 94.017 218.684 C 94.008 210.536, 93.567 203.060, 93.038 202.071 C 91.558 199.305, 87.439 198.211, 76 197.545 C 70.225 197.209, 64.150 196.772, 62.500 196.574 C 60.850 196.376, 58.543 196.414, 57.374 196.660 M 203.715 198.127 C 194.507 200.309, 182.464 205.673, 176.927 210.058 C 172.082 213.895, 164.809 223.205, 161.593 229.686 C 156.426 240.100, 153.500 258.349, 153.500 280.156 C 153.500 285.466, 153.164 289.603, 152.753 289.349 C 152.342 289.094, 152.374 289.924, 152.825 291.193 C 153.851 294.084, 153.701 327.058, 152.653 328.752 C 152.229 329.438, 152.325 330, 152.867 330 C 153.486 330, 153.806 337.536, 153.727 350.250 L 153.601 370.500 153.016 352 L 152.432 333.500 152.216 351.639 C 151.933 375.422, 151.015 374.173, 168.500 373.787 L 181.500 373.500 182.086 316 C 182.656 260.128, 183.029 253.283, 186.147 241.516 C 187.576 236.127, 192.065 230.710, 199.013 225.991 C 207.622 220.145, 212.331 218.480, 215.982 219.993 C 217.605 220.665, 219.204 222.067, 219.534 223.108 C 219.864 224.148, 220.581 225, 221.126 225 C 221.672 225, 221.840 225.450, 221.500 226 C 221.160 226.550, 221.421 227, 222.080 227 C 222.940 227, 223.122 228.719, 222.725 233.093 C 221.764 243.693, 214.973 251.949, 206.041 253.378 C 203.803 253.735, 201.039 254.961, 199.899 256.101 C 197.842 258.158, 197.831 258.544, 198.371 309.837 C 198.671 338.251, 199.225 363.223, 199.602 365.329 C 200.116 368.201, 200.935 369.405, 202.878 370.144 C 204.402 370.723, 215.040 370.999, 228.701 370.814 C 249.142 370.538, 252.140 370.292, 253.663 368.767 C 255.812 366.616, 256.525 351.565, 257.562 286.500 C 258.355 236.662, 257.972 231.933, 252.126 219.500 C 245.395 205.182, 231.732 195.751, 218.238 196.105 C 214.532 196.203, 207.997 197.113, 203.715 198.127 M 264.286 202.500 C 264.294 205.250, 264.488 206.256, 264.718 204.736 C 264.947 203.216, 264.941 200.966, 264.704 199.736 C 264.467 198.506, 264.279 199.750, 264.286 202.500 M 264.378 220 C 264.378 226.325, 264.541 228.912, 264.739 225.750 C 264.937 222.588, 264.937 217.412, 264.739 214.250 C 264.541 211.088, 264.378 213.675, 264.378 220 M 196.272 263 C 196.272 265.475, 196.467 266.488, 196.706 265.250 C 196.944 264.012, 196.944 261.988, 196.706 260.750 C 196.467 259.512, 196.272 260.525, 196.272 263 M 8.195 274.500 C 8.215 276.150, 8.439 276.704, 8.693 275.731 C 8.947 274.758, 8.930 273.408, 8.656 272.731 C 8.382 272.054, 8.175 272.850, 8.195 274.500 M 10.195 309.500 C 10.215 311.150, 10.439 311.704, 10.693 310.731 C 10.947 309.758, 10.930 308.408, 10.656 307.731 C 10.382 307.054, 10.175 307.850, 10.195 309.500 M 197.195 353.500 C 197.215 355.150, 197.439 355.704, 197.693 354.731 C 197.947 353.758, 197.930 352.408, 197.656 351.731 C 197.382 351.054, 197.175 351.850, 197.195 353.500" stroke="none" fill="#0a0a0a" fill-rule="evenodd"/>
</svg>