<svg xmlns="http://www.w3.org/2000/svg" viewBox="38.47 439.13 963.39 160.42"><path fill="#0a0a0a" fill-rule="evenodd" d="m186.719 449.284-7.781 7.068-7.864-4.19c-11.971-6.378-20.895-8.401-37.074-8.401-23.559 0-38.679 5.946-54.01 21.239-14.49 14.454-20.776 28.492-21.717 48.5-.832 17.68 2.264 32.366 9.276 44.012 3.951 6.561 4.278 5.521-4.763 15.151-3.182 3.39-5.786 6.551-5.786 7.024s3.603 4.442 8.008 8.821l8.007 7.96 7.566-7.565 7.566-7.566 9.677 4.846c13.93 6.976 19.879 8.314 36.676 8.247 12.443-.05 14.89-.355 22-2.738 13.025-4.366 21.957-9.921 31.664-19.691 7.478-7.527 9.348-10.144 13.659-19.111 2.747-5.715 5.598-12.865 6.336-15.89 1.981-8.123 1.669-29.891-.543-37.942-2.052-7.469-6.55-17.752-9.697-22.172l-2.187-3.072 7.858-7.905c7.746-7.791 7.831-7.931 5.884-9.728a3553 3553 0 0 1-8.474-7.894l-6.5-6.07zm-69.219 1.689c-3.85 1.024-8.748 2.606-10.885 3.515-12.945 5.505-28.339 19.75-34.961 32.351-10.435 19.858-10.26 43.657.472 64.286l4.189 8.052 48.343-48.335C151.246 484.258 173 462.219 173 461.865c0-1.465-16.492-9.073-23.623-10.897-9.809-2.508-22.439-2.506-31.877.005m818.212 26.649c-.392.391-.712 20.211-.712 44.045V565h4.809c8.706 0 8.192 3.129 7.395-45l-.704-42.5-5.038-.295c-2.772-.162-5.359.025-5.75.417m-793.53 49.69c-37.431 37.442-48.02 48.57-47 49.394 3.164 2.552 16.28 8.415 22.977 10.271 8.93 2.474 21.579 2.66 30.197.442 14.523-3.738 30.174-13.554 39.44-24.735 5.188-6.261 11.617-18.986 13.733-27.184 2.483-9.614 2.894-20.939 1.073-29.5-1.467-6.894-7.489-21.056-10.741-25.26-1.236-1.598-5.811 2.692-49.679 46.572M264 522.548v42.547l6.25-.297 6.25-.298.261-42.25.261-42.25H264zm164.975-30.983c-.536 1.411-.978 3.548-.981 4.75-.01 3.951-2.147 10.128-4.654 13.449l-2.463 3.264 2.058 2.617c3.087 3.924 4.177 9.326 5.038 24.964.862 15.665 2.486 20.459 8.039 23.739 8.653 5.112 22.057 1.209 19.423-5.656-.335-.874-2.933-2.329-5.772-3.232-2.84-.904-6.175-2.752-7.413-4.108-2.114-2.314-2.25-3.33-2.25-16.783V520.25l3.125-.625c1.719-.344 4.628-.625 6.465-.625 3.665 0 5.41-2.056 5.41-6.375 0-3.194-.572-3.506-7.813-4.263l-5.982-.626-.684-6.388c-.503-4.692-1.351-7.18-3.192-9.368-3.209-3.815-6.99-4.002-8.354-.415m401.804.394c-1.944 1.529-2.618 3.189-3.069 7.56-.405 3.93-1.551 7.116-3.842 10.686l-3.263 5.086 3.697 3.105L828 521.5l.01 14.5c.009 13.142.23 14.968 2.367 19.5 3.563 7.554 6.517 9.792 13.6 10.305 3.273.236 7.117.137 8.542-.221 2.336-.586 2.562-1.059 2.287-4.768-.292-3.932-.509-4.179-4.806-5.475-8.234-2.485-8.187-2.382-9.026-19.553-.41-8.409-.648-15.399-.529-15.536.119-.136 3.014-.54 6.432-.897 4.685-.49 6.574-1.161 7.669-2.725 3.393-4.843 1.25-7.353-7.173-8.404l-5.873-.733-.7-6.346c-1.138-10.311-4.581-13.467-10.021-9.188m-508.061 16.078c-2.081.52-5.118 1.636-6.75 2.48-2.677 1.384-3.268 1.379-6.024-.046-1.777-.919-4.812-1.453-7.25-1.276l-4.194.305-.267 26.931c-.206 20.878.018 27.111 1 27.734 1.628 1.034 9.499 1.078 10.129.058.265-.428.808-8.342 1.207-17.587.832-19.286 2.209-23.678 8.47-27.031 4.831-2.586 12.176-1.544 15.988 2.269 2.701 2.7 2.703 2.713 3.441 22.914l.738 20.212h4.315c7.878 0 7.482 1.11 7.457-20.857-.02-17.606-.233-20.11-2.062-24.143-2.35-5.184-5.283-8.601-9.08-10.576-3.541-1.843-12.416-2.561-17.118-1.387m56.919.367c-7.953 2.96-13.577 11.77-12.201 19.109 1.224 6.52 6.729 10.714 19.69 14.999 6.256 2.069 11.547 3.91 11.759 4.092.211.183-.19 1.718-.891 3.411-2.581 6.231-9.937 7.364-18.112 2.79-3.461-1.937-3.771-1.952-7.172-.338-1.956.928-3.825 2.391-4.155 3.251-.903 2.353 1.963 5.985 6.71 8.502 6.018 3.191 18.431 3.202 24.427.022 5.351-2.838 9.341-8.072 10.022-13.144.726-5.416-.19-8.432-3.819-12.565-2.512-2.861-4.874-4.058-12.892-6.532-11.505-3.55-14.783-5.676-13.229-8.579.573-1.069 1.912-2.733 2.977-3.696 1.849-1.674 2.331-1.638 10.837.827l8.901 2.58 2.255-2.622c2.834-3.294 2.832-4.621-.008-7.289-5.353-5.029-18.007-7.458-25.099-4.818m225.1.026c-2.07.739-4.761 2.006-5.981 2.816-1.981 1.315-2.487 1.285-4.737-.283-1.385-.966-3.89-1.998-5.566-2.294-5.946-1.049-5.913-1.19-6.307 27.136l-.36 25.882 2.799 2.201c3.772 2.967 6.539 2.364 8.663-1.888 1.428-2.858 1.749-6.213 1.75-18.3.002-15.807.536-18.075 5.309-22.532 3.668-3.426 9.214-3.796 14.693-.98 4.418 2.27 4.512 2.421 5.141 8.312.353 3.3.691 11.527.75 18.282.133 14.968 1.456 19.218 5.985 19.218 2.027 0 3.641-.842 5.051-2.635 1.896-2.41 2.073-3.966 2.073-18.265 0-17.607.867-20.65 7.102-24.936 3.77-2.592 7.662-2.559 14.048.119l3.649 1.531.58 9.343c.319 5.139.927 14.743 1.351 21.343l.77 12h11l.864-12.5c1.565-22.62-1.855-37.05-9.968-42.064-7.213-4.458-19.721-3.156-27.84 2.898l-3.906 2.912-4.575-3.27c-7.409-5.294-14.99-6.667-22.338-4.046m101.763-.532c-9.024 1.614-15.72 7.018-19.889 16.051-1.64 3.552-2.102 6.526-2.106 13.551-.004 8.104.289 9.531 2.949 14.333 3.238 5.845 6.642 9.118 12.93 12.432 3.32 1.751 5.855 2.176 13.116 2.202 8.036.03 9.643-.288 15-2.967 6.41-3.205 7.898-6.019 5.526-10.451-1.46-2.728-4.687-2.609-12.218.451-3.384 1.375-7.584 2.5-9.333 2.5-3.902 0-9.165-3.417-12.201-7.922-4.112-6.101-4.175-6.077 15.976-6.089 10.038-.006 19.988-.298 22.112-.649l3.863-.638-.678-5.988c-1.397-12.352-7.134-21.597-15.547-25.055-4.402-1.809-14.256-2.699-19.5-1.761m70.989.966c-3.306.948-6.555 2.059-7.221 2.47-.665.411-2.55.054-4.189-.793S761.344 509 759.2 509h-3.9l-.551 27.25c-.404 19.987-.244 27.446.6 27.985 1.9 1.213 9.473.858 10.342-.485.445-.687 1.034-8.675 1.309-17.75.559-18.451 1.755-22.66 7.42-26.114 3.456-2.108 6.424-2.335 11.626-.89 7.229 2.009 7.102 1.648 7.988 22.597.941 22.257 1.622 24.65 6.892 24.206 2.821-.237 3.855-.917 4.982-3.279 2.08-4.359 2.515-15.705 1.159-30.24-1.465-15.707-2.836-18.311-12.277-23.314-4.474-2.37-9.282-2.399-17.301-.102m112.011-1.183c-8.551 1.92-14.5 5.94-14.5 9.797 0 1.265.788 3.257 1.75 4.426l1.75 2.126 5.407-2.071c2.974-1.139 7.667-2.499 10.428-3.022 4.489-.852 5.26-.727 7.287 1.178 1.247 1.171 2.719 3.425 3.271 5.008.847 2.429.739 2.884-.695 2.921-10.584.271-22.355 1.996-25.871 3.789-8.054 4.109-11.251 10.52-9.863 19.777.54 3.6 1.626 5.532 5.01 8.916 5.034 5.035 9.915 6.243 19.89 4.924 3.375-.446 10.186-.9 15.136-1.009l9-.197.32-16.872c.421-22.26-.792-29.575-5.727-34.512-5.005-5.008-14.086-7.089-22.593-5.179m-400 1.462c-1.65.534-6.712.717-11.25.408l-8.25-.563V565l4.75-.015c2.613-.009 5.29-.359 5.95-.778.804-.512 1.41-6.028 1.837-16.735.351-8.785 1.085-17.439 1.632-19.233 1.237-4.059 5.674-7.509 13.945-10.841 7.443-2.999 8.153-3.539 7.364-5.595-1.323-3.447-9.394-4.791-15.978-2.66m24.907 1.358c-.901 1.376-1.988 5.686-2.416 9.578-.834 7.598.344 26.736 2.031 33.002 1.24 4.605 5.079 9.389 9.347 11.647 4.221 2.234 15.58 2.185 22.324-.095 4.341-1.468 6.133-1.582 10.933-.694 3.158.583 6.334 1.061 7.058 1.061 1.056 0 1.316-5.431 1.316-27.521v-27.522l-2.479-1.129c-1.67-.761-3.545-.825-5.75-.195-3.058.874-3.313 1.29-3.922 6.401-.358 3.006-.697 11.091-.754 17.966-.087 10.597-.405 12.996-2.09 15.759-2.448 4.016-7.532 7.232-11.439 7.237-3.737.005-11.176-3.563-12.075-5.792-.378-.937-.927-9.579-1.22-19.204-.606-19.911-1.449-23-6.274-23-2.045 0-3.454.768-4.59 2.501m191.998 9.348c-3.787 1.77-8.405 7.275-8.405 10.019 0 .792 4.501 1.132 15 1.132 16.404 0 16.493-.039 13.044-5.696-4.008-6.573-12.313-8.88-19.639-5.455m183.87 20.079c-10.183 2.555-12.344 11.056-3.727 14.657 6.162 2.574 12.579 1.323 16.586-3.233 6.215-7.065-1.812-14.196-12.859-11.424m80.024 11.575c-2.383 1.669-4.655 7.407-3.807 9.616.669 1.744 3.946 3.86 7.602 4.908 3.732 1.07 6.583-1.112 7.915-6.059 1.327-4.929.195-7.353-4.137-8.863-4.142-1.444-5.009-1.398-7.573.398"/></svg>