<svg xmlns="http://www.w3.org/2000/svg" width="100%" height="100%" viewBox="38.47 439.13 963.39 160.42" version="1.1">
	<path d="M 186.719 449.284 L 178.938 456.352 171.074 452.162 C 159.103 445.784, 150.179 443.761, 134 443.761 C 110.441 443.761, 95.321 449.707, 79.990 465 C 65.500 479.454, 59.214 493.492, 58.273 513.500 C 57.441 531.180, 60.537 545.866, 67.549 557.512 C 71.500 564.073, 71.827 563.033, 62.786 572.663 C 59.604 576.053, 57 579.214, 57 579.687 C 57 580.160, 60.603 584.129, 65.008 588.508 L 73.015 596.468 80.581 588.903 L 88.147 581.337 97.824 586.183 C 111.754 593.159, 117.703 594.497, 134.500 594.430 C 146.943 594.380, 149.390 594.075, 156.500 591.692 C 169.525 587.326, 178.457 581.771, 188.164 572.001 C 195.642 564.474, 197.512 561.857, 201.823 552.890 C 204.570 547.175, 207.421 540.025, 208.159 537 C 210.140 528.877, 209.828 507.109, 207.616 499.058 C 205.564 491.589, 201.066 481.306, 197.919 476.886 L 195.732 473.814 203.590 465.909 C 211.336 458.118, 211.421 457.978, 209.474 456.181 C 208.388 455.178, 204.575 451.625, 201 448.287 L 194.500 442.217 186.719 449.284 M 117.500 450.973 C 113.650 451.997, 108.752 453.579, 106.615 454.488 C 93.670 459.993, 78.276 474.238, 71.654 486.839 C 61.219 506.697, 61.394 530.496, 72.126 551.125 L 76.315 559.177 124.658 510.842 C 151.246 484.258, 173 462.219, 173 461.865 C 173 460.400, 156.508 452.792, 149.377 450.968 C 139.568 448.460, 126.938 448.462, 117.500 450.973 M 935.712 477.622 C 935.320 478.013, 935 497.833, 935 521.667 L 935 565 939.809 565 C 948.515 565, 948.001 568.129, 947.204 520 L 946.500 477.500 941.462 477.205 C 938.690 477.043, 936.103 477.230, 935.712 477.622 M 142.182 527.312 C 104.751 564.754, 94.162 575.882, 95.182 576.706 C 98.346 579.258, 111.462 585.121, 118.159 586.977 C 127.089 589.451, 139.738 589.637, 148.356 587.419 C 162.879 583.681, 178.530 573.865, 187.796 562.684 C 192.984 556.423, 199.413 543.698, 201.529 535.500 C 204.012 525.886, 204.423 514.561, 202.602 506 C 201.135 499.106, 195.113 484.944, 191.861 480.740 C 190.625 479.142, 186.050 483.432, 142.182 527.312 M 264 522.548 L 264 565.095 270.250 564.798 L 276.500 564.500 276.761 522.250 L 277.022 480 270.511 480 L 264 480 264 522.548 M 428.975 491.565 C 428.439 492.976, 427.997 495.113, 427.994 496.315 C 427.984 500.266, 425.847 506.443, 423.340 509.764 L 420.877 513.028 422.935 515.645 C 426.022 519.569, 427.112 524.971, 427.973 540.609 C 428.835 556.274, 430.459 561.068, 436.012 564.348 C 444.665 569.460, 458.069 565.557, 455.435 558.692 C 455.100 557.818, 452.502 556.363, 449.663 555.460 C 446.823 554.556, 443.488 552.708, 442.250 551.352 C 440.136 549.038, 440 548.022, 440 534.569 L 440 520.250 443.125 519.625 C 444.844 519.281, 447.753 519, 449.590 519 C 453.255 519, 455 516.944, 455 512.625 C 455 509.431, 454.428 509.119, 447.187 508.362 L 441.205 507.736 440.521 501.348 C 440.018 496.656, 439.170 494.168, 437.329 491.980 C 434.120 488.165, 430.339 487.978, 428.975 491.565 M 830.779 491.959 C 828.835 493.488, 828.161 495.148, 827.710 499.519 C 827.305 503.449, 826.159 506.635, 823.868 510.205 L 820.605 515.291 824.302 518.396 L 828 521.500 828.010 536 C 828.019 549.142, 828.240 550.968, 830.377 555.500 C 833.940 563.054, 836.894 565.292, 843.977 565.805 C 847.250 566.041, 851.094 565.942, 852.519 565.584 C 854.855 564.998, 855.081 564.525, 854.806 560.816 C 854.514 556.884, 854.297 556.637, 850 555.341 C 841.766 552.856, 841.813 552.959, 840.974 535.788 C 840.564 527.379, 840.326 520.389, 840.445 520.252 C 840.564 520.116, 843.459 519.712, 846.877 519.355 C 851.562 518.865, 853.451 518.194, 854.546 516.630 C 857.939 511.787, 855.796 509.277, 847.373 508.226 L 841.500 507.493 840.800 501.147 C 839.662 490.836, 836.219 487.680, 830.779 491.959 M 322.718 508.037 C 320.637 508.557, 317.600 509.673, 315.968 510.517 C 313.291 511.901, 312.700 511.896, 309.944 510.471 C 308.167 509.552, 305.132 509.018, 302.694 509.195 L 298.500 509.500 298.233 536.431 C 298.027 557.309, 298.251 563.542, 299.233 564.165 C 300.861 565.199, 308.732 565.243, 309.362 564.223 C 309.627 563.795, 310.170 555.881, 310.569 546.636 C 311.401 527.350, 312.778 522.958, 319.039 519.605 C 323.870 517.019, 331.215 518.061, 335.027 521.874 C 337.728 524.574, 337.730 524.587, 338.468 544.788 L 339.206 565 343.521 565 C 351.399 565, 351.003 566.110, 350.978 544.143 C 350.958 526.537, 350.745 524.033, 348.916 520 C 346.566 514.816, 343.633 511.399, 339.836 509.424 C 336.295 507.581, 327.420 506.863, 322.718 508.037 M 379.637 508.404 C 371.684 511.364, 366.060 520.174, 367.436 527.513 C 368.660 534.033, 374.165 538.227, 387.126 542.512 C 393.382 544.581, 398.673 546.422, 398.885 546.604 C 399.096 546.787, 398.695 548.322, 397.994 550.015 C 395.413 556.246, 388.057 557.379, 379.882 552.805 C 376.421 550.868, 376.111 550.853, 372.710 552.467 C 370.754 553.395, 368.885 554.858, 368.555 555.718 C 367.652 558.071, 370.518 561.703, 375.265 564.220 C 381.283 567.411, 393.696 567.422, 399.692 564.242 C 405.043 561.404, 409.033 556.170, 409.714 551.098 C 410.440 545.682, 409.524 542.666, 405.895 538.533 C 403.383 535.672, 401.021 534.475, 393.003 532.001 C 381.498 528.451, 378.220 526.325, 379.774 523.422 C 380.347 522.353, 381.686 520.689, 382.751 519.726 C 384.600 518.052, 385.082 518.088, 393.588 520.553 L 402.489 523.133 404.744 520.511 C 407.578 517.217, 407.576 515.890, 404.736 513.222 C 399.383 508.193, 386.729 505.764, 379.637 508.404 M 604.737 508.430 C 602.667 509.169, 599.976 510.436, 598.756 511.246 C 596.775 512.561, 596.269 512.531, 594.019 510.963 C 592.634 509.997, 590.129 508.965, 588.453 508.669 C 582.507 507.620, 582.540 507.479, 582.146 535.805 L 581.786 561.687 584.585 563.888 C 588.357 566.855, 591.124 566.252, 593.248 562 C 594.676 559.142, 594.997 555.787, 594.998 543.700 C 595 527.893, 595.534 525.625, 600.307 521.168 C 603.975 517.742, 609.521 517.372, 615 520.188 C 619.418 522.458, 619.512 522.609, 620.141 528.500 C 620.494 531.800, 620.832 540.027, 620.891 546.782 C 621.024 561.750, 622.347 566, 626.876 566 C 628.903 566, 630.517 565.158, 631.927 563.365 C 633.823 560.955, 634 559.399, 634 545.100 C 634 527.493, 634.867 524.450, 641.102 520.164 C 644.872 517.572, 648.764 517.605, 655.150 520.283 L 658.799 521.814 659.379 531.157 C 659.698 536.296, 660.306 545.900, 660.730 552.500 L 661.500 564.500 667 564.500 L 672.500 564.500 673.364 552 C 674.929 529.380, 671.509 514.950, 663.396 509.936 C 656.183 505.478, 643.675 506.780, 635.556 512.834 L 631.650 515.746 627.075 512.476 C 619.666 507.182, 612.085 505.809, 604.737 508.430 M 706.500 507.898 C 697.476 509.512, 690.780 514.916, 686.611 523.949 C 684.971 527.501, 684.509 530.475, 684.505 537.500 C 684.501 545.604, 684.794 547.031, 687.454 551.833 C 690.692 557.678, 694.096 560.951, 700.384 564.265 C 703.704 566.016, 706.239 566.441, 713.500 566.467 C 721.536 566.497, 723.143 566.179, 728.500 563.500 C 734.910 560.295, 736.398 557.481, 734.026 553.049 C 732.566 550.321, 729.339 550.440, 721.808 553.500 C 718.424 554.875, 714.224 556, 712.475 556 C 708.573 556, 703.310 552.583, 700.274 548.078 C 696.162 541.977, 696.099 542.001, 716.250 541.989 C 726.288 541.983, 736.238 541.691, 738.362 541.340 L 742.225 540.702 741.547 534.714 C 740.150 522.362, 734.413 513.117, 726 509.659 C 721.598 507.850, 711.744 506.960, 706.500 507.898 M 777.489 508.864 C 774.183 509.812, 770.934 510.923, 770.268 511.334 C 769.603 511.745, 767.718 511.388, 766.079 510.541 C 764.440 509.693, 761.344 509, 759.200 509 L 755.300 509 754.749 536.250 C 754.345 556.237, 754.505 563.696, 755.349 564.235 C 757.249 565.448, 764.822 565.093, 765.691 563.750 C 766.136 563.063, 766.725 555.075, 767 546 C 767.559 527.549, 768.755 523.340, 774.420 519.886 C 777.876 517.778, 780.844 517.551, 786.046 518.996 C 793.275 521.005, 793.148 520.644, 794.034 541.593 C 794.975 563.850, 795.656 566.243, 800.926 565.799 C 803.747 565.562, 804.781 564.882, 805.908 562.520 C 807.988 558.161, 808.423 546.815, 807.067 532.280 C 805.602 516.573, 804.231 513.969, 794.790 508.966 C 790.316 506.596, 785.508 506.567, 777.489 508.864 M 889.500 507.681 C 880.949 509.601, 875 513.621, 875 517.478 C 875 518.743, 875.788 520.735, 876.750 521.904 L 878.500 524.030 883.907 521.959 C 886.881 520.820, 891.574 519.460, 894.335 518.937 C 898.824 518.085, 899.595 518.210, 901.622 520.115 C 902.869 521.286, 904.341 523.540, 904.893 525.123 C 905.740 527.552, 905.632 528.007, 904.198 528.044 C 893.614 528.315, 881.843 530.040, 878.327 531.833 C 870.273 535.942, 867.076 542.353, 868.464 551.610 C 869.004 555.210, 870.090 557.142, 873.474 560.526 C 878.508 565.561, 883.389 566.769, 893.364 565.450 C 896.739 565.004, 903.550 564.550, 908.500 564.441 L 917.500 564.244 917.820 547.372 C 918.241 525.112, 917.028 517.797, 912.093 512.860 C 907.088 507.852, 898.007 505.771, 889.500 507.681 M 489.500 509.143 C 487.850 509.677, 482.788 509.860, 478.250 509.551 L 470 508.988 470 536.994 L 470 565 474.750 564.985 C 477.363 564.976, 480.040 564.626, 480.700 564.207 C 481.504 563.695, 482.110 558.179, 482.537 547.472 C 482.888 538.687, 483.622 530.033, 484.169 528.239 C 485.406 524.180, 489.843 520.730, 498.114 517.398 C 505.557 514.399, 506.267 513.859, 505.478 511.803 C 504.155 508.356, 496.084 507.012, 489.500 509.143 M 514.407 510.501 C 513.506 511.877, 512.419 516.187, 511.991 520.079 C 511.157 527.677, 512.335 546.815, 514.022 553.081 C 515.262 557.686, 519.101 562.470, 523.369 564.728 C 527.590 566.962, 538.949 566.913, 545.693 564.633 C 550.034 563.165, 551.826 563.051, 556.626 563.939 C 559.784 564.522, 562.960 565, 563.684 565 C 564.740 565, 565 559.569, 565 537.479 L 565 509.957 562.521 508.828 C 560.851 508.067, 558.976 508.003, 556.771 508.633 C 553.713 509.507, 553.458 509.923, 552.849 515.034 C 552.491 518.040, 552.152 526.125, 552.095 533 C 552.008 543.597, 551.690 545.996, 550.005 548.759 C 547.557 552.775, 542.473 555.991, 538.566 555.996 C 534.829 556.001, 527.390 552.433, 526.491 550.204 C 526.113 549.267, 525.564 540.625, 525.271 531 C 524.665 511.089, 523.822 508, 518.997 508 C 516.952 508, 515.543 508.768, 514.407 510.501 M 706.405 519.849 C 702.618 521.619, 698 527.124, 698 529.868 C 698 530.660, 702.501 531, 713 531 C 729.404 531, 729.493 530.961, 726.044 525.304 C 722.036 518.731, 713.731 516.424, 706.405 519.849 M 890.275 539.928 C 880.092 542.483, 877.931 550.984, 886.548 554.585 C 892.710 557.159, 899.127 555.908, 903.134 551.352 C 909.349 544.287, 901.322 537.156, 890.275 539.928 M 970.299 551.503 C 967.916 553.172, 965.644 558.910, 966.492 561.119 C 967.161 562.863, 970.438 564.979, 974.094 566.027 C 977.826 567.097, 980.677 564.915, 982.009 559.968 C 983.336 555.039, 982.204 552.615, 977.872 551.105 C 973.730 549.661, 972.863 549.707, 970.299 551.503" stroke="none" fill="#0a0a0a" fill-rule="evenodd"/>
</svg>