<svg xmlns="http://www.w3.org/2000/svg" viewBox="18.03 18 963.3 190"><path fill="#0a0a0a" fill-rule="evenodd" d="M297.973 1.949C300.863 7.349 286.88 7 500.299 7h196.855l3.173-3.25L703.5.5 691.011.217c-7.949-.18-12.614.093-12.833.75C677.735 2.294 674 2.323 674 1c0-.55-.9-1-2-1s-2 .45-2 1c0 1.301-3.696 1.301-4.5 0-.34-.55-1.491-1-2.559-1S661 .45 661 1c0 1.439-2.739 1.234-3.338-.25-.403-1-.52-1-.583 0-.103 1.631-10.752 1.732-11.293.107-.286-.858-.915-.858-2.518 0-2.659 1.423-6.787 1.471-9.334.108-1.333-.714-1.934-.714-1.934 0C632 1.553 629.625 2 626.5 2c-3.025 0-5.5-.45-5.5-1s-.477-1-1.059-1-.781.45-.441 1-.282 1-1.382 1-2.278-.45-2.618-1-1.491-1-2.559-1S611 .45 611 1s-.675 1-1.5 1-1.5-.45-1.5-1-2.25-1-5-1-5 .45-5 1-.675 1-1.5 1-1.5-.507-1.5-1.127c0-.786-1.592-.907-5.25-.402-6.59.912-11.336.914-15.5.009-2.144-.466-3.25-.328-3.25.407 0 .612-.9 1.113-2 1.113s-2-.501-2-1.113c0-.726-1.133-.883-3.25-.453-7.846 1.596-9.645 1.693-11.636.627C550.719.314 550 .282 550 .965c0 .569-.675 1.035-1.5 1.035s-1.5-.45-1.5-1-1.125-1-2.5-1-2.5.45-2.5 1-.675 1-1.5 1-1.5-.45-1.5-1-1.125-1-2.5-1-2.5.45-2.5 1c0 1.379-2.599 1.253-5.144-.25-1.694-1-2.208-1-2.57 0-.589 1.628-4.281 1.628-4.301 0-.01-.83-.263-.893-.75-.189C520.395 1.774 509 1.983 509 .786c0-.432-1.8-.786-4-.786s-4 .45-4 1c0 1.379-2.599 1.253-5.144-.25-1.694-1-2.208-1-2.57 0-.566 1.563-2.989 1.64-3.499.112-.276-.829-1.393-.772-4.108.209-2.989 1.081-4.368 1.107-6.952.132-2.08-.785-3.341-.86-3.558-.21C474.733 2.302 471 2.308 471 1c0-.55-.9-1-2-1s-2 .45-2 1-.9 1-2 1-2-.45-2-1-1.125-1-2.5-1-2.5.45-2.5 1-.675 1-1.5 1-1.5-.45-1.5-1-1.125-1-2.5-1-2.5.342-2.5.76-2.682.796-5.961.84c-3.278.045-5.726-.297-5.441-.759.286-.463.043-.841-.539-.841S437 .45 437 1c0 1.379-2.599 1.253-5.144-.25-1.694-1-2.208-1-2.57 0-.589 1.628-4.281 1.628-4.301 0-.011-.86-.245-.908-.75-.155-.912 1.358-11.431 1.282-12.561-.091-.537-.653-1.004-.567-1.333.246-.655 1.614-3.005 1.614-3.758 0-.466-1-.7-1-1.166 0-.755 1.618-4.079 1.618-4.834 0-.466-1-.7-1-1.166 0C398.723 2.236 396 2.435 396 1c0-1.322-4.344-1.266-11.385.148-4.305.865-6.002.865-6.867 0C376.339-.261 369-.386 369 1c0 1.297-10.728 1.311-11.167.015-.213-.631-1.64-.583-3.976.135-2.708.832-4.489.825-6.934-.027-1.81-.631-3.545-.776-3.857-.324C342.344 1.849 331 1.837 331 .786c0-.432-2.25-.786-5-.786s-5 .45-5 1-.675 1-1.5 1-1.5-.45-1.5-1c0-.603-4.178-1-10.535-1-10.133 0-10.496.074-9.492 1.949M867.565.895c-.305.493.147 1.164 1.004 1.493s1.334.96 1.06 1.403c-.273.442-.034 1.458.531 2.257.839 1.184.925 1.129.466-.298-.633-1.967.418-2.306 2.061-.663 1.612 1.612 2.788-.81 1.277-2.631-1.417-1.707-3.406-1.98-2.384-.326.428.692.16.934-.691.625-.764-.278-1.277-1.011-1.139-1.63.297-1.336-1.392-1.514-2.185-.23M77 3.559c0 1.407.408 2.307.906 1.999s.671-1.46.383-2.559C77.57.247 77 .495 77 3.559m779.432-1.67c.407.659.196 1.854-.468 2.655-.851 1.025-.877 1.456-.086 1.456.617 0 1.122.477 1.122 1.059s-.375.827-.833.544c-.459-.283-.834.078-.834.804 0 .78.739 1.125 1.81.845 1.406-.367 1.592-.878.837-2.29-.535-.999-.719-2.479-.408-3.288.31-.81.014-1.812-.658-2.227-.798-.493-.966-.34-.482.442M860 3c0 1.867.267 2.133 1.2 1.2s.933-1.467 0-2.4S860 1.133 860 3m3.447 2.75c.148.963-.229 2.122-.839 2.576q-1.102.823.3.447C864.461 8.356 865.532 4 864.082 4c-.498 0-.784.787-.635 1.75m3.186-.966c-.358.58-.013 1.693.767 2.473s1.623 2.504 1.873 3.831l.455 2.412.1-2.5c.123-3.046-2.273-7.707-3.195-6.216M75.872 10.692c-1.171 1.444-1.164 1.567.048.836 1.034-.623 1.263-.447.842.649-.317.827-.173 2.139.321 2.914.607.954.783.372.543-1.803-.195-1.766.147-3.418.76-3.671.809-.334.806-.481-.014-.538-.62-.043-1.745.682-2.5 1.613m777.282.718c.36.402.085 1.828-.61 3.168-1.383 2.666-.882 8.587.533 6.297.445-.719.403-1.797-.093-2.394-.551-.664-.36-2.129.489-3.767 1.05-2.023 1.101-2.846.209-3.357-.65-.373-.888-.349-.528.053M866 13.017q-1.495.951-.25.968c1.699.02 1.575 1.833-.25 3.658-2.06 2.06-1.88 4.024.425 4.627 1.348.353 1.766.089 1.395-.877-.291-.76-.932-1.133-1.425-.828-.492.304-.895.107-.895-.439 0-1.134 3.6-2.491 4.741-1.787.417.258.824-.613.903-1.935.084-1.389-.409-2.404-1.166-2.404-.721 0-1.461-.436-1.645-.968-.212-.616-.878-.622-1.833-.015m-18.164 8.233c-1.112.899-1.32 1.952-.74 3.75l.807 2.5-.209-2.5c-.115-1.375.469-3.048 1.298-3.718s1.257-1.233.949-1.25c-.307-.018-1.255.531-2.105 1.218m5.926 2.5c-.741 1.512-2.058 2.697-2.926 2.632-1.072-.079-1.422.484-1.091 1.75.652 2.493 1.891 2.367 2.579-.262.343-1.313 1.098-1.922 1.968-1.588 1.028.394 1.384-.249 1.31-2.368-.056-1.6-.19-2.91-.297-2.912-.108-.001-.802 1.236-1.543 2.748m27.727 2.268c-.379.613-.419 1.385-.089 1.715s.607-.037.615-.816c.013-1.185.168-1.176.946.054.512.809 1.191 1.211 1.509.893s-.067-1.115-.857-1.77c-1.044-.867-1.623-.887-2.124-.076m-12.482 3.491c.537.646.642 1.584.234 2.083-.407.499-.315.557.205.129 1.493-1.23 1.466-3.388-.043-3.388-.937 0-1.062.372-.396 1.176M244 29.668c-29.344 4.646-48.467 14.913-58.544 31.429-4.194 6.874-8.854 20.833-10.434 31.257-1.486 9.805.017 25.501 3.498 36.52 9.835 31.132 37.475 45.599 83.739 43.83 18.492-.708 28.156-2.884 40.629-9.148 9.824-4.934 9.383-5.008 13.011 2.194l2.142 4.25h10.444c9.303 0 10.558-.211 11.48-1.934 1.56-2.916 1.406-72.295-.165-73.866-.886-.886-10.032-1.2-34.943-1.2C264.543 93 268 91.586 268 108.073c0 5.846.494 12.046 1.098 13.778l1.098 3.149h8.402c8.128 0 8.402.076 8.402 2.326 0 5.809-9.874 9.948-24 10.061-11.902.095-18.118-1.89-24.834-7.928-7.645-6.873-9.666-12.406-9.665-26.459.001-10.437.253-12.039 2.734-17.336 4.035-8.617 8.108-13.194 14.557-16.361 4.762-2.338 6.951-2.794 13.208-2.751 9.393.064 13.638 1.97 20.949 9.406l5.449 5.542H339.5l-.032-5.043c-.047-7.641-4.332-15.485-13.388-24.513-4.169-4.156-10.205-9.019-13.414-10.806-7.852-4.374-24.402-9.765-33.988-11.072-7.391-1.007-29.246-1.258-34.678-.398m637.737 1.434c.355 1.356.789 1.665 1.264.897.397-.643 1.111-1.098 1.586-1.009.475.088.953-.335 1.063-.94.12-.659-.003-.692-.306-.083-.333.671-1.125.685-2.327.042-1.538-.823-1.737-.653-1.28 1.093m-33.707.148c-.028 1.608-1.679 1.75-20.408 1.75-15.133 0-20.645.323-21.419 1.256-.764.92 1.363 5.533 7.955 17.25 4.948 8.797 13.732 24.945 19.52 35.885 5.787 10.94 12.55 23.315 15.028 27.5 7.169 12.108 10.437 19.107 10.253 21.959-.094 1.458-.123 9.008-.065 16.779l.106 14.128 2.75 1.12c1.513.616 4.888 1.194 7.5 1.284s4.75.595 4.75 1.124c0 .578.497.552 1.25-.067.722-.593 7.671-1.062 16.465-1.111 13.138-.074 15.135.119 14.638 1.415-.391 1.019-.112 1.323.869.946 1.526-.585 2.034-3.468.611-3.468-.458 0-.825-7.762-.816-17.25l.018-17.25 7.383-12.5c8.583-14.532 44.099-77.714 46.815-83.282 1.015-2.081 1.576-4.218 1.247-4.75-.36-.583-10.848-.968-26.384-.968-23.294 0-25.938.169-27.355 1.75-.863.962-6.152 10.888-11.753 22.057-8.871 17.691-10.459 20.267-12.325 20-1.178-.169-2.305-1.161-2.504-2.204s-1.45-2.985-2.78-4.315c-1.329-1.329-2.157-2.838-1.839-3.353.318-.514.184-.935-.297-.935s-2.156-2.679-3.721-5.953c-2.292-4.796-2.608-6.238-1.626-7.421 1.013-1.221.887-1.382-.742-.956-1.376.36-2.159-.109-2.622-1.57-.364-1.145-.4-2.505-.08-3.022.319-.517.041-1.274-.619-1.681-.838-.518-.616-.971.733-1.499 1.608-.63 1.461-.769-.875-.828-1.604-.04-2.544-.499-2.191-1.07.34-.55.224-1-.257-1-1.386 0-5.44-7.872-4.684-9.096.497-.804.125-.805-1.373-.004-3.237 1.733-8.931 1.366-10.106-.65-.971-1.667-1.021-1.667-1.05 0m-493.189 1.472c-5.848.239-9.036.808-9.822 1.755-1.829 2.204-1.998 130.183-.176 133.382l1.344 2.358 21.656-.375c11.911-.206 22.22-.732 22.907-1.168.938-.595 1.258-6.448 1.282-23.483.024-17.283.348-23.108 1.36-24.441 1.124-1.48 3.008-1.748 12.218-1.735 5.99.009 11.41.346 12.045.751.635.404 4.631 7.484 8.879 15.734s10.413 19.162 13.698 24.25l5.974 9.25H497v-3.05c0-2.018-4.04-10.396-11.936-24.753-6.565-11.936-12.221-22.443-12.569-23.349-.475-1.237 1.717-3.39 8.789-8.637 10.378-7.698 13.271-11.083 15.336-17.942 1.605-5.335 1.782-19.812.319-26.157-2.895-12.558-11.994-23.876-23.624-29.384L466.5 32.5l-51.5-.065c-28.325-.036-55.396.093-60.159.287m156.499 0c-5.385.235-8.553.83-9.316 1.749-1.816 2.189-1.996 130.2-.187 133.376l1.337 2.346 21.663-.346c11.915-.191 22.226-.711 22.913-1.156.938-.607 1.258-6.474 1.282-23.5.024-17.283.348-23.108 1.36-24.441 1.124-1.48 3.008-1.748 12.218-1.735 5.99.009 11.389.346 11.999.75s4.605 7.485 8.876 15.735c4.272 8.25 10.456 19.162 13.744 24.25l5.977 9.25H654v-3.115c0-2.731-8.954-20.266-21.388-41.885-3.988-6.934-3.654-7.779 5.862-14.807C652.098 99.131 655 93.662 655 78.051c0-20.007-8.586-34.697-24.759-42.358L623.5 32.5l-52-.067c-28.6-.037-55.672.093-60.16.289m153.984-.072c-1.746.256-3.68 1.074-4.298 1.818-1.597 1.925-2.626 32.866-2.89 86.877-.165 33.741.084 46.215.943 47.25.981 1.182 12.307 1.405 71.508 1.405 69.119 0 70.361-.034 71.404-1.983.653-1.221.955-7.853.785-17.25L802.5 135.5l-45-.5c-48.062-.534-48.865-.623-50.098-5.535-.886-3.529.375-9.165 2.207-9.868.855-.329 16.995-.597 35.866-.597 29.93 0 34.386-.196 34.9-1.536.324-.844.869-8.175 1.212-16.291.504-11.974.358-14.973-.774-15.914-.982-.815-11.567-1.247-35.686-1.459-32.603-.285-34.36-.396-35.709-2.241-1.835-2.512-1.86-10.947-.036-12.461.984-.817 11.366-1.125 36.116-1.072 19.104.041 34.983-.173 35.285-.476 1.081-1.08 9.84-.527 11.076.7 1.01 1.002 1.133.919.624-.42-.466-1.224-.014-1.759 1.691-2 2.09-.297 2.385-.988 2.904-6.83.978-11.004.275-23.075-1.444-24.795-1.33-1.33-9.594-1.557-64.33-1.773-34.542-.137-64.233-.039-65.98.218m-540.801 2.6c-.227.688-.875 20.768-1.439 44.624-.956 40.414-1.165 43.661-3.064 47.584-3.475 7.179-6.108 8.925-14.146 9.379-7.822.442-13.784-1.485-16.178-5.229-1.705-2.669-3.538-9.754-4.062-15.709-.567-6.446-2.096-8.899-5.547-8.899-1.563 0-3.402-.675-4.087-1.5-1.568-1.889-3-1.931-3-.088 0 1.42-3.172 2.248-12.066 3.152-8.993.914-21.101 3.33-22.497 4.488-1.882 1.562-1.881 12.191.003 21.079 3.555 16.771 14.473 28.31 32.06 33.884 2.2.697 4.36 1.879 4.8 2.626.44.748 1.34 1.352 2 1.344.734-.01.618-.392-.3-.985-1.213-.784-1.069-.972.75-.985 1.237-.008 2.25.323 2.25.735 0 .842-.604.8 25.726 1.794 22.517.85 28.376.041 38.774-5.355 12.929-6.71 21.636-17.618 25.078-31.42 2.064-8.276 3.405-96.063 1.522-99.583-1.15-2.149-1.555-2.186-23.667-2.186-17.109 0-22.595.299-22.91 1.25m743.082 3.337c-.376.979.121 1.29 1.681 1.052 2.603-.398 2.953-1.84.533-2.195-.924-.136-1.921.379-2.214 1.143m-791.379.987c.95.994 2.001 1.533 2.336 1.197s-.442-1.148-1.726-1.807c-2.233-1.145-2.26-1.118-.61.61M871.6 41.6c-.356.927-.422 1.911-.147 2.186s.791-.259 1.147-1.186.422-1.911.147-2.186-.791.259-1.147 1.186m11.889 3.508c1.094 1.316 2.107 2.58 2.25 2.809.144.229.261-.225.261-1.01 0-.784-1.013-2.048-2.25-2.808l-2.25-1.382zm-12.936.807a1.116 1.116 0 0 0 .362 1.532c.521.322 1.21.159 1.532-.362a1.116 1.116 0 0 0-.362-1.532 1.116 1.116 0 0 0-1.532.362M76.229 49.188c.605 1.813 2.438 2.069 2.438.34 0-.84-.638-1.528-1.417-1.528s-1.239.534-1.021 1.188m10.217.899c-.369.598-.171 1.588.441 2.2.817.817 1.113.528 1.113-1.087q0-3.623-1.554-1.113m-5.027 8.45c.032 1.888.581 3.633 1.221 3.878 1.261.484 1.273-1.163.023-3.165-.43-.687-.522-1.669-.206-2.181s.199-1.163-.26-1.448c-.46-.284-.81 1.028-.778 2.916m799.147-2.43q.685 1.108-1.358.459c-1.483-.471-1.982-.234-1.821.864.288 1.966 1.613 3.292 1.613 1.614 0-.98.329-1.016 1.375-.148 1.105.917 1.375.646 1.375-1.377 0-1.386-.42-2.519-.934-2.519s-.626.498-.25 1.107M78.702 59.631c-.347.348-.196 1.445.336 2.44.631 1.18.619 2.023-.035 2.427-.552.341-1.003.117-1.003-.498s-.45-.84-1-.5c-1.162.718-1.355 2.556-.25 2.382 1.975-.312 2.599.246 1.25 1.118-1.282.828-1.246.972.25.985 1.617.014 2.448-2.606 1.741-5.485-.135-.55-.263-1.562-.285-2.25-.045-1.431-.136-1.487-1.004-.619m314.247 9.464c-1.367 2.554-.724 10.529.986 12.242.794.796 8.247 1.259 23.605 1.466l22.445.303 2.507-2.507c3.033-3.033 3.277-7.426.598-10.738-1.896-2.343-2.086-2.363-25.438-2.662-23.354-.299-23.536-.285-24.703 1.896m157 0c-1.367 2.555-.724 10.53.988 12.242.817.817 8.023 1.163 24.201 1.163 23.006 0 23.041-.003 24.95-2.361a8.13 8.13 0 0 0 .002-10.278c-1.896-2.343-2.086-2.363-25.438-2.662-23.354-.299-23.536-.285-24.703 1.896M77.835 70.329c.522.644 1.133 2.071 1.357 3.171.341 1.672.497 1.562.954-.673.422-2.06.11-2.788-1.356-3.172-1.363-.356-1.634-.165-.955.674M77.539 100c.309 1.375.676 3.049.816 3.721s.567 1.534.949 1.917c1.206 1.205.667-2.012-.86-5.138-1.262-2.582-1.388-2.652-.905-.5m-17.558 1.66c.567.281.796.891.509 1.356s-.105 1.104.406 1.42.816-.192.679-1.127-.784-1.804-1.437-1.93c-.654-.126-.724.001-.157.281m28.749 3.983c-.286.471.108 1.437.875 2.146 1.546 1.429 1.842.464.505-1.646-.473-.746-1.094-.971-1.38-.5M48 171.088c0 .502.48.912 1.067.912.651 0 .79.875.356 2.242-.616 1.942-.504 2.07.838.956 1.955-1.622 1.603-4.454-.594-4.776-.917-.135-1.667.165-1.667.666m827 3.853c0 .518.45 1.219 1 1.559s1-.084 1-.941-.45-1.559-1-1.559-1 .423-1 .941m-824.834 1.935c-1.074.681-1.025.964.25 1.453 1.002.385 1.584.069 1.584-.86 0-1.7-.058-1.719-1.834-.593m16.51.876c1.143.836 1.927.939 2.146.283.189-.569.743-1.035 1.23-1.035s.632.787.322 1.75c-.459 1.427-.373 1.482.466.298 1.491-2.107.451-3.102-2.969-2.841-2.739.208-2.842.341-1.195 1.545m10.991 2.915c-.367.366-.667 2.466-.667 4.666s.338 3.663.75 3.25c.602-.601 1.284-8.583.734-8.583-.083 0-.451.3-.817.667M56.15 185.95c.22.66.726 1.166 1.125 1.125 1.196-.124.964-1.495-.325-1.925-.66-.22-1.02.14-.8.8m-3.475.708c-.362.362-.156 1.262.456 2 .854 1.029.735 1.342-.509 1.342-2.221 0-2.052 1.654.231 2.251 1.554.407 1.797-.006 1.501-2.549-.397-3.406-.724-3.999-1.679-3.044m-4.962 2.354c.388 1.481.227 2.069-.451 1.65-.579-.358-1.296-.015-1.594.761a1.523 1.523 0 0 0 .883 1.958c.784.301 1.359.226 1.278-.167s.21-1.532.645-2.531c.458-1.052.338-2.271-.285-2.894-.769-.769-.905-.42-.476 1.223M926 189.5c0 .825.73 1.5 1.622 1.5 1.329 0 1.398-.271.378-1.5-.685-.825-1.415-1.5-1.622-1.5s-.378.675-.378 1.5m-817.582 2.091c-1.055.857-1.355 1.272-.668.924.688-.348 1.25-.156 1.25.426s-.45 1.059-1 1.059c-1.487 0-1.21 1.705.376 2.314.756.29 1.36.001 1.342-.643s.038-2.045.124-3.112c.156-1.922.173-1.922 1.626 0 .808 1.067 1.483 1.434 1.5.813.068-2.386-2.545-3.409-4.55-1.781M40.2 192.2c-.66.66-1.2 1.854-1.2 2.653 0 .986.642.712 2-.853 1.1-1.268 2-2.462 2-2.653 0-.78-1.678-.269-2.8.853M51 194c0 .55.702 1 1.559 1s1.281-.45.941-1-1.041-1-1.559-1-.941.45-.941 1m27 1.5c0 .825.375 1.5.833 1.5.459 0 .834-.675.834-1.5s-.375-1.5-.834-1.5-.833.675-.833 1.5m-37.305 1.557c-.439 1.681-.28 1.843.873.887.775-.644 1.163-1.57.862-2.057-.816-1.32-1.141-1.101-1.735 1.17m875.444.976c-1.298 1.082-1.93 1.967-1.405 1.967.526 0 1.771-.9 2.766-2 2.287-2.527 1.695-2.513-1.361.033M48 198.5c0 .917.484 1.505 1.075 1.308s1.075-.786 1.075-1.308-.484-1.111-1.075-1.308S48 197.583 48 198.5m14.525-.54c-.848 1.372-.097 2.402 1.38 1.894.606-.208.683-.914.188-1.711-.625-1.006-1.03-1.053-1.568-.183"/></svg>