<svg xmlns="http://www.w3.org/2000/svg" width="100%" height="100%" viewBox="18.03 18 963.30 190" version="1.1">
	<path d="M 297.973 1.949 C 300.863 7.349, 286.880 7, 500.299 7 L 697.154 7 700.327 3.750 L 703.500 0.500 691.011 0.217 C 683.062 0.037, 678.397 0.310, 678.178 0.967 C 677.735 2.294, 674 2.323, 674 1 C 674 0.450, 673.100 0, 672 0 C 670.900 0, 670 0.450, 670 1 C 670 2.301, 666.304 2.301, 665.500 1 C 665.160 0.450, 664.009 0, 662.941 0 C 661.873 0, 661 0.450, 661 1 C 661 2.439, 658.261 2.234, 657.662 0.750 C 657.259 -0.250, 657.142 -0.250, 657.079 0.750 C 656.976 2.381, 646.327 2.482, 645.786 0.857 C 645.500 -0.001, 644.871 -0.001, 643.268 0.857 C 640.609 2.280, 636.481 2.328, 633.934 0.965 C 632.601 0.251, 632 0.251, 632 0.965 C 632 1.553, 629.625 2, 626.500 2 C 623.475 2, 621 1.550, 621 1 C 621 0.450, 620.523 0, 619.941 0 C 619.359 0, 619.160 0.450, 619.500 1 C 619.840 1.550, 619.218 2, 618.118 2 C 617.018 2, 615.840 1.550, 615.500 1 C 615.160 0.450, 614.009 0, 612.941 0 C 611.873 0, 611 0.450, 611 1 C 611 1.550, 610.325 2, 609.500 2 C 608.675 2, 608 1.550, 608 1 C 608 0.450, 605.750 0, 603 0 C 600.250 0, 598 0.450, 598 1 C 598 1.550, 597.325 2, 596.500 2 C 595.675 2, 595 1.493, 595 0.873 C 595 0.087, 593.408 -0.034, 589.750 0.471 C 583.160 1.383, 578.414 1.385, 574.250 0.480 C 572.106 0.014, 571 0.152, 571 0.887 C 571 1.499, 570.100 2, 569 2 C 567.900 2, 567 1.499, 567 0.887 C 567 0.161, 565.867 0.004, 563.750 0.434 C 555.904 2.030, 554.105 2.127, 552.114 1.061 C 550.719 0.314, 550 0.282, 550 0.965 C 550 1.534, 549.325 2, 548.500 2 C 547.675 2, 547 1.550, 547 1 C 547 0.450, 545.875 0, 544.500 0 C 543.125 0, 542 0.450, 542 1 C 542 1.550, 541.325 2, 540.500 2 C 539.675 2, 539 1.550, 539 1 C 539 0.450, 537.875 0, 536.500 0 C 535.125 0, 534 0.450, 534 1 C 534 2.379, 531.401 2.253, 528.856 0.750 C 527.162 -0.250, 526.648 -0.250, 526.286 0.750 C 525.697 2.378, 522.005 2.378, 521.985 0.750 C 521.975 -0.080, 521.722 -0.143, 521.235 0.561 C 520.395 1.774, 509 1.983, 509 0.786 C 509 0.354, 507.200 0, 505 0 C 502.800 0, 501 0.450, 501 1 C 501 2.379, 498.401 2.253, 495.856 0.750 C 494.162 -0.250, 493.648 -0.250, 493.286 0.750 C 492.720 2.313, 490.297 2.390, 489.787 0.862 C 489.511 0.033, 488.394 0.090, 485.679 1.071 C 482.690 2.152, 481.311 2.178, 478.727 1.203 C 476.647 0.418, 475.386 0.343, 475.169 0.993 C 474.733 2.302, 471 2.308, 471 1 C 471 0.450, 470.100 0, 469 0 C 467.900 0, 467 0.450, 467 1 C 467 1.550, 466.100 2, 465 2 C 463.900 2, 463 1.550, 463 1 C 463 0.450, 461.875 0, 460.500 0 C 459.125 0, 458 0.450, 458 1 C 458 1.550, 457.325 2, 456.500 2 C 455.675 2, 455 1.550, 455 1 C 455 0.450, 453.875 0, 452.500 0 C 451.125 0, 450 0.342, 450 0.760 C 450 1.178, 447.318 1.556, 444.039 1.600 C 440.761 1.645, 438.313 1.303, 438.598 0.841 C 438.884 0.378, 438.641 0, 438.059 0 C 437.477 0, 437 0.450, 437 1 C 437 2.379, 434.401 2.253, 431.856 0.750 C 430.162 -0.250, 429.648 -0.250, 429.286 0.750 C 428.697 2.378, 425.005 2.378, 424.985 0.750 C 424.974 -0.110, 424.740 -0.158, 424.235 0.595 C 423.323 1.953, 412.804 1.877, 411.674 0.504 C 411.137 -0.149, 410.670 -0.063, 410.341 0.750 C 409.686 2.364, 407.336 2.364, 406.583 0.750 C 406.117 -0.250, 405.883 -0.250, 405.417 0.750 C 404.662 2.368, 401.338 2.368, 400.583 0.750 C 400.117 -0.250, 399.883 -0.250, 399.417 0.750 C 398.723 2.236, 396 2.435, 396 1 C 396 -0.322, 391.656 -0.266, 384.615 1.148 C 380.310 2.013, 378.613 2.013, 377.748 1.148 C 376.339 -0.261, 369 -0.386, 369 1 C 369 2.297, 358.272 2.311, 357.833 1.015 C 357.620 0.384, 356.193 0.432, 353.857 1.150 C 351.149 1.982, 349.368 1.975, 346.923 1.123 C 345.113 0.492, 343.378 0.347, 343.066 0.799 C 342.344 1.849, 331 1.837, 331 0.786 C 331 0.354, 328.750 0, 326 0 C 323.250 0, 321 0.450, 321 1 C 321 1.550, 320.325 2, 319.500 2 C 318.675 2, 318 1.550, 318 1 C 318 0.397, 313.822 0, 307.465 0 C 297.332 0, 296.969 0.074, 297.973 1.949 M 867.565 0.895 C 867.260 1.388, 867.712 2.059, 868.569 2.388 C 869.426 2.717, 869.903 3.348, 869.629 3.791 C 869.356 4.233, 869.595 5.249, 870.160 6.048 C 870.999 7.232, 871.085 7.177, 870.626 5.750 C 869.993 3.783, 871.044 3.444, 872.687 5.087 C 874.299 6.699, 875.475 4.277, 873.964 2.456 C 872.547 0.749, 870.558 0.476, 871.580 2.130 C 872.008 2.822, 871.740 3.064, 870.889 2.755 C 870.125 2.477, 869.612 1.744, 869.750 1.125 C 870.047 -0.211, 868.358 -0.389, 867.565 0.895 M 77 3.559 C 77 4.966, 77.408 5.866, 77.906 5.558 C 78.404 5.250, 78.577 4.098, 78.289 2.999 C 77.570 0.247, 77 0.495, 77 3.559 M 856.432 1.889 C 856.839 2.548, 856.628 3.743, 855.964 4.544 C 855.113 5.569, 855.087 6, 855.878 6 C 856.495 6, 857 6.477, 857 7.059 C 857 7.641, 856.625 7.886, 856.167 7.603 C 855.708 7.320, 855.333 7.681, 855.333 8.407 C 855.333 9.187, 856.072 9.532, 857.143 9.252 C 858.549 8.885, 858.735 8.374, 857.980 6.962 C 857.445 5.963, 857.261 4.483, 857.572 3.674 C 857.882 2.864, 857.586 1.862, 856.914 1.447 C 856.116 0.954, 855.948 1.107, 856.432 1.889 M 860 3 C 860 4.867, 860.267 5.133, 861.200 4.200 C 862.133 3.267, 862.133 2.733, 861.200 1.800 C 860.267 0.867, 860 1.133, 860 3 M 863.447 5.750 C 863.595 6.713, 863.218 7.872, 862.608 8.326 C 861.873 8.874, 861.974 9.025, 862.908 8.773 C 864.461 8.356, 865.532 4, 864.082 4 C 863.584 4, 863.298 4.787, 863.447 5.750 M 866.633 4.784 C 866.275 5.364, 866.620 6.477, 867.400 7.257 C 868.180 8.037, 869.023 9.761, 869.273 11.088 L 869.728 13.500 869.828 11 C 869.951 7.954, 867.555 3.293, 866.633 4.784 M 75.872 10.692 C 74.701 12.136, 74.708 12.259, 75.920 11.528 C 76.954 10.905, 77.183 11.081, 76.762 12.177 C 76.445 13.004, 76.589 14.316, 77.083 15.091 C 77.690 16.045, 77.866 15.463, 77.626 13.288 C 77.431 11.522, 77.773 9.870, 78.386 9.617 C 79.195 9.283, 79.192 9.136, 78.372 9.079 C 77.752 9.036, 76.627 9.761, 75.872 10.692 M 853.154 11.410 C 853.514 11.812, 853.239 13.238, 852.544 14.578 C 851.161 17.244, 851.662 23.165, 853.077 20.875 C 853.522 20.156, 853.480 19.078, 852.984 18.481 C 852.433 17.817, 852.624 16.352, 853.473 14.714 C 854.523 12.691, 854.574 11.868, 853.682 11.357 C 853.032 10.984, 852.794 11.008, 853.154 11.410 M 866 13.017 C 865.003 13.650, 864.920 13.975, 865.750 13.985 C 867.449 14.005, 867.325 15.818, 865.500 17.643 C 863.440 19.703, 863.620 21.667, 865.925 22.270 C 867.273 22.623, 867.691 22.359, 867.320 21.393 C 867.029 20.633, 866.388 20.260, 865.895 20.565 C 865.403 20.869, 865 20.672, 865 20.126 C 865 18.992, 868.600 17.635, 869.741 18.339 C 870.158 18.597, 870.565 17.726, 870.644 16.404 C 870.728 15.015, 870.235 14, 869.478 14 C 868.757 14, 868.017 13.564, 867.833 13.032 C 867.621 12.416, 866.955 12.410, 866 13.017 M 847.836 21.250 C 846.724 22.149, 846.516 23.202, 847.096 25 L 847.903 27.500 847.694 25 C 847.579 23.625, 848.163 21.952, 848.992 21.282 C 849.822 20.612, 850.249 20.049, 849.941 20.032 C 849.634 20.014, 848.686 20.563, 847.836 21.250 M 853.762 23.750 C 853.021 25.262, 851.704 26.447, 850.836 26.382 C 849.764 26.303, 849.414 26.866, 849.745 28.132 C 850.397 30.625, 851.636 30.499, 852.324 27.870 C 852.667 26.557, 853.422 25.948, 854.292 26.282 C 855.320 26.676, 855.676 26.033, 855.602 23.914 C 855.546 22.314, 855.412 21.004, 855.305 21.002 C 855.197 21.001, 854.503 22.238, 853.762 23.750 M 881.489 26.018 C 881.110 26.631, 881.070 27.403, 881.400 27.733 C 881.730 28.063, 882.007 27.696, 882.015 26.917 C 882.028 25.732, 882.183 25.741, 882.961 26.971 C 883.473 27.780, 884.152 28.182, 884.470 27.864 C 884.788 27.545, 884.403 26.749, 883.613 26.094 C 882.569 25.227, 881.990 25.207, 881.489 26.018 M 869.007 29.509 C 869.544 30.155, 869.649 31.093, 869.241 31.592 C 868.834 32.091, 868.926 32.149, 869.446 31.721 C 870.939 30.491, 870.912 28.333, 869.403 28.333 C 868.466 28.333, 868.341 28.705, 869.007 29.509 M 244 29.668 C 214.656 34.314, 195.533 44.581, 185.456 61.097 C 181.262 67.971, 176.602 81.930, 175.022 92.354 C 173.536 102.159, 175.039 117.855, 178.520 128.874 C 188.355 160.006, 215.995 174.473, 262.259 172.704 C 280.751 171.996, 290.415 169.820, 302.888 163.556 C 312.712 158.622, 312.271 158.548, 315.899 165.750 L 318.041 170 328.485 170 C 337.788 170, 339.043 169.789, 339.965 168.066 C 341.525 165.150, 341.371 95.771, 339.800 94.200 C 338.914 93.314, 329.768 93, 304.857 93 C 264.543 93, 268 91.586, 268 108.073 C 268 113.919, 268.494 120.119, 269.098 121.851 L 270.196 125 278.598 125 C 286.726 125, 287 125.076, 287 127.326 C 287 133.135, 277.126 137.274, 263 137.387 C 251.098 137.482, 244.882 135.497, 238.166 129.459 C 230.521 122.586, 228.500 117.053, 228.501 103 C 228.502 92.563, 228.754 90.961, 231.235 85.664 C 235.270 77.047, 239.343 72.470, 245.792 69.303 C 250.554 66.965, 252.743 66.509, 259 66.552 C 268.393 66.616, 272.638 68.522, 279.949 75.958 L 285.398 81.500 312.449 81.500 L 339.500 81.500 339.468 76.457 C 339.421 68.816, 335.136 60.972, 326.080 51.944 C 321.911 47.788, 315.875 42.925, 312.666 41.138 C 304.814 36.764, 288.264 31.373, 278.678 30.066 C 271.287 29.059, 249.432 28.808, 244 29.668 M 881.737 31.102 C 882.092 32.458, 882.526 32.767, 883.001 31.999 C 883.398 31.356, 884.112 30.901, 884.587 30.990 C 885.062 31.078, 885.540 30.655, 885.650 30.050 C 885.770 29.391, 885.647 29.358, 885.344 29.967 C 885.011 30.638, 884.219 30.652, 883.017 30.009 C 881.479 29.186, 881.280 29.356, 881.737 31.102 M 848.030 31.250 C 848.002 32.858, 846.351 33, 827.622 33 C 812.489 33, 806.977 33.323, 806.203 34.256 C 805.439 35.176, 807.566 39.789, 814.158 51.506 C 819.106 60.303, 827.890 76.451, 833.678 87.391 C 839.465 98.331, 846.228 110.706, 848.706 114.891 C 855.875 126.999, 859.143 133.998, 858.959 136.850 C 858.865 138.308, 858.836 145.858, 858.894 153.629 L 859 167.757 861.750 168.877 C 863.263 169.493, 866.638 170.071, 869.250 170.161 C 871.862 170.251, 874 170.756, 874 171.285 C 874 171.863, 874.497 171.837, 875.250 171.218 C 875.972 170.625, 882.921 170.156, 891.715 170.107 C 904.853 170.033, 906.850 170.226, 906.353 171.522 C 905.962 172.541, 906.241 172.845, 907.222 172.468 C 908.748 171.883, 909.256 169, 907.833 169 C 907.375 169, 907.008 161.238, 907.017 151.750 L 907.035 134.500 914.418 122 C 923.001 107.468, 958.517 44.286, 961.233 38.718 C 962.248 36.637, 962.809 34.500, 962.480 33.968 C 962.120 33.385, 951.632 33, 936.096 33 C 912.802 33, 910.158 33.169, 908.741 34.750 C 907.878 35.712, 902.589 45.638, 896.988 56.807 C 888.117 74.498, 886.529 77.074, 884.663 76.807 C 883.485 76.638, 882.358 75.646, 882.159 74.603 C 881.960 73.559, 880.709 71.618, 879.379 70.288 C 878.050 68.959, 877.222 67.450, 877.540 66.935 C 877.858 66.421, 877.724 66, 877.243 66 C 876.762 66, 875.087 63.321, 873.522 60.047 C 871.230 55.251, 870.914 53.809, 871.896 52.626 C 872.909 51.405, 872.783 51.244, 871.154 51.670 C 869.778 52.030, 868.995 51.561, 868.532 50.100 C 868.168 48.955, 868.132 47.595, 868.452 47.078 C 868.771 46.561, 868.493 45.804, 867.833 45.397 C 866.995 44.879, 867.217 44.426, 868.566 43.898 C 870.174 43.268, 870.027 43.129, 867.691 43.070 C 866.087 43.030, 865.147 42.571, 865.500 42 C 865.840 41.450, 865.724 41, 865.243 41 C 863.857 41, 859.803 33.128, 860.559 31.904 C 861.056 31.100, 860.684 31.099, 859.186 31.900 C 855.949 33.633, 850.255 33.266, 849.080 31.250 C 848.109 29.583, 848.059 29.583, 848.030 31.250 M 354.841 32.722 C 348.993 32.961, 345.805 33.530, 345.019 34.477 C 343.190 36.681, 343.021 164.660, 344.843 167.859 L 346.187 170.217 367.843 169.842 C 379.754 169.636, 390.063 169.110, 390.750 168.674 C 391.688 168.079, 392.008 162.226, 392.032 145.191 C 392.056 127.908, 392.380 122.083, 393.392 120.750 C 394.516 119.270, 396.400 119.002, 405.610 119.015 C 411.600 119.024, 417.020 119.361, 417.655 119.766 C 418.290 120.170, 422.286 127.250, 426.534 135.500 C 430.782 143.750, 436.947 154.662, 440.232 159.750 L 446.206 169 471.603 169 L 497 169 497 165.950 C 497 163.932, 492.960 155.554, 485.064 141.197 C 478.499 129.261, 472.843 118.754, 472.495 117.848 C 472.020 116.611, 474.212 114.458, 481.284 109.211 C 491.662 101.513, 494.555 98.128, 496.620 91.269 C 498.225 85.934, 498.402 71.457, 496.939 65.112 C 494.044 52.554, 484.945 41.236, 473.315 35.728 L 466.500 32.500 415 32.435 C 386.675 32.399, 359.604 32.528, 354.841 32.722 M 511.340 32.722 C 505.955 32.957, 502.787 33.552, 502.024 34.471 C 500.208 36.660, 500.028 164.671, 501.837 167.847 L 503.174 170.193 524.837 169.847 C 536.752 169.656, 547.063 169.136, 547.750 168.691 C 548.688 168.084, 549.008 162.217, 549.032 145.191 C 549.056 127.908, 549.380 122.083, 550.392 120.750 C 551.516 119.270, 553.400 119.002, 562.610 119.015 C 568.600 119.024, 573.999 119.361, 574.609 119.765 C 575.220 120.169, 579.214 127.250, 583.485 135.500 C 587.757 143.750, 593.941 154.662, 597.229 159.750 L 603.206 169 628.603 169 L 654 169 654 165.885 C 654 163.154, 645.046 145.619, 632.612 124 C 628.624 117.066, 628.958 116.221, 638.474 109.193 C 652.098 99.131, 655 93.662, 655 78.051 C 655 58.044, 646.414 43.354, 630.241 35.693 L 623.500 32.500 571.500 32.433 C 542.900 32.396, 515.828 32.526, 511.340 32.722 M 665.324 32.650 C 663.578 32.906, 661.644 33.724, 661.026 34.468 C 659.429 36.393, 658.400 67.334, 658.136 121.345 C 657.971 155.086, 658.220 167.560, 659.079 168.595 C 660.060 169.777, 671.386 170, 730.587 170 C 799.706 170, 800.948 169.966, 801.991 168.017 C 802.644 166.796, 802.946 160.164, 802.776 150.767 L 802.500 135.500 757.500 135 C 709.438 134.466, 708.635 134.377, 707.402 129.465 C 706.516 125.936, 707.777 120.300, 709.609 119.597 C 710.464 119.268, 726.604 119, 745.475 119 C 775.405 119, 779.861 118.804, 780.375 117.464 C 780.699 116.620, 781.244 109.289, 781.587 101.173 C 782.091 89.199, 781.945 86.200, 780.813 85.259 C 779.831 84.444, 769.246 84.012, 745.127 83.800 C 712.524 83.515, 710.767 83.404, 709.418 81.559 C 707.583 79.047, 707.558 70.612, 709.382 69.098 C 710.366 68.281, 720.748 67.973, 745.498 68.026 C 764.602 68.067, 780.481 67.853, 780.783 67.550 C 781.864 66.470, 790.623 67.023, 791.859 68.250 C 792.869 69.252, 792.992 69.169, 792.483 67.830 C 792.017 66.606, 792.469 66.071, 794.174 65.830 C 796.264 65.533, 796.559 64.842, 797.078 59 C 798.056 47.996, 797.353 35.925, 795.634 34.205 C 794.304 32.875, 786.040 32.648, 731.304 32.432 C 696.762 32.295, 667.071 32.393, 665.324 32.650 M 124.523 35.250 C 124.296 35.938, 123.648 56.018, 123.084 79.874 C 122.128 120.288, 121.919 123.535, 120.020 127.458 C 116.545 134.637, 113.912 136.383, 105.874 136.837 C 98.052 137.279, 92.090 135.352, 89.696 131.608 C 87.991 128.939, 86.158 121.854, 85.634 115.899 C 85.067 109.453, 83.538 107, 80.087 107 C 78.524 107, 76.685 106.325, 76 105.500 C 74.432 103.611, 73 103.569, 73 105.412 C 73 106.832, 69.828 107.660, 60.934 108.564 C 51.941 109.478, 39.833 111.894, 38.437 113.052 C 36.555 114.614, 36.556 125.243, 38.440 134.131 C 41.995 150.902, 52.913 162.441, 70.500 168.015 C 72.700 168.712, 74.860 169.894, 75.300 170.641 C 75.740 171.389, 76.640 171.993, 77.300 171.985 C 78.034 171.975, 77.918 171.593, 77 171 C 75.787 170.216, 75.931 170.028, 77.750 170.015 C 78.987 170.007, 80 170.338, 80 170.750 C 80 171.592, 79.396 171.550, 105.726 172.544 C 128.243 173.394, 134.102 172.585, 144.500 167.189 C 157.429 160.479, 166.136 149.571, 169.578 135.769 C 171.642 127.493, 172.983 39.706, 171.100 36.186 C 169.950 34.037, 169.545 34, 147.433 34 C 130.324 34, 124.838 34.299, 124.523 35.250 M 867.605 38.587 C 867.229 39.566, 867.726 39.877, 869.286 39.639 C 871.889 39.241, 872.239 37.799, 869.819 37.444 C 868.895 37.308, 867.898 37.823, 867.605 38.587 M 76.226 39.574 C 77.176 40.568, 78.227 41.107, 78.562 40.771 C 78.897 40.436, 78.120 39.623, 76.836 38.964 C 74.603 37.819, 74.576 37.846, 76.226 39.574 M 871.600 41.600 C 871.244 42.527, 871.178 43.511, 871.453 43.786 C 871.728 44.061, 872.244 43.527, 872.600 42.600 C 872.956 41.673, 873.022 40.689, 872.747 40.414 C 872.472 40.139, 871.956 40.673, 871.600 41.600 M 883.489 45.108 C 884.583 46.424, 885.596 47.688, 885.739 47.917 C 885.883 48.146, 886 47.692, 886 46.907 C 886 46.123, 884.987 44.859, 883.750 44.099 L 881.500 42.717 883.489 45.108 M 870.553 45.915 C 870.231 46.436, 870.394 47.125, 870.915 47.447 C 871.436 47.769, 872.125 47.606, 872.447 47.085 C 872.769 46.564, 872.606 45.875, 872.085 45.553 C 871.564 45.231, 870.875 45.394, 870.553 45.915 M 76.229 49.188 C 76.834 51.001, 78.667 51.257, 78.667 49.528 C 78.667 48.688, 78.029 48, 77.250 48 C 76.471 48, 76.011 48.534, 76.229 49.188 M 86.446 50.087 C 86.077 50.685, 86.275 51.675, 86.887 52.287 C 87.704 53.104, 88 52.815, 88 51.200 C 88 48.785, 87.481 48.413, 86.446 50.087 M 81.419 58.537 C 81.451 60.425, 82 62.170, 82.640 62.415 C 83.901 62.899, 83.913 61.252, 82.663 59.250 C 82.233 58.563, 82.141 57.581, 82.457 57.069 C 82.774 56.557, 82.656 55.906, 82.197 55.621 C 81.737 55.337, 81.387 56.649, 81.419 58.537 M 880.566 56.107 C 881.023 56.846, 880.570 56.998, 879.208 56.566 C 877.725 56.095, 877.226 56.332, 877.387 57.430 C 877.675 59.396, 879 60.722, 879 59.044 C 879 58.064, 879.329 58.028, 880.375 58.896 C 881.480 59.813, 881.750 59.542, 881.750 57.519 C 881.750 56.133, 881.330 55, 880.816 55 C 880.302 55, 880.190 55.498, 880.566 56.107 M 78.702 59.631 C 78.355 59.979, 78.506 61.076, 79.038 62.071 C 79.669 63.251, 79.657 64.094, 79.003 64.498 C 78.451 64.839, 78 64.615, 78 64 C 78 63.385, 77.550 63.160, 77 63.500 C 75.838 64.218, 75.645 66.056, 76.750 65.882 C 78.725 65.570, 79.349 66.128, 78 67 C 76.718 67.828, 76.754 67.972, 78.250 67.985 C 79.867 67.999, 80.698 65.379, 79.991 62.500 C 79.856 61.950, 79.728 60.938, 79.706 60.250 C 79.661 58.819, 79.570 58.763, 78.702 59.631 M 392.949 69.095 C 391.582 71.649, 392.225 79.624, 393.935 81.337 C 394.729 82.133, 402.182 82.596, 417.540 82.803 L 439.985 83.106 442.492 80.599 C 445.525 77.566, 445.769 73.173, 443.090 69.861 C 441.194 67.518, 441.004 67.498, 417.652 67.199 C 394.298 66.900, 394.116 66.914, 392.949 69.095 M 549.949 69.095 C 548.582 71.650, 549.225 79.625, 550.937 81.337 C 551.754 82.154, 558.960 82.500, 575.138 82.500 C 598.144 82.500, 598.179 82.497, 600.088 80.139 C 602.529 77.125, 602.530 72.876, 600.090 69.861 C 598.194 67.518, 598.004 67.498, 574.652 67.199 C 551.298 66.900, 551.116 66.914, 549.949 69.095 M 77.835 70.329 C 78.357 70.973, 78.968 72.400, 79.192 73.500 C 79.533 75.172, 79.689 75.062, 80.146 72.827 C 80.568 70.767, 80.256 70.039, 78.790 69.655 C 77.427 69.299, 77.156 69.490, 77.835 70.329 M 77.539 100 C 77.848 101.375, 78.215 103.049, 78.355 103.721 C 78.494 104.393, 78.922 105.255, 79.304 105.638 C 80.510 106.843, 79.971 103.626, 78.444 100.500 C 77.182 97.918, 77.056 97.848, 77.539 100 M 59.981 101.660 C 60.548 101.941, 60.777 102.551, 60.490 103.016 C 60.203 103.481, 60.385 104.120, 60.896 104.436 C 61.407 104.751, 61.712 104.244, 61.575 103.309 C 61.438 102.374, 60.791 101.505, 60.138 101.379 C 59.484 101.253, 59.414 101.380, 59.981 101.660 M 88.730 105.643 C 88.444 106.114, 88.838 107.080, 89.605 107.789 C 91.151 109.218, 91.447 108.253, 90.110 106.143 C 89.637 105.397, 89.016 105.172, 88.730 105.643 M 48 171.088 C 48 171.590, 48.480 172, 49.067 172 C 49.718 172, 49.857 172.875, 49.423 174.242 C 48.807 176.184, 48.919 176.312, 50.261 175.198 C 52.216 173.576, 51.864 170.744, 49.667 170.422 C 48.750 170.287, 48 170.587, 48 171.088 M 875 174.941 C 875 175.459, 875.450 176.160, 876 176.500 C 876.550 176.840, 877 176.416, 877 175.559 C 877 174.702, 876.550 174, 876 174 C 875.450 174, 875 174.423, 875 174.941 M 50.166 176.876 C 49.092 177.557, 49.141 177.840, 50.416 178.329 C 51.418 178.714, 52 178.398, 52 177.469 C 52 175.769, 51.942 175.750, 50.166 176.876 M 66.676 177.752 C 67.819 178.588, 68.603 178.691, 68.822 178.035 C 69.011 177.466, 69.565 177, 70.052 177 C 70.539 177, 70.684 177.787, 70.374 178.750 C 69.915 180.177, 70.001 180.232, 70.840 179.048 C 72.331 176.941, 71.291 175.946, 67.871 176.207 C 65.132 176.415, 65.029 176.548, 66.676 177.752 M 77.667 180.667 C 77.300 181.033, 77 183.133, 77 185.333 C 77 187.533, 77.338 188.996, 77.750 188.583 C 78.352 187.982, 79.034 180, 78.484 180 C 78.401 180, 78.033 180.300, 77.667 180.667 M 56.150 185.950 C 56.370 186.610, 56.876 187.116, 57.275 187.075 C 58.471 186.951, 58.239 185.580, 56.950 185.150 C 56.290 184.930, 55.930 185.290, 56.150 185.950 M 52.675 186.658 C 52.313 187.020, 52.519 187.920, 53.131 188.658 C 53.985 189.687, 53.866 190, 52.622 190 C 50.401 190, 50.570 191.654, 52.853 192.251 C 54.407 192.658, 54.650 192.245, 54.354 189.702 C 53.957 186.296, 53.630 185.703, 52.675 186.658 M 47.713 189.012 C 48.101 190.493, 47.940 191.081, 47.262 190.662 C 46.683 190.304, 45.966 190.647, 45.668 191.423 C 45.370 192.199, 45.767 193.081, 46.551 193.381 C 47.335 193.682, 47.910 193.607, 47.829 193.214 C 47.749 192.821, 48.039 191.682, 48.474 190.683 C 48.932 189.631, 48.812 188.412, 48.189 187.789 C 47.420 187.020, 47.284 187.369, 47.713 189.012 M 926 189.500 C 926 190.325, 926.730 191, 927.622 191 C 928.951 191, 929.020 190.729, 928 189.500 C 927.315 188.675, 926.585 188, 926.378 188 C 926.170 188, 926 188.675, 926 189.500 M 108.418 191.591 C 107.363 192.448, 107.063 192.863, 107.750 192.515 C 108.438 192.167, 109 192.359, 109 192.941 C 109 193.523, 108.550 194, 108 194 C 106.513 194, 106.790 195.705, 108.376 196.314 C 109.132 196.604, 109.736 196.315, 109.718 195.671 C 109.700 195.027, 109.756 193.626, 109.842 192.559 C 109.998 190.637, 110.015 190.637, 111.468 192.559 C 112.276 193.626, 112.951 193.993, 112.968 193.372 C 113.036 190.986, 110.423 189.963, 108.418 191.591 M 40.200 192.200 C 39.540 192.860, 39 194.054, 39 194.853 C 39 195.839, 39.642 195.565, 41 194 C 42.100 192.732, 43 191.538, 43 191.347 C 43 190.567, 41.322 191.078, 40.200 192.200 M 51 194 C 51 194.550, 51.702 195, 52.559 195 C 53.416 195, 53.840 194.550, 53.500 194 C 53.160 193.450, 52.459 193, 51.941 193 C 51.423 193, 51 193.450, 51 194 M 78 195.500 C 78 196.325, 78.375 197, 78.833 197 C 79.292 197, 79.667 196.325, 79.667 195.500 C 79.667 194.675, 79.292 194, 78.833 194 C 78.375 194, 78 194.675, 78 195.500 M 40.695 197.057 C 40.256 198.738, 40.415 198.900, 41.568 197.944 C 42.343 197.300, 42.731 196.374, 42.430 195.887 C 41.614 194.567, 41.289 194.786, 40.695 197.057 M 916.139 198.033 C 914.841 199.115, 914.209 200, 914.734 200 C 915.260 200, 916.505 199.100, 917.500 198 C 919.787 195.473, 919.195 195.487, 916.139 198.033 M 48 198.500 C 48 199.417, 48.484 200.005, 49.075 199.808 C 49.666 199.611, 50.150 199.022, 50.150 198.500 C 50.150 197.978, 49.666 197.389, 49.075 197.192 C 48.484 196.995, 48 197.583, 48 198.500 M 62.525 197.960 C 61.677 199.332, 62.428 200.362, 63.905 199.854 C 64.511 199.646, 64.588 198.940, 64.093 198.143 C 63.468 197.137, 63.063 197.090, 62.525 197.960" stroke="none" fill="#0a0a0a" fill-rule="evenodd"/>
</svg>