<svg xmlns="http://www.w3.org/2000/svg" width="1039" height="1039" viewBox="0 0 1039 1039" version="1.1">
	<path d="M 501.971 150.250 C 501.955 150.387, 501.288 166.904, 500.490 186.953 C 499.342 215.770, 499.296 223.569, 500.269 224.187 C 500.946 224.618, 503.637 224.976, 506.250 224.985 C 510.498 224.998, 511.006 224.762, 511.053 222.750 C 511.224 215.486, 512.759 193.908, 513.131 193.536 C 513.374 193.293, 521.544 193.368, 531.287 193.702 L 549 194.311 549 210.049 C 549 227.367, 548.860 227, 555.459 227 C 557.272 227, 559.202 226.438, 559.748 225.750 C 560.816 224.405, 563.556 154.223, 562.579 153.245 C 562.259 152.926, 559.588 152.465, 556.644 152.220 L 551.290 151.776 550.560 167.138 C 550.158 175.587, 549.679 182.651, 549.495 182.837 C 549.311 183.022, 540.958 182.844, 530.932 182.443 L 512.705 181.712 513.279 168.606 C 513.596 161.398, 513.610 154.262, 513.311 152.750 C 512.798 150.158, 512.458 150, 507.383 150 C 504.423 150, 501.987 150.113, 501.971 150.250 M 407.520 168.937 C 406.668 171.622, 397.173 247.403, 397.625 247.912 C 398.313 248.688, 405.016 248.062, 406.917 247.045 C 408.315 246.296, 409.113 244.116, 409.947 238.764 C 410.569 234.769, 411.440 230.838, 411.881 230.028 C 412.322 229.218, 419.477 226.478, 427.782 223.939 L 442.882 219.322 448.660 225.161 C 453.198 229.748, 455.093 231, 457.496 231 C 460.667 231, 465 228.628, 465 226.893 C 465 225.926, 417.680 172.244, 413.748 168.750 C 411.149 166.441, 408.285 166.527, 407.520 168.937 M 635.844 177.337 C 625.419 181.223, 616.706 189.129, 612.160 198.825 C 609.836 203.784, 609.500 205.761, 609.500 214.500 C 609.500 223.264, 609.832 225.209, 612.188 230.236 C 615.623 237.564, 623.436 245.377, 630.764 248.812 C 635.903 251.220, 637.645 251.499, 647.500 251.495 C 657.910 251.490, 658.826 251.320, 664.588 248.312 C 672.360 244.256, 680.135 235.836, 683.117 228.247 C 686.509 219.613, 686.357 206.558, 682.774 198.782 C 679.129 190.869, 672.082 183.658, 664.207 179.781 C 658.585 177.013, 656.470 176.538, 648.602 176.277 C 642.671 176.079, 638.226 176.448, 635.844 177.337 M 636.462 190.366 C 622.767 196.743, 616.979 213.075, 623.793 226.118 C 630.263 238.502, 644.799 243.742, 657.716 238.345 C 666.305 234.757, 674 223.556, 674 214.644 C 674 204.876, 667.378 194.298, 658.603 190.050 C 652.584 187.136, 643.107 187.271, 636.462 190.366 M 416 189.993 C 416 190.775, 415.282 196.979, 414.406 203.780 C 413.529 210.580, 413.031 216.365, 413.301 216.634 C 413.743 217.076, 433.944 211.232, 434.903 210.384 C 435.241 210.085, 431.926 206.249, 417.319 190.036 C 416.199 188.792, 416 188.786, 416 189.993 M 312.503 213.250 C 312.209 214.488, 315.085 227.196, 318.896 241.500 C 322.706 255.800, 325.677 267.648, 325.499 267.830 C 325.320 268.011, 314.358 262.011, 301.138 254.496 C 276.627 240.562, 273 239.224, 273 244.112 C 273 245.665, 304.947 309.116, 306.656 310.956 C 306.888 311.207, 308.692 310.544, 310.663 309.482 C 317.176 305.974, 317.081 305.451, 306.102 284.510 C 300.627 274.065, 296.295 265.372, 296.476 265.191 C 296.657 265.010, 305.701 270.090, 316.574 276.481 C 337.172 288.587, 341.147 289.980, 341.809 285.329 C 341.979 284.135, 339.394 273.369, 336.065 261.406 C 332.736 249.443, 330.163 239.504, 330.347 239.320 C 330.620 239.046, 348.506 254.894, 360.249 265.815 C 362.942 268.320, 363.067 268.338, 366.472 266.715 C 370.814 264.644, 372.155 260.653, 369.381 258.059 C 348.188 238.244, 316.776 211, 315.124 211 C 313.786 211, 312.846 211.807, 312.503 213.250 M 739.746 243.022 C 720.637 247.850, 707.854 267.168, 710.995 286.469 C 713.155 299.738, 721.285 310.015, 735.087 316.923 C 747.002 322.887, 747.070 322.869, 758.544 310.478 C 763.904 304.690, 768.111 299.840, 767.894 299.699 C 767.677 299.557, 763.782 295.884, 759.238 291.536 L 750.977 283.630 747.488 287.011 C 745.570 288.871, 744 290.848, 744 291.404 C 744 291.960, 745.642 294.097, 747.648 296.151 L 751.296 299.887 748.398 303.371 C 746.804 305.288, 744.695 306.888, 743.710 306.928 C 740.632 307.052, 734.578 303.351, 730.342 298.756 C 710.969 277.738, 735.103 245.135, 761.124 257.172 C 767.774 260.249, 771.965 265.633, 774.502 274.358 L 776.171 280.099 781.335 279.799 L 786.500 279.500 786.377 274.447 C 786.119 263.834, 776.264 250.757, 764.448 245.348 C 758.228 242.500, 746.268 241.374, 739.746 243.022 M 797.627 346.587 C 778.997 347.866, 763.597 349.070, 763.404 349.262 C 762.578 350.089, 765.176 356.849, 766.931 358.437 C 768.500 359.857, 770.345 360.113, 777.037 359.837 L 785.224 359.500 792.612 373.448 C 796.675 381.119, 800 387.812, 800 388.321 C 800 388.830, 797.933 392.143, 795.407 395.683 C 792.040 400.401, 790.966 402.728, 791.385 404.398 C 792.081 407.171, 795.914 412.207, 797.017 411.797 C 798.765 411.146, 846 348.660, 846 346.997 C 846 343.340, 845.041 343.332, 797.627 346.587 M 188.173 358.250 C 183.913 365.207, 184.181 365.574, 197.816 371.414 C 204.590 374.316, 210.200 376.872, 210.282 377.095 C 210.364 377.318, 209.389 380.287, 208.115 383.693 C 205.414 390.916, 206.171 390.613, 188.500 391.530 C 181.900 391.873, 175.671 392.387, 174.658 392.673 C 172.716 393.221, 169.059 400.177, 169.022 403.394 C 169.002 405.145, 169.584 405.240, 176.750 404.655 C 181.012 404.307, 188.438 403.726, 193.250 403.364 L 202 402.705 202 405.885 C 202 410.098, 204.473 415.833, 207.803 419.342 C 212.225 424, 217.175 426.003, 224.210 425.978 C 231.767 425.952, 237.315 423.683, 241.511 418.905 C 244.465 415.539, 258.701 384.368, 257.728 383.395 C 257.298 382.965, 190.966 355, 190.376 355 C 190.259 355, 189.268 356.462, 188.173 358.250 M 803.750 357.742 C 800.038 357.934, 797 358.307, 797 358.571 C 797 359.514, 807.510 378.958, 808 378.922 C 808.275 378.901, 812.216 373.960, 816.757 367.942 L 825.015 357 817.757 357.196 C 813.766 357.304, 807.462 357.549, 803.750 357.742 M 216.561 391.114 C 212.308 401.159, 211.918 405.066, 214.785 408.929 C 219.764 415.639, 229.284 415.674, 234.118 409 C 235.114 407.625, 237.472 402.859, 239.358 398.409 L 242.788 390.319 232.644 386.157 C 227.065 383.867, 222.032 381.995, 221.460 381.997 C 220.888 381.999, 218.684 386.101, 216.561 391.114 M 839.500 439.114 C 822.450 441.800, 807.938 444.210, 807.250 444.468 C 805.027 445.303, 806.588 456.108, 808.911 455.963 C 809.235 455.943, 820.075 454.428, 833 452.596 C 845.925 450.765, 856.640 449.384, 856.810 449.527 C 856.981 449.670, 848.201 460.072, 837.299 472.643 C 814.565 498.860, 813 500.789, 813 502.600 C 813 506.150, 816.518 505.954, 851.111 500.471 C 870.025 497.474, 886.063 495.017, 886.750 495.011 C 888.547 494.995, 888.349 487.044, 886.501 485.001 C 885.109 483.463, 883.345 483.582, 861.834 486.672 C 849.092 488.502, 838.554 489.887, 838.417 489.750 C 838.279 489.612, 847.804 478.106, 859.583 464.180 C 871.362 450.255, 881 438.040, 881 437.037 C 881 432.886, 878.104 433.031, 839.500 439.114 M 152.161 487.146 C 150.945 498.341, 149.961 508.962, 149.975 510.750 L 150 514 155.386 514 L 160.773 514 161.357 509.750 C 161.678 507.413, 162.453 499.875, 163.080 493 C 163.707 486.125, 164.301 480.407, 164.400 480.293 C 164.658 479.998, 184.390 482.056, 184.749 482.416 C 184.913 482.579, 184.578 488.883, 184.006 496.424 C 183.433 503.965, 183.225 510.554, 183.542 511.067 C 184.417 512.484, 192.986 512.212, 193.518 510.750 C 193.769 510.063, 194.544 503.650, 195.242 496.500 L 196.510 483.500 205.505 483.849 C 210.452 484.042, 214.884 484.561, 215.354 485.003 C 215.825 485.447, 215.625 493.059, 214.909 501.975 C 213.786 515.964, 213.806 518.265, 215.055 519.055 C 216.798 520.158, 223.703 520.303, 224.324 519.250 C 224.976 518.145, 228.476 474.134, 227.949 473.665 C 227.702 473.445, 213.100 472.061, 195.500 470.590 C 177.900 469.118, 161.446 467.662, 158.936 467.353 L 154.372 466.792 152.161 487.146 M 863.696 561.690 L 845.892 570.184 828.795 567.438 C 812.057 564.750, 811.669 564.732, 810.305 566.596 C 809.507 567.686, 809.037 570.211, 809.206 572.500 L 809.500 576.500 825.954 579.355 L 842.409 582.211 858.856 598.105 C 867.901 606.847, 875.613 614, 875.993 614 C 876.901 614, 879 606.928, 879 603.867 C 879 602.142, 875.901 598.376, 868 590.500 C 861.950 584.469, 857 579.234, 857 578.867 C 857 578.500, 863.369 575.120, 871.153 571.355 C 883.397 565.434, 885.488 564.076, 886.653 561.287 C 887.394 559.515, 888 556.925, 888 555.532 C 888 553.322, 887.587 553.012, 884.750 553.098 C 882.901 553.154, 873.826 556.858, 863.696 561.690 M 189.618 563.049 C 178.532 565.833, 168.557 574.094, 163.261 584.879 C 160.804 589.880, 160.500 591.604, 160.500 600.518 C 160.500 609.817, 160.735 611.013, 163.781 617.202 C 166.737 623.211, 175.560 633, 178.019 633 C 179.316 633, 184 626.985, 184 625.320 C 184 624.481, 182.007 621.577, 179.570 618.867 C 171.364 609.739, 170.017 599.257, 175.707 588.791 C 178.974 582.783, 184.322 578.576, 191.345 576.490 C 197.708 574.601, 200.336 574.618, 207.068 576.594 C 213.815 578.574, 221.891 586.321, 223.771 592.616 C 225.403 598.083, 225.257 604.593, 223.392 609.500 C 222.556 611.700, 221.788 614.126, 221.686 614.891 C 221.472 616.491, 229.764 621.264, 231.207 620.372 C 231.734 620.046, 233.112 617.692, 234.269 615.140 C 235.911 611.516, 236.386 608.420, 236.436 601 C 236.494 592.390, 236.211 590.891, 233.418 584.997 C 227.219 571.917, 214.915 563.391, 201 562.535 C 196.875 562.281, 191.753 562.513, 189.618 563.049 M 232.024 663.539 C 221.343 666.534, 212.515 673.845, 207.316 684 C 204.732 689.047, 204.500 690.406, 204.500 700.500 C 204.500 710.590, 204.733 711.955, 207.314 717 C 211.220 724.635, 219.019 732.269, 226.395 735.679 C 231.737 738.147, 233.687 738.500, 242 738.500 C 250.538 738.500, 252.158 738.188, 258.003 735.418 C 265.971 731.642, 272.939 724.860, 276.682 717.239 C 279.254 712.001, 279.500 710.540, 279.500 700.500 C 279.500 690.538, 279.242 688.974, 276.764 683.929 C 268.672 667.452, 249.395 658.667, 232.024 663.539 M 233 675.894 C 225.904 678.409, 218.915 685.698, 216.934 692.647 C 213.284 705.451, 218.036 717.389, 229.246 723.579 C 233.724 726.051, 235.608 726.482, 242 726.490 C 250.608 726.501, 255.243 724.691, 260.781 719.153 C 265.662 714.272, 268.245 707.886, 268.299 700.568 C 268.435 682.150, 250.573 669.663, 233 675.894 M 761.363 691.922 C 751.184 696.545, 743.691 707.172, 743.682 717 C 743.676 723.431, 745.515 727.489, 750.363 731.746 C 758.277 738.695, 765.546 738.508, 781.339 730.949 C 790.648 726.493, 792.764 725.839, 796.329 726.317 C 802.025 727.081, 804.363 730.083, 803.719 735.800 C 803.084 741.431, 800.305 744.296, 791.250 748.652 C 785.118 751.602, 784 752.524, 784 754.636 C 784 759.003, 785.740 761, 789.546 761 C 797.253 761, 808.471 752.877, 812.986 744.027 C 820.605 729.093, 811.822 713, 796.053 713 C 792.018 713, 788.707 714.104, 779.263 718.597 C 765.877 724.966, 761.394 725.658, 757.460 721.962 C 753.504 718.246, 754.023 712.710, 758.756 708.132 C 760.822 706.135, 764.647 703.274, 767.256 701.775 C 772.285 698.886, 772.949 697.176, 770.839 692.547 C 769.446 689.489, 767.067 689.332, 761.363 691.922 M 299.750 767.812 C 287.788 783.652, 278 797.071, 278 797.632 C 278 798.878, 281.712 802.344, 284.687 803.876 C 286.712 804.920, 287.497 804.191, 295.305 794.024 L 303.736 783.044 309.368 787.077 C 312.466 789.295, 315 791.806, 315 792.656 C 315 793.506, 313.874 800.416, 312.498 808.013 C 311.121 815.609, 310.274 822.551, 310.615 823.439 C 311.539 825.848, 320.026 830.575, 320.897 829.166 C 321.284 828.540, 322.639 821.553, 323.909 813.639 L 326.219 799.249 333.598 798.775 C 343.462 798.142, 349.243 794.706, 353.206 787.120 C 357.556 778.793, 356.697 767.816, 351.212 761.648 C 349.673 759.918, 322.476 738.992, 321.785 739.006 C 321.628 739.009, 311.712 751.972, 299.750 767.812 M 696 755.653 C 688.921 758.102, 680.996 764.066, 676.881 770.040 C 671.517 777.828, 669.722 784.295, 670.148 794.301 C 670.599 804.870, 674.622 813.676, 682.050 820.355 C 694.625 831.661, 710.541 833.862, 725.786 826.404 C 732.719 823.012, 741.975 813.957, 745.382 807.232 L 748.041 801.986 739.870 790.243 C 735.376 783.784, 731.636 778.407, 731.558 778.292 C 731.481 778.178, 727.274 780.829, 722.209 784.183 C 711.985 790.954, 711.117 792.676, 715.526 797.434 L 718.052 800.159 722.454 797.580 C 724.875 796.161, 727.235 795, 727.699 795 C 728.163 795, 729.623 796.980, 730.945 799.399 L 733.348 803.798 730.529 807.149 C 724.052 814.847, 716.139 818.477, 707.284 817.810 C 700.269 817.281, 695.410 815.073, 690.505 810.184 C 681.104 800.815, 679.773 788.056, 687.007 776.650 C 691.129 770.150, 697.236 766.903, 706.800 766.126 L 714.500 765.500 714.800 759.750 L 715.100 754 707.800 754.048 C 703.785 754.074, 698.475 754.796, 696 755.653 M 317.750 764.887 C 314.038 769.774, 311 774.028, 311 774.341 C 311 775.663, 327.173 787.085, 329.784 787.607 C 333.845 788.419, 339.594 785.698, 342.031 781.810 C 344.320 778.157, 344.229 772.201, 341.840 769.287 C 340.125 767.196, 326.091 756, 325.184 756.001 C 324.808 756.001, 321.462 760, 317.750 764.887 M 389.014 826.001 C 382.774 845.251, 377.856 861.135, 378.084 861.298 C 378.313 861.461, 385.422 863.800, 393.883 866.495 C 406.340 870.464, 410.525 871.375, 415.883 871.286 C 429.709 871.057, 441.854 863.136, 448.226 850.193 C 451.230 844.091, 451.500 842.756, 451.500 834.021 C 451.500 825.824, 451.134 823.719, 448.865 818.880 C 445.811 812.368, 440.153 805.753, 434.680 802.298 C 430.944 799.940, 405.056 791.012, 401.930 791.004 C 400.748 791.001, 397.553 799.658, 389.014 826.001 M 611.181 800.057 C 609.604 800.689, 609.031 801.549, 609.390 802.743 C 610.978 808.011, 619.943 847.390, 619.627 847.707 C 619.421 847.913, 607.283 839.705, 592.654 829.467 C 564.423 809.711, 561.733 808.429, 561.272 814.500 C 561.147 816.150, 564.747 832.350, 569.272 850.500 L 577.500 883.500 581.077 883.800 C 583.420 883.997, 585.388 883.479, 586.779 882.300 L 588.904 880.500 583.470 857.500 C 580.481 844.850, 578.141 834.184, 578.268 833.797 C 578.396 833.410, 590.632 841.847, 605.459 852.547 C 620.758 863.586, 633.359 872, 634.593 872 C 635.988 872, 636.972 871.216, 637.339 869.812 C 637.660 868.585, 634.142 852.553, 629.331 833.312 L 620.751 799 617.125 799.063 C 615.131 799.098, 612.456 799.545, 611.181 800.057 M 408.694 805.750 C 406.780 809.135, 392.971 853.354, 393.638 853.964 C 394.783 855.011, 406.512 858.669, 411.304 859.473 C 413.682 859.872, 417.242 859.494, 420.804 858.466 C 438.280 853.419, 445.114 829.114, 432.699 816.162 C 428.913 812.213, 424.782 809.961, 416.078 807.104 C 408.699 804.681, 409.242 804.781, 408.694 805.750 M 501.652 829.250 C 501.288 837.638, 500.696 854.288, 500.336 866.250 L 499.682 888 505.341 888 C 510.842 888, 511.001 887.923, 511.022 885.250 C 511.034 883.737, 511.699 869.225, 512.500 853 C 513.301 836.775, 513.966 821.362, 513.978 818.750 L 514 814 508.156 814 L 502.312 814 501.652 829.250" stroke="none" fill="#0a0a0a" fill-rule="evenodd"/>
</svg>