<svg xmlns="http://www.w3.org/2000/svg" viewBox="135.19 135.24 768.13 767.52"><path fill="#0a0a0a" fill-rule="evenodd" d="M501.971 150.25c-.016.137-.683 16.654-1.481 36.703-1.148 28.817-1.194 36.616-.221 37.234.677.431 3.368.789 5.981.798 4.248.013 4.756-.223 4.803-2.235.171-7.264 1.706-28.842 2.078-29.214.243-.243 8.413-.168 18.156.166l17.713.609v15.738c0 17.318-.14 16.951 6.459 16.951 1.813 0 3.743-.562 4.289-1.25 1.068-1.345 3.808-71.527 2.831-72.505-.32-.319-2.991-.78-5.935-1.025l-5.354-.444-.73 15.362c-.402 8.449-.881 15.513-1.065 15.699s-8.537.007-18.563-.394l-18.227-.731.574-13.106c.317-7.208.331-14.344.032-15.856-.513-2.592-.853-2.75-5.928-2.75-2.96 0-5.396.113-5.412.25m-94.451 18.687c-.852 2.685-10.347 78.466-9.895 78.975.688.776 7.391.15 9.292-.867 1.398-.749 2.196-2.929 3.03-8.281.622-3.995 1.493-7.926 1.934-8.736s7.596-3.55 15.901-6.089l15.1-4.617 5.778 5.839c4.538 4.587 6.433 5.839 8.836 5.839 3.171 0 7.504-2.372 7.504-4.107 0-.967-47.32-54.649-51.252-58.143-2.599-2.309-5.463-2.223-6.228.187m228.324 8.4c-10.425 3.886-19.138 11.792-23.684 21.488-2.324 4.959-2.66 6.936-2.66 15.675 0 8.764.332 10.709 2.688 15.736 3.435 7.328 11.248 15.141 18.576 18.576 5.139 2.408 6.881 2.687 16.736 2.683 10.41-.005 11.326-.175 17.088-3.183 7.772-4.056 15.547-12.476 18.529-20.065 3.392-8.634 3.24-21.689-.343-29.465-3.645-7.913-10.692-15.124-18.567-19.001-5.622-2.768-7.737-3.243-15.605-3.504-5.931-.198-10.376.171-12.758 1.06m.618 13.029c-13.695 6.377-19.483 22.709-12.669 35.752 6.47 12.384 21.006 17.624 33.923 12.227 8.589-3.588 16.284-14.789 16.284-23.701 0-9.768-6.622-20.346-15.397-24.594-6.019-2.914-15.496-2.779-22.141.316M416 189.993c0 .782-.718 6.986-1.594 13.787-.877 6.8-1.375 12.585-1.105 12.854.442.442 20.643-5.402 21.602-6.25.338-.299-2.977-4.135-17.584-20.348-1.12-1.244-1.319-1.25-1.319-.043M312.503 213.25c-.294 1.238 2.582 13.946 6.393 28.25 3.81 14.3 6.781 26.148 6.603 26.33-.179.181-11.141-5.819-24.361-13.334C276.627 240.562 273 239.224 273 244.112c0 1.553 31.947 65.004 33.656 66.844.232.251 2.036-.412 4.007-1.474 6.513-3.508 6.418-4.031-4.561-24.972-5.475-10.445-9.807-19.138-9.626-19.319s9.225 4.899 20.098 11.29c20.598 12.106 24.573 13.499 25.235 8.848.17-1.194-2.415-11.96-5.744-23.923s-5.902-21.902-5.718-22.086c.273-.274 18.159 15.574 29.902 26.495 2.693 2.505 2.818 2.523 6.223.9 4.342-2.071 5.683-6.062 2.909-8.656C348.188 238.244 316.776 211 315.124 211c-1.338 0-2.278.807-2.621 2.25m427.243 29.772c-19.109 4.828-31.892 24.146-28.751 43.447 2.16 13.269 10.29 23.546 24.092 30.454 11.915 5.964 11.983 5.946 23.457-6.445 5.36-5.788 9.567-10.638 9.35-10.779s-4.112-3.815-8.656-8.163l-8.261-7.906-3.489 3.381c-1.918 1.86-3.488 3.837-3.488 4.393s1.642 2.693 3.648 4.747l3.648 3.736-2.898 3.484c-1.594 1.917-3.703 3.517-4.688 3.557-3.078.124-9.132-3.577-13.368-8.172-19.373-21.018 4.761-53.621 30.782-41.584 6.65 3.077 10.841 8.461 13.378 17.186l1.669 5.741 5.164-.3 5.165-.299-.123-5.053c-.258-10.613-10.113-23.69-21.929-29.099-6.22-2.848-18.18-3.974-24.702-2.326m57.881 103.565c-18.63 1.279-34.03 2.483-34.223 2.675-.826.827 1.772 7.587 3.527 9.175 1.569 1.42 3.414 1.676 10.106 1.4l8.187-.337 7.388 13.948c4.063 7.671 7.388 14.364 7.388 14.873s-2.067 3.822-4.593 7.362c-3.367 4.718-4.441 7.045-4.022 8.715.696 2.773 4.529 7.809 5.632 7.399 1.748-.651 48.983-63.137 48.983-64.8 0-3.657-.959-3.665-48.373-.41M188.173 358.25c-4.26 6.957-3.992 7.324 9.643 13.164 6.774 2.902 12.384 5.458 12.466 5.681s-.893 3.192-2.167 6.598c-2.701 7.223-1.944 6.92-19.615 7.837-6.6.343-12.829.857-13.842 1.143-1.942.548-5.599 7.504-5.636 10.721-.02 1.751.562 1.846 7.728 1.261 4.262-.348 11.688-.929 16.5-1.291l8.75-.659v3.18c0 4.213 2.473 9.948 5.803 13.457 4.422 4.658 9.372 6.661 16.407 6.636 7.557-.026 13.105-2.295 17.301-7.073 2.954-3.366 17.19-34.537 16.217-35.51-.43-.43-66.762-28.395-67.352-28.395-.117 0-1.108 1.462-2.203 3.25m615.577-.508c-3.712.192-6.75.565-6.75.829 0 .943 10.51 20.387 11 20.351.275-.021 4.216-4.962 8.757-10.98L825.015 357l-7.258.196c-3.991.108-10.295.353-14.007.546m-587.189 33.372c-4.253 10.045-4.643 13.952-1.776 17.815 4.979 6.71 14.499 6.745 19.333.071.996-1.375 3.354-6.141 5.24-10.591l3.43-8.09-10.144-4.162c-5.579-2.29-10.612-4.162-11.184-4.16s-2.776 4.104-4.899 9.117m622.939 48c-17.05 2.686-31.562 5.096-32.25 5.354-2.223.835-.662 11.64 1.661 11.495.324-.02 11.164-1.535 24.089-3.367 12.925-1.831 23.64-3.212 23.81-3.069.171.143-8.609 10.545-19.511 23.116C814.565 498.86 813 500.789 813 502.6c0 3.55 3.518 3.354 38.111-2.129 18.914-2.997 34.952-5.454 35.639-5.46 1.797-.016 1.599-7.967-.249-10.01-1.392-1.538-3.156-1.419-24.667 1.671-12.742 1.83-23.28 3.215-23.417 3.078-.138-.138 9.387-11.644 21.166-25.57S881 438.04 881 437.037c0-4.151-2.896-4.006-41.5 2.077m-687.339 48.032c-1.216 11.195-2.2 21.816-2.186 23.604L150 514h10.773l.584-4.25c.321-2.337 1.096-9.875 1.723-16.75s1.221-12.593 1.32-12.707c.258-.295 19.99 1.763 20.349 2.123.164.163-.171 6.467-.743 14.008-.573 7.541-.781 14.13-.464 14.643.875 1.417 9.444 1.145 9.976-.317.251-.687 1.026-7.1 1.724-14.25l1.268-13 8.995.349c4.947.193 9.379.712 9.849 1.154.471.444.271 8.056-.445 16.972-1.123 13.989-1.103 16.29.146 17.08 1.743 1.103 8.648 1.248 9.269.195.652-1.105 4.152-45.116 3.625-45.585-.247-.22-14.849-1.604-32.449-3.075s-34.054-2.928-36.564-3.237l-4.564-.561zm711.535 74.544-17.804 8.494-17.097-2.746c-16.738-2.688-17.126-2.706-18.49-.842-.798 1.09-1.268 3.615-1.099 5.904l.294 4 16.454 2.855 16.455 2.856 16.447 15.894c9.045 8.742 16.757 15.895 17.137 15.895.908 0 3.007-7.072 3.007-10.133 0-1.725-3.099-5.491-11-13.367-6.05-6.031-11-11.266-11-11.633s6.369-3.747 14.153-7.512c12.244-5.921 14.335-7.279 15.5-10.068.741-1.772 1.347-4.362 1.347-5.755 0-2.21-.413-2.52-3.25-2.434-1.849.056-10.924 3.76-21.054 8.592m-674.078 1.359c-11.086 2.784-21.061 11.045-26.357 21.83-2.457 5.001-2.761 6.725-2.761 15.639 0 9.299.235 10.495 3.281 16.684C166.737 623.211 175.56 633 178.019 633c1.297 0 5.981-6.015 5.981-7.68 0-.839-1.993-3.743-4.43-6.453-8.206-9.128-9.553-19.61-3.863-30.076 3.267-6.008 8.615-10.215 15.638-12.301 6.363-1.889 8.991-1.872 15.723.104 6.747 1.98 14.823 9.727 16.703 16.022 1.632 5.467 1.486 11.977-.379 16.884-.836 2.2-1.604 4.626-1.706 5.391-.214 1.6 8.078 6.373 9.521 5.481.527-.326 1.905-2.68 3.062-5.232 1.642-3.624 2.117-6.72 2.167-14.14.058-8.61-.225-10.109-3.018-16.003-6.199-13.08-18.503-21.606-32.418-22.462-4.125-.254-9.247-.022-11.382.514m42.406 100.49c-10.681 2.995-19.509 10.306-24.708 20.461-2.584 5.047-2.816 6.406-2.816 16.5 0 10.09.233 11.455 2.814 16.5 3.906 7.635 11.705 15.269 19.081 18.679 5.342 2.468 7.292 2.821 15.605 2.821 8.538 0 10.158-.312 16.003-3.082 7.968-3.776 14.936-10.558 18.679-18.179 2.572-5.238 2.818-6.699 2.818-16.739 0-9.962-.258-11.526-2.736-16.571-8.092-16.477-27.369-25.262-44.74-20.39m.976 12.355c-7.096 2.515-14.085 9.804-16.066 16.753-3.65 12.804 1.102 24.742 12.312 30.932 4.478 2.472 6.362 2.903 12.754 2.911 8.608.011 13.243-1.799 18.781-7.337 4.881-4.881 7.464-11.267 7.518-18.585.136-18.418-17.726-30.905-35.299-24.674m528.363 16.028c-10.179 4.623-17.672 15.25-17.681 25.078-.006 6.431 1.833 10.489 6.681 14.746 7.914 6.949 15.183 6.762 30.976-.797 9.309-4.456 11.425-5.11 14.99-4.632 5.696.764 8.034 3.766 7.39 9.483-.635 5.631-3.414 8.496-12.469 12.852-6.132 2.95-7.25 3.872-7.25 5.984 0 4.367 1.74 6.364 5.546 6.364 7.707 0 18.925-8.123 23.44-16.973 7.619-14.934-1.164-31.027-16.933-31.027-4.035 0-7.346 1.104-16.79 5.597-13.386 6.369-17.869 7.061-21.803 3.365-3.956-3.716-3.437-9.252 1.296-13.83 2.066-1.997 5.891-4.858 8.5-6.357 5.029-2.889 5.693-4.599 3.583-9.228-1.393-3.058-3.772-3.215-9.476-.625m-461.613 75.89c-11.962 15.84-21.75 29.259-21.75 29.82 0 1.246 3.712 4.712 6.687 6.244 2.025 1.044 2.81.315 10.618-9.852l8.431-10.98 5.632 4.033c3.098 2.218 5.632 4.729 5.632 5.579s-1.126 7.76-2.502 15.357c-1.377 7.596-2.224 14.538-1.883 15.426.924 2.409 9.411 7.136 10.282 5.727.387-.626 1.742-7.613 3.012-15.527l2.31-14.39 7.379-.474c9.864-.633 15.645-4.069 19.608-11.655 4.35-8.327 3.491-19.304-1.994-25.472-1.539-1.73-28.736-22.656-29.427-22.642-.157.003-10.073 12.966-22.035 28.806M696 755.653c-7.079 2.449-15.004 8.413-19.119 14.387-5.364 7.788-7.159 14.255-6.733 24.261.451 10.569 4.474 19.375 11.902 26.054 12.575 11.306 28.491 13.507 43.736 6.049 6.933-3.392 16.189-12.447 19.596-19.172l2.659-5.246-8.171-11.743a19536 19536 0 0 1-8.312-11.951c-.077-.114-4.284 2.537-9.349 5.891-10.224 6.771-11.092 8.493-6.683 13.251l2.526 2.725 4.402-2.579c2.421-1.419 4.781-2.58 5.245-2.58s1.924 1.98 3.246 4.399l2.403 4.399-2.819 3.351c-6.477 7.698-14.39 11.328-23.245 10.661-7.015-.529-11.874-2.737-16.779-7.626-9.401-9.369-10.732-22.128-3.498-33.534 4.122-6.5 10.229-9.747 19.793-10.524l7.7-.626.3-5.75.3-5.75-7.3.048c-4.015.026-9.325.748-11.8 1.605m-378.25 9.234c-3.712 4.887-6.75 9.141-6.75 9.454 0 1.322 16.173 12.744 18.784 13.266 4.061.812 9.81-1.909 12.247-5.797 2.289-3.653 2.198-9.609-.191-12.523-1.715-2.091-15.749-13.287-16.656-13.286-.376 0-3.722 3.999-7.434 8.886m71.264 61.114c-6.24 19.25-11.158 35.134-10.93 35.297.229.163 7.338 2.502 15.799 5.197 12.457 3.969 16.642 4.88 22 4.791 13.826-.229 25.971-8.15 32.343-21.093 3.004-6.102 3.274-7.437 3.274-16.172 0-8.197-.366-10.302-2.635-15.141-3.054-6.512-8.712-13.127-14.185-16.582-3.736-2.358-29.624-11.286-32.75-11.294-1.182-.003-4.377 8.654-12.916 34.997m222.167-25.944c-1.577.632-2.15 1.492-1.791 2.686 1.588 5.268 10.553 44.647 10.237 44.964-.206.206-12.344-8.002-26.973-18.24-28.231-19.756-30.921-21.038-31.382-14.967-.125 1.65 3.475 17.85 8 36l8.228 33 3.577.3c2.343.197 4.311-.321 5.702-1.5l2.125-1.8-5.434-23c-2.989-12.65-5.329-23.316-5.202-23.703.128-.387 12.364 8.05 27.191 18.75 15.299 11.039 27.9 19.453 29.134 19.453 1.395 0 2.379-.784 2.746-2.188.321-1.227-3.197-17.259-8.008-36.5L620.751 799l-3.626.063c-1.994.035-4.669.482-5.944.994m-202.487 5.693c-1.914 3.385-15.723 47.604-15.056 48.214 1.145 1.047 12.874 4.705 17.666 5.509 2.378.399 5.938.021 9.5-1.007 17.476-5.047 24.31-29.352 11.895-42.304-3.786-3.949-7.917-6.201-16.621-9.058-7.379-2.423-6.836-2.323-7.384-1.354m92.958 23.5c-.364 8.388-.956 25.038-1.316 37l-.654 21.75h5.659c5.501 0 5.66-.077 5.681-2.75.012-1.513.677-16.025 1.478-32.25s1.466-31.638 1.478-34.25L514 814h-11.688z"/></svg>