<svg xmlns="http://www.w3.org/2000/svg" width="1038" height="1039" viewBox="0 0 1038 1039" version="1.1">
	<path d="M 456 208.138 C 450.225 208.580, 431.753 209.157, 414.950 209.420 C 398.148 209.682, 383.221 210.346, 381.780 210.894 C 377.787 212.412, 372.273 223.035, 371.057 231.552 C 370.511 235.374, 368.904 241.875, 367.484 246 C 364.129 255.750, 353.075 310.946, 347.459 345.987 C 345.034 361.119, 341.051 381.600, 338.608 391.500 C 336.165 401.400, 332.512 417.150, 330.491 426.500 C 326.300 445.877, 325.105 450.743, 318.588 474.952 C 316.004 484.551, 313.261 496.597, 312.492 501.722 C 311.722 506.848, 310.847 511.439, 310.546 511.926 C 310.245 512.413, 308.462 520.864, 306.583 530.706 C 304.705 540.548, 301.555 554.553, 299.584 561.828 C 297.613 569.103, 296 576.694, 296 578.695 C 296 580.697, 294.682 587.322, 293.071 593.417 C 291.460 599.513, 289.637 608.775, 289.019 614 C 287.218 629.232, 281.690 654.837, 267.538 713.500 C 265.681 721.200, 263.639 731.312, 263.002 735.972 C 262.365 740.631, 261.545 744.906, 261.180 745.472 C 260.815 746.037, 260.459 750.888, 260.390 756.250 L 260.263 766 266.882 766.006 C 270.522 766.009, 276.200 766.460, 279.500 767.008 C 283.594 767.687, 289.503 767.654, 298.098 766.903 C 308.780 765.970, 312.735 766.066, 324.098 767.534 C 335.872 769.056, 341.630 769.159, 371.500 768.383 C 390.200 767.897, 413.888 767.568, 424.139 767.650 L 442.778 767.801 446.319 760.150 C 451.719 748.481, 453 745.003, 453 742.005 C 453 740.492, 453.906 737.205, 455.014 734.701 C 456.122 732.197, 457.709 725.296, 458.542 719.366 C 460.211 707.473, 466.838 679.683, 469.439 673.667 L 471.097 669.833 474.084 673.957 C 475.726 676.224, 477.832 679.750, 478.763 681.790 C 479.693 683.831, 481.767 687.052, 483.372 688.949 C 484.976 690.846, 487.179 694.446, 488.267 696.949 C 489.356 699.452, 492.508 705.273, 495.271 709.885 C 498.035 714.496, 503.116 724.509, 506.561 732.135 C 511.950 744.064, 520.109 757.713, 522.870 759.419 C 524.346 760.332, 527.664 755.809, 534.494 743.576 C 538.155 737.018, 544.202 726.893, 547.932 721.076 C 556.154 708.253, 562.954 696.311, 568.133 685.603 C 570.263 681.198, 572.391 677.209, 572.863 676.737 C 573.339 676.261, 574.026 684.458, 574.410 695.190 C 575.048 713.083, 577.240 746.635, 578.553 758.634 L 579.115 763.769 585.308 765.551 C 591.711 767.393, 595.348 767.563, 636 767.912 C 647.275 768.009, 659.039 768.598, 662.142 769.222 C 667.112 770.220, 668.665 770.094, 675.184 768.159 C 682.382 766.022, 682.784 766.007, 689.862 767.605 C 695.621 768.906, 698.219 769.032, 702.319 768.210 C 705.470 767.578, 715.335 767.385, 727.500 767.717 C 745.458 768.207, 764.788 767.170, 769.195 765.479 C 769.995 765.172, 772.310 761.676, 774.340 757.710 C 778.420 749.739, 778.874 745.728, 776.469 738.912 C 775.627 736.525, 774.273 730.147, 773.461 724.740 C 772.649 719.332, 771.046 710.766, 769.900 705.704 C 768.406 699.105, 767.967 694.596, 768.348 689.773 C 769.073 680.595, 767.298 647.740, 765.415 635.500 C 764.569 630, 763.473 621.098, 762.978 615.718 C 762.483 610.338, 761.775 605.446, 761.405 604.846 C 760.679 603.672, 758.821 582.601, 758.971 577.251 C 759.021 575.464, 758.581 570.289, 757.992 565.751 C 757.403 561.213, 756.273 551.875, 755.479 545 C 752.399 518.308, 748.915 496.562, 744.101 473.976 C 741.345 461.041, 738.583 447.093, 737.965 442.979 C 737.346 438.866, 735.728 431.225, 734.369 426 C 731.108 413.463, 721.575 322.684, 722.529 313.244 C 722.955 309.021, 722.648 304.797, 721.584 300.244 C 720.717 296.535, 718.615 285.625, 716.912 276 C 715.209 266.375, 712.732 255.384, 711.408 251.576 C 709.617 246.426, 709 242.534, 709 236.391 C 709 229.033, 706.770 214.436, 705.442 213.109 C 705.011 212.678, 683.404 212.027, 620.360 210.546 C 613.133 210.377, 603.233 209.622, 598.360 208.869 C 591.649 207.832, 581.251 207.613, 555.500 207.965 C 508.472 208.607, 490.312 208.596, 477.500 207.917 C 471.450 207.596, 461.775 207.695, 456 208.138 M 292.721 784.096 C 291.743 784.666, 289.209 787.325, 287.089 790.006 L 283.236 794.881 280.868 792.343 C 278.071 789.345, 271.883 786, 269.136 786 C 267.378 786, 267.123 787.019, 266.466 796.661 C 265.654 808.564, 266.510 822.705, 268.162 824.695 C 271.224 828.385, 274.744 824.665, 273.510 819.045 C 273.158 817.444, 273.653 812.197, 274.609 807.384 L 276.347 798.633 280.059 802.816 C 282.101 805.117, 284.186 807, 284.693 807 C 285.200 807, 287.159 804.862, 289.047 802.250 L 292.478 797.500 293.088 806 C 293.423 810.675, 294.026 815.962, 294.428 817.749 C 295.142 820.924, 298.574 824.381, 300.085 823.447 C 301.186 822.767, 300.036 789.008, 298.800 785.750 C 297.712 782.880, 295.735 782.342, 292.721 784.096 M 320.591 788.250 C 319.790 789.487, 318.811 791.820, 318.413 793.433 C 318.016 795.046, 316.624 797.938, 315.320 799.860 C 314.016 801.782, 312.704 804.512, 312.405 805.927 C 312.106 807.342, 311.186 810.525, 310.360 813 C 307.638 821.166, 307.575 822, 309.683 822 C 312.126 822, 314 820.136, 314 817.706 C 314 816.665, 314.872 815.585, 315.937 815.306 C 317.003 815.028, 318.348 813.441, 318.927 811.780 C 319.792 809.300, 320.382 808.869, 322.240 809.367 C 323.483 809.700, 325.270 809.979, 326.211 809.986 C 327.392 809.996, 328.376 811.526, 329.384 814.921 C 331.545 822.198, 332.831 824.167, 335.188 823.811 C 338.590 823.296, 338.517 816.657, 334.994 806.143 C 333.348 801.227, 332 795.788, 332 794.057 C 332 787.575, 323.745 783.374, 320.591 788.250 M 346 787.566 C 346 788.427, 346.539 790.114, 347.198 791.316 C 347.974 792.731, 348.317 797.549, 348.173 805 C 347.993 814.343, 348.284 817.157, 349.726 820 C 352.464 825.402, 354.529 824.623, 354.362 818.250 C 354.170 810.905, 356.424 811.227, 362.902 819.470 C 367.268 825.025, 368.294 825.827, 370.160 825.137 C 373.380 823.945, 374.258 820.601, 372.082 817.814 C 371.088 816.541, 369.980 814.556, 369.618 813.402 C 369.257 812.248, 367.845 810.795, 366.481 810.173 C 363.118 808.641, 363.332 807.698, 368.028 803.354 C 372.527 799.191, 373.709 796.193, 372.062 793.116 C 370.511 790.219, 367.614 788.885, 359.515 787.340 C 349.978 785.521, 346 785.588, 346 787.566 M 391 788.501 C 390.315 789.326, 389.528 792.138, 389.253 794.751 C 388.957 797.549, 387.775 800.808, 386.375 802.683 C 385.069 804.434, 384 806.684, 383.999 807.683 C 383.999 808.682, 382.649 812.353, 380.999 815.840 C 377.412 823.422, 377.171 826.602, 380.112 827.535 C 383.236 828.527, 385.206 825.914, 385.771 820.028 C 386.222 815.342, 386.571 814.751, 389.882 813.075 C 391.872 812.068, 394.875 810.948, 396.555 810.585 C 399.598 809.929, 399.617 809.952, 401.555 816.713 C 403.306 822.817, 403.780 823.532, 406.267 823.818 L 409.033 824.136 408.402 818.318 C 408.027 814.856, 406.849 811.082, 405.494 809 C 404.242 807.075, 402.658 803.025, 401.974 800 C 400.430 793.165, 398.551 789.365, 396.055 788.030 C 393.456 786.639, 392.468 786.731, 391 788.501 M 414.005 788.894 C 409.466 790.157, 410.563 792.349, 416.976 794.832 L 423 797.163 423 804.041 C 423 811.627, 424.882 826.009, 425.872 825.985 C 428.419 825.923, 429.268 823.907, 428.714 819.234 C 428.345 816.115, 428.547 813.853, 429.259 813.141 C 429.984 812.416, 430.292 808.618, 430.116 802.579 L 429.842 793.148 432.662 792.824 C 436.214 792.416, 437.006 789.502, 433.798 788.643 C 430.782 787.835, 417.191 788.007, 414.005 788.894 M 457.119 792.443 C 456.503 794.886, 456 798.010, 456 799.384 C 456 802.357, 454.709 803.360, 451.991 802.497 C 449.749 801.786, 449.324 798.132, 451.098 794.818 C 452.763 791.706, 449.984 789.267, 446.266 790.578 L 443.500 791.553 443.857 806.527 C 444.140 818.367, 444.544 821.873, 445.790 823.281 C 447.213 824.889, 447.517 824.912, 448.915 823.514 C 449.832 822.597, 450.530 819.963, 450.627 817.057 C 450.826 811.075, 451.422 810, 454.540 810 C 457.105 810, 457.714 811.318, 458.230 817.992 C 458.622 823.057, 461.211 823.076, 463.486 818.031 C 464.895 814.906, 465.072 813.454, 464.262 811.676 C 463.561 810.137, 463.541 808.784, 464.203 807.601 C 464.867 806.415, 464.832 804.390, 464.097 801.472 C 463.494 799.075, 463 795.604, 463 793.757 C 463 790.338, 461.546 788, 459.419 788 C 458.769 788, 457.734 789.999, 457.119 792.443 M 478.832 789.667 C 473.935 792.782, 471.573 798.548, 471.735 806.996 C 471.942 817.828, 473.517 822.735, 477.035 823.508 C 482.779 824.769, 494.552 817.321, 492.378 813.802 C 491.918 813.058, 492.226 812.873, 493.263 813.271 C 495.128 813.987, 496.601 812.479, 497.440 808.994 C 498.355 805.192, 492.840 791.821, 489.706 790.246 C 485.360 788.061, 481.665 787.865, 478.832 789.667 M 522.976 797.250 C 521.739 802.337, 520.436 807.058, 520.080 807.740 C 519.702 808.463, 518.626 806.901, 517.496 803.990 C 515.840 799.722, 515.171 799, 512.873 799 C 510.810 799, 510.292 798.594, 510.637 797.250 C 511.280 794.749, 505.376 788.022, 504.152 789.861 C 502.619 792.162, 500.544 806.081, 500.521 814.212 C 500.498 822.732, 502.036 825.758, 505.787 824.568 C 508.345 823.756, 509.214 816.736, 507.245 812.790 C 506.231 810.757, 506.164 809.561, 506.980 808.037 C 508.886 804.476, 511.042 805.840, 516.848 814.280 C 518.584 816.803, 521.378 819.845, 523.056 821.040 C 526.036 823.162, 526.156 823.169, 528.176 821.356 C 530.085 819.643, 530.195 818.784, 529.598 810.196 C 529.174 804.089, 529.360 799.532, 530.138 796.933 C 531.227 793.298, 531.133 792.771, 528.988 790.487 C 527.703 789.119, 526.330 788, 525.938 788 C 525.545 788, 524.212 792.163, 522.976 797.250 M 639.954 790.086 C 638.594 792.627, 638.810 792.865, 645.314 796 L 650.500 798.500 650.488 804 C 650.481 807.025, 650.106 814.563, 649.653 820.750 L 648.831 832 652.166 831.985 C 657.411 831.961, 657.782 831.290, 657.694 822 C 657.596 811.693, 658.594 797.466, 659.520 795.968 C 659.908 795.340, 662.328 795.008, 665.219 795.188 C 670.005 795.485, 670.258 795.374, 670.543 792.849 C 670.811 790.475, 670.386 790.083, 666.478 789.099 C 664.078 788.494, 657.379 788, 651.592 788 C 641.950 788, 640.977 788.174, 639.954 790.086 M 612.622 791.250 C 611.839 792.487, 611.178 795.975, 611.154 799 C 611.130 802.025, 610.653 809.570, 610.093 815.766 C 609.533 821.963, 609.315 827.656, 609.607 828.418 C 610.537 830.842, 613.891 830.994, 615.507 828.686 C 617.481 825.868, 617.428 823.899, 615.399 824.677 C 613.953 825.232, 613.959 824.979, 615.462 822.074 C 616.684 819.711, 616.837 818.508, 616.038 817.545 C 615.187 816.520, 615.663 816.123, 618.225 815.724 C 621.101 815.276, 621.999 815.750, 625.591 819.607 C 627.841 822.023, 630.428 824, 631.341 824 C 632.253 824, 632.947 824.337, 632.882 824.750 C 632.486 827.252, 633.319 828, 636.500 828 C 639.312 828, 640 827.614, 640 826.035 C 640 824.955, 639.130 823.605, 638.068 823.036 C 637.005 822.467, 635.814 820.989, 635.422 819.751 C 635.029 818.513, 633.641 815.809, 632.337 813.743 C 629.833 809.775, 629.930 806.133, 632.598 803.919 C 635.141 801.808, 634.171 798.387, 629.948 794.572 C 625.274 790.349, 622.249 789, 617.458 789 C 615.008 789, 613.644 789.635, 612.622 791.250 M 759.500 790.985 C 752.997 794.211, 749.885 797.630, 750.571 800.797 C 751.566 805.397, 753.271 808.030, 755.639 808.624 C 756.889 808.938, 759.080 810.728, 760.510 812.601 L 763.108 816.008 760.804 816.903 C 748.823 821.558, 748.500 821.748, 748.188 824.326 C 747.787 827.641, 749.591 830.996, 751.785 831.015 C 752.728 831.023, 757.477 829.370, 762.338 827.341 C 770.801 823.808, 771.158 823.532, 770.761 820.826 C 770.473 818.865, 770.778 818, 771.757 818 C 774.298 818, 772.452 815.563, 767.212 812 C 764.380 810.075, 762.251 807.963, 762.479 807.307 C 762.707 806.651, 761.356 804.764, 759.478 803.114 C 755.737 799.830, 755.791 799.764, 763.274 798.437 C 766.616 797.845, 770 795.010, 770 792.803 C 770 792.183, 764.807 788.998, 763.800 789.001 C 763.635 789.001, 761.700 789.894, 759.500 790.985 M 579.414 796.750 C 570.662 816.397, 567.817 824.134, 568.436 826.601 C 568.886 828.392, 569.555 829.001, 570.624 828.591 C 571.471 828.266, 572.872 828, 573.737 828 C 575.122 828, 575.107 827.776, 573.609 826.120 C 571.989 824.330, 572.033 824.208, 574.545 823.578 C 576.008 823.211, 576.984 822.379, 576.738 821.708 C 576.493 821.044, 577.049 819.150, 577.972 817.500 C 579.403 814.943, 580.328 814.456, 584.242 814.199 C 588.293 813.933, 588.915 814.168, 589.531 816.199 C 589.915 817.464, 591.111 820.587, 592.189 823.137 C 593.696 826.703, 594.570 827.664, 595.972 827.297 C 597.562 826.881, 597.727 826.036, 597.268 820.660 C 596.978 817.272, 596.080 813.741, 595.273 812.813 C 594.465 811.885, 594.083 810.675, 594.424 810.123 C 594.765 809.572, 594.136 807.631, 593.026 805.810 C 591.916 803.990, 591.006 800.891, 591.004 798.924 C 590.999 794.821, 587.706 791, 584.173 791 C 582.461 791, 581.409 792.271, 579.414 796.750 M 713.036 792.933 C 712.179 794.534, 712.500 795.220, 714.905 796.933 C 716.502 798.070, 719.120 799, 720.724 799 L 723.638 799 722.785 806.250 C 722.315 810.237, 721.499 815.075, 720.971 817 C 719.328 822.991, 719.782 826.446, 722.553 829.049 C 724.703 831.069, 725.251 831.215, 726.026 829.974 C 727.642 827.387, 729.229 817.798, 728.641 814.172 C 727.769 808.801, 731.651 798.638, 735.425 796.408 C 737.072 795.435, 737.875 794.458, 737.209 794.236 C 736.544 794.015, 736 793.196, 736 792.417 C 736 791.281, 733.828 791, 725.035 791 C 715.221 791, 713.962 791.203, 713.036 792.933 M 690.250 796.030 C 687.362 797.686, 685 799.499, 685 800.060 C 685 803.296, 689.382 809.152, 693.263 811.103 C 698.735 813.854, 701 815.887, 701 818.048 C 701 821.615, 696.414 821.425, 692.260 817.686 C 690.375 815.989, 689.622 815.851, 687.510 816.814 C 683.631 818.581, 684.022 823.433, 688.250 826.012 C 695.064 830.168, 700.472 829.431, 705.914 823.605 C 708.181 821.179, 708.227 820.908, 706.664 819.182 C 705.749 818.170, 704.997 816.253, 704.994 814.921 C 704.989 813.282, 704.021 811.950, 701.994 810.797 C 700.347 809.860, 699 808.452, 699 807.669 C 699 806.886, 698.325 805.685, 697.500 805 C 695.476 803.321, 695.609 802, 697.800 802 C 700.204 802, 702 800.076, 702 797.500 C 702 792.286, 697.713 791.749, 690.250 796.030 M 355 796.893 C 355 798.622, 355.644 800.033, 356.600 800.400 C 359.023 801.330, 363.458 798.775, 363.820 796.241 C 364.111 794.200, 363.731 794, 359.570 794 C 355.196 794, 355 794.124, 355 796.893 M 482.269 798.750 C 476.180 806.628, 475.880 816.492, 481.750 815.816 C 486.841 815.231, 490.592 804.319, 488.025 797.565 C 486.713 794.114, 485.690 794.325, 482.269 798.750 M 671.494 797.250 C 671.196 798.487, 670.087 806.250, 669.032 814.500 C 667.143 829.260, 667.143 829.531, 669.021 831.437 C 670.908 833.352, 670.953 833.352, 673.067 831.439 C 674.243 830.375, 675.845 828.266, 676.628 826.752 C 677.881 824.330, 677.868 824, 676.526 824 C 674.599 824, 674.613 823.520, 676.636 820.433 C 678.422 817.707, 679.664 805.784, 678.603 801.555 C 677.912 798.803, 674.673 795, 673.019 795 C 672.480 795, 671.793 796.013, 671.494 797.250 M 618.173 799.076 C 618.353 800.283, 619.470 801.912, 620.656 802.695 C 622.599 803.978, 623.019 803.896, 624.911 801.865 C 627.383 799.212, 626.831 798.479, 621.673 797.561 C 618.134 796.932, 617.870 797.046, 618.173 799.076 M 392 802.941 C 392 805.259, 393.531 806.394, 395.591 805.603 C 396.760 805.155, 396.851 804.590, 396.008 803.015 C 394.633 800.445, 392 800.397, 392 802.941" stroke="none" fill="#0a0a0a" fill-rule="evenodd"/>
</svg>