<svg xmlns="http://www.w3.org/2000/svg" viewBox="249.89 195.08 539.36 650.79"><path fill="#0a0a0a" fill-rule="evenodd" d="M456 208.138c-5.775.442-24.247 1.019-41.05 1.282-16.802.262-31.729.926-33.17 1.474-3.993 1.518-9.507 12.141-10.723 20.658-.546 3.822-2.153 10.323-3.573 14.448-3.355 9.75-14.409 64.946-20.025 99.987-2.425 15.132-6.408 35.613-8.851 45.513s-6.096 25.65-8.117 35c-4.191 19.377-5.386 24.243-11.903 48.452-2.584 9.599-5.327 21.645-6.096 26.77-.77 5.126-1.645 9.717-1.946 10.204s-2.084 8.938-3.963 18.78c-1.878 9.842-5.028 23.847-6.999 31.122S296 576.694 296 578.695s-1.318 8.627-2.929 14.722c-1.611 6.096-3.434 15.358-4.052 20.583-1.801 15.232-7.329 40.837-21.481 99.5-1.857 7.7-3.899 17.812-4.536 22.472-.637 4.659-1.457 8.934-1.822 9.5-.365.565-.721 5.416-.79 10.778l-.127 9.75 6.619.006c3.64.003 9.318.454 12.618 1.002 4.094.679 10.003.646 18.598-.105 10.682-.933 14.637-.837 26 .631 11.774 1.522 17.532 1.625 47.402.849 18.7-.486 42.388-.815 52.639-.733l18.639.151 3.541-7.651c5.4-11.669 6.681-15.147 6.681-18.145 0-1.513.906-4.8 2.014-7.304s2.695-9.405 3.528-15.335c1.669-11.893 8.296-39.683 10.897-45.699l1.658-3.834 2.987 4.124c1.642 2.267 3.748 5.793 4.679 7.833.93 2.041 3.004 5.262 4.609 7.159s3.807 5.497 4.895 8c1.089 2.503 4.241 8.324 7.004 12.936 2.764 4.611 7.845 14.624 11.29 22.25 5.389 11.929 13.548 25.578 16.309 27.284 1.476.913 4.794-3.61 11.624-15.843 3.661-6.558 9.708-16.683 13.438-22.5 8.222-12.823 15.022-24.765 20.201-35.473 2.13-4.405 4.258-8.394 4.73-8.866.476-.476 1.163 7.721 1.547 18.453.638 17.893 2.83 51.445 4.143 63.444l.562 5.135 6.193 1.782c6.403 1.842 10.04 2.012 50.692 2.361 11.275.097 23.039.686 26.142 1.31 4.97.998 6.523.872 13.042-1.063 7.198-2.137 7.6-2.152 14.678-.554 5.759 1.301 8.357 1.427 12.457.605 3.151-.632 13.016-.825 25.181-.493 17.958.49 37.288-.547 41.695-2.238.8-.307 3.115-3.803 5.145-7.769 4.08-7.971 4.534-11.982 2.129-18.798-.842-2.387-2.196-8.765-3.008-14.172-.812-5.408-2.415-13.974-3.561-19.036-1.494-6.599-1.933-11.108-1.552-15.931.725-9.178-1.05-42.033-2.933-54.273-.846-5.5-1.942-14.402-2.437-19.782s-1.203-10.272-1.573-10.872c-.726-1.174-2.584-22.245-2.434-27.595.05-1.787-.39-6.962-.979-11.5s-1.719-13.876-2.513-20.751c-3.08-26.692-6.564-48.438-11.378-71.024-2.756-12.935-5.518-26.883-6.136-30.997-.619-4.113-2.237-11.754-3.596-16.979-3.261-12.537-12.794-103.316-11.84-112.756.426-4.223.119-8.447-.945-13-.867-3.709-2.969-14.619-4.672-24.244s-4.18-20.616-5.504-24.424c-1.791-5.15-2.408-9.042-2.408-15.185 0-7.358-2.23-21.955-3.558-23.282-.431-.431-22.038-1.082-85.082-2.563-7.227-.169-17.127-.924-22-1.677-6.711-1.037-17.109-1.256-42.86-.904-47.028.642-65.188.631-78-.048-6.05-.321-15.725-.222-21.5.221M292.721 784.096c-.978.57-3.512 3.229-5.632 5.91l-3.853 4.875-2.368-2.538c-2.797-2.998-8.985-6.343-11.732-6.343-1.758 0-2.013 1.019-2.67 10.661-.812 11.903.044 26.044 1.696 28.034 3.062 3.69 6.582-.03 5.348-5.65-.352-1.601.143-6.848 1.099-11.661l1.738-8.751 3.712 4.183c2.042 2.301 4.127 4.184 4.634 4.184s2.466-2.138 4.354-4.75l3.431-4.75.61 8.5c.335 4.675.938 9.962 1.34 11.749.714 3.175 4.146 6.632 5.657 5.698 1.101-.68-.049-34.439-1.285-37.697-1.088-2.87-3.065-3.408-6.079-1.654m27.87 4.154c-.801 1.237-1.78 3.57-2.178 5.183s-1.789 4.505-3.093 6.427-2.616 4.652-2.915 6.067-1.219 4.598-2.045 7.073c-2.722 8.166-2.785 9-.677 9 2.443 0 4.317-1.864 4.317-4.294 0-1.041.872-2.121 1.937-2.4 1.066-.278 2.411-1.865 2.99-3.526.865-2.48 1.455-2.911 3.313-2.413 1.243.333 3.03.612 3.971.619 1.181.01 2.165 1.54 3.173 4.935 2.161 7.277 3.447 9.246 5.804 8.89 3.402-.515 3.329-7.154-.194-17.668-1.646-4.916-2.994-10.355-2.994-12.086 0-6.482-8.255-10.683-11.409-5.807m25.409-.684c0 .861.539 2.548 1.198 3.75.776 1.415 1.119 6.233.975 13.684-.18 9.343.111 12.157 1.553 15 2.738 5.402 4.803 4.623 4.636-1.75-.192-7.345 2.062-7.023 8.54 1.22 4.366 5.555 5.392 6.357 7.258 5.667 3.22-1.192 4.098-4.536 1.922-7.323-.994-1.273-2.102-3.258-2.464-4.412-.361-1.154-1.773-2.607-3.137-3.229-3.363-1.532-3.149-2.475 1.547-6.819 4.499-4.163 5.681-7.161 4.034-10.238-1.551-2.897-4.448-4.231-12.547-5.776-9.537-1.819-13.515-1.752-13.515.226m45 .935c-.685.825-1.472 3.637-1.747 6.25-.296 2.798-1.478 6.057-2.878 7.932-1.306 1.751-2.375 4.001-2.376 5s-1.35 4.67-3 8.157c-3.587 7.582-3.828 10.762-.887 11.695 3.124.992 5.094-1.621 5.659-7.507.451-4.686.8-5.277 4.111-6.953 1.99-1.007 4.993-2.127 6.673-2.49 3.043-.656 3.062-.633 5 6.128 1.751 6.104 2.225 6.819 4.712 7.105l2.766.318-.631-5.818c-.375-3.462-1.553-7.236-2.908-9.318-1.252-1.925-2.836-5.975-3.52-9-1.544-6.835-3.423-10.635-5.919-11.97-2.599-1.391-3.587-1.299-5.055.471m23.005.393c-4.539 1.263-3.442 3.455 2.971 5.938l6.024 2.331v6.878c0 7.586 1.882 21.968 2.872 21.944 2.547-.062 3.396-2.078 2.842-6.751-.369-3.119-.167-5.381.545-6.093.725-.725 1.033-4.523.857-10.562l-.274-9.431 2.82-.324c3.552-.408 4.344-3.322 1.136-4.181-3.016-.808-16.607-.636-19.793.251m43.114 3.549c-.616 2.443-1.119 5.567-1.119 6.941 0 2.973-1.291 3.976-4.009 3.113-2.242-.711-2.667-4.365-.893-7.679 1.665-3.112-1.114-5.551-4.832-4.24l-2.766.975.357 14.974c.283 11.84.687 15.346 1.933 16.754 1.423 1.608 1.727 1.631 3.125.233.917-.917 1.615-3.551 1.712-6.457.199-5.982.795-7.057 3.913-7.057 2.565 0 3.174 1.318 3.69 7.992.392 5.065 2.981 5.084 5.256.039 1.409-3.125 1.586-4.577.776-6.355-.701-1.539-.721-2.892-.059-4.075.664-1.186.629-3.211-.106-6.129-.603-2.397-1.097-5.868-1.097-7.715 0-3.419-1.454-5.757-3.581-5.757-.65 0-1.685 1.999-2.3 4.443m21.713-2.776c-4.897 3.115-7.259 8.881-7.097 17.329.207 10.832 1.782 15.739 5.3 16.512 5.744 1.261 17.517-6.187 15.343-9.706-.46-.744-.152-.929.885-.531 1.865.716 3.338-.792 4.177-4.277.915-3.802-4.6-17.173-7.734-18.748-4.346-2.185-8.041-2.381-10.874-.579m44.144 7.583c-1.237 5.087-2.54 9.808-2.896 10.49-.378.723-1.454-.839-2.584-3.75-1.656-4.268-2.325-4.99-4.623-4.99-2.063 0-2.581-.406-2.236-1.75.643-2.501-5.261-9.228-6.485-7.389-1.533 2.301-3.608 16.22-3.631 24.351-.023 8.52 1.515 11.546 5.266 10.356 2.558-.812 3.427-7.832 1.458-11.778-1.014-2.033-1.081-3.229-.265-4.753 1.906-3.561 4.062-2.197 9.868 6.243 1.736 2.523 4.53 5.565 6.208 6.76 2.98 2.122 3.1 2.129 5.12.316 1.909-1.713 2.019-2.572 1.422-11.16-.424-6.107-.238-10.664.54-13.263 1.089-3.635.995-4.162-1.15-6.446-1.285-1.368-2.658-2.487-3.05-2.487-.393 0-1.726 4.163-2.962 9.25m116.978-7.164c-1.36 2.541-1.144 2.779 5.36 5.914l5.186 2.5-.012 5.5c-.007 3.025-.382 10.563-.835 16.75l-.822 11.25 3.335-.015c5.245-.024 5.616-.695 5.528-9.985-.098-10.307.9-24.534 1.826-26.032.388-.628 2.808-.96 5.699-.78 4.786.297 5.039.186 5.324-2.339.268-2.374-.157-2.766-4.065-3.75-2.4-.605-9.099-1.099-14.886-1.099-9.642 0-10.615.174-11.638 2.086m-27.332 1.164c-.783 1.237-1.444 4.725-1.468 7.75s-.501 10.57-1.061 16.766c-.56 6.197-.778 11.89-.486 12.652.93 2.424 4.284 2.576 5.9.268 1.974-2.818 1.921-4.787-.108-4.009-1.446.555-1.44.302.063-2.603 1.222-2.363 1.375-3.566.576-4.529-.851-1.025-.375-1.422 2.187-1.821 2.876-.448 3.774.026 7.366 3.883 2.25 2.416 4.837 4.393 5.75 4.393.912 0 1.606.337 1.541.75-.396 2.502.437 3.25 3.618 3.25 2.812 0 3.5-.386 3.5-1.965 0-1.08-.87-2.43-1.932-2.999-1.063-.569-2.254-2.047-2.646-3.285-.393-1.238-1.781-3.942-3.085-6.008-2.504-3.968-2.407-7.61.261-9.824 2.543-2.111 1.573-5.532-2.65-9.347-4.674-4.223-7.699-5.572-12.49-5.572-2.45 0-3.814.635-4.836 2.25m146.878-.265c-6.503 3.226-9.615 6.645-8.929 9.812.995 4.6 2.7 7.233 5.068 7.827 1.25.314 3.441 2.104 4.871 3.977l2.598 3.407-2.304.895c-11.981 4.655-12.304 4.845-12.616 7.423-.401 3.315 1.403 6.67 3.597 6.689.943.008 5.692-1.645 10.553-3.674 8.463-3.533 8.82-3.809 8.423-6.515-.288-1.961.017-2.826.996-2.826 2.541 0 .695-2.437-4.545-6-2.832-1.925-4.961-4.037-4.733-4.693s-1.123-2.543-3.001-4.193c-3.741-3.284-3.687-3.35 3.796-4.677 3.342-.592 6.726-3.427 6.726-5.634 0-.62-5.193-3.805-6.2-3.802-.165 0-2.1.893-4.3 1.984m-180.086 5.765c-8.752 19.647-11.597 27.384-10.978 29.851.45 1.791 1.119 2.4 2.188 1.99.847-.325 2.248-.591 3.113-.591 1.385 0 1.37-.224-.128-1.88-1.62-1.79-1.576-1.912.936-2.542 1.463-.367 2.439-1.199 2.193-1.87-.245-.664.311-2.558 1.234-4.208 1.431-2.557 2.356-3.044 6.27-3.301 4.051-.266 4.673-.031 5.289 2 .384 1.265 1.58 4.388 2.658 6.938 1.507 3.566 2.381 4.527 3.783 4.16 1.59-.416 1.755-1.261 1.296-6.637-.29-3.388-1.188-6.919-1.995-7.847s-1.19-2.138-.849-2.69c.341-.551-.288-2.492-1.398-4.313s-2.02-4.919-2.022-6.886c-.005-4.103-3.298-7.924-6.831-7.924-1.712 0-2.764 1.271-4.759 5.75m133.622-3.817c-.857 1.601-.536 2.287 1.869 4 1.597 1.137 4.215 2.067 5.819 2.067h2.914l-.853 7.25c-.47 3.987-1.286 8.825-1.814 10.75-1.643 5.991-1.189 9.446 1.582 12.049 2.15 2.02 2.698 2.166 3.473.925 1.616-2.587 3.203-12.176 2.615-15.802-.872-5.371 3.01-15.534 6.784-17.764 1.647-.973 2.45-1.95 1.784-2.172-.665-.221-1.209-1.04-1.209-1.819 0-1.136-2.172-1.417-10.965-1.417-9.814 0-11.073.203-11.999 1.933m-22.786 3.097c-2.888 1.656-5.25 3.469-5.25 4.03 0 3.236 4.382 9.092 8.263 11.043 5.472 2.751 7.737 4.784 7.737 6.945 0 3.567-4.586 3.377-8.74-.362-1.885-1.697-2.638-1.835-4.75-.872-3.879 1.767-3.488 6.619.74 9.198 6.814 4.156 12.222 3.419 17.664-2.407 2.267-2.426 2.313-2.697.75-4.423-.915-1.012-1.667-2.929-1.67-4.261-.005-1.639-.973-2.971-3-4.124-1.647-.937-2.994-2.345-2.994-3.128s-.675-1.984-1.5-2.669c-2.024-1.679-1.891-3 .3-3 2.404 0 4.2-1.924 4.2-4.5 0-5.214-4.287-5.751-11.75-1.47m-335.25.863c0 1.729.644 3.14 1.6 3.507 2.423.93 6.858-1.625 7.22-4.159.291-2.041-.089-2.241-4.25-2.241-4.374 0-4.57.124-4.57 2.893m127.269 1.857c-6.089 7.878-6.389 17.742-.519 17.066 5.091-.585 8.842-11.497 6.275-18.251-1.312-3.451-2.335-3.24-5.756 1.185m189.225-1.5c-.298 1.237-1.407 9-2.462 17.25-1.889 14.76-1.889 15.031-.011 16.937 1.887 1.915 1.932 1.915 4.046.002 1.176-1.064 2.778-3.173 3.561-4.687 1.253-2.422 1.24-2.752-.102-2.752-1.927 0-1.913-.48.11-3.567 1.786-2.726 3.028-14.649 1.967-18.878-.691-2.752-3.93-6.555-5.584-6.555-.539 0-1.226 1.013-1.525 2.25m-53.321 1.826c.18 1.207 1.297 2.836 2.483 3.619 1.943 1.283 2.363 1.201 4.255-.83 2.472-2.653 1.92-3.386-3.238-4.304-3.539-.629-3.803-.515-3.5 1.515M392 802.941c0 2.318 1.531 3.453 3.591 2.662 1.169-.448 1.26-1.013.417-2.588-1.375-2.57-4.008-2.618-4.008-.074"/></svg>