<svg xmlns="http://www.w3.org/2000/svg" width="1024" height="292" viewBox="0 0 1024 292" version="1.1">
	<path d="M 35.674 35.659 C 34.836 36.497, 34.770 172.238, 35.607 174.418 C 36.125 175.768, 38.520 176, 51.907 176 C 62.779 176, 67.969 175.631, 68.800 174.800 C 69.701 173.899, 70 161.301, 70 124.255 L 70 74.909 72.455 72.455 C 74.674 70.235, 75.720 70, 83.366 70 C 91.581 70, 91.896 70.088, 94.411 73.077 L 97 76.153 97 106.495 C 97 123.183, 97.273 137.548, 97.607 138.418 C 98.519 140.794, 130.481 140.794, 131.393 138.418 C 131.727 137.548, 132 123.344, 132 106.852 C 132 69.533, 131.800 70.087, 145.327 70.032 C 152.664 70.002, 153.337 70.183, 156.077 72.923 L 159 75.846 159 124.341 C 159 151.014, 159.273 173.548, 159.607 174.418 C 160.125 175.769, 162.534 176, 176.072 176 C 190.727 176, 192.008 175.853, 192.965 174.066 C 194.388 171.406, 194.388 74.594, 192.965 71.934 C 192.051 70.227, 190.797 70, 182.281 70 C 170.633 70, 165.307 67.932, 161.281 61.848 C 159.014 58.423, 158.619 56.547, 158.097 46.719 L 157.500 35.500 96.924 35.242 C 63.608 35.101, 36.045 35.288, 35.674 35.659 M 267.410 36.420 C 254.967 39.258, 240.333 46.801, 231.646 54.854 C 222.769 63.083, 214.386 77.929, 211.415 90.681 C 208.867 101.616, 209.826 120.164, 213.495 130.901 C 219.358 148.062, 232.656 163.211, 249.070 171.428 C 261.573 177.687, 269.980 179.341, 286.311 178.755 C 301.871 178.197, 308.555 176.368, 320.354 169.441 C 355.864 148.592, 366.700 101.631, 343.874 67.504 C 334.744 53.853, 320.913 43.349, 305.500 38.359 C 295.576 35.147, 277.115 34.207, 267.410 36.420 M 406.667 35.667 C 406.300 36.033, 406 43.201, 406 51.595 C 406 64.136, 406.280 67.137, 407.571 68.429 C 408.936 69.793, 413.466 70, 442.036 70 C 474.087 70, 474.958 70.052, 476.018 72.034 C 476.755 73.410, 477.008 84.061, 476.803 105.007 C 476.421 143.975, 478.612 140.376, 455.005 140.815 C 435.377 141.181, 428.906 140.010, 420.954 134.655 C 412.446 128.925, 407.352 120.565, 404.561 107.750 L 403.962 105 387.500 105 C 368.372 105, 368.937 104.624, 370.995 115.971 C 373.764 131.242, 381.883 146.085, 393.162 156.500 C 401.403 164.109, 408.603 168.383, 419.702 172.255 L 428.500 175.324 452 175.412 L 475.500 175.500 476.201 164.296 C 477.377 145.484, 481.170 141.709, 499.887 140.721 C 506.968 140.348, 510.544 139.748, 511.122 138.837 C 512.534 136.609, 512.223 37.623, 510.800 36.200 C 509.898 35.298, 496.904 35, 458.467 35 C 430.343 35, 407.033 35.300, 406.667 35.667 M 586.339 36.042 C 566.666 39.934, 546.982 55.272, 537.594 74.026 C 530.259 88.680, 529.903 91.696, 530.222 136.500 L 530.500 175.500 547 175.500 L 563.500 175.500 564.072 137.500 C 564.711 95.028, 564.920 93.592, 571.781 84.500 C 573.857 81.750, 577.724 78.042, 580.376 76.259 C 588.298 70.935, 593.182 70, 613.071 70 C 636.630 70, 635.500 69.124, 635.500 87.384 C 635.500 106.575, 637.279 105.361, 608.224 106 L 585.500 106.500 585.224 122.424 C 585.072 131.182, 585.319 138.719, 585.772 139.172 C 586.226 139.626, 595.575 140.247, 606.549 140.552 C 617.522 140.857, 627.961 141.328, 629.748 141.598 C 634.978 142.390, 636 145.617, 636 161.343 C 636 172.679, 636.248 174.881, 637.582 175.393 C 640.668 176.577, 668.535 176.065, 669.800 174.800 C 670.702 173.898, 671 160.986, 671 122.835 C 671 63.959, 672.454 70.017, 658.316 69.972 C 641.719 69.919, 636 64.231, 636 47.777 C 636 34.062, 637.725 34.981, 612.215 35.110 C 600.272 35.170, 588.627 35.590, 586.339 36.042 M 690.460 36.250 C 690.197 36.938, 690.099 68.550, 690.241 106.500 L 690.500 175.500 706.494 175.777 C 720.656 176.022, 722.632 175.856, 723.744 174.336 C 724.712 173.011, 725 161.146, 725 122.509 C 725 84.869, 725.299 72.101, 726.200 71.200 C 727.828 69.572, 787.786 69.490, 791.343 71.110 C 792.683 71.721, 794.279 73.317, 794.890 74.657 C 795.654 76.336, 796 92.113, 796 125.347 C 796 161.544, 796.300 173.900, 797.200 174.800 C 798.027 175.627, 803.089 176, 813.500 176 C 823.911 176, 828.973 175.627, 829.800 174.800 C 831.530 173.070, 831.530 72.930, 829.800 71.200 C 829.056 70.456, 825.159 69.971, 819.550 69.924 C 801.333 69.771, 796 64.577, 796 46.989 C 796 40.864, 795.566 36.966, 794.800 36.200 C 793.022 34.422, 691.139 34.471, 690.460 36.250 M 903.500 36.476 C 888.471 39.805, 878.121 45.756, 867.500 57.178 C 851.165 74.743, 844.284 99.273, 849.615 120.936 C 853.558 136.958, 864.702 153.459, 878.288 163.391 C 886.375 169.302, 902.639 174.975, 912.500 175.323 L 917.500 175.500 918 160.775 C 918.614 142.683, 919.002 142.045, 930.109 140.858 C 939.472 139.858, 950.991 141.267, 952.715 143.624 C 953.613 144.853, 954 149.485, 954 159 C 954 168.351, 954.394 173.156, 955.256 174.336 C 956.368 175.856, 958.344 176.022, 972.506 175.777 L 988.500 175.500 988.500 141 L 988.500 106.500 954 106.500 L 919.500 106.500 919 119.172 C 918.542 130.774, 918.299 132.057, 916.124 134.370 C 908.755 142.206, 893.930 135.728, 886.995 121.641 C 881.432 110.342, 882.016 96.272, 888.470 86.048 C 891.987 80.476, 899.531 74.319, 905.640 72.033 C 910.748 70.122, 913.320 70, 948.346 70 C 976.681 70, 986.030 69.699, 987.336 68.744 C 988.856 67.632, 989.022 65.656, 988.777 51.494 L 988.500 35.500 949 35.324 C 919.277 35.191, 908.015 35.476, 903.500 36.476 M 271.500 73.743 C 253.411 80.241, 243.348 98.926, 248.463 116.520 C 253.036 132.250, 266.900 142.431, 283.494 142.243 C 291.963 142.148, 297.689 140.213, 304.221 135.240 C 313.787 127.957, 318.554 117.531, 317.786 105.566 C 316.943 92.432, 310.315 82.112, 298.768 75.957 C 293.454 73.124, 291.282 72.565, 284.500 72.281 C 278.642 72.037, 275.161 72.428, 271.500 73.743 M 298.900 211.991 C 294.177 214.488, 291.667 218.481, 291.667 223.500 C 291.667 229.687, 294.218 232.570, 303.701 237.096 C 311.451 240.795, 312.097 241.330, 311.811 243.807 C 311.545 246.108, 310.974 246.544, 307.889 246.802 C 305.192 247.028, 303.514 246.462, 301.265 244.569 L 298.252 242.035 294.153 245.004 C 289.358 248.477, 289.506 249.693, 295.202 253.640 C 303.942 259.697, 318.877 257.227, 323.176 249.016 C 327.698 240.376, 324.228 233.813, 312.252 228.355 C 304.603 224.870, 302.917 223.009, 305.064 220.423 C 306.606 218.565, 310.210 219.234, 313.778 222.040 C 316.369 224.078, 317.210 223.877, 322 220.070 C 325.096 217.611, 324.147 215.552, 318.404 212.266 C 313.337 209.367, 304.110 209.237, 298.900 211.991 M 637.433 212.379 C 627.404 217.049, 622.300 228.639, 625.469 239.541 C 628.498 249.962, 637.421 256.935, 647.782 256.978 C 660.478 257.031, 670.209 248.474, 671.692 235.955 C 673.897 217.338, 654.883 204.254, 637.433 212.379 M 709.768 212.059 C 705.413 214.358, 703 218.437, 703 223.500 C 703 230.091, 705.333 232.821, 714.642 237.122 C 722.519 240.761, 723.106 241.239, 722.814 243.771 C 722.400 247.365, 718.254 247.937, 713.396 245.071 C 708.922 242.431, 708.393 242.463, 704.264 245.612 L 700.840 248.224 703.670 251.235 C 707.460 255.268, 711.843 257, 718.256 257 C 728.705 257, 735.995 250.766, 735.998 241.827 C 736.001 236.575, 732.034 232.357, 723.382 228.415 C 715.302 224.732, 714.455 223.886, 715.989 221.021 C 717.353 218.472, 719.673 218.466, 723.500 221 C 725.150 222.093, 727.081 222.990, 727.790 222.993 C 729.588 223.003, 735 218.869, 735 217.486 C 735 215.970, 731.173 212.668, 727.703 211.191 C 723.350 209.338, 714.071 209.787, 709.768 212.059 M 356.198 216.250 L 356.500 221.500 361.970 221.810 C 364.978 221.980, 368.016 222.598, 368.720 223.182 C 369.662 223.964, 370 228.440, 370 240.122 L 370 256 376 256 C 379.300 256, 382.073 255.887, 382.162 255.750 C 382.251 255.613, 382.589 248.075, 382.912 239 L 383.500 222.500 389.750 222.202 L 396 221.905 396 216.452 L 396 211 375.948 211 L 355.895 211 356.198 216.250 M 428.710 211.623 C 427.322 213.011, 427.936 239.420, 429.476 244.609 C 432.061 253.312, 437.915 257.022, 448.993 256.978 C 456.960 256.946, 462.176 254.262, 465.590 248.436 C 468.187 244.005, 468.402 242.770, 468.812 229.914 C 469.054 222.338, 468.962 214.983, 468.607 213.570 C 468.004 211.168, 467.570 211, 461.981 211 L 456 211 456 225.066 C 456 242.688, 455.075 244.954, 447.872 244.985 C 442.089 245.009, 441.563 243.602, 441 226.601 L 440.500 211.500 434.960 211.206 C 431.913 211.045, 429.101 211.232, 428.710 211.623 M 502.591 212.624 C 501.820 214.632, 501.949 251.091, 502.738 254.106 C 503.187 255.824, 504.285 256, 514.529 256 C 525.339 256, 526.098 255.859, 532.159 252.721 C 540.846 248.224, 543.500 243.571, 543.500 232.836 C 543.500 225.912, 543.206 224.754, 540.456 220.836 C 538.781 218.451, 535.406 215.377, 532.956 214.003 C 528.992 211.783, 527.108 211.468, 515.894 211.157 C 504.448 210.839, 503.224 210.974, 502.591 212.624 M 578.448 212.276 C 578.178 212.978, 578.080 222.990, 578.229 234.526 L 578.500 255.500 584.750 255.798 L 591 256.095 591 233.548 L 591 211 584.969 211 C 581.001 211, 578.770 211.437, 578.448 212.276 M 515.667 222.667 C 515.300 223.033, 515 227.997, 515 233.698 C 515 242.012, 515.298 244.177, 516.508 244.641 C 519.006 245.600, 524.828 244.052, 527.558 241.704 C 533.025 237.001, 531.280 225.339, 524.770 223.070 C 521.318 221.866, 516.673 221.661, 515.667 222.667 M 644.423 223.604 C 642.265 224.355, 640.365 224.977, 640.199 224.985 C 638.925 225.049, 637.035 232.671, 637.577 235.558 C 639.061 243.470, 649.776 246.951, 655.384 241.343 C 664.121 232.606, 656.057 219.555, 644.423 223.604" stroke="none" fill="#0a0a0a" fill-rule="evenodd"/>
</svg>