<svg xmlns="http://www.w3.org/2000/svg" width="1024" height="292" viewBox="0 0 1024 292"><path fill="#0a0a0a" fill-rule="evenodd" d="M35.674 35.659c-.838.838-.904 136.579-.067 138.759.518 1.35 2.913 1.582 16.3 1.582 10.872 0 16.062-.369 16.893-1.2.901-.901 1.2-13.499 1.2-50.545V74.909l2.455-2.454C74.674 70.235 75.72 70 83.366 70c8.215 0 8.53.088 11.045 3.077L97 76.153v30.342c0 16.688.273 31.053.607 31.923.912 2.376 32.874 2.376 33.786 0 .334-.87.607-15.074.607-31.566 0-37.319-.2-36.765 13.327-36.82 7.337-.03 8.01.151 10.75 2.891L159 75.846v48.495c0 26.673.273 49.207.607 50.077.518 1.351 2.927 1.582 16.465 1.582 14.655 0 15.936-.147 16.893-1.934 1.423-2.66 1.423-99.472 0-102.132-.914-1.707-2.168-1.934-10.684-1.934-11.648 0-16.974-2.068-21-8.152-2.267-3.425-2.662-5.301-3.184-15.129L157.5 35.5l-60.576-.258c-33.316-.141-60.879.046-61.25.417m231.736.761c-12.443 2.838-27.077 10.381-35.764 18.434-8.877 8.229-17.26 23.075-20.231 35.827-2.548 10.935-1.589 29.483 2.08 40.22 5.863 17.161 19.161 32.31 35.575 40.527 12.503 6.259 20.91 7.913 37.241 7.327 15.56-.558 22.244-2.387 34.043-9.314 35.51-20.849 46.346-67.81 23.52-101.937-9.13-13.651-22.961-24.155-38.374-29.145-9.924-3.212-28.385-4.152-38.09-1.939m139.257-.753c-.367.366-.667 7.534-.667 15.928 0 12.541.28 15.542 1.571 16.834 1.365 1.364 5.895 1.571 34.465 1.571 32.051 0 32.922.052 33.982 2.034.737 1.376.99 12.027.785 32.973-.382 38.968 1.809 35.369-21.798 35.808-19.628.366-26.099-.805-34.051-6.16-8.508-5.73-13.602-14.09-16.393-26.905l-.599-2.75H387.5c-19.128 0-18.563-.376-16.505 10.971 2.769 15.271 10.888 30.114 22.167 40.529 8.241 7.609 15.441 11.883 26.54 15.755l8.798 3.069 23.5.088 23.5.088.701-11.204c1.176-18.812 4.969-22.587 23.686-23.575 7.081-.373 10.657-.973 11.235-1.884 1.412-2.228 1.101-101.214-.322-102.637-.902-.902-13.896-1.2-52.333-1.2-28.124 0-51.434.3-51.8.667m179.672.375c-19.673 3.892-39.357 19.23-48.745 37.984-7.335 14.654-7.691 17.67-7.372 62.474l.278 39h33l.572-38c.639-42.472.848-43.908 7.709-53 2.076-2.75 5.943-6.458 8.595-8.241C588.298 70.935 593.182 70 613.071 70c23.559 0 22.429-.876 22.429 17.384 0 19.191 1.779 17.977-27.276 18.616l-22.724.5-.276 15.924c-.152 8.758.095 16.295.548 16.748.454.454 9.803 1.075 20.777 1.38s21.412.776 23.199 1.046c5.23.792 6.252 4.019 6.252 19.745 0 11.336.248 13.538 1.582 14.05 3.086 1.184 30.953.672 32.218-.593.902-.902 1.2-13.814 1.2-51.965 0-58.876 1.454-52.818-12.684-52.863C641.719 69.919 636 64.231 636 47.777c0-13.715 1.725-12.796-23.785-12.667-11.943.06-23.588.48-25.876.932m104.121.208c-.263.688-.361 32.3-.219 70.25l.259 69 15.994.277c14.162.245 16.138.079 17.25-1.441.968-1.325 1.256-13.19 1.256-51.827 0-37.64.299-50.408 1.2-51.309 1.628-1.628 61.586-1.71 65.143-.09 1.34.611 2.936 2.207 3.547 3.547.764 1.679 1.11 17.456 1.11 50.69 0 36.197.3 48.553 1.2 49.453.827.827 5.889 1.2 16.3 1.2s15.473-.373 16.3-1.2c1.73-1.73 1.73-101.87 0-103.6-.744-.744-4.641-1.229-10.25-1.276-18.217-.153-23.55-5.347-23.55-22.935 0-6.125-.434-10.023-1.2-10.789-1.778-1.778-103.661-1.729-104.34.05m213.04.226c-15.029 3.329-25.379 9.28-36 20.702-16.335 17.565-23.216 42.095-17.885 63.758 3.943 16.022 15.087 32.523 28.673 42.455 8.087 5.911 24.351 11.584 34.212 11.932l5 .177.5-14.725c.614-18.092 1.002-18.73 12.109-19.917 9.363-1 20.882.409 22.606 2.766.898 1.229 1.285 5.861 1.285 15.376 0 9.351.394 14.156 1.256 15.336 1.112 1.52 3.088 1.686 17.25 1.441l15.994-.277v-69h-69l-.5 12.672c-.458 11.602-.701 12.885-2.876 15.198-7.369 7.836-22.194 1.358-29.129-12.729-5.563-11.299-4.979-25.369 1.475-35.593 3.517-5.572 11.061-11.729 17.17-14.015 5.108-1.911 7.68-2.033 42.706-2.033 28.335 0 37.684-.301 38.99-1.256 1.52-1.112 1.686-3.088 1.441-17.25L988.5 35.5l-39.5-.176c-29.723-.133-40.985.152-45.5 1.152m-632 37.267c-18.089 6.498-28.152 25.183-23.037 42.777 4.573 15.73 18.437 25.911 35.031 25.723 8.469-.095 14.195-2.03 20.727-7.003 9.566-7.283 14.333-17.709 13.565-29.674-.843-13.134-7.471-23.454-19.018-29.609-5.314-2.833-7.486-3.392-14.268-3.676-5.858-.244-9.339.147-13 1.462m27.4 138.248c-4.723 2.497-7.233 6.49-7.233 11.509 0 6.187 2.551 9.07 12.034 13.596 7.75 3.699 8.396 4.234 8.11 6.711-.266 2.301-.837 2.737-3.922 2.995-2.697.226-4.375-.34-6.624-2.233l-3.013-2.534-4.099 2.969c-4.795 3.473-4.647 4.689 1.049 8.636 8.74 6.057 23.675 3.587 27.974-4.624 4.522-8.64 1.052-15.203-10.924-20.661-7.649-3.485-9.335-5.346-7.188-7.932 1.542-1.858 5.146-1.189 8.714 1.617 2.591 2.038 3.432 1.837 8.222-1.97 3.096-2.459 2.147-4.518-3.596-7.804-5.067-2.899-14.294-3.029-19.504-.275m338.533.388c-10.029 4.67-15.133 16.26-11.964 27.162 3.029 10.421 11.952 17.394 22.313 17.437 12.696.053 22.427-8.504 23.91-21.023 2.205-18.617-16.809-31.701-34.259-23.576m72.335-.32c-4.355 2.299-6.768 6.378-6.768 11.441 0 6.591 2.333 9.321 11.642 13.622 7.877 3.639 8.464 4.117 8.172 6.649-.414 3.594-4.56 4.166-9.418 1.3-4.474-2.64-5.003-2.608-9.132.541l-3.424 2.612 2.83 3.011c3.79 4.033 8.173 5.765 14.586 5.765 10.449 0 17.739-6.234 17.742-15.173.003-5.252-3.964-9.47-12.616-13.412-8.08-3.683-8.927-4.529-7.393-7.394 1.364-2.549 3.684-2.555 7.511-.021 1.65 1.093 3.581 1.99 4.29 1.993 1.798.01 7.21-4.124 7.21-5.507 0-1.516-3.827-4.818-7.297-6.295-4.353-1.853-13.632-1.404-17.935.868m-353.57 4.191.302 5.25 5.47.31c3.008.17 6.046.788 6.75 1.372.942.782 1.28 5.258 1.28 16.94V256h6c3.3 0 6.073-.113 6.162-.25s.427-7.675.75-16.75l.588-16.5 6.25-.298 6.25-.297V211h-40.105zm72.512-4.627c-1.388 1.388-.774 27.797.766 32.986 2.585 8.703 8.439 12.413 19.517 12.369 7.967-.032 13.183-2.716 16.597-8.542 2.597-4.431 2.812-5.666 3.222-18.522.242-7.576.15-14.931-.205-16.344-.603-2.402-1.037-2.57-6.626-2.57H456v14.066c0 17.622-.925 19.888-8.128 19.919-5.783.024-6.309-1.383-6.872-18.384l-.5-15.101-5.54-.294c-3.047-.161-5.859.026-6.25.417m73.881 1.001c-.771 2.008-.642 38.467.147 41.482.449 1.718 1.547 1.894 11.791 1.894 10.81 0 11.569-.141 17.63-3.279 8.687-4.497 11.341-9.15 11.341-19.885 0-6.924-.294-8.082-3.044-12-1.675-2.385-5.05-5.459-7.5-6.833-3.964-2.22-5.848-2.535-17.062-2.846-11.446-.318-12.67-.183-13.303 1.467m75.857-.348c-.27.702-.368 10.714-.219 22.25l.271 20.974 6.25.298 6.25.297V211h-6.031c-3.968 0-6.199.437-6.521 1.276m-62.781 10.391c-.367.366-.667 5.33-.667 11.031 0 8.314.298 10.479 1.508 10.943 2.498.959 8.32-.589 11.05-2.937 5.467-4.703 3.722-16.365-2.788-18.634-3.452-1.204-8.097-1.409-9.103-.403m128.756.937c-2.158.751-4.058 1.373-4.224 1.381-1.274.064-3.164 7.686-2.622 10.573 1.484 7.912 12.199 11.393 17.807 5.785 8.737-8.737.673-21.788-10.961-17.739"/></svg>