<svg xmlns="http://www.w3.org/2000/svg" viewBox="122.79 386.17 798.88 294.5"><path fill="#0a0a0a" fill-rule="evenodd" d="M841.5 393.455c-9.9.715-20.25 1.639-23 2.053-14.123 2.129-26.486 8.618-32.795 17.212-8.042 10.957-15.263 36.091-16.364 56.968l-.643 12.187-3.849.651c-4.293.725-4.591 1.413-2.193 5.071 2.102 3.209 9.259 6.843 16.344 8.3 4.331.891 33.06 2.986 42.295 3.084.988.01 2.9 1.124 4.25 2.474 2.055 2.054 2.455 3.421 2.455 8.388 0 6.648-3.935 21.489-7.271 27.425-3.602 6.409-11.146 9.74-17.392 7.678-5.412-1.786-6.547-7.335-4.225-20.669.612-3.512.88-6.618.597-6.902-.807-.806-50.883 2.396-51.766 3.31-1.831 1.895-4.202 17.511-4.3 28.315-.083 9.059.255 12.165 1.59 14.631 5.747 10.614 18.16 13.401 50.978 11.443 34.732-2.072 44.672-3.603 55.507-8.551 7.09-3.238 14.345-10.278 17.772-17.245 7.479-15.206 13.54-40.051 13.841-56.735l.169-9.39 4.244-.637 4.245-.637-1.479-2.861c-3.85-7.443-11.61-9.828-37.51-11.524-24.151-1.581-26.674-2.238-27.602-7.188-.94-5.01.262-14.743 2.744-22.218 3.753-11.303 13.134-18.345 18.858-14.157 2.403 1.759 2.494 2.221 2.337 11.949l-.163 10.12 4.663.003c10.13.007 46.708-2.248 47.433-2.924.423-.395 1.698-5.412 2.834-11.149 2.2-11.115 2.14-22.655-.14-27.089-2.399-4.664-7.429-8.902-12.437-10.477-6.849-2.154-27.58-2.531-50.027-.909m-149.285 9.51c-46.357 2.588-84.674 5.117-85.149 5.62-.476.503-8.059 17.115-16.853 36.915-14.402 32.428-16.234 36.03-18.468 36.304-2.457.3-2.485.212-3.091-9.5-.337-5.392-.907-21.616-1.268-36.054-.62-24.809-.759-26.25-2.539-26.25-2.748 0-52.317 3.154-52.512 3.342-.091.087.134 15.571.5 34.409l.665 34.251-3.781-.001c-2.492-.001-3.984.527-4.376 1.547-.732 1.907.94 104.068 1.716 104.844.306.307 15.359-.218 33.451-1.167l32.893-1.725 22.578-50.999 22.578-50.999 4.943-1.049 4.943-1.049 14.021-31.415c7.711-17.279 14.126-30.757 14.255-29.952.128.805-2.6 14.963-6.063 31.463l-6.297 30-4.162.565c-2.289.31-4.438.84-4.775 1.178-.958.958-21.653 98.861-21.03 99.485.579.578 116.82-5.643 117.487-6.288.617-.597 5.983-27.903 5.565-28.324-.209-.211-14.387.384-31.507 1.323-17.119.939-31.353 1.481-31.63 1.203-.505-.505 9.364-47.649 10.137-48.422.227-.226 13.831-1.226 30.233-2.223 16.401-.997 29.895-1.854 29.986-1.905.09-.051.96-3.467 1.933-7.592 1.695-7.19 1.887-7.5 4.651-7.5 4.949 0 6.751-1.61 6.751-6.035 0-2.526-.454-3.951-1.25-3.927-.687.021-13.85.653-29.25 1.404s-28.161 1.21-28.357 1.021c-.354-.34 8.668-43.607 9.204-44.143.154-.154 14.426-1.031 31.716-1.95 17.29-.918 31.594-1.797 31.785-1.952.346-.279 6.116-27.225 6.14-28.668.006-.413-.325-.692-.738-.621-.413.072-38.678 2.247-85.035 4.836M436.5 415.585c-22.527 1.617-32.468 3.671-43.158 8.919-13.545 6.65-20.708 17.344-28.85 43.075L359.928 482h-3.464c-1.905 0-3.47-.337-3.478-.75s2.754-13.925 6.138-30.029 5.935-29.495 5.67-29.76c-.526-.526-68.801 3.213-69.388 3.8-.198.198-6.407 12.933-13.798 28.3L268.17 481.5l-4.888.795-4.888.795-3.747 7.572c-2.06 4.165-3.89 7.407-4.067 7.205-.176-.202-.624-3.567-.997-7.479l-.677-7.112 4.13-.554c2.271-.305 4.291-.716 4.489-.914.362-.362-3.478-54.094-3.895-54.512-.556-.555-67.622 3.363-68.246 3.987-.387.387-2.422 8.693-4.523 18.46a9507 9507 0 0 1-5.409 25.007l-1.588 7.25h-4.413c-3.753 0-4.492.336-4.94 2.25-3.027 12.918-26.36 124.234-26.096 124.498.751.751 50.732-2.501 51.472-3.349.432-.494 2.992-10.799 5.689-22.899l4.904-22 2.623 21.78c1.444 11.979 2.907 22.063 3.253 22.409.345.346 10.194.1 21.886-.545s22.268-1.167 23.502-1.159c1.904.013 3.526-2.524 10.697-16.735 4.649-9.212 8.477-16.258 8.506-15.656s-1.298 7.763-2.949 15.915-2.788 15.035-2.526 15.296c.506.506 52.469-2.407 53.02-2.972.349-.358 24.517-113.83 24.511-115.083-.001-.413 1.735-.75 3.859-.75h3.863l-1.866 7.75c-3.866 16.06-8.84 40.122-10.389 50.25-1.919 12.553-2.225 33.823-.572 39.763 1.669 5.999 6.217 10.732 12.912 13.438 5.481 2.214 6.684 2.294 32.69 2.174 47.106-.219 64.868-4.362 78.213-18.244 9.786-10.178 18.831-35.783 28.255-79.98 1.667-7.821 3.032-14.371 3.032-14.554 0-.184 1.865-.584 4.144-.89 2.279-.305 4.454-1.057 4.833-1.669 1.647-2.665 4.266-29.027 3.879-39.038-.342-8.833-.799-11.208-2.881-14.961-6.689-12.059-21.789-14.66-66.475-11.454M432 447.59c-1.925.832-5.208 3.175-7.295 5.207-3.773 3.676-4.371 5.145-10.045 24.703-1.077 3.715-1.495 4.065-5.861 4.908l-4.7.909-2.654 11.091c-4.248 17.755-8.312 39.231-9.638 50.931-1.153 10.176-1.108 11.062.733 14.5 4.361 8.144 17.183 7.524 25.244-1.221 3.052-3.31 4.719-6.484 6.704-12.762 3.64-11.512 8.789-32.199 12.131-48.745l2.799-13.854 4.541-.878 4.541-.879 1.876-10.9c3.144-18.271.392-24.661-10.576-24.561-2.365.022-5.875.72-7.8 1.551M288 657.5V675h10v-9.07l10.238.285c9.359.261 10.264.457 10.539 2.285.978 6.502.976 6.5 6.242 6.5H330v-4.453c0-2.449-.51-5.572-1.133-6.939-.896-1.966-.791-3.341.5-6.568 2.075-5.184 2.066-8.499-.032-12.05-2.651-4.488-5.054-4.99-23.882-4.99H288zm50.348-6.844c.359 5.86.652 13.735.652 17.5V675h38.25l-.625-3.125c-.344-1.719-.625-3.744-.625-4.5 0-1.099-2.723-1.375-13.57-1.375-13.5 0-13.567-.012-13.25-2.25.309-2.176.725-2.259 12.57-2.531l12.25-.281v-6.876l-12.25-.281c-11.579-.266-12.266-.396-12.55-2.382-.272-1.907.328-2.16 6.5-2.743 3.74-.353 9.838-.645 13.55-.649L376 648v-8h-38.304zm49.769-9.025c-3.542 2.481-5.131 7.436-4.999 15.587.172 10.536.893 12.873 4.783 15.494C391.028 674.819 392.377 675 405 675c12.611 0 13.975-.182 17.102-2.283 2.814-1.89 3.45-2.993 3.701-6.415.254-3.451-.039-4.242-1.772-4.792-3.079-.977-7.833.369-9.448 2.675-1.275 1.82-2.29 1.991-9.952 1.671-5.228-.218-9.035-.859-9.831-1.656-.746-.746-1.3-3.606-1.3-6.714 0-7.629 1.32-8.664 11.284-8.843 6.692-.12 8.358.18 10.188 1.834 2.106 1.903 9.085 2.799 10.532 1.352.344-.343.313-2.287-.068-4.32-1.192-6.354-4.395-7.501-20.963-7.505-11.355-.003-14.472.307-16.356 1.627m49.552.414c-3.365 2.648-4.657 7.518-4.663 17.589l-.006 8.133 4.003 3.617 4.003 3.616 14.747-.015c16.351-.016 18.369-.558 21.967-5.897 1.924-2.855 2.28-4.696 2.28-11.786 0-15.669-2.295-17.302-24.315-17.302-14.015 0-15.651.186-18.016 2.045M487 657.5V675h5.5c5.41 0 5.5-.048 5.5-2.918 0-5.848.404-6.082 10.477-6.082h9.263l1.26 4.5 1.26 4.5H530v-4.809c0-2.645-.633-5.674-1.406-6.731-1.163-1.592-1.184-2.358-.12-4.442 2.182-4.275 2.74-8.84 1.528-12.511-2.037-6.174-3.276-6.507-24.225-6.507H487zm51 0V675h18.777c20.019 0 20.993-.21 25.44-5.469 2.301-2.723 2.505-20.993.267-23.951-3.909-5.166-5.758-5.566-25.734-5.573L538 640zm54 0V675h11v-35h-11zm19 0V675h9.938l.281-12.169.281-12.169 9.866 12.169L641.232 675H658v-8.346c0-4.591-.294-12.488-.653-17.55l-.654-9.204-4.096.3-4.097.3-.719 9.5c-.395 5.225-.845 10.455-1 11.622-.219 1.655-2.371-.481-9.781-9.708l-9.5-11.829-8.25-.043L611 640zm58.524-15.115c-3.428 3.428-4.865 9.807-4.149 18.415 1.099 13.205 2.715 14.2 23.06 14.2 14.446 0 14.552-.017 17.594-2.75 2.724-2.447 3.127-3.548 3.661-10l.6-7.25H687v2.902c0 2.802.205 2.925 6 3.598 4.059.471 6 1.137 6 2.06 0 3.849-19.988 4.2-22.029.386-1.067-1.994-1.276-9.207-.365-12.603.532-1.982 1.358-2.189 10.236-2.556 8.251-.342 9.959-.137 11.722 1.407 1.287 1.125 3.643 1.806 6.25 1.806 3.958 0 4.186-.159 4.186-2.918 0-7.928-2.796-9.082-21.996-9.082-14.574 0-15.177.082-17.48 2.385m51.701-.381c-3.96 2.414-5.544 6.147-4.709 11.092 1.128 6.676 3.308 7.7 17.187 8.075 12.966.35 15.818 1.292 13.256 4.379-2.032 2.447-18.294 1.745-20.207-.873-.987-1.351-2.356-1.739-5.292-1.5-3.764.307-3.975.504-4.264 3.966-.256 3.071.161 3.975 2.654 5.75 2.658 1.893 4.334 2.107 16.489 2.107 7.442 0 14.642-.422 16-.939 4.542-1.727 6.661-5.002 6.661-10.295 0-6.025-3.105-9.739-8.205-9.815-8.858-.13-22.995-1.751-23.995-2.751-3.084-3.084 13.165-4.398 20.095-1.625 2.164.866 5.211 1.428 6.77 1.25 2.361-.271 2.886-.849 3.14-3.459.235-2.422-.308-3.616-2.385-5.25-2.44-1.92-3.953-2.116-16.305-2.112-11.843.003-14.041.263-16.89 2M298.193 653.25c.191 2.64.78 4.212 1.557 4.15.688-.055 5.059-.168 9.715-.25 7.354-.13 8.605-.412 9.535-2.15.76-1.421.76-2.579 0-4-.961-1.796-2.094-2-11.093-2h-10.022zm146.694-1.5c-1.102 2.851-.725 11.745.552 13.022.4.4 5.432.728 11.181.728 11.896 0 12.348-.275 12.351-7.5.003-9.172.235-9-12.112-9H445.95zM499 652.856v3.856l8.124.678c8.798.734 12.876-.601 12.876-4.213 0-3.419-2.123-4.177-11.7-4.177H499zm50 4.644v8.5l4.75-.007c2.612-.004 7.788-.294 11.5-.645l6.751-.637 1.058-3.93c1.316-4.886.134-8.847-3.138-10.516-1.397-.713-6.333-1.242-11.671-1.25L549 649z"/></svg>