<svg xmlns="http://www.w3.org/2000/svg" width="100%" height="100%" viewBox="122.79 386.17 798.88 294.50" version="1.1">
	<path d="M 841.500 393.455 C 831.600 394.170, 821.250 395.094, 818.500 395.508 C 804.377 397.637, 792.014 404.126, 785.705 412.720 C 777.663 423.677, 770.442 448.811, 769.341 469.688 L 768.698 481.875 764.849 482.526 C 760.556 483.251, 760.258 483.939, 762.656 487.597 C 764.758 490.806, 771.915 494.440, 779 495.897 C 783.331 496.788, 812.060 498.883, 821.295 498.981 C 822.283 498.991, 824.195 500.105, 825.545 501.455 C 827.600 503.509, 828 504.876, 828 509.843 C 828 516.491, 824.065 531.332, 820.729 537.268 C 817.127 543.677, 809.583 547.008, 803.337 544.946 C 797.925 543.160, 796.790 537.611, 799.112 524.277 C 799.724 520.765, 799.992 517.659, 799.709 517.375 C 798.902 516.569, 748.826 519.771, 747.943 520.685 C 746.112 522.580, 743.741 538.196, 743.643 549 C 743.560 558.059, 743.898 561.165, 745.233 563.631 C 750.980 574.245, 763.393 577.032, 796.211 575.074 C 830.943 573.002, 840.883 571.471, 851.718 566.523 C 858.808 563.285, 866.063 556.245, 869.490 549.278 C 876.969 534.072, 883.030 509.227, 883.331 492.543 L 883.500 483.153 887.744 482.516 L 891.989 481.879 890.510 479.018 C 886.660 471.575, 878.900 469.190, 853 467.494 C 828.849 465.913, 826.326 465.256, 825.398 460.306 C 824.458 455.296, 825.660 445.563, 828.142 438.088 C 831.895 426.785, 841.276 419.743, 847 423.931 C 849.403 425.690, 849.494 426.152, 849.337 435.880 L 849.174 446 853.837 446.003 C 863.967 446.010, 900.545 443.755, 901.270 443.079 C 901.693 442.684, 902.968 437.667, 904.104 431.930 C 906.304 420.815, 906.244 409.275, 903.964 404.841 C 901.565 400.177, 896.535 395.939, 891.527 394.364 C 884.678 392.210, 863.947 391.833, 841.500 393.455 M 692.215 402.965 C 645.858 405.553, 607.541 408.082, 607.066 408.585 C 606.590 409.088, 599.007 425.700, 590.213 445.500 C 575.811 477.928, 573.979 481.530, 571.745 481.804 C 569.288 482.104, 569.260 482.016, 568.654 472.304 C 568.317 466.912, 567.747 450.688, 567.386 436.250 C 566.766 411.441, 566.627 410, 564.847 410 C 562.099 410, 512.530 413.154, 512.335 413.342 C 512.244 413.429, 512.469 428.913, 512.835 447.751 L 513.500 482.002 509.719 482.001 C 507.227 482, 505.735 482.528, 505.343 483.548 C 504.611 485.455, 506.283 587.616, 507.059 588.392 C 507.365 588.699, 522.418 588.174, 540.510 587.225 L 573.403 585.500 595.981 534.501 L 618.559 483.502 623.502 482.453 L 628.445 481.404 642.466 449.989 C 650.177 432.710, 656.592 419.232, 656.721 420.037 C 656.849 420.842, 654.121 435, 650.658 451.500 L 644.361 481.500 640.199 482.065 C 637.910 482.375, 635.761 482.905, 635.424 483.243 C 634.466 484.201, 613.771 582.104, 614.394 582.728 C 614.973 583.306, 731.214 577.085, 731.881 576.440 C 732.498 575.843, 737.864 548.537, 737.446 548.116 C 737.237 547.905, 723.059 548.500, 705.939 549.439 C 688.820 550.378, 674.586 550.920, 674.309 550.642 C 673.804 550.137, 683.673 502.993, 684.446 502.220 C 684.673 501.994, 698.277 500.994, 714.679 499.997 C 731.080 499, 744.574 498.143, 744.665 498.092 C 744.755 498.041, 745.625 494.625, 746.598 490.500 C 748.293 483.310, 748.485 483, 751.249 483 C 756.198 483, 758 481.390, 758 476.965 C 758 474.439, 757.546 473.014, 756.750 473.038 C 756.063 473.059, 742.900 473.691, 727.500 474.442 C 712.100 475.193, 699.339 475.652, 699.143 475.463 C 698.789 475.123, 707.811 431.856, 708.347 431.320 C 708.501 431.166, 722.773 430.289, 740.063 429.370 C 757.353 428.452, 771.657 427.573, 771.848 427.418 C 772.194 427.139, 777.964 400.193, 777.988 398.750 C 777.994 398.337, 777.663 398.058, 777.250 398.129 C 776.837 398.201, 738.572 400.376, 692.215 402.965 M 436.500 415.585 C 413.973 417.202, 404.032 419.256, 393.342 424.504 C 379.797 431.154, 372.634 441.848, 364.492 467.579 L 359.928 482 356.464 482 C 354.559 482, 352.994 481.663, 352.986 481.250 C 352.978 480.837, 355.740 467.325, 359.124 451.221 C 362.507 435.118, 365.059 421.726, 364.794 421.461 C 364.268 420.935, 295.993 424.674, 295.406 425.261 C 295.208 425.459, 288.999 438.194, 281.608 453.561 L 268.170 481.500 263.282 482.295 L 258.394 483.090 254.647 490.662 C 252.587 494.827, 250.757 498.069, 250.580 497.867 C 250.404 497.665, 249.956 494.300, 249.583 490.388 L 248.906 483.276 253.036 482.722 C 255.307 482.417, 257.327 482.006, 257.525 481.808 C 257.887 481.446, 254.047 427.714, 253.630 427.296 C 253.074 426.741, 186.008 430.659, 185.384 431.283 C 184.997 431.670, 182.962 439.976, 180.861 449.743 C 178.760 459.509, 176.326 470.762, 175.452 474.750 L 173.864 482 169.451 482 C 165.698 482, 164.959 482.336, 164.511 484.250 C 161.484 497.168, 138.151 608.484, 138.415 608.748 C 139.166 609.499, 189.147 606.247, 189.887 605.399 C 190.319 604.905, 192.879 594.600, 195.576 582.500 L 200.480 560.500 203.103 582.280 C 204.547 594.259, 206.010 604.343, 206.356 604.689 C 206.701 605.035, 216.550 604.789, 228.242 604.144 C 239.934 603.499, 250.510 602.977, 251.744 602.985 C 253.648 602.998, 255.270 600.461, 262.441 586.250 C 267.090 577.038, 270.918 569.992, 270.947 570.594 C 270.976 571.196, 269.649 578.357, 267.998 586.509 C 266.347 594.660, 265.210 601.544, 265.472 601.805 C 265.978 602.311, 317.941 599.398, 318.492 598.833 C 318.841 598.475, 343.009 485.003, 343.003 483.750 C 343.002 483.337, 344.738 483, 346.862 483 L 350.725 483 348.859 490.750 C 344.993 506.810, 340.019 530.872, 338.470 541 C 336.551 553.553, 336.245 574.823, 337.898 580.763 C 339.567 586.762, 344.115 591.495, 350.810 594.201 C 356.291 596.415, 357.494 596.495, 383.500 596.375 C 430.606 596.156, 448.368 592.013, 461.713 578.131 C 471.499 567.953, 480.544 542.348, 489.968 498.151 C 491.635 490.330, 493 483.780, 493 483.597 C 493 483.413, 494.865 483.013, 497.144 482.707 C 499.423 482.402, 501.598 481.650, 501.977 481.038 C 503.624 478.373, 506.243 452.011, 505.856 442 C 505.514 433.167, 505.057 430.792, 502.975 427.039 C 496.286 414.980, 481.186 412.379, 436.500 415.585 M 432 447.590 C 430.075 448.422, 426.792 450.765, 424.705 452.797 C 420.932 456.473, 420.334 457.942, 414.660 477.500 C 413.583 481.215, 413.165 481.565, 408.799 482.408 L 404.099 483.317 401.445 494.408 C 397.197 512.163, 393.133 533.639, 391.807 545.339 C 390.654 555.515, 390.699 556.401, 392.540 559.839 C 396.901 567.983, 409.723 567.363, 417.784 558.618 C 420.836 555.308, 422.503 552.134, 424.488 545.856 C 428.128 534.344, 433.277 513.657, 436.619 497.111 L 439.418 483.257 443.959 482.379 L 448.500 481.500 450.376 470.600 C 453.520 452.329, 450.768 445.939, 439.800 446.039 C 437.435 446.061, 433.925 446.759, 432 447.590 M 288 657.500 L 288 675 293 675 L 298 675 298 670.465 L 298 665.930 308.238 666.215 C 317.597 666.476, 318.502 666.672, 318.777 668.500 C 319.755 675.002, 319.753 675, 325.019 675 L 330 675 330 670.547 C 330 668.098, 329.490 664.975, 328.867 663.608 C 327.971 661.642, 328.076 660.267, 329.367 657.040 C 331.442 651.856, 331.433 648.541, 329.335 644.990 C 326.684 640.502, 324.281 640, 305.453 640 L 288 640 288 657.500 M 338.348 650.656 C 338.707 656.516, 339 664.391, 339 668.156 L 339 675 358.125 675 L 377.250 675 376.625 671.875 C 376.281 670.156, 376 668.131, 376 667.375 C 376 666.276, 373.277 666, 362.430 666 C 348.930 666, 348.863 665.988, 349.180 663.750 C 349.489 661.574, 349.905 661.491, 361.750 661.219 L 374 660.938 374 657.500 L 374 654.062 361.750 653.781 C 350.171 653.515, 349.484 653.385, 349.200 651.399 C 348.928 649.492, 349.528 649.239, 355.700 648.656 C 359.440 648.303, 365.538 648.011, 369.250 648.007 L 376 648 376 644 L 376 640 356.848 640 L 337.696 640 338.348 650.656 M 388.117 641.631 C 384.575 644.112, 382.986 649.067, 383.118 657.218 C 383.290 667.754, 384.011 670.091, 387.901 672.712 C 391.028 674.819, 392.377 675, 405 675 C 417.611 675, 418.975 674.818, 422.102 672.717 C 424.916 670.827, 425.552 669.724, 425.803 666.302 C 426.057 662.851, 425.764 662.060, 424.031 661.510 C 420.952 660.533, 416.198 661.879, 414.583 664.185 C 413.308 666.005, 412.293 666.176, 404.631 665.856 C 399.403 665.638, 395.596 664.997, 394.800 664.200 C 394.054 663.454, 393.500 660.594, 393.500 657.486 C 393.500 649.857, 394.820 648.822, 404.784 648.643 C 411.476 648.523, 413.142 648.823, 414.972 650.477 C 417.078 652.380, 424.057 653.276, 425.504 651.829 C 425.848 651.486, 425.817 649.542, 425.436 647.509 C 424.244 641.155, 421.041 640.008, 404.473 640.004 C 393.118 640.001, 390.001 640.311, 388.117 641.631 M 437.669 642.045 C 434.304 644.693, 433.012 649.563, 433.006 659.634 L 433 667.767 437.003 671.384 L 441.006 675 455.753 674.985 C 472.104 674.969, 474.122 674.427, 477.720 669.088 C 479.644 666.233, 480 664.392, 480 657.302 C 480 641.633, 477.705 640, 455.685 640 C 441.670 640, 440.034 640.186, 437.669 642.045 M 487 657.500 L 487 675 492.500 675 C 497.910 675, 498 674.952, 498 672.082 C 498 666.234, 498.404 666, 508.477 666 L 517.740 666 519 670.500 L 520.260 675 525.130 675 L 530 675 530 670.191 C 530 667.546, 529.367 664.517, 528.594 663.460 C 527.431 661.868, 527.410 661.102, 528.474 659.018 C 530.656 654.743, 531.214 650.178, 530.002 646.507 C 527.965 640.333, 526.726 640, 505.777 640 L 487 640 487 657.500 M 538 657.500 L 538 675 556.777 675 C 576.796 675, 577.770 674.790, 582.217 669.531 C 584.518 666.808, 584.722 648.538, 582.484 645.580 C 578.575 640.414, 576.726 640.014, 556.750 640.007 L 538 640 538 657.500 M 592 657.500 L 592 675 597.500 675 L 603 675 603 657.500 L 603 640 597.500 640 L 592 640 592 657.500 M 611 657.500 L 611 675 615.969 675 L 620.938 675 621.219 662.831 L 621.500 650.662 631.366 662.831 L 641.232 675 649.616 675 L 658 675 658 666.654 C 658 662.063, 657.706 654.166, 657.347 649.104 L 656.693 639.900 652.597 640.200 L 648.500 640.500 647.781 650 C 647.386 655.225, 646.936 660.455, 646.781 661.622 C 646.562 663.277, 644.410 661.141, 637 651.914 L 627.500 640.085 619.250 640.042 L 611 640 611 657.500 M 669.524 642.385 C 666.096 645.813, 664.659 652.192, 665.375 660.800 C 666.474 674.005, 668.090 675, 688.435 675 C 702.881 675, 702.987 674.983, 706.029 672.250 C 708.753 669.803, 709.156 668.702, 709.690 662.250 L 710.290 655 698.645 655 L 687 655 687 657.902 C 687 660.704, 687.205 660.827, 693 661.500 C 697.059 661.971, 699 662.637, 699 663.560 C 699 667.409, 679.012 667.760, 676.971 663.946 C 675.904 661.952, 675.695 654.739, 676.606 651.343 C 677.138 649.361, 677.964 649.154, 686.842 648.787 C 695.093 648.445, 696.801 648.650, 698.564 650.194 C 699.851 651.319, 702.207 652, 704.814 652 C 708.772 652, 709 651.841, 709 649.082 C 709 641.154, 706.204 640, 687.004 640 C 672.430 640, 671.827 640.082, 669.524 642.385 M 721.225 642.004 C 717.265 644.418, 715.681 648.151, 716.516 653.096 C 717.644 659.772, 719.824 660.796, 733.703 661.171 C 746.669 661.521, 749.521 662.463, 746.959 665.550 C 744.927 667.997, 728.665 667.295, 726.752 664.677 C 725.765 663.326, 724.396 662.938, 721.460 663.177 C 717.696 663.484, 717.485 663.681, 717.196 667.143 C 716.940 670.214, 717.357 671.118, 719.850 672.893 C 722.508 674.786, 724.184 675, 736.339 675 C 743.781 675, 750.981 674.578, 752.339 674.061 C 756.881 672.334, 759 669.059, 759 663.766 C 759 657.741, 755.895 654.027, 750.795 653.951 C 741.937 653.821, 727.800 652.200, 726.800 651.200 C 723.716 648.116, 739.965 646.802, 746.895 649.575 C 749.059 650.441, 752.106 651.003, 753.665 650.825 C 756.026 650.554, 756.551 649.976, 756.805 647.366 C 757.040 644.944, 756.497 643.750, 754.420 642.116 C 751.980 640.196, 750.467 640, 738.115 640.004 C 726.272 640.007, 724.074 640.267, 721.225 642.004 M 298.193 653.250 C 298.384 655.890, 298.973 657.462, 299.750 657.400 C 300.438 657.345, 304.809 657.232, 309.465 657.150 C 316.819 657.020, 318.070 656.738, 319 655 C 319.760 653.579, 319.760 652.421, 319 651 C 318.039 649.204, 316.906 649, 307.907 649 L 297.885 649 298.193 653.250 M 444.887 651.750 C 443.785 654.601, 444.162 663.495, 445.439 664.772 C 445.839 665.172, 450.871 665.500, 456.620 665.500 C 468.516 665.500, 468.968 665.225, 468.971 658 C 468.974 648.828, 469.206 649, 456.859 649 L 445.950 649 444.887 651.750 M 499 652.856 L 499 656.712 507.124 657.390 C 515.922 658.124, 520 656.789, 520 653.177 C 520 649.758, 517.877 649, 508.300 649 L 499 649 499 652.856 M 549 657.500 L 549 666 553.750 665.993 C 556.362 665.989, 561.538 665.699, 565.250 665.348 L 572.001 664.711 573.059 660.781 C 574.375 655.895, 573.193 651.934, 569.921 650.265 C 568.524 649.552, 563.588 649.023, 558.250 649.015 L 549 649 549 657.500" stroke="none" fill="#0a0a0a" fill-rule="evenodd"/>
</svg>