<svg xmlns="http://www.w3.org/2000/svg" viewBox="201.49 263.99 635.96 524.59"><path fill="#0a0a0a" fill-rule="evenodd" d="M303.011 277.758c-8.292 3.667-8.569 3.902-12 10.199-5.003 9.183-6.882 10.045-23.01 10.56-12.553.401-13.395.562-18.662 3.575-11.033 6.313-13.379 9.709-18.238 26.408-1.12 3.85-4.121 10.6-6.668 15-8.668 14.973-9.442 18.533-10.118 46.5l-.591 24.5 6.138 14.136c3.376 7.775 6.138 14.431 6.138 14.791 0 1.428 16.327 40.287 18.252 43.439 1.143 1.872 7.923 7.711 15.277 13.155 12.597 9.327 19.487 16.295 31.471 31.829 1.888 2.447 3.918 3.607 8.294 4.738 3.186.823 11.511 4.114 18.5 7.312 6.988 3.199 13.831 6.135 15.206 6.526 1.375.39 7.675 3.137 14 6.103 17.395 8.159 35.684 15.933 43.5 18.489 3.85 1.26 7.9 2.849 9 3.531 4.861 3.016 20.557 8.451 24.406 8.451 3.691 0 33.996-4.115 41.469-5.631 1.607-.326 6.053-3.513 10.08-7.226 12.78-11.784 22.63-16.58 48.545-23.637 5.225-1.423 11.075-3.381 13-4.352 7.318-3.69 22.918-12.641 33.5-19.222 6.05-3.762 16.85-9.411 24-12.553l13-5.712 21-1.866c14.351-1.275 27.491-1.777 41.5-1.584 20.112.278 20.598.334 25.649 2.999 2.832 1.493 8.343 3.381 12.246 4.195s11.037 3.133 15.851 5.154c4.815 2.021 14.037 5.639 20.494 8.04s14.782 5.757 18.5 7.458c3.718 1.7 9.486 4.129 12.817 5.397s8.506 3.663 11.5 5.322 6.492 3.329 7.775 3.711c2.025.602 2.288.386 2-1.65-.251-1.774-2.002-3.169-7.207-5.742l-6.874-3.4 3.709-2.239c5.121-3.09 2.563-4.472-2.856-1.542l-4.104 2.218-12.556-5.983c-6.906-3.291-13.149-6.697-13.873-7.569S750.892 520 749.838 520c-2.477 0-10.101-3.854-11.138-5.63-.44-.754-1.358-1.37-2.04-1.37-.683 0-11.03-2.918-22.995-6.485-12.586-3.752-25.422-6.928-30.459-7.537-4.788-.579-21.981-1.148-38.206-1.265-28.442-.205-29.769-.129-37 2.128-7.393 2.308-18.929 7.781-40.5 19.216-6.05 3.207-24.5 11.734-41 18.949-32.477 14.202-43.464 19.738-64.399 32.448-7.481 4.542-15.401 8.853-17.601 9.581-9.67 3.199-24.185.376-38.945-7.575-4.43-2.386-17.505-8.208-29.055-12.939s-26.127-11.557-32.393-15.169-16.535-8.742-22.82-11.4c-13.754-5.816-25.025-12.659-29.542-17.937-1.83-2.138-6.234-5.526-9.787-7.528-3.552-2.001-7.534-4.617-8.849-5.813-4.234-3.849-10.494-14.544-25.906-44.263-13.89-26.784-15.264-29.915-17.328-39.5-1.628-7.558-2.28-14.111-2.379-23.911-.105-10.377-.64-15.389-2.316-21.667-2.715-10.17-2.814-15.699-.325-18.188 1.02-1.02 5.033-3.101 8.918-4.625 9.116-3.577 15.46-3.034 18.066 1.548 1.623 2.852 5.161 4.071 5.161 1.778 0-.634-1.705-2.772-3.789-4.75s-5.662-6.521-7.951-10.096c-9.697-15.15-9.198-18.29 4.403-27.657 4.523-3.115 6.369-3.804 9.834-3.67 8.59.332 20.436 9.099 29.047 21.497 6.047 8.706 6.479 10.446 4.042 16.278-1.168 2.797-2.237 3.642-5.76 4.553a354 354 0 0 0-5.856 1.556c-.841.241-2.038 1.785-2.659 3.431-2.007 5.317-9.597 6.632-14.493 2.512-6.738-5.669-5.298-1.597 1.767 5 1.768 1.65 3.526 4.049 3.908 5.332.602 2.025.386 2.288-1.65 2-1.665-.236-3-1.707-4.612-5.082-2.394-5.01-4.94-6.745-3.206-2.185 1.304 3.43 1.408 3.263-2.275 3.651-3.151.332-3.044.445 3.517 3.698 10.139 5.027 15.817 11.764 24.133 28.636 8.048 16.326 9.6 20.871 9.6 28.109 0 2.938.45 5.341 1 5.341s1-.45 1-1c0-1.786 2.776-1.059 5.857 1.533 2.82 2.373 4.098 5.062 5.579 11.742.81 3.658 3.979 6.725 6.947 6.725 1.677 0 3.382 1.362 5.75 4.594 1.852 2.527 5.504 7.032 8.117 10.011s4.75 6.086 4.75 6.906c0 .899.937 1.489 2.365 1.489 1.301 0 3.593.966 5.094 2.147s4.793 2.532 7.315 3.003 7.395 1.98 10.827 3.353S367.616 484 369.786 484c4.464 0 8.436 2.595 10.714 7 1.122 2.17 1.961 2.692 3.627 2.256 1.946-.508 2.096-.281 1.469 2.219-.539 2.147-.177 3.343 1.58 5.212 1.541 1.64 2.448 4.109 2.802 7.62.454 4.518.782 5.146 2.522 4.828 2.294-.419 11.765-.203 12.247.278.972.973-2.213 10.458-4.226 12.587-1.301 1.375-2.662 4.121-3.026 6.102-.62 3.373-.419 3.753 3.171 5.984 2.109 1.31 4.161 2.536 4.562 2.724.4.188 1.461-1.492 2.358-3.734 1.726-4.313 3.414-5.373 3.414-2.143 0 2.371 3.013 3.443 7.134 2.538 2.951-.649 3.061-.851 2.469-4.554-.563-3.519-.393-3.932 1.848-4.494 4.077-1.023 4.93-2.928 1.925-4.298-2.213-1.008-2.815-.918-3.961.593-1.274 1.679-1.353 1.662-1.383-.299-.018-1.144 1.008-4.134 2.278-6.644l2.311-4.564-2.561-3.114c-1.408-1.713-3.339-3.111-4.291-3.106-1.683.009-2.391-1.647-2.989-6.991-.154-1.375-.805-2.5-1.447-2.5-.641 0-1.504-.337-1.916-.75-.413-.412.193-.75 1.345-.75 2.568 0 4.523 1.86 6.193 5.89 1.028 2.484 1.599 2.884 3.025 2.121 2.313-1.238 3.02-.383 3.02 3.656 0 3.731.785 4.012 5.05 1.807 3.261-1.686 3.479-2.594 1.814-7.575-2.238-6.696-5.008-8.499-15.173-9.876-11.196-1.517-17.218-3.7-24.715-8.958-3.145-2.207-16.24-9.265-29.098-15.684-26.422-13.192-41.113-21.378-45.09-25.126-3.973-3.745-5.473-11.413-3.902-19.94 1.457-7.907 2.787-10.66 8.135-16.839 2.824-3.263 3.867-5.254 3.447-6.577-.736-2.318.385-2.482 1.987-.292 1.07 1.464 1.617 1.421 6.11-.475 10.51-4.434 20.79-5.213 34.097-2.583 8.564 1.693 24.708 4.28 25.055 4.016.119-.091-.137-1.493-.569-3.115-.632-2.375-1.454-3.053-4.216-3.477-3.294-.506-3.344-.576-1.248-1.75 3.914-2.191 5.385-1.467 7.581 3.731 2.326 5.505 3.736 6.339 19.434 11.487 4.509 1.479 9.684 3.78 11.5 5.113 8.482 6.227 12.405 8.446 14.932 8.446 1.506 0 4.006.498 5.554 1.107 1.548.608 8.665 2.163 15.815 3.454l13 2.347 3.72-4.204c4.319-4.881 5.416-2.802 1.179 2.234-1.503 1.786-2.351 3.745-2.007 4.64.674 1.759 2.608.995 2.608-1.03 0-1.782 2.041-2.453 4.5-1.48 4.898 1.938 17.698.008 22.568-3.403 1.405-.984 3.288-1.344 5.118-.978 2.797.56 2.886.458 2.651-3.045-.17-2.513.296-4.018 1.518-4.912.969-.709 2.301-3.751 2.96-6.759 1.189-5.431 1.248-5.497 8.108-9.029 3.8-1.957 7.605-4.657 8.454-6s2.8-3.92 4.334-5.727c1.813-2.135 2.781-4.41 2.767-6.5l-.022-3.215L540 380c-1.076 1.375-1.966 1.933-1.978 1.241-.035-1.976 10.275-13.053 12.241-13.152 1.131-.057 2.612-2.012 4.138-5.461 1.307-2.955 2.876-5.681 3.487-6.059 2.347-1.45.914-4.494-4.138-8.793-6.214-5.286-8.807-6.765-11.934-6.806-1.79-.024-1.976-.225-.816-.884 3.126-1.78 12.232-3.008 34.565-4.663l23.066-1.71 11.934 2.197c12.734 2.343 19.057 4.424 29.435 9.687 7.764 3.938 29.828 12.08 42.869 15.82 10.385 2.978 33.267 13.941 32.879 15.751-.136.635 1.552 1.808 3.752 2.607s6.7 2.513 10 3.808c5.868 2.304 65.513 21.417 66.832 21.417.367 0 .668-1.697.668-3.771v-3.771l-11.622-4.979c-6.393-2.738-13.48-5.729-15.75-6.646-6.508-2.629-29.246-9.491-39.093-11.797-4.931-1.156-13.256-4.052-18.5-6.436s-12.685-5.356-16.535-6.604-9.925-3.953-13.5-6.011-9.742-4.906-13.705-6.327c-3.963-1.42-10.263-4.164-14-6.096s-11.745-4.853-17.795-6.492c-6.05-1.638-15.725-4.593-21.5-6.566-13.542-4.628-25.85-5.821-57.5-5.574-13.2.103-29.175.225-35.5.272-6.325.046-18.025-.689-26-1.634s-23.5-2.078-34.5-2.517c-12.104-.483-23.158-1.476-28-2.515-4.4-.944-13.475-2.05-20.168-2.457-8.729-.532-12.893-1.217-14.736-2.424-1.412-.925-5.387-1.958-8.832-2.294-5.149-.502-7.599-1.448-13.764-5.314-4.125-2.587-10.2-6.198-13.5-8.026-12.461-6.901-22.452-13.161-26.983-16.906-4.756-3.929-6.901-4.568-19.017-5.66-4.19-.378-6.376.157-13.489 3.303m2.989 4.034c-5.355 2.249-6.824 3.391-8.341 6.487-1.463 2.985-1.63 4.366-.813 6.711 1.413 4.052 24.926 36.818 27.354 38.117 1.423.762 4.534.586 11.351-.642 9.528-1.715 10.951-2.439 11.592-5.898.197-1.064 2.158-2.955 4.358-4.203 5.058-2.869 5.126-2.898 10.399-4.335l4.4-1.199-12.4-12.495c-17.807-17.942-28.696-25.303-37.4-25.281-2.2.005-6.925 1.238-10.5 2.738m62.015 37.744c.028 1.721 1.856 3.927 2.621 3.161.41-.409-.016-1.505-.946-2.435s-1.683-1.257-1.675-.726m-84.332 10.114c-.375.376-.683 1.771-.683 3.1 0 2.768 2.3 2.615 2.844-.189.383-1.976-1.099-3.973-2.161-2.911M412 332.031c0 1.391 2.626 2.318 4.059 1.433.842-.521.788-.946-.202-1.574-1.861-1.179-3.857-1.106-3.857.141m92.459 1.036c-1.076 1.741.149 2.11 1.521.457.789-.95.865-1.524.201-1.524-.584 0-1.36.48-1.722 1.067m-203.709 1.015c-.962.56-1.75 1.406-1.75 1.881 0 1.184 4.939-.221 5.056-1.438.137-1.418-1.298-1.61-3.306-.443M486 334c-1.105.714-.447.969 2.5.969s3.605-.255 2.5-.969c-.825-.533-1.95-.969-2.5-.969s-1.675.436-2.5.969m-126.954 2.914c-.774 1.447-.789 2.086-.05 2.086 1.213 0 2.533-2.805 1.709-3.629-.299-.298-1.045.396-1.659 1.543m93.198-.25c-2.085.841-.321 2.336 2.756 2.336 3.595 0 4.744-1.567 1.739-2.373-2.515-.674-2.736-.672-4.495.037M321 338c-1.333.862-1.333.969 0 .969.825 0 2.175-.436 3-.969 1.333-.862 1.333-.969 0-.969-.825 0-2.175.436-3 .969m204.5 0c2.752 1.183 3.731 1.183 3 0-.34-.55-1.604-.968-2.809-.93-2.112.068-2.119.101-.191.93m-127.717 1.235c1.687.813 2.586.796 3.45-.068.889-.889.347-1.151-2.283-1.099-3.24.063-3.311.134-1.167 1.167m6.776 3.233c2.539 1.921 4.025 1.94 2.441.032-.685-.825-1.951-1.5-2.814-1.5-1.255 0-1.181.293.373 1.468m185.937 5.459c-1.212 1.199-5.118 2.615-9.946 3.606-7.855 1.611-12.487 3.512-19.8 8.126-4.229 2.669-4.82 4.341-1.533 4.341 3.576 0 10.783-3.147 10.783-4.708 0-1.089.639-.934 2.635.635 3.567 2.806 4.185 2.625 4.012-1.177-.147-3.245-.137-3.252 6.353-4.339 3.575-.598 6.921-.717 7.436-.263s1.658.172 2.541-.627c1.402-1.269 1.961-1.266 4.448.024 2.162 1.122 3.176 1.201 4.226.33.847-.703 4.721-1.073 10.024-.956 10.212.225 19.714 2.99 43.341 12.61 8.533 3.475 20.143 7.49 25.799 8.924 11.372 2.883 19.703 6.01 36.474 13.693 12.495 5.724 27.654 11.023 56.887 19.888 20.965 6.357 22.824 6.732 22.824 4.605 0-.899-5.526-2.97-16.25-6.093-20.413-5.943-36.929-11.442-61.75-20.557-10.725-3.939-26.475-9.561-35-12.493s-21.673-8.027-29.218-11.322c-22.434-9.795-29.498-11.638-49.163-12.826-7.574-.457-11.439-1.106-12.123-2.033-.824-1.119-1.361-1.009-3 .612M326 349.154c0 2.388 3.569 5.053 6.168 4.605 2.231-.385 2.202-.455-.668-1.626-1.65-.672-3.562-1.964-4.25-2.869-1.076-1.418-1.25-1.433-1.25-.11m143.5 1.464-3 2.545 3.187-1.574c1.752-.866 3.466-2.028 3.809-2.582 1.121-1.815-.936-.986-3.996 1.611M239 352c0 .55.927 1 2.059 1s1.781-.45 1.441-1-1.266-1-2.059-1-1.441.45-1.441 1m193.5 0c.34.55 1.465 1 2.5 1s2.16-.45 2.5-1c.362-.585-.676-1-2.5-1s-2.862.415-2.5 1m-30.5 1c0 .55.873 1 1.941 1s2.219-.45 2.559-1c.351-.567-.49-1-1.941-1-1.407 0-2.559.45-2.559 1m-61.025 1.375c1.177 1.178 5.937 1.113 7.147-.097.629-.629-.613-.938-3.525-.875-2.569.055-4.121.472-3.622.972m100.045 1.101c-.789.95-.865 1.524-.201 1.524 1.208 0 2.617-1.897 1.924-2.591-.252-.251-1.027.229-1.723 1.067m-215.621 2.071c-.573 2.284.04 4.437.96 3.37 1.014-1.176 1.558-5.917.679-5.917-.55 0-1.288 1.146-1.639 2.547M312 357c0 1.1.45 2 1 2s1-.9 1-2-.45-2-1-2-1 .9-1 2m159.5-1c.34.55 1.041 1 1.559 1s.941-.45.941-1-.702-1-1.559-1-1.281.45-.941 1m-63.5 1c-3.273.689-3.163.745 1.691.868 2.855.073 5.469-.318 5.809-.868.692-1.119-2.182-1.119-7.5 0m87.99.981c1.232 2.302 3.51 2.26 3.51-.064 0-.78-1.048-1.565-2.328-1.747-2.095-.297-2.213-.116-1.182 1.811M429 359.932c1.616.938 4.589 1.411 7 1.113 2.448-.303-2.066-1.899-5.5-1.944-2.174-.029-2.587.2-1.5.831m38.39.525c-2.006 1.467-1.827 2.219.61 2.566 4.819.686 6.674-1.057 3.138-2.949-1.329-.712-2.401-.602-3.748.383M250 361.497c-1.925.717-5.392 1.81-7.705 2.43-5.129 1.374-10.295 5.529-10.295 8.281 0 1.806.355 1.683 3.23-1.128 2.924-2.86 7.036-4.531 16.02-6.512 1.87-.412 2.75-1.24 2.75-2.587 0-1.09-.113-1.937-.25-1.884s-1.825.684-3.75 1.4m172 .256c0 1.842 4.699 5.3 6.345 4.668.91-.349 1.655-1.085 1.655-1.635s-.646-.752-1.436-.449-2.59-.356-4-1.465c-1.41-1.11-2.564-1.613-2.564-1.119m-78 1.566c0 1.866 1.631 3.087 2.42 1.811.307-.497-.112-1.459-.931-2.139-1.211-1.005-1.489-.944-1.489.328m69-.319c1.97 1.273 4.287 1.273 3.5 0-.34-.55-1.604-.993-2.809-.985-1.781.013-1.91.197-.691.985m-134.875 2.836c-1.456 2.642-1.188 3.439.752 2.24.726-.449 1.143-1.662.928-2.696-.356-1.705-.513-1.662-1.68.456m20.462-.523c-1.403 1.026-1.571 1.579-.651 2.147 1.445.893 3.46-.771 2.915-2.407-.26-.78-.95-.701-2.264.26m225.099-.229c-4.671 1.29-7.774 4.916-4.206 4.916 2.174 0 9.52-3.088 9.52-4.002 0-1.324-2.358-1.73-5.314-.914M458 367.559c0 .857.45 1.281 1 .941s1-1.041 1-1.559-.45-.941-1-.941-1 .702-1 1.559m-153 1.024c0 1.766 2.153 1.459 2.771-.395.218-.654-.317-1.188-1.188-1.188s-1.583.712-1.583 1.583m47.25-.87c-3.406.645-2.695 2.016 1.285 2.481 2.716.317 3.47.072 3.25-1.058-.328-1.693-1.375-2.022-4.535-1.423m187.901 1.676c-1.296 3.103-.791 4.651.95 2.91.588-.588.886-2.133.662-3.434-.398-2.317-.43-2.306-1.612.524m13.829-.865c-.696.838-1.04 1.749-.766 2.024.818.817 3.589-.593 4.177-2.125.73-1.903-1.811-1.827-3.411.101m-183.437.406c-.286.463.374 1.077 1.468 1.363s1.989.16 1.989-.28c0-1.175-2.848-2.067-3.457-1.083M292 370.5c-1.039 1.252-.899 1.5.846 1.5 1.448 0 1.914-.461 1.516-1.5-.317-.825-.698-1.5-.847-1.5-.148 0-.83.675-1.515 1.5m404 .331c0 1.033 3.167 2.696 8.876 4.662 7.567 2.606 7.913 1.475.624-2.04-7.148-3.447-9.5-4.096-9.5-2.622M283.5 373c-.34.55.309 1 1.441 1s2.059-.45 2.059-1-.648-1-1.441-1-1.719.45-2.059 1m262.413.872c-3.069 2.488-2.125 3.446 2.535 2.572 2.625-.493 3.565-1.14 3.341-2.303-.458-2.378-3.124-2.5-5.876-.269m-222.419 1.137c-.342.555-.349 1.871-.015 2.926.4 1.258-.005 2.26-1.177 2.916-2.036 1.139-1.335 2.483.857 1.642 2.001-.768 4.058-8.493 2.261-8.493-.716 0-1.583.454-1.926 1.009m81.539-.259c.045 1.013 3.624 5.25 4.434 5.25.355 0-.151-1.35-1.126-3-1.651-2.794-3.384-3.974-3.308-2.25m41.572 1.08c-.32.518.556 1.159 1.946 1.425 1.595.304 2.391.07 2.156-.636-.484-1.453-3.351-2.004-4.102-.789m49.02.968c-.271.439-.08 1.451.426 2.25.717 1.134.922.959.934-.798.015-2.313-.493-2.856-1.36-1.452m-183.452 3.452c-.554 2.035-1.406 3.111-2.279 2.878-.767-.204-2.242-.61-3.278-.902-2.989-.84-1.44 1.972 2.282 4.147 3.953 2.308 4.876 1.557 5.728-4.663.757-5.521-1.055-6.599-2.453-1.46M386.5 378c-.362.585.676 1 2.5 1s2.862-.415 2.5-1c-.34-.55-1.465-1-2.5-1s-2.16.45-2.5 1m40.5 1.064c-2.315 1.809-2.888 1.852-7.75.591-3.989-1.035-5.25-1.074-5.25-.164 0 1.584 3.829 5.013 4.664 4.178.359-.358 1.237-.166 1.953.428 1.781 1.478 7.394.12 8.024-1.941.278-.911.926-2.444 1.44-3.406 1.208-2.259.063-2.142-3.081.314m-24.98.412c-.789.95-.865 1.524-.201 1.524 1.208 0 2.617-1.897 1.924-2.591-.252-.251-1.027.229-1.723 1.067M609.5 379c.34.55 1.041 1 1.559 1s.941-.45.941-1-.702-1-1.559-1-1.281.45-.941 1M498 380c0 .55.648 1 1.441 1s1.719-.45 2.059-1-.309-1-1.441-1-2.059.45-2.059 1m-266.529 4.123c1.076 6.829 2.753 12.51 3.267 11.07.667-1.869-1.776-14.098-2.963-14.832-.639-.395-.747.95-.304 3.762M329.5 382c-.351.567.49 1 1.941 1 1.407 0 2.559-.45 2.559-1s-.873-1-1.941-1-2.219.45-2.559 1m45.5 0c0 1.253 1.061 1.253 3 0 1.213-.784 1.069-.972-.75-.985-1.238-.008-2.25.435-2.25.985m5.75 2.064c-1.512 1.545-2.75 3.013-2.75 3.264 0 .896 5.303 1.767 5.952.977.364-.443.411-2.21.105-3.927l-.557-3.122zm-44.005 1.191c-2.5 1.944-3.087 2.023-6.335.849-2.205-.798-4.986-1.023-7.245-.587-3.581.692-3.608.731-1.165 1.676l2.5.967-3.5 3.054c-2.063 1.8-2.679 2.734-1.5 2.275 1.1-.428 2.788-.809 3.75-.848s1.75-.622 1.75-1.296c0-2.195 2.032-2.554 4.67-.826 2.13 1.396 2.732 1.455 3.44.336.473-.745.866-1.59.875-1.878.008-.287 1.62-1.387 3.582-2.443 2.942-1.584 4.083-1.727 6.5-.815 3.262 1.232 4.029-.062.999-1.684-2.859-1.53-5.235-1.182-8.321 1.22M392 383.946c0 .559 1.238 1.287 2.75 1.618 4.827 1.058 5.429 1.406 5.962 3.441.688 2.634 2.798 2.532 4.731-.228 2.952-4.213 2.122-5.115-4.111-4.472-3.118.322-6.493.144-7.5-.395-1.217-.651-1.832-.639-1.832.036m111.655 1.422c-.414 1.577-.516 3.104-.227 3.393.805.805 1.789-2.415 1.361-4.453-.281-1.333-.579-1.054-1.134 1.06m-134.738.715c-1.146 1.146-1.808 2.36-1.47 2.697.337.338 1.827-.6 3.311-2.083s2.144-2.697 1.469-2.697-2.164.938-3.31 2.083m63.663 1.665c-.362 1.141-2.216 3.262-4.119 4.714-1.904 1.452-3.461 3.064-3.461 3.582 0 .708 7.026-3.99 9.842-6.58.188-.173-.096-1.096-.631-2.052-.894-1.596-1.026-1.569-1.631.336m-16.482 1.502c2.038 3.928 2.983 4.746 4.239 3.674.64-.546 2.063-1.638 3.163-2.426 1.881-1.349 1.78-1.436-1.691-1.466-2.03-.018-3.969-.482-4.309-1.032-1.283-2.075-2.545-.95-1.402 1.25m59.247-.707c-.816 2.126.524 3.458 3.464 3.442 2.995-.017 5.984-1.525 4.991-2.518-.353-.353-2.282-1.012-4.287-1.464-2.739-.618-3.775-.484-4.168.54m-100.595 2.675c-4.239 1.462-3.269 2.559 2.192 2.476 4.876-.073 5.563-.853 2.252-2.553-.982-.505-2.85-.472-4.444.077M481 394c0 .55.648 1 1.441 1s1.719-.45 2.059-1-.309-1-1.441-1-2.059.45-2.059 1m-21.273.606c-.966.967.378 3.394 1.88 3.394.766 0 1.393-.395 1.393-.878 0-1.247-2.568-3.221-3.273-2.516M543 395.933c0 1.215 3.689 2.377 4.991 1.573 1.979-1.224.96-2.506-1.991-2.506-1.65 0-3 .42-3 .933m-143.5.981c3.246 1.278 9.5 2.028 9.5 1.14 0-1.112-3.744-2.037-8-1.977-2.757.039-3.075.217-1.5.837m68.044 2.014c-.701 1.135 3.038 2.449 4.463 1.567.564-.348.767-1.052.45-1.564-.744-1.204-4.169-1.206-4.913-.003M293.5 402c-.34.55.282 1 1.382 1s2.278-.45 2.618-1-.282-1-1.382-1-2.278.45-2.618 1m17.5 2c-.793.49-1.217 1.116-.942 1.391s1.149.099 1.942-.391 1.217-1.116.942-1.391-1.149-.099-1.942.391m146.022-.25c.012.413.848 1.824 1.857 3.136 2.142 2.786 3.831 1.309 2.132-1.865-1.024-1.915-4.036-2.874-3.989-1.271m17.675.95c-1.431.371-1.561.759-.628 1.884 1.622 1.953 3.298 1.773 5.431-.584 1.763-1.948 1.748-1.997-.595-1.884-1.323.064-3.216.326-4.208.584m-42.651 4.386c.614 1.147 1.36 1.841 1.659 1.543.824-.824-.496-3.629-1.709-3.629-.739 0-.724.639.05 2.086M387 410c1.263 2.36 3.489 2.717 2.607.418-.334-.87-.607-1.77-.607-2s-.691-.418-1.535-.418c-1.225 0-1.319.404-.465 2m100.122-1.096c-.758.48-1.068 1.374-.689 1.987.793 1.284 4.567-.308 4.567-1.926 0-1.195-2.037-1.227-3.878-.061m-21.853 2.357c-1.496 1.934-2.297 4.739-1.353 4.739 1.335 0 4.166-4.831 3.186-5.437-.481-.297-1.307.017-1.833.698m-226.037 5.989c.322 3.984 1.851 9.513 4.217 15.25 3.884 9.417 16.58 33.674 24.338 46.5a739 739 0 0 1 8.788 15c2.338 4.125 5.21 8.625 6.382 10l2.131 2.5-2-4.123c-1.1-2.268-5.192-9.468-9.094-16-3.901-6.533-9.073-15.951-11.492-20.93-2.419-4.98-6.881-13.255-9.915-18.389-5.478-9.27-8.986-18.116-10.038-25.308-1.39-9.497-1.708-10.75-2.731-10.75-.727 0-.923 2.092-.586 6.25m202.249-3.761c-1.884 1.471-1.81 1.533 1.519 1.279 1.925-.148 3.411-.718 3.303-1.268-.326-1.652-2.714-1.658-4.822-.011m9.551 1.45c-.695 1.3-.705 2.145-.028 2.564.556.343 1.28-.08 1.61-.94.33-.859 1.452-1.563 2.493-1.563s1.893-.45 1.893-1c0-1.828-4.899-1.057-5.968.939M520 416.093c-4.26 1.939-4.396 2.125-2.559 3.478 1.068.786 3.993 1.465 6.5 1.508s3.884.327 3.059.63c-.825.304-2.313 1.261-3.306 2.127-1.46 1.274-2.175 1.345-3.736.37-2.644-1.651-4.627-1.512-5.351.376-1.124 2.929-.62 5.292 1.707 7.997 2.052 2.385 2.576 2.55 4.622 1.455 1.321-.707 3.641-.969 5.425-.612 1.714.343 5.709.33 8.877-.028 5.046-.571 5.762-.922 5.762-2.823 0-1.194-.559-2.73-1.242-3.413-.988-.988-.983-1.401.03-2.027.903-.558-.313-2.283-4.199-5.958-6.22-5.883-8.46-6.326-15.589-3.08m-218.25 1.811c-2.656 2.528-3.626 5.096-1.924 5.096 1.517 0 5.36-4.802 5.015-6.267-.256-1.084-1.03-.791-3.091 1.171m200.595 2.639c-.81 2.11.542 3.25 1.694 1.428 1.224-1.936 1.2-2.971-.07-2.971-.568 0-1.298.694-1.624 1.543M532 423c-1.165.753-.872.973 1.309.985 1.621.009 2.548-.408 2.191-.985-.767-1.242-1.579-1.242-3.5 0m-1.393 3.582c-.871 2.27-.748 3.623.272 2.993 1.187-.734 2.139-4.575 1.134-4.575-.439 0-1.072.712-1.406 1.582m-28.94 1.085c-1.417 1.416-.549 2.333 2.211 2.333 1.582 0 3.437-.675 4.122-1.5 1.066-1.284.748-1.5-2.211-1.5-1.901 0-3.756.3-4.122.667m-92.447 8.341L406.94 440l2.78-.006c2.054-.005 3.237-.809 4.53-3.081 2.298-4.037 2.208-4.915-.5-4.905-1.573.005-2.936 1.209-4.53 4M292 435.559c0 .857.45 1.281 1 .941s1-1.041 1-1.559-.45-.941-1-.941-1 .702-1 1.559m195.8 1.641c.933.933 1.467.933 2.4 0s.667-1.2-1.2-1.2-2.133.267-1.2 1.2m-189.55.506c-1.238.238-2.25.882-2.25 1.43 0 1.425 5.264.614 5.756-.886.226-.687.036-1.189-.423-1.114s-1.845.331-3.083.57M480 448.826c0 1.222 4.441 5.174 5.814 5.174 2.07 0 1.28-2.709-1.279-4.385-2.69-1.763-4.535-2.084-4.535-.789m-135.306 14.813c-1.038 1.038.274 2.361 2.34 2.361 1.571 0 1.814.511 1.349 2.837-.428 2.14.061 3.552 1.993 5.75 2.373 2.7 2.563 2.757 2.592.785.018-1.17-.652-2.695-1.487-3.388-1.06-.879-1.337-2.236-.915-4.484.522-2.78.284-3.308-1.731-3.847-2.962-.793-3.36-.795-4.141-.014m21.849 9.292c-.683 1.105.894 2.299 1.818 1.375.95-.951.773-2.306-.302-2.306-.518 0-1.2.419-1.516.931m25.802 21.612c-.326.849-.322 1.813.007 2.143.713.712 3.648-1.548 3.648-2.808 0-1.51-3.032-.957-3.655.665m8.356.089c-.385.386-.701 1.526-.701 2.535 0 1.302.745 1.833 2.57 1.833 2.089 0 2.509-.418 2.25-2.24-.317-2.217-2.765-3.482-4.119-2.128m35.544 2.888c2.04 1.387 5.182 2.797 6.982 3.135s4.777 1.732 6.614 3.1l3.342 2.486 2.868-2.12c5.035-3.723 9.832-2.723 39.949 8.328 10.175 3.733 20.3 6.989 22.5 7.234 4.498.502-4.269-2.888-33-12.761-14.061-4.831-19.248-6.112-30-7.41-7.15-.863-14.697-2.231-16.77-3.04-5.645-2.204-6.648-1.78-2.485 1.048m133.038 6.094c-7.03 3.637-15.483 8.091-18.783 9.897-7.678 4.201-15.396 6.465-22.432 6.579-5.45.088-5.494.112-2.068 1.105 8.014 2.324 13.097.765 37.779-11.584C576.55 503.22 587 497.769 587 497.496c0-1.884-6.769.454-17.717 6.118m-161.952-.033c-.356.926-1.354 1.385-2.412 1.108-.993-.26-2.437.267-3.21 1.169-3.002 3.509-2.806 3.892 1.568 3.063 3.42-.648 4.468-.48 5.512.884 1.128 1.473 1.409 1.497 2.235.19 1.348-2.132 1.197-2.995-.524-2.995-1.774 0-1.847-.482-.465-3.066.819-1.529.708-1.934-.531-1.934-.862 0-1.84.711-2.173 1.581m-106.261 1.835c-.942 1.134-.742 1.553 1.002 2.107 2.022.642 3.87-.668 3.913-2.773.026-1.311-3.693-.807-4.915.666M415 513.93c0 .55.9 1.481 2 2.07 1.286.688 2 .714 2 .07 0-.55-.9-1.481-2-2.07-1.286-.688-2-.714-2-.07m147.016 191.179c-17.313 2.639-28.174 12.836-26.516 24.893.357 2.592 1.487 6.092 2.512 7.777 3.978 6.541 16.093 10.933 36.488 13.228 12.307 1.385 15.5 2.285 15.5 4.37 0 2.197-5.519 3.626-13.899 3.599-9.656-.032-14.819-1.233-23.773-5.532-3.944-1.894-7.544-3.417-8-3.385-.455.032-3.226 2.941-6.157 6.462-3.78 4.542-5.155 6.954-4.73 8.293.777 2.449 13.919 8.606 23.059 10.803 9.902 2.38 31.058 2.412 38.635.058C608.278 771.593 615 763.958 615 753.112c0-15.378-8.779-20.222-43.316-23.904-9.265-.988-12.043-2.247-9.836-4.458.774-.776 4.953-1.378 11.01-1.588 8.528-.295 10.702-.004 17.202 2.302 12.145 4.309 10.911 4.568 17.209-3.607l5.631-7.307-4.821-2.783c-9.925-5.73-31.597-8.863-46.063-6.658m94.484-.463c-6.715.729-19.367 5.372-23.803 8.737-5.027 3.813-10.223 11.243-11.861 16.96-1.777 6.204-1.219 17.558 1.177 23.962 5.871 15.693 22.838 24.183 46.487 23.262 25.476-.993 40.697-12.91 42.221-33.056.714-9.447-.964-16.15-5.892-23.529-4.596-6.883-12.25-12.075-21.259-14.422-6.184-1.611-20.518-2.624-27.07-1.914M214 741v35h11.378c8.843 0 11.652-.331 12.61-1.485.838-1.011 1.129-4.448.909-10.75-.178-5.096-.227-13.084-.11-17.751l.213-8.485 18.688 19.344 18.688 19.345 9.872-.397c7.242-.291 10.118-.786 10.796-1.859.517-.817.932-15.874.941-34.14l.015-32.678-5.61-.701c-5.817-.727-16.458-.137-18.322 1.015-.683.422-1.082 6.49-1.106 16.851l-.039 16.191-16.711-17.284-16.712-17.285-12.75.035L214 706zm108.75-34.22c-9.196.202-12.757.62-12.777 1.5-.402 18.363-.073 65.954.46 66.487.403.403 17.232.733 37.4.733H384.5v-18l-24.674-.267-24.675-.268-.649-2.958c-1.146-5.216-.63-5.36 16.899-4.687 8.854.34 17.674.276 19.599-.142l3.5-.76V732.5l-20.25-.271-20.25-.27v-2.863c0-2.123.581-3.018 2.25-3.466 1.238-.331 12.488-.609 25-.616L384 725v-18l-5.25-.144c-10.922-.301-43.748-.345-56-.076m65.129.866c-.9 1.084-.883 2.047.072 4.134.686 1.496 3.271 8.345 5.746 15.22a4232 4232 0 0 0 9.295 25.5c2.638 7.15 5.366 14.918 6.064 17.262.697 2.344 1.821 4.721 2.498 5.283.729.605 6.043.905 13.053.738l11.823-.283 3.926-12c8.348-25.52 8.964-27.058 9.777-24.416 9.942 32.291 10.97 35.004 13.637 36.019 2.419.92 21.781.749 22.607-.199 1.202-1.38 3.385-6.753 7.622-18.762 2.647-7.503 7.555-21.044 10.907-30.091S511 708.804 511 707.83c0-1.598-1.163-1.766-11.944-1.72-8.331.036-12.261.432-12.99 1.311-1.175 1.415-11.066 33.956-11.066 36.405 0 3.737-2.162-1.37-7.548-17.826-3.151-9.625-6.427-18.062-7.281-18.75-1.015-.817-5.086-1.25-11.74-1.25h-10.187l-2.048 5.75a500 500 0 0 0-3.372 9.801l-4.324 13.235c-1.65 5.051-3.329 9.191-3.731 9.199s-.992-1.222-1.31-2.735-.997-3.522-1.507-4.466-1.336-3.419-1.837-5.5c-1.608-6.684-6.147-21.475-7.184-23.414-.9-1.681-2.205-1.866-12.442-1.758-8.52.089-11.736.48-12.61 1.534m334.383-.943-3.238.422.005 33.411c.004 32.737.046 33.434 2.07 34.517 1.391.745 5.625.874 12.983.397l10.918-.707V707l-7.75-.014c-4.263-.007-8.65-.169-9.75-.359s-3.457-.156-5.238.076m34.192 1.555c-.265.692-.363 15.88-.218 33.75l.264 32.492 33.444.745c26.249.584 33.615.477 34.235-.5.944-1.486 1.044-9.76.182-14.975l-.616-3.73-20.623-.27-20.622-.27-.546-24c-.3-13.2-.637-24.112-.75-24.25s-5.618-.25-12.235-.25c-8.744 0-12.164.344-12.515 1.258M653.989 727.25c-11.464 5.816-11.295 22.531.282 27.786 5.347 2.427 15.522 2.5 21.729.155 3.615-1.365 4.943-2.577 6.75-6.157 3.74-7.409 2.673-14.623-2.905-19.645-5.483-4.938-18.257-5.994-25.856-2.139"/></svg>