<svg xmlns="http://www.w3.org/2000/svg" width="1038" height="1039" viewBox="0 0 1038 1039" version="1.1">
	<path d="M 303.011 277.758 C 294.719 281.425, 294.442 281.660, 291.011 287.957 C 286.008 297.140, 284.129 298.002, 268.001 298.517 C 255.448 298.918, 254.606 299.079, 249.339 302.092 C 238.306 308.405, 235.960 311.801, 231.101 328.500 C 229.981 332.350, 226.980 339.100, 224.433 343.500 C 215.765 358.473, 214.991 362.033, 214.315 390 L 213.724 414.500 219.862 428.636 C 223.238 436.411, 226 443.067, 226 443.427 C 226 444.855, 242.327 483.714, 244.252 486.866 C 245.395 488.738, 252.175 494.577, 259.529 500.021 C 272.126 509.348, 279.016 516.316, 291 531.850 C 292.888 534.297, 294.918 535.457, 299.294 536.588 C 302.480 537.411, 310.805 540.702, 317.794 543.900 C 324.782 547.099, 331.625 550.035, 333 550.426 C 334.375 550.816, 340.675 553.563, 347 556.529 C 364.395 564.688, 382.684 572.462, 390.500 575.018 C 394.350 576.278, 398.400 577.867, 399.500 578.549 C 404.361 581.565, 420.057 587, 423.906 587 C 427.597 587, 457.902 582.885, 465.375 581.369 C 466.982 581.043, 471.428 577.856, 475.455 574.143 C 488.235 562.359, 498.085 557.563, 524 550.506 C 529.225 549.083, 535.075 547.125, 537 546.154 C 544.318 542.464, 559.918 533.513, 570.500 526.932 C 576.550 523.170, 587.350 517.521, 594.500 514.379 L 607.500 508.667 628.500 506.801 C 642.851 505.526, 655.991 505.024, 670 505.217 C 690.112 505.495, 690.598 505.551, 695.649 508.216 C 698.481 509.709, 703.992 511.597, 707.895 512.411 C 711.799 513.225, 718.932 515.544, 723.746 517.565 C 728.561 519.586, 737.783 523.204, 744.240 525.605 C 750.697 528.006, 759.022 531.362, 762.740 533.063 C 766.458 534.763, 772.226 537.192, 775.557 538.460 C 778.888 539.728, 784.063 542.123, 787.057 543.782 C 790.051 545.441, 793.549 547.111, 794.832 547.493 C 796.857 548.095, 797.120 547.879, 796.832 545.843 C 796.581 544.069, 794.830 542.674, 789.625 540.101 L 782.751 536.701 786.460 534.462 C 791.581 531.372, 789.023 529.990, 783.604 532.920 L 779.500 535.138 766.944 529.155 C 760.038 525.864, 753.795 522.458, 753.071 521.586 C 752.347 520.714, 750.892 520, 749.838 520 C 747.361 520, 739.737 516.146, 738.700 514.370 C 738.260 513.616, 737.342 513, 736.660 513 C 735.977 513, 725.630 510.082, 713.665 506.515 C 701.079 502.763, 688.243 499.587, 683.206 498.978 C 678.418 498.399, 661.225 497.830, 645 497.713 C 616.558 497.508, 615.231 497.584, 608 499.841 C 600.607 502.149, 589.071 507.622, 567.500 519.057 C 561.450 522.264, 543 530.791, 526.500 538.006 C 494.023 552.208, 483.036 557.744, 462.101 570.454 C 454.620 574.996, 446.700 579.307, 444.500 580.035 C 434.830 583.234, 420.315 580.411, 405.555 572.460 C 401.125 570.074, 388.050 564.252, 376.500 559.521 C 364.950 554.790, 350.373 547.964, 344.107 544.352 C 337.841 540.740, 327.572 535.610, 321.287 532.952 C 307.533 527.136, 296.262 520.293, 291.745 515.015 C 289.915 512.877, 285.511 509.489, 281.958 507.487 C 278.406 505.486, 274.424 502.870, 273.109 501.674 C 268.875 497.825, 262.615 487.130, 247.203 457.411 C 233.313 430.627, 231.939 427.496, 229.875 417.911 C 228.247 410.353, 227.595 403.800, 227.496 394 C 227.391 383.623, 226.856 378.611, 225.180 372.333 C 222.465 362.163, 222.366 356.634, 224.855 354.145 C 225.875 353.125, 229.888 351.044, 233.773 349.520 C 242.889 345.943, 249.233 346.486, 251.839 351.068 C 253.462 353.920, 257 355.139, 257 352.846 C 257 352.212, 255.295 350.074, 253.211 348.096 C 251.127 346.118, 247.549 341.575, 245.260 338 C 235.563 322.850, 236.062 319.710, 249.663 310.343 C 254.186 307.228, 256.032 306.539, 259.497 306.673 C 268.087 307.005, 279.933 315.772, 288.544 328.170 C 294.591 336.876, 295.023 338.616, 292.586 344.448 C 291.418 347.245, 290.349 348.090, 286.826 349.001 C 284.447 349.616, 281.812 350.316, 280.970 350.557 C 280.129 350.798, 278.932 352.342, 278.311 353.988 C 276.304 359.305, 268.714 360.620, 263.818 356.500 C 257.080 350.831, 258.520 354.903, 265.585 361.500 C 267.353 363.150, 269.111 365.549, 269.493 366.832 C 270.095 368.857, 269.879 369.120, 267.843 368.832 C 266.178 368.596, 264.843 367.125, 263.231 363.750 C 260.837 358.740, 258.291 357.005, 260.025 361.565 C 261.329 364.995, 261.433 364.828, 257.750 365.216 C 254.599 365.548, 254.706 365.661, 261.267 368.914 C 271.406 373.941, 277.084 380.678, 285.400 397.550 C 293.448 413.876, 295 418.421, 295 425.659 C 295 428.597, 295.450 431, 296 431 C 296.550 431, 297 430.550, 297 430 C 297 428.214, 299.776 428.941, 302.857 431.533 C 305.677 433.906, 306.955 436.595, 308.436 443.275 C 309.246 446.933, 312.415 450, 315.383 450 C 317.060 450, 318.765 451.362, 321.133 454.594 C 322.985 457.121, 326.637 461.626, 329.250 464.605 C 331.863 467.584, 334 470.691, 334 471.511 C 334 472.410, 334.937 473, 336.365 473 C 337.666 473, 339.958 473.966, 341.459 475.147 C 342.960 476.327, 346.252 477.679, 348.774 478.150 C 351.297 478.621, 356.169 480.130, 359.601 481.503 C 363.033 482.877, 367.616 484, 369.786 484 C 374.250 484, 378.222 486.595, 380.500 491 C 381.622 493.170, 382.461 493.692, 384.127 493.256 C 386.073 492.748, 386.223 492.975, 385.596 495.475 C 385.057 497.622, 385.419 498.818, 387.176 500.687 C 388.717 502.327, 389.624 504.796, 389.978 508.307 C 390.432 512.825, 390.760 513.453, 392.500 513.135 C 394.794 512.716, 404.265 512.932, 404.747 513.413 C 405.719 514.386, 402.534 523.871, 400.521 526 C 399.220 527.375, 397.859 530.121, 397.495 532.102 C 396.875 535.475, 397.076 535.855, 400.666 538.086 C 402.775 539.396, 404.827 540.622, 405.228 540.810 C 405.628 540.998, 406.689 539.318, 407.586 537.076 C 409.312 532.763, 411 531.703, 411 534.933 C 411 537.304, 414.013 538.376, 418.134 537.471 C 421.085 536.822, 421.195 536.620, 420.603 532.917 C 420.040 529.398, 420.210 528.985, 422.451 528.423 C 426.528 527.400, 427.381 525.495, 424.376 524.125 C 422.163 523.117, 421.561 523.207, 420.415 524.718 C 419.141 526.397, 419.062 526.380, 419.032 524.419 C 419.014 523.275, 420.040 520.285, 421.310 517.775 L 423.621 513.211 421.060 510.097 C 419.652 508.384, 417.721 506.986, 416.769 506.991 C 415.086 507, 414.378 505.344, 413.780 500 C 413.626 498.625, 412.975 497.500, 412.333 497.500 C 411.692 497.500, 410.829 497.163, 410.417 496.750 C 410.004 496.338, 410.610 496, 411.762 496 C 414.330 496, 416.285 497.860, 417.955 501.890 C 418.983 504.374, 419.554 504.774, 420.980 504.011 C 423.293 502.773, 424 503.628, 424 507.667 C 424 511.398, 424.785 511.679, 429.050 509.474 C 432.311 507.788, 432.529 506.880, 430.864 501.899 C 428.626 495.203, 425.856 493.400, 415.691 492.023 C 404.495 490.506, 398.473 488.323, 390.976 483.065 C 387.831 480.858, 374.736 473.800, 361.878 467.381 C 335.456 454.189, 320.765 446.003, 316.788 442.255 C 312.815 438.510, 311.315 430.842, 312.886 422.315 C 314.343 414.408, 315.673 411.655, 321.021 405.476 C 323.845 402.213, 324.888 400.222, 324.468 398.899 C 323.732 396.581, 324.853 396.417, 326.455 398.607 C 327.525 400.071, 328.072 400.028, 332.565 398.132 C 343.075 393.698, 353.355 392.919, 366.662 395.549 C 375.226 397.242, 391.370 399.829, 391.717 399.565 C 391.836 399.474, 391.580 398.072, 391.148 396.450 C 390.516 394.075, 389.694 393.397, 386.932 392.973 C 383.638 392.467, 383.588 392.397, 385.684 391.223 C 389.598 389.032, 391.069 389.756, 393.265 394.954 C 395.591 400.459, 397.001 401.293, 412.699 406.441 C 417.208 407.920, 422.383 410.221, 424.199 411.554 C 432.681 417.781, 436.604 420, 439.131 420 C 440.637 420, 443.137 420.498, 444.685 421.107 C 446.233 421.715, 453.350 423.270, 460.500 424.561 L 473.500 426.908 477.220 422.704 C 481.539 417.823, 482.636 419.902, 478.399 424.938 C 476.896 426.724, 476.048 428.683, 476.392 429.578 C 477.066 431.337, 479 430.573, 479 428.548 C 479 426.766, 481.041 426.095, 483.500 427.068 C 488.398 429.006, 501.198 427.076, 506.068 423.665 C 507.473 422.681, 509.356 422.321, 511.186 422.687 C 513.983 423.247, 514.072 423.145, 513.837 419.642 C 513.667 417.129, 514.133 415.624, 515.355 414.730 C 516.324 414.021, 517.656 410.979, 518.315 407.971 C 519.504 402.540, 519.563 402.474, 526.423 398.942 C 530.223 396.985, 534.028 394.285, 534.877 392.942 C 535.727 391.599, 537.677 389.022, 539.211 387.215 C 541.024 385.080, 541.992 382.805, 541.978 380.715 L 541.956 377.500 540 380 C 538.924 381.375, 538.034 381.933, 538.022 381.241 C 537.987 379.265, 548.297 368.188, 550.263 368.089 C 551.394 368.032, 552.875 366.077, 554.401 362.628 C 555.708 359.673, 557.277 356.947, 557.888 356.569 C 560.235 355.119, 558.802 352.075, 553.750 347.776 C 547.536 342.490, 544.943 341.011, 541.816 340.970 C 540.026 340.946, 539.840 340.745, 541 340.086 C 544.126 338.306, 553.232 337.078, 575.565 335.423 L 598.631 333.713 610.565 335.910 C 623.299 338.253, 629.622 340.334, 640 345.597 C 647.764 349.535, 669.828 357.677, 682.869 361.417 C 693.254 364.395, 716.136 375.358, 715.748 377.168 C 715.612 377.803, 717.300 378.976, 719.500 379.775 C 721.700 380.574, 726.200 382.288, 729.500 383.583 C 735.368 385.887, 795.013 405, 796.332 405 C 796.699 405, 797 403.303, 797 401.229 L 797 397.458 785.378 392.479 C 778.985 389.741, 771.898 386.750, 769.628 385.833 C 763.120 383.204, 740.382 376.342, 730.535 374.036 C 725.604 372.880, 717.279 369.984, 712.035 367.600 C 706.791 365.216, 699.350 362.244, 695.500 360.996 C 691.650 359.748, 685.575 357.043, 682 354.985 C 678.425 352.926, 672.258 350.079, 668.295 348.658 C 664.332 347.238, 658.032 344.494, 654.295 342.562 C 650.558 340.630, 642.550 337.709, 636.500 336.070 C 630.450 334.432, 620.775 331.477, 615 329.504 C 601.458 324.876, 589.150 323.683, 557.500 323.930 C 544.300 324.033, 528.325 324.155, 522 324.202 C 515.675 324.248, 503.975 323.513, 496 322.568 C 488.025 321.623, 472.500 320.490, 461.500 320.051 C 449.396 319.568, 438.342 318.575, 433.500 317.536 C 429.100 316.592, 420.025 315.486, 413.332 315.079 C 404.603 314.547, 400.439 313.862, 398.596 312.655 C 397.184 311.730, 393.209 310.697, 389.764 310.361 C 384.615 309.859, 382.165 308.913, 376 305.047 C 371.875 302.460, 365.800 298.849, 362.500 297.021 C 350.039 290.120, 340.048 283.860, 335.517 280.115 C 330.761 276.186, 328.616 275.547, 316.500 274.455 C 312.310 274.077, 310.124 274.612, 303.011 277.758 M 306 281.792 C 300.645 284.041, 299.176 285.183, 297.659 288.279 C 296.196 291.264, 296.029 292.645, 296.846 294.990 C 298.259 299.042, 321.772 331.808, 324.200 333.107 C 325.623 333.869, 328.734 333.693, 335.551 332.465 C 345.079 330.750, 346.502 330.026, 347.143 326.567 C 347.340 325.503, 349.301 323.612, 351.501 322.364 C 356.559 319.495, 356.627 319.466, 361.900 318.029 L 366.300 316.830 353.900 304.335 C 336.093 286.393, 325.204 279.032, 316.500 279.054 C 314.300 279.059, 309.575 280.292, 306 281.792 M 368.015 319.536 C 368.043 321.257, 369.871 323.463, 370.636 322.697 C 371.046 322.288, 370.620 321.192, 369.690 320.262 C 368.761 319.332, 368.007 319.005, 368.015 319.536 M 283.683 329.650 C 283.308 330.026, 283 331.421, 283 332.750 C 283 335.518, 285.300 335.365, 285.844 332.561 C 286.227 330.585, 284.745 328.588, 283.683 329.650 M 412 332.031 C 412 333.422, 414.626 334.349, 416.059 333.464 C 416.901 332.943, 416.847 332.518, 415.857 331.890 C 413.996 330.711, 412 330.784, 412 332.031 M 504.459 333.067 C 503.383 334.808, 504.608 335.177, 505.980 333.524 C 506.769 332.574, 506.845 332, 506.181 332 C 505.597 332, 504.821 332.480, 504.459 333.067 M 300.750 334.082 C 299.788 334.642, 299 335.488, 299 335.963 C 299 337.147, 303.939 335.742, 304.056 334.525 C 304.193 333.107, 302.758 332.915, 300.750 334.082 M 486 334 C 484.895 334.714, 485.553 334.969, 488.500 334.969 C 491.447 334.969, 492.105 334.714, 491 334 C 490.175 333.467, 489.050 333.031, 488.500 333.031 C 487.950 333.031, 486.825 333.467, 486 334 M 359.046 336.914 C 358.272 338.361, 358.257 339, 358.996 339 C 360.209 339, 361.529 336.195, 360.705 335.371 C 360.406 335.073, 359.660 335.767, 359.046 336.914 M 452.244 336.664 C 450.159 337.505, 451.923 339, 455 339 C 458.595 339, 459.744 337.433, 456.739 336.627 C 454.224 335.953, 454.003 335.955, 452.244 336.664 M 321 338 C 319.667 338.862, 319.667 338.969, 321 338.969 C 321.825 338.969, 323.175 338.533, 324 338 C 325.333 337.138, 325.333 337.031, 324 337.031 C 323.175 337.031, 321.825 337.467, 321 338 M 525.500 338 C 528.252 339.183, 529.231 339.183, 528.500 338 C 528.160 337.450, 526.896 337.032, 525.691 337.070 C 523.579 337.138, 523.572 337.171, 525.500 338 M 397.783 339.235 C 399.470 340.048, 400.369 340.031, 401.233 339.167 C 402.122 338.278, 401.580 338.016, 398.950 338.068 C 395.710 338.131, 395.639 338.202, 397.783 339.235 M 404.559 342.468 C 407.098 344.389, 408.584 344.408, 407 342.500 C 406.315 341.675, 405.049 341, 404.186 341 C 402.931 341, 403.005 341.293, 404.559 342.468 M 590.496 347.927 C 589.284 349.126, 585.378 350.542, 580.550 351.533 C 572.695 353.144, 568.063 355.045, 560.750 359.659 C 556.521 362.328, 555.930 364, 559.217 364 C 562.793 364, 570 360.853, 570 359.292 C 570 358.203, 570.639 358.358, 572.635 359.927 C 576.202 362.733, 576.820 362.552, 576.647 358.750 C 576.500 355.505, 576.510 355.498, 583 354.411 C 586.575 353.813, 589.921 353.694, 590.436 354.148 C 590.951 354.601, 592.094 354.320, 592.977 353.521 C 594.379 352.252, 594.938 352.255, 597.425 353.545 C 599.587 354.667, 600.601 354.746, 601.651 353.875 C 602.498 353.172, 606.372 352.802, 611.675 352.919 C 621.887 353.144, 631.389 355.909, 655.016 365.529 C 663.549 369.004, 675.159 373.019, 680.815 374.453 C 692.187 377.336, 700.518 380.463, 717.289 388.146 C 729.784 393.870, 744.943 399.169, 774.176 408.034 C 795.141 414.391, 797 414.766, 797 412.639 C 797 411.740, 791.474 409.669, 780.750 406.546 C 760.337 400.603, 743.821 395.104, 719 385.989 C 708.275 382.050, 692.525 376.428, 684 373.496 C 675.475 370.564, 662.327 365.469, 654.782 362.174 C 632.348 352.379, 625.284 350.536, 605.619 349.348 C 598.045 348.891, 594.180 348.242, 593.496 347.315 C 592.672 346.196, 592.135 346.306, 590.496 347.927 M 326 349.154 C 326 351.542, 329.569 354.207, 332.168 353.759 C 334.399 353.374, 334.370 353.304, 331.500 352.133 C 329.850 351.461, 327.938 350.169, 327.250 349.264 C 326.174 347.846, 326 347.831, 326 349.154 M 469.500 350.618 L 466.500 353.163 469.687 351.589 C 471.439 350.723, 473.153 349.561, 473.496 349.007 C 474.617 347.192, 472.560 348.021, 469.500 350.618 M 239 352 C 239 352.550, 239.927 353, 241.059 353 C 242.191 353, 242.840 352.550, 242.500 352 C 242.160 351.450, 241.234 351, 240.441 351 C 239.648 351, 239 351.450, 239 352 M 432.500 352 C 432.840 352.550, 433.965 353, 435 353 C 436.035 353, 437.160 352.550, 437.500 352 C 437.862 351.415, 436.824 351, 435 351 C 433.176 351, 432.138 351.415, 432.500 352 M 402 353 C 402 353.550, 402.873 354, 403.941 354 C 405.009 354, 406.160 353.550, 406.500 353 C 406.851 352.433, 406.010 352, 404.559 352 C 403.152 352, 402 352.450, 402 353 M 340.975 354.375 C 342.152 355.553, 346.912 355.488, 348.122 354.278 C 348.751 353.649, 347.509 353.340, 344.597 353.403 C 342.028 353.458, 340.476 353.875, 340.975 354.375 M 441.020 355.476 C 440.231 356.426, 440.155 357, 440.819 357 C 442.027 357, 443.436 355.103, 442.743 354.409 C 442.491 354.158, 441.716 354.638, 441.020 355.476 M 225.399 357.547 C 224.826 359.831, 225.439 361.984, 226.359 360.917 C 227.373 359.741, 227.917 355, 227.038 355 C 226.488 355, 225.750 356.146, 225.399 357.547 M 312 357 C 312 358.100, 312.450 359, 313 359 C 313.550 359, 314 358.100, 314 357 C 314 355.900, 313.550 355, 313 355 C 312.450 355, 312 355.900, 312 357 M 471.500 356 C 471.840 356.550, 472.541 357, 473.059 357 C 473.577 357, 474 356.550, 474 356 C 474 355.450, 473.298 355, 472.441 355 C 471.584 355, 471.160 355.450, 471.500 356 M 408 357 C 404.727 357.689, 404.837 357.745, 409.691 357.868 C 412.546 357.941, 415.160 357.550, 415.500 357 C 416.192 355.881, 413.318 355.881, 408 357 M 495.990 357.981 C 497.222 360.283, 499.500 360.241, 499.500 357.917 C 499.500 357.137, 498.452 356.352, 497.172 356.170 C 495.077 355.873, 494.959 356.054, 495.990 357.981 M 429 359.932 C 430.616 360.870, 433.589 361.343, 436 361.045 C 438.448 360.742, 433.934 359.146, 430.500 359.101 C 428.326 359.072, 427.913 359.301, 429 359.932 M 467.390 360.457 C 465.384 361.924, 465.563 362.676, 468 363.023 C 472.819 363.709, 474.674 361.966, 471.138 360.074 C 469.809 359.362, 468.737 359.472, 467.390 360.457 M 250 361.497 C 248.075 362.214, 244.608 363.307, 242.295 363.927 C 237.166 365.301, 232 369.456, 232 372.208 C 232 374.014, 232.355 373.891, 235.230 371.080 C 238.154 368.220, 242.266 366.549, 251.250 364.568 C 253.120 364.156, 254 363.328, 254 361.981 C 254 360.891, 253.887 360.044, 253.750 360.097 C 253.613 360.151, 251.925 360.781, 250 361.497 M 422 361.753 C 422 363.595, 426.699 367.053, 428.345 366.421 C 429.255 366.072, 430 365.336, 430 364.786 C 430 364.236, 429.354 364.034, 428.564 364.337 C 427.774 364.640, 425.974 363.981, 424.564 362.872 C 423.154 361.762, 422 361.259, 422 361.753 M 344 363.319 C 344 365.185, 345.631 366.406, 346.420 365.130 C 346.727 364.633, 346.308 363.671, 345.489 362.991 C 344.278 361.986, 344 362.047, 344 363.319 M 413 363 C 414.970 364.273, 417.287 364.273, 416.500 363 C 416.160 362.450, 414.896 362.007, 413.691 362.015 C 411.910 362.028, 411.781 362.212, 413 363 M 278.125 365.836 C 276.669 368.478, 276.937 369.275, 278.877 368.076 C 279.603 367.627, 280.020 366.414, 279.805 365.380 C 279.449 363.675, 279.292 363.718, 278.125 365.836 M 298.587 365.313 C 297.184 366.339, 297.016 366.892, 297.936 367.460 C 299.381 368.353, 301.396 366.689, 300.851 365.053 C 300.591 364.273, 299.901 364.352, 298.587 365.313 M 523.686 365.084 C 519.015 366.374, 515.912 370, 519.480 370 C 521.654 370, 529 366.912, 529 365.998 C 529 364.674, 526.642 364.268, 523.686 365.084 M 458 367.559 C 458 368.416, 458.450 368.840, 459 368.500 C 459.550 368.160, 460 367.459, 460 366.941 C 460 366.423, 459.550 366, 459 366 C 458.450 366, 458 366.702, 458 367.559 M 305 368.583 C 305 370.349, 307.153 370.042, 307.771 368.188 C 307.989 367.534, 307.454 367, 306.583 367 C 305.712 367, 305 367.712, 305 368.583 M 352.250 367.713 C 348.844 368.358, 349.555 369.729, 353.535 370.194 C 356.251 370.511, 357.005 370.266, 356.785 369.136 C 356.457 367.443, 355.410 367.114, 352.250 367.713 M 540.151 369.389 C 538.855 372.492, 539.360 374.040, 541.101 372.299 C 541.689 371.711, 541.987 370.166, 541.763 368.865 C 541.365 366.548, 541.333 366.559, 540.151 369.389 M 553.980 368.524 C 553.284 369.362, 552.940 370.273, 553.214 370.548 C 554.032 371.365, 556.803 369.955, 557.391 368.423 C 558.121 366.520, 555.580 366.596, 553.980 368.524 M 370.543 368.930 C 370.257 369.393, 370.917 370.007, 372.011 370.293 C 373.105 370.579, 374 370.453, 374 370.013 C 374 368.838, 371.152 367.946, 370.543 368.930 M 292 370.500 C 290.961 371.752, 291.101 372, 292.846 372 C 294.294 372, 294.760 371.539, 294.362 370.500 C 294.045 369.675, 293.664 369, 293.515 369 C 293.367 369, 292.685 369.675, 292 370.500 M 696 370.831 C 696 371.864, 699.167 373.527, 704.876 375.493 C 712.443 378.099, 712.789 376.968, 705.500 373.453 C 698.352 370.006, 696 369.357, 696 370.831 M 283.500 373 C 283.160 373.550, 283.809 374, 284.941 374 C 286.073 374, 287 373.550, 287 373 C 287 372.450, 286.352 372, 285.559 372 C 284.766 372, 283.840 372.450, 283.500 373 M 545.913 373.872 C 542.844 376.360, 543.788 377.318, 548.448 376.444 C 551.073 375.951, 552.013 375.304, 551.789 374.141 C 551.331 371.763, 548.665 371.641, 545.913 373.872 M 323.494 375.009 C 323.152 375.564, 323.145 376.880, 323.479 377.935 C 323.879 379.193, 323.474 380.195, 322.302 380.851 C 320.266 381.990, 320.967 383.334, 323.159 382.493 C 325.160 381.725, 327.217 374, 325.420 374 C 324.704 374, 323.837 374.454, 323.494 375.009 M 405.033 374.750 C 405.078 375.763, 408.657 380, 409.467 380 C 409.822 380, 409.316 378.650, 408.341 377 C 406.690 374.206, 404.957 373.026, 405.033 374.750 M 446.605 375.830 C 446.285 376.348, 447.161 376.989, 448.551 377.255 C 450.146 377.559, 450.942 377.325, 450.707 376.619 C 450.223 375.166, 447.356 374.615, 446.605 375.830 M 495.625 376.798 C 495.354 377.237, 495.545 378.249, 496.051 379.048 C 496.768 380.182, 496.973 380.007, 496.985 378.250 C 497 375.937, 496.492 375.394, 495.625 376.798 M 312.173 380.250 C 311.619 382.285, 310.767 383.361, 309.894 383.128 C 309.127 382.924, 307.652 382.518, 306.616 382.226 C 303.627 381.386, 305.176 384.198, 308.898 386.373 C 312.851 388.681, 313.774 387.930, 314.626 381.710 C 315.383 376.189, 313.571 375.111, 312.173 380.250 M 386.500 378 C 386.138 378.585, 387.176 379, 389 379 C 390.824 379, 391.862 378.585, 391.500 378 C 391.160 377.450, 390.035 377, 389 377 C 387.965 377, 386.840 377.450, 386.500 378 M 427 379.064 C 424.685 380.873, 424.112 380.916, 419.250 379.655 C 415.261 378.620, 414 378.581, 414 379.491 C 414 381.075, 417.829 384.504, 418.664 383.669 C 419.023 383.311, 419.901 383.503, 420.617 384.097 C 422.398 385.575, 428.011 384.217, 428.641 382.156 C 428.919 381.245, 429.567 379.712, 430.081 378.750 C 431.289 376.491, 430.144 376.608, 427 379.064 M 402.020 379.476 C 401.231 380.426, 401.155 381, 401.819 381 C 403.027 381, 404.436 379.103, 403.743 378.409 C 403.491 378.158, 402.716 378.638, 402.020 379.476 M 609.500 379 C 609.840 379.550, 610.541 380, 611.059 380 C 611.577 380, 612 379.550, 612 379 C 612 378.450, 611.298 378, 610.441 378 C 609.584 378, 609.160 378.450, 609.500 379 M 498 380 C 498 380.550, 498.648 381, 499.441 381 C 500.234 381, 501.160 380.550, 501.500 380 C 501.840 379.450, 501.191 379, 500.059 379 C 498.927 379, 498 379.450, 498 380 M 231.471 384.123 C 232.547 390.952, 234.224 396.633, 234.738 395.193 C 235.405 393.324, 232.962 381.095, 231.775 380.361 C 231.136 379.966, 231.028 381.311, 231.471 384.123 M 329.500 382 C 329.149 382.567, 329.990 383, 331.441 383 C 332.848 383, 334 382.550, 334 382 C 334 381.450, 333.127 381, 332.059 381 C 330.991 381, 329.840 381.450, 329.500 382 M 375 382 C 375 383.253, 376.061 383.253, 378 382 C 379.213 381.216, 379.069 381.028, 377.250 381.015 C 376.012 381.007, 375 381.450, 375 382 M 380.750 384.064 C 379.238 385.609, 378 387.077, 378 387.328 C 378 388.224, 383.303 389.095, 383.952 388.305 C 384.316 387.862, 384.363 386.095, 384.057 384.378 L 383.500 381.256 380.750 384.064 M 336.745 385.255 C 334.245 387.199, 333.658 387.278, 330.410 386.104 C 328.205 385.306, 325.424 385.081, 323.165 385.517 C 319.584 386.209, 319.557 386.248, 322 387.193 L 324.500 388.160 321 391.214 C 318.937 393.014, 318.321 393.948, 319.500 393.489 C 320.600 393.061, 322.288 392.680, 323.250 392.641 C 324.212 392.603, 325 392.019, 325 391.345 C 325 389.150, 327.032 388.791, 329.670 390.519 C 331.800 391.915, 332.402 391.974, 333.110 390.855 C 333.583 390.110, 333.976 389.265, 333.985 388.977 C 333.993 388.690, 335.605 387.590, 337.567 386.534 C 340.509 384.950, 341.650 384.807, 344.067 385.719 C 347.329 386.951, 348.096 385.657, 345.066 384.035 C 342.207 382.505, 339.831 382.853, 336.745 385.255 M 392 383.946 C 392 384.505, 393.238 385.233, 394.750 385.564 C 399.577 386.622, 400.179 386.970, 400.712 389.005 C 401.400 391.639, 403.510 391.537, 405.443 388.777 C 408.395 384.564, 407.565 383.662, 401.332 384.305 C 398.214 384.627, 394.839 384.449, 393.832 383.910 C 392.615 383.259, 392 383.271, 392 383.946 M 503.655 385.368 C 503.241 386.945, 503.139 388.472, 503.428 388.761 C 504.233 389.566, 505.217 386.346, 504.789 384.308 C 504.508 382.975, 504.210 383.254, 503.655 385.368 M 368.917 386.083 C 367.771 387.229, 367.109 388.443, 367.447 388.780 C 367.784 389.118, 369.274 388.180, 370.758 386.697 C 372.241 385.214, 372.902 384, 372.227 384 C 371.552 384, 370.063 384.938, 368.917 386.083 M 432.580 387.748 C 432.218 388.889, 430.364 391.010, 428.461 392.462 C 426.557 393.914, 425 395.526, 425 396.044 C 425 396.752, 432.026 392.054, 434.842 389.464 C 435.030 389.291, 434.746 388.368, 434.211 387.412 C 433.317 385.816, 433.185 385.843, 432.580 387.748 M 416.098 389.250 C 418.136 393.178, 419.081 393.996, 420.337 392.924 C 420.977 392.378, 422.400 391.286, 423.500 390.498 C 425.381 389.149, 425.280 389.062, 421.809 389.032 C 419.779 389.014, 417.840 388.550, 417.500 388 C 416.217 385.925, 414.955 387.050, 416.098 389.250 M 475.345 388.543 C 474.529 390.669, 475.869 392.001, 478.809 391.985 C 481.804 391.968, 484.793 390.460, 483.800 389.467 C 483.447 389.114, 481.518 388.455, 479.513 388.003 C 476.774 387.385, 475.738 387.519, 475.345 388.543 M 374.750 391.218 C 370.511 392.680, 371.481 393.777, 376.942 393.694 C 381.818 393.621, 382.505 392.841, 379.194 391.141 C 378.212 390.636, 376.344 390.669, 374.750 391.218 M 481 394 C 481 394.550, 481.648 395, 482.441 395 C 483.234 395, 484.160 394.550, 484.500 394 C 484.840 393.450, 484.191 393, 483.059 393 C 481.927 393, 481 393.450, 481 394 M 459.727 394.606 C 458.761 395.573, 460.105 398, 461.607 398 C 462.373 398, 463 397.605, 463 397.122 C 463 395.875, 460.432 393.901, 459.727 394.606 M 543 395.933 C 543 397.148, 546.689 398.310, 547.991 397.506 C 549.970 396.282, 548.951 395, 546 395 C 544.350 395, 543 395.420, 543 395.933 M 399.500 396.914 C 402.746 398.192, 409 398.942, 409 398.054 C 409 396.942, 405.256 396.017, 401 396.077 C 398.243 396.116, 397.925 396.294, 399.500 396.914 M 467.544 398.928 C 466.843 400.063, 470.582 401.377, 472.007 400.495 C 472.571 400.147, 472.774 399.443, 472.457 398.931 C 471.713 397.727, 468.288 397.725, 467.544 398.928 M 293.500 402 C 293.160 402.550, 293.782 403, 294.882 403 C 295.982 403, 297.160 402.550, 297.500 402 C 297.840 401.450, 297.218 401, 296.118 401 C 295.018 401, 293.840 401.450, 293.500 402 M 311 404 C 310.207 404.490, 309.783 405.116, 310.058 405.391 C 310.333 405.666, 311.207 405.490, 312 405 C 312.793 404.510, 313.217 403.884, 312.942 403.609 C 312.667 403.334, 311.793 403.510, 311 404 M 457.022 403.750 C 457.034 404.163, 457.870 405.574, 458.879 406.886 C 461.021 409.672, 462.710 408.195, 461.011 405.021 C 459.987 403.106, 456.975 402.147, 457.022 403.750 M 474.697 404.700 C 473.266 405.071, 473.136 405.459, 474.069 406.584 C 475.691 408.537, 477.367 408.357, 479.500 406 C 481.263 404.052, 481.248 404.003, 478.905 404.116 C 477.582 404.180, 475.689 404.442, 474.697 404.700 M 432.046 409.086 C 432.660 410.233, 433.406 410.927, 433.705 410.629 C 434.529 409.805, 433.209 407, 431.996 407 C 431.257 407, 431.272 407.639, 432.046 409.086 M 387 410 C 388.263 412.360, 390.489 412.717, 389.607 410.418 C 389.273 409.548, 389 408.648, 389 408.418 C 389 408.188, 388.309 408, 387.465 408 C 386.240 408, 386.146 408.404, 387 410 M 487.122 408.904 C 486.364 409.384, 486.054 410.278, 486.433 410.891 C 487.226 412.175, 491 410.583, 491 408.965 C 491 407.770, 488.963 407.738, 487.122 408.904 M 465.269 411.261 C 463.773 413.195, 462.972 416, 463.916 416 C 465.251 416, 468.082 411.169, 467.102 410.563 C 466.621 410.266, 465.795 410.580, 465.269 411.261 M 239.232 417.250 C 239.554 421.234, 241.083 426.763, 243.449 432.500 C 247.333 441.917, 260.029 466.174, 267.787 479 C 270.283 483.125, 274.237 489.875, 276.575 494 C 278.913 498.125, 281.785 502.625, 282.957 504 L 285.088 506.500 283.088 502.377 C 281.988 500.109, 277.896 492.909, 273.994 486.377 C 270.093 479.844, 264.921 470.426, 262.502 465.447 C 260.083 460.467, 255.621 452.192, 252.587 447.058 C 247.109 437.788, 243.601 428.942, 242.549 421.750 C 241.159 412.253, 240.841 411, 239.818 411 C 239.091 411, 238.895 413.092, 239.232 417.250 M 441.481 413.489 C 439.597 414.960, 439.671 415.022, 443 414.768 C 444.925 414.620, 446.411 414.050, 446.303 413.500 C 445.977 411.848, 443.589 411.842, 441.481 413.489 M 451.032 414.939 C 450.337 416.239, 450.327 417.084, 451.004 417.503 C 451.560 417.846, 452.284 417.423, 452.614 416.563 C 452.944 415.704, 454.066 415, 455.107 415 C 456.148 415, 457 414.550, 457 414 C 457 412.172, 452.101 412.943, 451.032 414.939 M 520 416.093 C 515.740 418.032, 515.604 418.218, 517.441 419.571 C 518.509 420.357, 521.434 421.036, 523.941 421.079 C 526.449 421.122, 527.825 421.406, 527 421.709 C 526.175 422.013, 524.687 422.970, 523.694 423.836 C 522.234 425.110, 521.519 425.181, 519.958 424.206 C 517.314 422.555, 515.331 422.694, 514.607 424.582 C 513.483 427.511, 513.987 429.874, 516.314 432.579 C 518.366 434.964, 518.890 435.129, 520.936 434.034 C 522.257 433.327, 524.577 433.065, 526.361 433.422 C 528.075 433.765, 532.070 433.752, 535.238 433.394 C 540.284 432.823, 541 432.472, 541 430.571 C 541 429.377, 540.441 427.841, 539.758 427.158 C 538.770 426.170, 538.775 425.757, 539.788 425.131 C 540.691 424.573, 539.475 422.848, 535.589 419.173 C 529.369 413.290, 527.129 412.847, 520 416.093 M 301.750 417.904 C 299.094 420.432, 298.124 423, 299.826 423 C 301.343 423, 305.186 418.198, 304.841 416.733 C 304.585 415.649, 303.811 415.942, 301.750 417.904 M 502.345 420.543 C 501.535 422.653, 502.887 423.793, 504.039 421.971 C 505.263 420.035, 505.239 419, 503.969 419 C 503.401 419, 502.671 419.694, 502.345 420.543 M 532 423 C 530.835 423.753, 531.128 423.973, 533.309 423.985 C 534.930 423.994, 535.857 423.577, 535.500 423 C 534.733 421.758, 533.921 421.758, 532 423 M 530.607 426.582 C 529.736 428.852, 529.859 430.205, 530.879 429.575 C 532.066 428.841, 533.018 425, 532.013 425 C 531.574 425, 530.941 425.712, 530.607 426.582 M 501.667 427.667 C 500.250 429.083, 501.118 430, 503.878 430 C 505.460 430, 507.315 429.325, 508 428.500 C 509.066 427.216, 508.748 427, 505.789 427 C 503.888 427, 502.033 427.300, 501.667 427.667 M 409.220 436.008 L 406.940 440 409.720 439.994 C 411.774 439.989, 412.957 439.185, 414.250 436.913 C 416.548 432.876, 416.458 431.998, 413.750 432.008 C 412.177 432.013, 410.814 433.217, 409.220 436.008 M 292 435.559 C 292 436.416, 292.450 436.840, 293 436.500 C 293.550 436.160, 294 435.459, 294 434.941 C 294 434.423, 293.550 434, 293 434 C 292.450 434, 292 434.702, 292 435.559 M 487.800 437.200 C 488.733 438.133, 489.267 438.133, 490.200 437.200 C 491.133 436.267, 490.867 436, 489 436 C 487.133 436, 486.867 436.267, 487.800 437.200 M 298.250 437.706 C 297.012 437.944, 296 438.588, 296 439.136 C 296 440.561, 301.264 439.750, 301.756 438.250 C 301.982 437.563, 301.792 437.061, 301.333 437.136 C 300.875 437.211, 299.488 437.467, 298.250 437.706 M 480 448.826 C 480 450.048, 484.441 454, 485.814 454 C 487.884 454, 487.094 451.291, 484.535 449.615 C 481.845 447.852, 480 447.531, 480 448.826 M 344.694 463.639 C 343.656 464.677, 344.968 466, 347.034 466 C 348.605 466, 348.848 466.511, 348.383 468.837 C 347.955 470.977, 348.444 472.389, 350.376 474.587 C 352.749 477.287, 352.939 477.344, 352.968 475.372 C 352.986 474.202, 352.316 472.677, 351.481 471.984 C 350.421 471.105, 350.144 469.748, 350.566 467.500 C 351.088 464.720, 350.850 464.192, 348.835 463.653 C 345.873 462.860, 345.475 462.858, 344.694 463.639 M 366.543 472.931 C 365.860 474.036, 367.437 475.230, 368.361 474.306 C 369.311 473.355, 369.134 472, 368.059 472 C 367.541 472, 366.859 472.419, 366.543 472.931 M 392.345 494.543 C 392.019 495.392, 392.023 496.356, 392.352 496.686 C 393.065 497.398, 396 495.138, 396 493.878 C 396 492.368, 392.968 492.921, 392.345 494.543 M 400.701 494.632 C 400.316 495.018, 400 496.158, 400 497.167 C 400 498.469, 400.745 499, 402.570 499 C 404.659 499, 405.079 498.582, 404.820 496.760 C 404.503 494.543, 402.055 493.278, 400.701 494.632 M 436.245 497.520 C 438.285 498.907, 441.427 500.317, 443.227 500.655 C 445.027 500.992, 448.004 502.387, 449.841 503.755 L 453.183 506.241 456.051 504.121 C 461.086 500.398, 465.883 501.398, 496 512.449 C 506.175 516.182, 516.300 519.438, 518.500 519.683 C 522.998 520.185, 514.231 516.795, 485.500 506.922 C 471.439 502.091, 466.252 500.810, 455.500 499.512 C 448.350 498.649, 440.803 497.281, 438.730 496.472 C 433.085 494.268, 432.082 494.692, 436.245 497.520 M 569.283 503.614 C 562.253 507.251, 553.800 511.705, 550.500 513.511 C 542.822 517.712, 535.104 519.976, 528.068 520.090 C 522.618 520.178, 522.574 520.202, 526 521.195 C 534.014 523.519, 539.097 521.960, 563.779 509.611 C 576.550 503.220, 587 497.769, 587 497.496 C 587 495.612, 580.231 497.950, 569.283 503.614 M 407.331 503.581 C 406.975 504.507, 405.977 504.966, 404.919 504.689 C 403.926 504.429, 402.482 504.956, 401.709 505.858 C 398.707 509.367, 398.903 509.750, 403.277 508.921 C 406.697 508.273, 407.745 508.441, 408.789 509.805 C 409.917 511.278, 410.198 511.302, 411.024 509.995 C 412.372 507.863, 412.221 507, 410.500 507 C 408.726 507, 408.653 506.518, 410.035 503.934 C 410.854 502.405, 410.743 502, 409.504 502 C 408.642 502, 407.664 502.711, 407.331 503.581 M 301.070 505.416 C 300.128 506.550, 300.328 506.969, 302.072 507.523 C 304.094 508.165, 305.942 506.855, 305.985 504.750 C 306.011 503.439, 302.292 503.943, 301.070 505.416 M 415 513.930 C 415 514.480, 415.900 515.411, 417 516 C 418.286 516.688, 419 516.714, 419 516.070 C 419 515.520, 418.100 514.589, 417 514 C 415.714 513.312, 415 513.286, 415 513.930 M 562.016 705.109 C 544.703 707.748, 533.842 717.945, 535.500 730.002 C 535.857 732.594, 536.987 736.094, 538.012 737.779 C 541.990 744.320, 554.105 748.712, 574.500 751.007 C 586.807 752.392, 590 753.292, 590 755.377 C 590 757.574, 584.481 759.003, 576.101 758.976 C 566.445 758.944, 561.282 757.743, 552.328 753.444 C 548.384 751.550, 544.784 750.027, 544.328 750.059 C 543.873 750.091, 541.102 753, 538.171 756.521 C 534.391 761.063, 533.016 763.475, 533.441 764.814 C 534.218 767.263, 547.360 773.420, 556.500 775.617 C 566.402 777.997, 587.558 778.029, 595.135 775.675 C 608.278 771.593, 615 763.958, 615 753.112 C 615 737.734, 606.221 732.890, 571.684 729.208 C 562.419 728.220, 559.641 726.961, 561.848 724.750 C 562.622 723.974, 566.801 723.372, 572.858 723.162 C 581.386 722.867, 583.560 723.158, 590.060 725.464 C 602.205 729.773, 600.971 730.032, 607.269 721.857 L 612.900 714.550 608.079 711.767 C 598.154 706.037, 576.482 702.904, 562.016 705.109 M 656.500 704.646 C 649.785 705.375, 637.133 710.018, 632.697 713.383 C 627.670 717.196, 622.474 724.626, 620.836 730.343 C 619.059 736.547, 619.617 747.901, 622.013 754.305 C 627.884 769.998, 644.851 778.488, 668.500 777.567 C 693.976 776.574, 709.197 764.657, 710.721 744.511 C 711.435 735.064, 709.757 728.361, 704.829 720.982 C 700.233 714.099, 692.579 708.907, 683.570 706.560 C 677.386 704.949, 663.052 703.936, 656.500 704.646 M 214 741 L 214 776 225.378 776 C 234.221 776, 237.030 775.669, 237.988 774.515 C 238.826 773.504, 239.117 770.067, 238.897 763.765 C 238.719 758.669, 238.670 750.681, 238.787 746.014 L 239 737.529 257.688 756.873 L 276.376 776.218 286.248 775.821 C 293.490 775.530, 296.366 775.035, 297.044 773.962 C 297.561 773.145, 297.976 758.088, 297.985 739.822 L 298 707.144 292.390 706.443 C 286.573 705.716, 275.932 706.306, 274.068 707.458 C 273.385 707.880, 272.986 713.948, 272.962 724.309 L 272.923 740.500 256.212 723.216 L 239.500 705.931 226.750 705.966 L 214 706 214 741 M 322.750 706.780 C 313.554 706.982, 309.993 707.400, 309.973 708.280 C 309.571 726.643, 309.900 774.234, 310.433 774.767 C 310.836 775.170, 327.665 775.500, 347.833 775.500 L 384.500 775.500 384.500 766.500 L 384.500 757.500 359.826 757.233 L 335.151 756.965 334.502 754.007 C 333.356 748.791, 333.872 748.647, 351.401 749.320 C 360.255 749.660, 369.075 749.596, 371 749.178 L 374.500 748.418 374.500 740.459 L 374.500 732.500 354.250 732.229 L 334 731.959 334 729.096 C 334 726.973, 334.581 726.078, 336.250 725.630 C 337.488 725.299, 348.738 725.021, 361.250 725.014 L 384 725 384 716 L 384 707 378.750 706.856 C 367.828 706.555, 335.002 706.511, 322.750 706.780 M 387.879 707.646 C 386.979 708.730, 386.996 709.693, 387.951 711.780 C 388.637 713.276, 391.222 720.125, 393.697 727 C 396.172 733.875, 400.355 745.350, 402.992 752.500 C 405.630 759.650, 408.358 767.418, 409.056 769.762 C 409.753 772.106, 410.877 774.483, 411.554 775.045 C 412.283 775.650, 417.597 775.950, 424.607 775.783 L 436.430 775.500 440.356 763.500 C 448.704 737.980, 449.320 736.442, 450.133 739.084 C 460.075 771.375, 461.103 774.088, 463.770 775.103 C 466.189 776.023, 485.551 775.852, 486.377 774.904 C 487.579 773.524, 489.762 768.151, 493.999 756.142 C 496.646 748.639, 501.554 735.098, 504.906 726.051 C 508.258 717.003, 511 708.804, 511 707.830 C 511 706.232, 509.837 706.064, 499.056 706.110 C 490.725 706.146, 486.795 706.542, 486.066 707.421 C 484.891 708.836, 475 741.377, 475 743.826 C 475 747.563, 472.838 742.456, 467.452 726 C 464.301 716.375, 461.025 707.938, 460.171 707.250 C 459.156 706.433, 455.085 706, 448.431 706 L 438.244 706 436.196 711.750 C 435.070 714.913, 433.553 719.323, 432.824 721.551 C 432.096 723.779, 430.150 729.735, 428.500 734.786 C 426.850 739.837, 425.171 743.977, 424.769 743.985 C 424.367 743.993, 423.777 742.763, 423.459 741.250 C 423.140 739.737, 422.462 737.728, 421.952 736.784 C 421.442 735.840, 420.616 733.365, 420.115 731.284 C 418.507 724.600, 413.968 709.809, 412.931 707.870 C 412.031 706.189, 410.726 706.004, 400.489 706.112 C 391.969 706.201, 388.753 706.592, 387.879 707.646 M 722.262 706.703 L 719.024 707.125 719.029 740.536 C 719.033 773.273, 719.075 773.970, 721.099 775.053 C 722.490 775.798, 726.724 775.927, 734.082 775.450 L 745 774.743 745 740.871 L 745 707 737.250 706.986 C 732.987 706.979, 728.600 706.817, 727.500 706.627 C 726.400 706.437, 724.043 706.471, 722.262 706.703 M 756.454 708.258 C 756.189 708.950, 756.091 724.138, 756.236 742.008 L 756.500 774.500 789.944 775.245 C 816.193 775.829, 823.559 775.722, 824.179 774.745 C 825.123 773.259, 825.223 764.985, 824.361 759.770 L 823.745 756.040 803.122 755.770 L 782.500 755.500 781.954 731.500 C 781.654 718.300, 781.317 707.388, 781.204 707.250 C 781.092 707.112, 775.586 707, 768.969 707 C 760.225 707, 756.805 707.344, 756.454 708.258 M 653.989 727.250 C 642.525 733.066, 642.694 749.781, 654.271 755.036 C 659.618 757.463, 669.793 757.536, 676 755.191 C 679.615 753.826, 680.943 752.614, 682.750 749.034 C 686.490 741.625, 685.423 734.411, 679.845 729.389 C 674.362 724.451, 661.588 723.395, 653.989 727.250" stroke="none" fill="#0a0a0a" fill-rule="evenodd"/>
</svg>