<svg xmlns="http://www.w3.org/2000/svg" width="1146" height="315" viewBox="0 0 1146 315"><path fill="#0a0a0a" fill-rule="evenodd" d="M571.262 3.048c-7.657 1.054-15.241 8.962-17.156 17.892-1.984 9.251 2.426 19.076 11.154 24.849 3.623 2.397 5.033 2.707 12.169 2.675 9.55-.043 14.539-2.654 19.874-10.4 2.834-4.116 3.144-5.3 3.156-12.064.03-16.792-10.993-25.457-29.197-22.952M472.769 14.25c-.887.688-3.27 4.355-5.295 8.15-3.685 6.906-4.444 8.228-9.897 17.259-9.333 15.456-22.676 28.331-30.974 29.888-6.635 1.244-6.772 7.453-.164 7.453 1.837 0 4.402.86 5.7 1.911l2.361 1.911.527 64.839c.519 63.813.562 64.924 2.719 70.241 10.111 24.914 38.584 34.524 64.003 21.604C506.61 235.035 516 226.07 516 223.9c0-2.339-3.59-2.581-5.994-.405-2.069 1.872-9.704 2.972-14.452 2.081-4.463-.837-9.535-5.194-13.233-11.368L479.5 209.5l-.119-63c-.065-34.65.092-63.553.349-64.229.342-.899 5.604-1.301 19.619-1.5L518.5 80.5v-10l-18.79-.272c-14.043-.204-18.913-.593-19.276-1.54-.268-.697-.587-13.079-.71-27.515-.188-22.074-.462-26.398-1.724-27.195-2.027-1.28-3.314-1.213-5.231.272M1018.5 65.531c-4.4.716-10.7 2.272-14 3.457s-6.999 2.397-8.219 2.694c-1.221.297-2.739 1.165-3.373 1.929S991.312 75 990.771 75c-1.512 0-8.773 5.969-13.612 11.191-6.317 6.816-8.163 10.797-8.137 17.555.081 21.163 24.554 32.101 40.5 18.101 7.437-6.53 8.631-12.933 5.95-31.923-.927-6.567 2.297-12.984 9.201-18.316 5.524-4.266 6.435-5.969 3.745-7.001-.87-.334-1.657-.555-1.75-.492s-3.768.7-8.168 1.416m40.25.026c-1.406 1.455-.751 2.271 4.341 5.404 8.784 5.405 12.489 10.873 14.795 21.838 3.913 18.609-4.088 35.027-22.125 45.4-7.943 4.568-7.407 6.388 1.774 6.029 3.831-.15 9.284-.938 12.119-1.75 10.17-2.916 9.186-6.398 9.538 33.772l.308 35.25 3.882 7.776c4.626 9.267 10.938 15.405 20.548 19.983 5.809 2.768 7.82 3.179 17.361 3.548 13.753.532 24.709-1.852 24.709-5.375 0-1.649-.772-2.336-3.162-2.814-3.53-.706-9.7-6.634-12.278-11.795-5.435-10.882-5.869-15.203-6.553-65.323-.519-37.995-.935-47.958-2.174-52-5.74-18.733-19.534-31.281-41.64-37.879-6.154-1.836-20.343-3.202-21.443-2.064m-759.512 2.907c-3.995.666-8.27 1.677-9.5 2.246l-7.818 3.61c-10.447 4.821-19.565 12.837-18.313 16.099.797 2.077 2.004 1.994 5.317-.365 7.138-5.083 19.061-7.425 34.157-6.711 9.247.437 11.44.906 17.388 3.716 21.887 10.341 31.804 35.022 31.117 77.441-.668 41.252-10.115 65.304-28.75 73.202-3.141 1.331-3.759 4.006-1.157 5.005.923.354 4.86-.137 8.75-1.091 16.461-4.037 30.643-11.108 42.248-21.063 19.717-16.915 29.981-50.461 24.835-81.172-4.461-26.621-15.931-45.997-34.817-58.813C358.309 77.592 346.39 72 344.432 72c-.86 0-2.451-.475-3.535-1.055-6.157-3.295-28.726-4.639-41.659-2.481m439.954.163C724.241 71.872 705 85.349 705 92.577c0 2.968 2.905 3.291 5.346.594 3.693-4.081 17.537-8.671 26.154-8.671 16.198 0 24.867 7.404 29.272 25 2.435 9.724 2.996 110.63.656 117.822-2.056 6.318-3.828 8.465-7.847 9.507-2.106.545-3.081 1.411-3.081 2.735 0 1.877 1.044 1.936 34.486 1.936 32.072 0 34.51-.123 34.824-1.753.197-1.02-.425-1.999-1.486-2.341-4.359-1.404-6.532-3.005-8.608-6.343-2.2-3.537-2.221-3.985-2.865-61.063-.653-57.924-.856-61.911-3.435-67.651-.779-1.733-1.416-3.622-1.416-4.197 0-2.361-7.187-13.069-11.342-16.9-12.649-11.659-36.423-16.974-56.466-12.625m111.308-.97c-7.158 1.52-16.748 5.162-21.127 8.024-10.725 7.008-20.296 17.47-19.022 20.792.893 2.326 2.304 1.872 6.921-2.223 5.245-4.652 9.376-6.667 17.792-8.68 20.224-4.837 33.336 3.197 39.056 23.93 1.507 5.461 2.103 113.433.655 118.576-.973 3.453-6.321 8.924-8.725 8.924-2.352 0-3.264 1.278-2.441 3.423.55 1.435 4.2 1.575 34.753 1.34 33.119-.255 34.138-.321 34.138-2.218 0-1.115-.868-2.189-2.02-2.5-3.273-.883-6.053-3.307-8.081-7.045-1.782-3.285-1.934-7.029-2.467-61-.468-47.319-.841-58.51-2.109-63.206-4.536-16.808-14.703-28.114-31.229-34.73-7.424-2.972-28.691-4.98-36.094-3.407m-781 1.281c-5.469.94-18.221 5.193-21.5 7.17-.825.498-1.95 1.084-2.5 1.302-.55.219-1.675.663-2.5.988-3.653 1.435-16.436 10.814-20.323 14.911-9.768 10.293-19.544 28.642-19.644 36.87-.018 1.473-.708 3.353-1.533 4.178-2.18 2.18-2.152 39.196.032 42.084.807 1.068 1.468 3.237 1.468 4.82 0 4.186 5.615 17.01 11.024 25.179 11.276 17.028 31.006 29.891 53.619 34.959 9.56 2.143 10.567 2.086 10.177-.574-.206-1.396-1.931-3.024-4.82-4.546-15.604-8.221-23.237-27.103-26.087-64.529-3.748-49.214 6.553-87.351 26.297-97.356 3.294-1.669 4.79-3.047 4.79-4.411 0-2.145-1.226-2.295-8.5-1.045m36.5.795c0 1.341 1.339 2.566 4.226 3.865 9.621 4.331 19.202 17.941 23.16 32.902 4.069 15.379 4.862 25.393 4.299 54.266-.551 28.244-.612 28.772-5.463 47.324-3.13 11.968-11.883 23.951-20.62 28.229-5.582 2.733-7.094 5.171-3.955 6.376 1.946.747 15.62-2.218 19.684-4.267 1.557-.786 3.406-1.428 4.108-1.428s4.378-1.616 8.169-3.592c21.978-11.453 36.274-28.921 42.535-51.975 3.214-11.835 3.265-40.437.092-51.933-6.432-23.304-24.463-44.852-44.235-52.861a719 719 0 0 1-7.5-3.089c-5.957-2.512-13.111-4.464-18.75-5.116-5.273-.609-5.75-.502-5.75 1.299m97.38 1.719c-.749 1.952.356 3.548 2.457 3.548 2.771 0 6.026 2.827 8.426 7.316L216.5 86.5v108c0 105.506-.046 108.098-1.978 112.232-1.301 2.784-2.926 4.562-4.75 5.198-7.266 2.532-2.236 3.07 28.728 3.07 17.325 0 31.497-.337 31.494-.75s-1.373-1.527-3.042-2.477c-5.988-3.408-6.368-5.773-6.762-42.139-.378-34.757-.238-35.931 4.04-33.934 8.391 3.919 24.438 8.025 27.206 6.963 2.577-.989 1.444-2.922-2.99-5.103-6.071-2.984-14.651-12.207-18.198-19.56-2.818-5.843-3.996-9.945-8.328-29-.888-3.908-1.375-21.713-1.683-61.5-.315-40.746-.747-56.2-1.585-56.735-.634-.404-13.204-.741-27.933-.75-22.501-.013-26.871.217-27.339 1.437M543 72.5c0 1.975.506 2.5 2.411 2.5 2.904 0 6.872 4.408 8.753 9.725 1.94 5.481 1.933 135.696-.008 142.183-1.514 5.062-6.039 10.092-9.079 10.092-1.552 0-2.077.636-2.077 2.513v2.513l34.25-.263 34.25-.263.32-2.25c.254-1.793-.165-2.25-2.063-2.25-2.46 0-6.482-3.622-8.885-8-1.121-2.043-1.429-16.565-1.684-79.472-.212-52.322-.652-77.382-1.373-78.25-.812-.979-7.346-1.278-27.937-1.278H543zm102.38-1.048c-.812 2.117.192 3.212 3.564 3.887 2.049.41 3.858 1.916 5.771 4.806l2.785 4.209V227.5l-2.249 3.58c-2.109 3.359-4.237 4.929-8.575 6.326-1.061.342-1.683 1.321-1.486 2.341.314 1.63 2.752 1.753 34.824 1.753 29.27 0 34.486-.217 34.486-1.433 0-.788-1.794-2.364-3.988-3.502-2.781-1.443-4.654-3.43-6.191-6.567l-2.203-4.498-.059-76.168c-.032-41.893-.332-76.88-.666-77.75-.878-2.287-55.137-2.413-56.013-.13M1019 143.66c-5.638.875-16.712 3.644-19.784 4.947-1.806.766-4.056 1.407-5 1.425-.944.017-2.59.692-3.657 1.5-1.068.807-2.517 1.468-3.22 1.468-2.155 0-15.959 9.864-20.115 14.373-10.326 11.203-14.17 24.388-11.39 39.076 4.213 22.263 24.242 36.547 51.254 36.554 16.101.004 26.368-2.764 42.397-11.43 8.71-4.709 24.934-20.316 23.906-22.997-.95-2.475-2.221-1.932-8.133 3.471-10.182 9.306-19.766 12.952-34.048 12.952-11.777.001-15.301-1.266-21.314-7.664-6.765-7.199-10.008-21.788-8.11-36.49 2.184-16.921 8.018-26.263 19.959-31.962 6.073-2.898 6.456-3.263 4.74-4.518-1.86-1.36-2.734-1.442-7.485-.705"/></svg>