<svg xmlns="http://www.w3.org/2000/svg" viewBox="-10.99 29.24 1026.67 199.77"><path fill="#0a0a0a" fill-rule="evenodd" d="M583.5 34.006c-2.2.483-6.579.905-9.731.936-6.411.065-19.206 1.861-22.269 3.127-1.1.454-5.487 1.57-9.75 2.479S534 42.547 534 42.97s-2.025 1.337-4.5 2.03-4.5 1.561-4.5 1.929-1.511 1.215-3.357 1.883-4.166 2.108-5.155 3.201S514.348 54 513.93 54c-.923 0-5.108 3.493-8.751 7.302a168 168 0 0 1-4.929 4.931c-1.238 1.17-2.25 2.699-2.25 3.398 0 .698-.585 1.629-1.3 2.069-2.684 1.652-12.619 20.512-12.669 24.05-.017 1.237-.422 2.25-.901 2.25-1.582 0-3.408 12.306-4.554 30.691-.212 3.406-.661 6.637-.997 7.181s-.245 1.216.202 1.493c.447.276.909 3.795 1.027 7.819.227 7.808 2.997 22.816 4.212 22.816.401 0 1.013 1.414 1.358 3.142.691 3.455 8.109 15.255 12.097 19.242 1.389 1.389 2.525 2.996 2.525 3.571s.645 1.045 1.433 1.045 1.711.877 2.051 1.949 1.383 2.194 2.317 2.493c.935.3 3.364 2.01 5.398 3.801 5.755 5.066 22.121 12.928 30.801 14.798 3.025.651 6.473 1.556 7.662 2.01s6.814 1.343 12.5 1.976 12.138 1.547 14.338 2.032c5.049 1.114 65.792 1.056 70.5-.067 1.925-.459 6.2-1.068 9.5-1.353 8.378-.723 14.821-1.783 16-2.632.55-.396 3.882-1.271 7.404-1.944s8.016-2.088 9.985-3.144c1.97-1.055 4.169-1.919 4.888-1.919 1.858 0 14.223-5.89 14.223-6.775 0-.405 1.369-1.343 3.043-2.084 4.085-1.808 15.048-12.782 17.124-17.141 2.49-5.229 3.048-11.245 1.406-15.141-2.743-6.504-11.785-13.175-23.671-17.462-8.205-2.96-13.969-2.84-20.902.434-2.475 1.169-5.04 2.135-5.7 2.147s-1.56.629-2 1.371c-.803 1.355-3.796 3.164-10.3 6.227-1.925.907-3.831 2.161-4.235 2.786-.404.626-.741.789-.75.362-.008-.426-1.343-.089-2.965.75-1.623.839-4.458 1.526-6.3 1.526-1.843 0-3.912.563-4.6 1.25-.939.939-8.833 1.283-31.754 1.383-29.27.128-30.877.036-39.7-2.281-5.058-1.327-9.646-2.648-10.196-2.934-6.289-3.269-8.418-4.815-13.379-9.715-12.6-12.447-15.453-32.136-7.057-48.703 2.786-5.497 11.064-15 13.066-15 .584 0 2.256-.837 3.716-1.859 2.632-1.844 11.271-4.909 14.154-5.022.825-.032 3.975-.541 7-1.13 5.922-1.154 53.788-1.067 55.5.1.55.375 4.375 1.235 8.5 1.911s8.625 1.818 10 2.538 5.997 2.976 10.271 5.015 8.006 4.085 8.292 4.549c.287.464 2.415 1.384 4.729 2.046s4.74 1.603 5.391 2.094c1.977 1.49 13.024 1.246 14.922-.329.936-.777 1.746-1.264 1.799-1.081.228.788 6.535-1.401 11.802-4.097 12.225-6.257 17.033-15.411 12.991-24.735-2.516-5.805-14.924-18.489-21.453-21.932A362 362 0 0 1 699 47.806c-4.75-2.693-11.938-5.336-23.5-8.641-6.267-1.791-13.233-2.938-29-4.774-8.602-1.001-58.799-1.308-63-.385m-553 6.102c-9.95 1.349-14.808 5.066-19.091 14.604L8.811 60.5l.642 28c.353 15.4.693 28.675.756 29.5s-.238 19.388-.669 41.252l-.783 39.751 2.284 6.249c2.655 7.266 5.531 10.457 12.459 13.82 4.56 2.215 6.091 2.411 17.406 2.235 6.823-.107 12.673-.582 13-1.057s2.15-1.494 4.051-2.264 4.202-2.145 5.112-3.055c2.801-2.801 7.036-11.657 8.812-18.431 1.537-5.858 6.645-13.381 9.861-14.522 1.517-.538 3.658-1.523 4.758-2.187 2.195-1.326 8.296-1.521 69-2.204 21.45-.242 40.125-.651 41.5-.909 15.074-2.832 28.768-7.342 35.376-11.651a725 725 0 0 1 7-4.501c4.37-2.761 11.835-10.447 13.622-14.026.824-1.65 2.011-3.331 2.636-3.736.626-.405 1.426-2.272 1.778-4.149s1.416-4.921 2.364-6.764c2.395-4.655 2.449-38.316.068-41.997-.838-1.295-1.825-3.895-2.193-5.778-1.278-6.529-6.444-15.533-12.378-21.576-6.659-6.781-10.086-9.5-11.976-9.5-.714 0-1.297-.378-1.297-.839 0-.741-5.066-3.558-5.775-3.212-.151.074-1.501-.535-3-1.353-4.974-2.715-22.571-6.411-33.725-7.082-14.968-.902-152.753-1.253-159-.406m306.659-.044C330.216 40.77 320 44.468 320 46.275c0 .441-1.736 2.609-3.857 4.817s-4.444 5.79-5.161 7.961S309.302 63 308.84 63s-.84.472-.84 1.048-.824 2.754-1.831 4.838-2.694 6.558-3.75 9.943c-1.055 3.385-2.224 6.158-2.597 6.162-.373.005-1.234 2.489-1.912 5.521s-1.836 6.011-2.572 6.622S294 99.288 294 100.563c0 1.276-.45 2.597-1 2.937s-1 1.491-1 2.559-.45 1.941-1 1.941-1 .703-1 1.562-1.081 3.896-2.401 6.75c-1.321 2.853-2.724 6.313-3.118 7.688-.395 1.375-1.286 3.175-1.981 4s-1.587 2.625-1.982 4c-.396 1.375-1.745 4.75-2.999 7.5-4.847 10.629-5.555 12.445-6.111 15.67-.316 1.832-1.376 5.13-2.356 7.33s-2.257 5.8-2.838 8c-1.196 4.53-4.756 14.991-6.126 18-1.829 4.017-3.317 14.486-2.672 18.791 1.499 9.994 9.216 14.102 26.584 14.153 8.961.026 11.375-.334 16.474-2.457 6.398-2.664 13.297-8.57 15.827-13.55 2.882-5.671 10.642-13.262 16.496-16.137l5.703-2.8h50l6 3.144c5.934 3.109 11.723 8.578 14.361 13.566.749 1.416 3.711 5.098 6.582 8.183 7.387 7.938 14.127 10.228 29.69 10.091 9.522-.084 12.176-.466 16.354-2.358 8.625-3.905 10.691-7.36 10.425-17.424-.23-8.699-4.434-21.913-13.424-42.202-.731-1.65-1.62-4.012-1.976-5.25s-1.018-2.25-1.471-2.25-1.131-1.222-1.506-2.715c-.375-1.494-1.502-4.531-2.505-6.75-1.004-2.219-2.392-5.947-3.086-8.285-.693-2.338-1.564-4.25-1.936-4.25s-.726-.562-.788-1.25c-.221-2.437-2.721-8.75-3.465-8.75-.415 0-.755-.805-.755-1.789s-.829-3.415-1.843-5.403-2.432-5.796-3.152-8.462-1.866-5.521-2.546-6.346-1.556-3.075-1.946-5-1.267-4.4-1.95-5.5c-.682-1.1-2.065-4.25-3.074-7s-2.154-5.45-2.546-6-1.048-2.575-1.458-4.5-1.587-4.573-2.615-5.885-1.893-3.112-1.921-4-1.967-4.315-4.31-7.615c-5.799-8.169-11.683-11.318-23.383-12.518-10.226-1.048-42.485-.999-53.097.082m446.282-.099c-10.387.936-16.211 4.867-20.65 13.937-2.147 4.387-2.154 4.657-2.104 76.5.048 67.413.17 72.388 1.875 76.559 2.28 5.576 5.551 8.902 11.868 12.068l4.931 2.471h98.666c70.9 0 99.061-.313 100.069-1.112.772-.612 2.529-1.389 3.904-1.727 2.58-.634 9-6.085 9-7.64 0-.483.788-1.665 1.75-2.626 2.294-2.291 3.185-19.564 1.137-22.032-.72-.867-1.781-2.522-2.357-3.678-1.963-3.938-8.656-7.626-16.53-9.11-5.945-1.12-13.411-1.275-36-.744-15.675.368-44.7.669-64.5.669h-36l-4-2.458c-4.909-3.017-6.427-4.857-6.468-7.842-.046-3.297 2.606-7.95 4.957-8.697 1.106-.351 2.011-.999 2.011-1.442s2.138-1.085 4.75-1.43c4.963-.655 48.672-.733 87.304-.156 21.403.32 31.946-.552 31.946-2.643 0-.458.614-.832 1.365-.832 2.49 0 6.668-4.131 9.168-9.065 3.187-6.29 3.3-13.358.298-18.628-2.702-4.743-5.831-8.307-7.294-8.307-.613 0-2.897-.999-5.076-2.219-3.946-2.211-4.167-2.22-58.982-2.4-36.283-.119-56.412-.555-59.103-1.28-5.411-1.457-9.376-5.206-9.376-8.866 0-3.609 4.232-7.704 9-8.709 1.925-.405 17.45-.888 34.5-1.073 43.439-.47 51.5-.704 51.5-1.496 0-.382 1.817-.937 4.037-1.235 5.383-.722 12.356-6.499 15.091-12.504 2.703-5.932 2.212-15.726-1.088-21.718-3.542-6.431-9.116-9.318-20.161-10.443-10.244-1.044-128.019-1.121-139.438-.092M86.473 92.237c-4.672 1.554-6.638 2.857-8.75 5.794-1.497 2.084-2.723 4.449-2.723 5.256s-.626 1.988-1.392 2.624c-1.176.975-1.186 1.842-.064 5.568 3.212 10.672 8.185 14.835 19.456 16.284 5.987.77 69.998.722 77-.058 15.862-1.766 22.481-4.796 26.752-12.247 4.764-8.312-.259-18.43-10.752-21.659-10.176-3.132-21.041-3.839-56.876-3.705-33.769.127-37.094.294-42.651 2.143m270.281 15.013c-8.58 8.389-12.006 23.583-6.862 30.437 3.866 5.153 11.377 7.198 19.135 5.209 2.787-.714 4.973-1.85 4.973-2.585 0-.721.603-1.311 1.339-1.311 1.896 0 3.661-4.39 3.661-9.104 0-4.764-1.943-13.143-3.248-14.008-.507-.336-.947-1.011-.977-1.5-.289-4.782-7.078-11.388-11.703-11.388-1.084 0-3.927 1.912-6.318 4.25"/></svg>