<svg xmlns="http://www.w3.org/2000/svg" width="100%" height="100%" viewBox="-10.99 29.24 1026.67 199.77" version="1.1">
	<path d="M 583.500 34.006 C 581.300 34.489, 576.921 34.911, 573.769 34.942 C 567.358 35.007, 554.563 36.803, 551.500 38.069 C 550.400 38.523, 546.013 39.639, 541.750 40.548 C 537.487 41.457, 534 42.547, 534 42.970 C 534 43.394, 531.975 44.307, 529.500 45 C 527.025 45.693, 525 46.561, 525 46.929 C 525 47.297, 523.489 48.144, 521.643 48.812 C 519.797 49.480, 517.477 50.920, 516.488 52.013 C 515.499 53.106, 514.348 54, 513.930 54 C 513.007 54, 508.822 57.493, 505.179 61.302 C 503.706 62.844, 501.488 65.062, 500.250 66.233 C 499.012 67.403, 498 68.932, 498 69.631 C 498 70.329, 497.415 71.260, 496.700 71.700 C 494.016 73.352, 484.081 92.212, 484.031 95.750 C 484.014 96.987, 483.609 98, 483.130 98 C 481.548 98, 479.722 110.306, 478.576 128.691 C 478.364 132.097, 477.915 135.328, 477.579 135.872 C 477.243 136.417, 477.334 137.088, 477.781 137.365 C 478.228 137.641, 478.690 141.160, 478.808 145.184 C 479.035 152.992, 481.805 168, 483.020 168 C 483.421 168, 484.033 169.414, 484.378 171.142 C 485.069 174.597, 492.487 186.397, 496.475 190.384 C 497.864 191.773, 499 193.380, 499 193.955 C 499 194.530, 499.645 195, 500.433 195 C 501.221 195, 502.144 195.877, 502.484 196.949 C 502.824 198.021, 503.867 199.143, 504.801 199.442 C 505.736 199.742, 508.165 201.452, 510.199 203.243 C 515.954 208.309, 532.320 216.171, 541 218.041 C 544.025 218.692, 547.473 219.597, 548.662 220.051 C 549.851 220.505, 555.476 221.394, 561.162 222.027 C 566.848 222.660, 573.300 223.574, 575.500 224.059 C 580.549 225.173, 641.292 225.115, 646 223.992 C 647.925 223.533, 652.200 222.924, 655.500 222.639 C 663.878 221.916, 670.321 220.856, 671.500 220.007 C 672.050 219.611, 675.382 218.736, 678.904 218.063 C 682.426 217.390, 686.920 215.975, 688.889 214.919 C 690.859 213.864, 693.058 213, 693.777 213 C 695.635 213, 708 207.110, 708 206.225 C 708 205.820, 709.369 204.882, 711.043 204.141 C 715.128 202.333, 726.091 191.359, 728.167 187 C 730.657 181.771, 731.215 175.755, 729.573 171.859 C 726.830 165.355, 717.788 158.684, 705.902 154.397 C 697.697 151.437, 691.933 151.557, 685 154.831 C 682.525 156, 679.960 156.966, 679.300 156.978 C 678.640 156.990, 677.740 157.607, 677.300 158.349 C 676.497 159.704, 673.504 161.513, 667 164.576 C 665.075 165.483, 663.169 166.737, 662.765 167.362 C 662.361 167.988, 662.024 168.151, 662.015 167.724 C 662.007 167.298, 660.672 167.635, 659.050 168.474 C 657.427 169.313, 654.592 170, 652.750 170 C 650.907 170, 648.838 170.563, 648.150 171.250 C 647.211 172.189, 639.317 172.533, 616.396 172.633 C 587.126 172.761, 585.519 172.669, 576.696 170.352 C 571.638 169.025, 567.050 167.704, 566.500 167.418 C 560.211 164.149, 558.082 162.603, 553.121 157.703 C 540.521 145.256, 537.668 125.567, 546.064 109 C 548.850 103.503, 557.128 94, 559.130 94 C 559.714 94, 561.386 93.163, 562.846 92.141 C 565.478 90.297, 574.117 87.232, 577 87.119 C 577.825 87.087, 580.975 86.578, 584 85.989 C 589.922 84.835, 637.788 84.922, 639.500 86.089 C 640.050 86.464, 643.875 87.324, 648 88 C 652.125 88.676, 656.625 89.818, 658 90.538 C 659.375 91.258, 663.997 93.514, 668.271 95.553 C 672.545 97.591, 676.277 99.638, 676.563 100.102 C 676.850 100.566, 678.978 101.486, 681.292 102.148 C 683.606 102.809, 686.032 103.751, 686.683 104.242 C 688.660 105.732, 699.707 105.488, 701.605 103.913 C 702.541 103.136, 703.351 102.649, 703.404 102.832 C 703.632 103.620, 709.939 101.431, 715.206 98.735 C 727.431 92.478, 732.239 83.324, 728.197 74 C 725.681 68.195, 713.273 55.511, 706.744 52.068 C 704.960 51.127, 701.475 49.209, 699 47.806 C 694.250 45.113, 687.062 42.470, 675.500 39.165 C 669.233 37.374, 662.267 36.227, 646.500 34.391 C 637.898 33.390, 587.701 33.083, 583.500 34.006 M 30.500 40.108 C 20.550 41.457, 15.692 45.174, 11.409 54.712 L 8.811 60.500 9.453 88.500 C 9.806 103.900, 10.146 117.175, 10.209 118 C 10.272 118.825, 9.971 137.388, 9.540 159.252 L 8.757 199.003 11.041 205.252 C 13.696 212.518, 16.572 215.709, 23.500 219.072 C 28.060 221.287, 29.591 221.483, 40.906 221.307 C 47.729 221.200, 53.579 220.725, 53.906 220.250 C 54.233 219.775, 56.056 218.756, 57.957 217.986 C 59.859 217.216, 62.159 215.841, 63.069 214.931 C 65.870 212.130, 70.105 203.274, 71.881 196.500 C 73.418 190.642, 78.526 183.119, 81.742 181.978 C 83.259 181.440, 85.400 180.455, 86.500 179.791 C 88.695 178.465, 94.796 178.270, 155.500 177.587 C 176.950 177.345, 195.625 176.936, 197 176.678 C 212.074 173.846, 225.768 169.336, 232.376 165.027 C 234.508 163.637, 237.658 161.612, 239.376 160.526 C 243.746 157.765, 251.211 150.079, 252.998 146.500 C 253.822 144.850, 255.009 143.169, 255.634 142.764 C 256.260 142.359, 257.060 140.492, 257.412 138.615 C 257.765 136.737, 258.828 133.694, 259.776 131.851 C 262.171 127.196, 262.225 93.535, 259.844 89.854 C 259.006 88.559, 258.019 85.959, 257.651 84.076 C 256.373 77.547, 251.207 68.543, 245.273 62.500 C 238.614 55.719, 235.187 53, 233.297 53 C 232.583 53, 232 52.622, 232 52.161 C 232 51.420, 226.934 48.603, 226.225 48.949 C 226.074 49.023, 224.724 48.414, 223.225 47.596 C 218.251 44.881, 200.654 41.185, 189.500 40.514 C 174.532 39.612, 36.747 39.261, 30.500 40.108 M 337.159 40.064 C 330.216 40.770, 320 44.468, 320 46.275 C 320 46.716, 318.264 48.884, 316.143 51.092 C 314.021 53.300, 311.699 56.882, 310.982 59.053 C 310.266 61.224, 309.302 63, 308.840 63 C 308.378 63, 308 63.472, 308 64.048 C 308 64.625, 307.176 66.802, 306.169 68.886 C 305.162 70.970, 303.475 75.444, 302.419 78.829 C 301.364 82.214, 300.195 84.987, 299.822 84.991 C 299.449 84.996, 298.588 87.480, 297.910 90.512 C 297.232 93.543, 296.074 96.523, 295.338 97.134 C 294.602 97.745, 294 99.288, 294 100.563 C 294 101.839, 293.550 103.160, 293 103.500 C 292.450 103.840, 292 104.991, 292 106.059 C 292 107.127, 291.550 108, 291 108 C 290.450 108, 290 108.703, 290 109.562 C 290 110.421, 288.919 113.458, 287.599 116.312 C 286.278 119.165, 284.875 122.625, 284.481 124 C 284.086 125.375, 283.195 127.175, 282.500 128 C 281.805 128.825, 280.913 130.625, 280.518 132 C 280.122 133.375, 278.773 136.750, 277.519 139.500 C 272.672 150.129, 271.964 151.945, 271.408 155.170 C 271.092 157.002, 270.032 160.300, 269.052 162.500 C 268.072 164.700, 266.795 168.300, 266.214 170.500 C 265.018 175.030, 261.458 185.491, 260.088 188.500 C 258.259 192.517, 256.771 202.986, 257.416 207.291 C 258.915 217.285, 266.632 221.393, 284 221.444 C 292.961 221.470, 295.375 221.110, 300.474 218.987 C 306.872 216.323, 313.771 210.417, 316.301 205.437 C 319.183 199.766, 326.943 192.175, 332.797 189.300 L 338.500 186.500 363.500 186.500 L 388.500 186.500 394.500 189.644 C 400.434 192.753, 406.223 198.222, 408.861 203.210 C 409.610 204.626, 412.572 208.308, 415.443 211.393 C 422.830 219.331, 429.570 221.621, 445.133 221.484 C 454.655 221.400, 457.309 221.018, 461.487 219.126 C 470.112 215.221, 472.178 211.766, 471.912 201.702 C 471.682 193.003, 467.478 179.789, 458.488 159.500 C 457.757 157.850, 456.868 155.488, 456.512 154.250 C 456.156 153.012, 455.494 152, 455.041 152 C 454.588 152, 453.910 150.778, 453.535 149.285 C 453.160 147.791, 452.033 144.754, 451.030 142.535 C 450.026 140.316, 448.638 136.588, 447.944 134.250 C 447.251 131.912, 446.380 130, 446.008 130 C 445.637 130, 445.282 129.438, 445.220 128.750 C 444.999 126.313, 442.499 120, 441.755 120 C 441.340 120, 441 119.195, 441 118.211 C 441 117.228, 440.171 114.796, 439.157 112.808 C 438.143 110.820, 436.725 107.012, 436.005 104.346 C 435.285 101.681, 434.139 98.825, 433.459 98 C 432.779 97.175, 431.903 94.925, 431.513 93 C 431.123 91.075, 430.246 88.600, 429.563 87.500 C 428.881 86.400, 427.498 83.250, 426.489 80.500 C 425.481 77.750, 424.335 75.050, 423.943 74.500 C 423.551 73.950, 422.895 71.925, 422.485 70 C 422.075 68.075, 420.898 65.427, 419.870 64.115 C 418.841 62.803, 417.977 61.003, 417.949 60.115 C 417.921 59.227, 415.982 55.800, 413.639 52.500 C 407.840 44.331, 401.956 41.182, 390.256 39.982 C 380.030 38.934, 347.771 38.983, 337.159 40.064 M 783.441 39.965 C 773.054 40.901, 767.230 44.832, 762.791 53.902 C 760.644 58.289, 760.637 58.559, 760.687 130.402 C 760.735 197.815, 760.857 202.790, 762.562 206.961 C 764.842 212.537, 768.113 215.863, 774.430 219.029 L 779.361 221.500 878.027 221.500 C 948.927 221.500, 977.088 221.187, 978.096 220.388 C 978.868 219.776, 980.625 218.999, 982 218.661 C 984.580 218.027, 991 212.576, 991 211.021 C 991 210.538, 991.788 209.356, 992.750 208.395 C 995.044 206.104, 995.935 188.831, 993.887 186.363 C 993.167 185.496, 992.106 183.841, 991.530 182.685 C 989.567 178.747, 982.874 175.059, 975 173.575 C 969.055 172.455, 961.589 172.300, 939 172.831 C 923.325 173.199, 894.300 173.500, 874.500 173.500 L 838.500 173.500 834.500 171.042 C 829.591 168.025, 828.073 166.185, 828.032 163.200 C 827.986 159.903, 830.638 155.250, 832.989 154.503 C 834.095 154.152, 835 153.504, 835 153.061 C 835 152.619, 837.138 151.976, 839.750 151.631 C 844.713 150.976, 888.422 150.898, 927.054 151.475 C 948.457 151.795, 959 150.923, 959 148.832 C 959 148.374, 959.614 148, 960.365 148 C 962.855 148, 967.033 143.869, 969.533 138.935 C 972.720 132.645, 972.833 125.577, 969.831 120.307 C 967.129 115.564, 964 112, 962.537 112 C 961.924 112, 959.640 111.001, 957.461 109.781 C 953.515 107.570, 953.294 107.561, 898.479 107.381 C 862.196 107.262, 842.067 106.826, 839.376 106.101 C 833.965 104.644, 830 100.895, 830 97.235 C 830 93.626, 834.232 89.531, 839 88.526 C 840.925 88.121, 856.450 87.638, 873.500 87.453 C 916.939 86.983, 925 86.749, 925 85.957 C 925 85.575, 926.817 85.020, 929.037 84.722 C 934.420 84, 941.393 78.223, 944.128 72.218 C 946.831 66.286, 946.340 56.492, 943.040 50.500 C 939.498 44.069, 933.924 41.182, 922.879 40.057 C 912.635 39.013, 794.860 38.936, 783.441 39.965 M 86.473 92.237 C 81.801 93.791, 79.835 95.094, 77.723 98.031 C 76.226 100.115, 75 102.480, 75 103.287 C 75 104.095, 74.374 105.275, 73.608 105.911 C 72.432 106.886, 72.422 107.753, 73.544 111.479 C 76.756 122.151, 81.729 126.314, 93 127.763 C 98.987 128.533, 162.998 128.485, 170 127.705 C 185.862 125.939, 192.481 122.909, 196.752 115.458 C 201.516 107.146, 196.493 97.028, 186 93.799 C 175.824 90.667, 164.959 89.960, 129.124 90.094 C 95.355 90.221, 92.030 90.388, 86.473 92.237 M 356.754 107.250 C 348.174 115.639, 344.748 130.833, 349.892 137.687 C 353.758 142.840, 361.269 144.885, 369.027 142.896 C 371.814 142.182, 374 141.046, 374 140.311 C 374 139.590, 374.603 139, 375.339 139 C 377.235 139, 379 134.610, 379 129.896 C 379 125.132, 377.057 116.753, 375.752 115.888 C 375.245 115.552, 374.805 114.877, 374.775 114.388 C 374.486 109.606, 367.697 103, 363.072 103 C 361.988 103, 359.145 104.912, 356.754 107.250" stroke="none" fill="#0a0a0a" fill-rule="evenodd"/>
</svg>