<svg xmlns="http://www.w3.org/2000/svg" viewBox="67.15 89.52 122.31 76.96"><path fill="#0a0a0a" fill-rule="evenodd" d="M110 93c-2.878 2.878-2.589 7.392.635 9.927 3.46 2.722 5.912 2.617 8.91-.382C124.127 97.964 121.386 91 115 91c-1.667 0-3.889.889-5 2m-31 8.945v5.945l-4.75.305-4.75.305v9l4.672.302 4.671.301.329 13.038c.324 12.87.364 13.068 3.134 15.448 2.421 2.081 3.825 2.411 10.25 2.411H100v-8.89l-4.75-.305-4.75-.305-.284-10.75-.284-10.75H101v-10H90V96H79zm63.558 6.487c-9.164 3.404-13.573 9.928-13.536 20.03C129.07 141.676 137.177 150 150 150c8.609 0 14.627-3.394 18.106-10.21 2.581-5.057 2.448-5.542-1.856-6.737-5.447-1.513-7.25-1.321-7.25.773 0 3.252-4.208 6.174-8.891 6.174-6.176 0-10.109-4.075-10.109-10.473 0-7.631 3.946-12.527 10.097-12.527 3.438 0 7.643 2.815 8.69 5.818 1 2.87 1.018 2.875 6.108 1.833 2.808-.575 5.105-1.49 5.105-2.033s-.943-2.935-2.096-5.316c-3.897-8.05-16.077-12.312-25.346-8.87m-32.846.19c-.392.391-.712 10.986-.712 23.545V155h-7v10h6.545c5.557 0 6.905-.359 8.92-2.374 3.249-3.25 3.682-7.48 3.333-32.626l-.298-21.5-5.038-.295c-2.772-.162-5.359.025-5.75.417m65.486 33.628.302 5.25h11l.302-5.25.303-5.25h-12.21z"/></svg>