<svg xmlns="http://www.w3.org/2000/svg" width="100%" height="100%" viewBox="67.15 89.52 122.31 76.96" version="1.1">
	<path d="M 110 93 C 107.122 95.878, 107.411 100.392, 110.635 102.927 C 114.095 105.649, 116.547 105.544, 119.545 102.545 C 124.127 97.964, 121.386 91, 115 91 C 113.333 91, 111.111 91.889, 110 93 M 79 101.945 L 79 107.890 74.250 108.195 L 69.500 108.500 69.500 113 L 69.500 117.500 74.172 117.802 L 78.843 118.103 79.172 131.141 C 79.496 144.011, 79.536 144.209, 82.306 146.589 C 84.727 148.670, 86.131 149, 92.556 149 L 100 149 100 144.555 L 100 140.110 95.250 139.805 L 90.500 139.500 90.216 128.750 L 89.932 118 95.466 118 L 101 118 101 113 L 101 108 95.500 108 L 90 108 90 102 L 90 96 84.500 96 L 79 96 79 101.945 M 142.558 108.432 C 133.394 111.836, 128.985 118.360, 129.022 128.462 C 129.070 141.676, 137.177 150, 150 150 C 158.609 150, 164.627 146.606, 168.106 139.790 C 170.687 134.733, 170.554 134.248, 166.250 133.053 C 160.803 131.540, 159 131.732, 159 133.826 C 159 137.078, 154.792 140, 150.109 140 C 143.933 140, 140 135.925, 140 129.527 C 140 121.896, 143.946 117, 150.097 117 C 153.535 117, 157.740 119.815, 158.787 122.818 C 159.787 125.688, 159.805 125.693, 164.895 124.651 C 167.703 124.076, 170 123.161, 170 122.618 C 170 122.076, 169.057 119.683, 167.904 117.302 C 164.007 109.252, 151.827 104.990, 142.558 108.432 M 109.712 108.622 C 109.320 109.013, 109 119.608, 109 132.167 L 109 155 105.500 155 L 102 155 102 160 L 102 165 108.545 165 C 114.102 165, 115.450 164.641, 117.465 162.626 C 120.714 159.376, 121.147 155.146, 120.798 130 L 120.500 108.500 115.462 108.205 C 112.690 108.043, 110.103 108.230, 109.712 108.622 M 175.198 142.250 L 175.500 147.500 181 147.500 L 186.500 147.500 186.802 142.250 L 187.105 137 181 137 L 174.895 137 175.198 142.250" stroke="none" fill="#0a0a0a" fill-rule="evenodd"/>
</svg>