<svg xmlns="http://www.w3.org/2000/svg" viewBox="2315.4 1517.77 10637.65 12210.25"><path fill="#0a0a0a" fill-rule="evenodd" d="M9325.625 1754.469c-5.115 1.823-10.437 7.099-11.595 11.496-3.992 15.151-26.594 165.67-37.47 249.535-16.541 127.546-35.353 309.374-48.058 464.5-1.419 17.325-3.003 32.266-3.52 33.202s-16.397 20.961-35.29 44.5c-343.984 428.573-570.858 742.611-740.715 1025.298-84.546 140.707-152.863 271.26-202.124 386.261-48.714 113.724-65.758 171.648-74.515 253.239-2.47 23.014-2.466 80.482.008 104 4.372 41.58 13.079 81.261 26.226 119.531 12.495 36.373 46.207 122.271 65.801 167.661 25.728 59.603 45.378 99.324 97.36 196.808 170.382 319.523 366.549 634.79 584.406 939.224l19.482 27.223-4.276 20.277c-6.952 32.961-12.123 66.191-15.371 98.776-1.751 17.57-2.366 64.861-1.066 82 5.297 69.82 26.158 121.935 65.536 163.722 16.418 17.422 32.353 30.008 69.056 54.545 40.24 26.901 47.345 33.324 62.761 56.741 24.25 36.833 46.67 82.143 67.788 136.992 8.695 22.582 16.341 43.793 34.427 95.5 30.333 86.721 49.654 134.482 69.999 173.033l6.35 12.033-17.162 10.375c-9.44 5.707-37.638 22.744-62.663 37.862-336.75 203.427-597.635 369.291-817.5 519.742-267.02 182.719-470.715 340.114-622.5 481.006-26.074 24.203-84.216 82.021-101.513 100.949-36.775 40.242-62.66 80.77-80.805 126.514-22.261 56.122-30.803 119.379-26.665 197.486 8.84 166.901 72.04 317.79 200.364 478.373 45.265 56.643 88.748 104.32 161.095 176.629 153.753 153.675 318.715 300.29 584.024 519.069 97.261 80.203 103.422 85.169 120.5 97.129 39.863 27.916 78.166 43.77 118 48.843 16.083 2.048 44.796 1.565 60-1.009 11.043-1.869 26.888-5.442 28.871-6.51 1.462-.788-28.989-25.961-166.371-137.534-222.002-180.296-340.325-279.555-456.5-382.95-119.289-106.167-221.858-205.701-298.914-290.068-50.206-54.97-93.691-107.834-127.086-154.498-72.643-101.507-118.859-218.422-130.635-330.474-2.182-20.764-2.477-69.884-.525-87.5 7.539-68.057 27.946-123.892 62.682-171.509 19.202-26.322 36.651-43.857 112.478-113.028 88.838-81.04 177.85-154.9 261.485-216.972 288.088-213.815 624.947-439.768 969.015-649.981 101.815-62.206 307.619-184.296 348.238-206.587 3.431-1.882 6.244-3.913 6.25-4.512s-2.288-5.773-5.1-11.5c-35.746-72.798-82.766-175.002-110.144-239.411-39.638-93.252-65.027-162.967-95.778-263-7.778-25.3-14.293-46.154-14.479-46.342-.186-.189-5.317-1.192-11.403-2.23-71.865-12.262-128.413-50.298-154.818-104.137-8.973-18.297-14.289-36.509-18.474-63.291-2.971-19.013-3.225-65.497-.475-87 4.668-36.504 11.243-67.949 24.713-118.194 3.351-12.5 5.905-23.446 5.675-24.324-.229-.879-10.452-15.747-22.717-33.04-250.208-352.791-442.41-658.652-588.457-936.442-18.763-35.689-65.205-128.899-81.464-163.5-38.011-80.895-79.827-179.007-92.087-216.062-9.233-27.906-16.479-61.447-20.186-93.438-2.001-17.271-1.681-69.595.535-87.5 3.493-28.216 9.438-55.538 17.737-81.5 9.603-30.047 60.415-153.248 90.939-220.5 40.998-90.326 74.186-153.316 128.298-243.5 145.544-242.569 259.678-415.627 377.243-572 11.578-15.4 110.54-144.55 219.916-287l198.865-259 37.242-357.823c20.484-196.802 37.49-358.07 37.792-358.371.965-.965 9.96 4.897 15.543 10.129 10.833 10.152 17.621 24.844 18.718 40.514.34 4.855-4.16 72.704-12.606 190.051-7.225 100.375-12.923 184.213-12.663 186.307.972 7.833 14.59 25.473 24.593 31.856 6.694 4.272 9.987 3.854 15.072-1.913 5.514-6.254 14.596-24.998 15.867-32.75.541-3.3 11.896-102.075 25.233-219.5s24.399-213.696 24.584-213.935c.731-.949 8.715 7.831 13.219 14.537 5.888 8.768 10.373 19.389 12.625 29.898 3.418 15.943 2.885 23.425-17.454 244.984-10.5 114.392-19.086 212.042-19.079 217 .024 16.563 5.442 35.839 10.425 37.09 1.24.311 11.196-1.557 22.122-4.151l19.867-4.718 32.945-28.36c18.12-15.599 33.113-28.193 33.318-27.988.517.517-10.961 31.464-19.711 53.143-17.773 44.035-46.723 104.838-75.23 158-7.373 13.75-133.347 243.025-279.942 509.5l-266.537 484.5-179.635 355.807C8670.836 4068 8590 4228.298 8590 4228.523s9.746 17.188 21.658 37.694c176.21 303.345 376.043 608.829 643.071 983.061l33.377 46.778 5.78-3.278c3.178-1.803 69.621-40.178 147.65-85.278 137.186-79.292 142.124-82.248 149.542-89.5 21.735-21.251 36.21-60.125 34.628-93-.362-7.531-1.28-13.819-2.66-18.22-2.052-6.542-2.219-6.747-6.327-7.774-10.464-2.616-33.281-10.52-44.307-15.349-67.477-29.548-117.014-82.938-137.77-148.487-11.844-37.404-13.728-74.227-6.045-118.17 15.93-91.113 53.737-179.654 102.694-240.5 49.513-61.536 107.524-96.456 177.905-107.091 6.907-1.044 22.832-1.82 48.304-2.355 41.85-.879 50.344-1.766 73.474-7.671 84.051-21.458 145.2-89.607 185.181-206.383 14.256-41.639 25.594-87.645 38.32-155.5 9.49-50.594 16.704-79.082 29.911-118.114 11.644-34.413 28.033-72.627 42.837-99.885 49.298-90.771 107.48-144.051 173.729-159.092 16.311-3.703 34.177-5.009 49.639-3.629 12.092 1.08 29.064 4.023 34.158 5.924 1.304.487 18.873 22.683 41.805 52.818 21.756 28.588 40.182 52.612 40.946 53.388.765.775 14.803 5.386 31.195 10.247 65.349 19.379 102.972 33.112 147.798 53.952 14.117 6.564 17.369 8.439 16.318 9.414-.721.67-36.861 25.178-80.311 54.463-43.45 29.284-84.175 57.124-90.5 61.864-45.09 33.796-83.761 74.161-112.723 117.661-25.45 38.226-41.462 70.783-72.353 147.114-20.343 50.269-28.633 69.138-40.802 92.875-20.734 40.445-42.503 70.908-71.11 99.51-38.027 38.021-86.662 72.025-146.512 102.437-35.184 17.878-73.745 34.188-138.5 58.58-36.284 13.667-56.26 22.117-66.08 27.951-7.229 4.295-13.518 10.573-14.496 14.471-1.46 5.815 7.217 16.802 17.307 21.915 9.395 4.76 16.42 6.012 33.769 6.015 28.418.004 47.644-4.009 117.5-24.526 37.22-10.932 52.217-15.924 75.252-25.051 20.305-8.045 55.842-25.288 72.748-35.297 73.174-43.322 127.747-99.277 174.585-179.005 13.004-22.135 36.044-68.562 52.356-105.5 7.894-17.875 18.819-42.625 24.278-55 21.232-48.133 42.614-88.356 60.423-113.668 16.124-22.915 35.781-44.04 54.358-58.414 9.246-7.155 212.23-149.981 215.5-151.633 1.1-.556 6.79-1.29 12.644-1.632 16.404-.957 37.339-4.174 72.864-11.196 46.446-9.18 55.544-10.481 77.992-11.146 28.926-.856 51.992 2.626 79.5 12.002 25.694 8.759 68.433 29.992 70.527 35.039 3.316 7.995 6.116 32.581 6.11 53.648-.015 51.391-13.449 100.207-50.125 182.138-4.985 11.136-9.266 20.449-9.513 20.696-.247.248-4.735-3.647-9.972-8.654-19.09-18.25-26.254-23.18-33.683-23.18-7.166 0-11.944 4.425-27.021 25.028-3.03 4.14-19.485 23.138-36.566 42.217-17.082 19.08-56.415 63.39-87.407 98.468-96.017 108.674-116.935 131.827-158.397 175.33-35.48 37.226-75.167 74.654-106.453 100.394-101.833 83.782-215.727 147.511-459 256.833-23.925 10.751-48.675 21.814-55 24.584l-11.5 5.036.236 3.693c.954 14.918 27.35 31.351 50.441 31.402 4.706.011 11.936-1.336 24.5-4.563 178.128-45.757 334.738-121.292 474.989-229.092 47.676-36.645 66.93-54.551 114.334-106.33 38.352-41.891 59.088-62.227 82.249-80.664 11.142-8.869 33.416-24.246 32.239-22.256-1.788 3.023-38.601 51.368-52.861 69.42-83.675 105.93-162.371 186.707-243.702 250.148-131.242 102.375-278.378 167.552-464.71 205.851-2.958.608-3.765 1.633-8.13 10.338-11.977 23.883-25.38 57.925-32.547 82.663-11.943 41.224-16.397 74.263-15.167 112.5.573 17.824 3.389 44.093 4.887 45.591.277.277 8.769.934 18.872 1.46 183.377 9.557 342.296 74.902 481.298 197.901 38.892 34.414 95.7 94.813 143.009 152.048 59.762 72.301 113.546 150.547 157.751 229.5 5.235 9.35 117.868 218.375 250.297 464.5 132.428 246.125 241.169 447.927 241.647 448.45 2.221 2.43-.297-252.711-4.149-420.45-8.052-350.667-24.713-696.959-51.527-1071-6.7-93.453-10.333-140.076-12.001-154-3.133-26.153-9.577-58.533-19.064-95.802-16.163-63.49-19.781-78.368-23.399-96.198-12.434-61.279-13.17-107.454-2.419-151.764 1.503-6.195 2.85-11.145 2.994-11 .143.145 3.466 9.939 7.383 21.764 10.737 32.408 20.391 50.969 31.681 60.906 10.077 8.87 24.393 13.212 38.51 11.679l6.641-.721.646-7.182c.356-3.95 1.038-68.607 1.515-143.682.512-80.367 1.312-141.846 1.945-149.5 3.598-43.457 6.889-69.293 12.61-99 5.164-26.807 15.724-67.5 17.517-67.5 1.338 0 6.815 11.524 10.429 21.942 6.182 17.82 10.205 41.925 12.695 76.058 1.325 18.159 1.614 77.248.896 183-.492 72.328.042 87.504 4.061 115.5 4.157 28.962 10.987 47.627 20.78 56.787 2.771 2.592 5.5 4.713 6.064 4.713 2.494 0 12.659-24.706 17.644-42.885 5.769-21.035 9.612-43.447 12.365-72.115 2.174-22.634 3.127-51.399 4.042-122 1.159-89.426 2.437-111.355 8.57-147 2.452-14.249 7.561-35.609 9.232-38.594 1.011-1.807 6.035 24.536 10.221 53.594 18.127 125.841 15.367 251.443-9.505 432.5-3.44 25.046-7.308 51.098-24.422 164.5l-7.923 52.5 41.965 201.5c69.72 334.77 97.157 474.488 131.35 668.885 39.348 223.702 78.011 485.542 90.975 616.115 20.11 202.551 17.004 371.988-9.01 491.467-11.565 53.117-29.381 101.281-49.408 133.572-24.213 39.038-62.389 61.324-113.036 65.986-27.17 2.5-59.119-2.844-86.175-14.415-13.203-5.647-22.262-10.776-37.825-21.419-102.902-70.367-214.178-187.828-342.647-361.691-54.001-73.081-97.299-135.609-196.467-283.721-78.991-117.977-431.377-633.673-439.323-642.924-7.425-8.644-18.938-18.663-32.401-28.197-10.497-7.432-32.975-21.185-33.59-20.551-.479.494-257.572 784.17-257.572 785.135 0 .389 9.112 8.015 20.25 16.947 115.561 92.676 211.197 187.95 288.903 287.811 51.529 66.22 103.464 147.23 135.593 211.5 98.97 197.984 103.49 432.22 13.602 704.909-21.849 66.282-45.297 125.341-79.639 200.591-68.235 149.517-145.243 299.875-230.263 449.592-59.217 104.277-62.97 110.466-330.116 544.408-114.952 186.725-211.808 344.546-215.234 350.714-6.768 12.181-16.955 33.933-23.317 49.786-6.599 16.445-17.866 47.746-17.366 48.246.256.257 29.314-15.219 64.574-34.39l64.108-34.856 81.641-128.5c179.136-281.95 245.519-388.13 333.541-533.5 115.967-191.522 228.45-391.388 294.06-522.5 42.881-85.691 73.904-154.926 103.508-231 32.814-84.324 63.469-179.391 83.119-257.772 29.456-117.493 35.41-253.019 17.954-408.68-8.883-79.21-32.387-152.758-78.473-245.548-27.105-54.575-49.694-95.149-68.11-122.338-87.12-128.623-194.277-245.942-337.487-369.492l-17.652-15.229 4.767-13.72c2.621-7.547 46.973-137.137 98.56-287.98l93.795-274.258 16.509 24.758c96.16 144.216 479.357 716.843 490.689 733.259 123.369 178.713 242.657 319.847 361.517 427.722 74.17 67.315 164.74 103.819 250.467 100.951 52.081-1.743 96.45-16.254 137-44.808 11.295-7.953 36.654-33.159 46.143-45.865 54.165-72.524 86.388-181.413 97.803-330.5 4.329-56.544 4.596-142.315.626-201.5-14.104-210.307-40.845-416.198-86.563-666.5-23.847-130.56-105.235-561.67-110.534-585.5-3.364-15.125-11.037-46.85-17.052-70.5s-16.079-63.25-22.365-88c-26.023-102.451-37.223-163.972-41.51-228-1.203-17.967.146-36.88 12.51-175.477 6.164-69.084 10.649-123.637 12.911-157.023 10.47-154.551 7.309-273.693-10.056-378.99-3.598-21.815-5.9-33.902-6.553-34.396-.198-.15-4.41-1.303-9.36-2.563-19.847-5.052-38.214-13.228-63-28.043-35.133-21.001-49.72-25.901-77.318-25.973-7.325-.019-18.35.686-24.5 1.567-12.691 1.818-41.247 8.84-53.147 13.068-7.147 2.539-8.032 3.138-8.61 5.83-18.63 86.761-32.973 179.642-46.403 300.5-1.437 12.925-2.803 24.425-3.037 25.555-.404 1.952-1.111 2.055-14.205 2.064-15.95.011-23.821 1.578-35.045 6.976-8.399 4.04-19.394 13.802-25.224 22.394-27.95 41.193-31.278 119.824-10.414 246.011 4.027 24.354 11.152 61.123 21.898 113 4.045 19.525 8.299 41.35 9.453 48.5 1.809 11.201 6.041 100.132 30.576 642.516 15.662 346.234 28.47 630.409 28.463 631.5-.036 5.543-58.421-102.024-132.99-245.016-55.441-106.313-87.198-165.971-115.776-217.5-103.889-187.321-191.598-315.971-290.091-425.5-31.127-34.615-83.906-85.333-119.13-114.477-129.748-107.353-271.285-170.248-428.5-190.415l-17-2.18-.828-6.964c-1.278-10.745-.117-37.431 2.2-50.575 3.683-20.896 12.871-45.35 17.419-46.364 1.215-.27 8.509-1.666 16.209-3.1 138.799-25.86 269.749-84.23 389.99-173.837 102.675-76.516 193.373-166.678 341.102-339.088 141.614-165.272 139.278-162.406 170.308-209 76.203-114.424 120.111-236.287 131.694-365.5 4.949-55.212-5.828-89.997-37.188-120.029-35.521-34.017-94.504-52.325-183.906-57.081-24.642-1.311-82.506-.611-122 1.477l-24 1.269-9-3.191c-18.738-6.644-36.667-14.485-84.5-36.952-68.004-31.943-96.934-43.642-130.94-52.949l-11.56-3.164-33.793-39.94c-52.53-62.085-53.809-63.543-60.707-69.157-13.03-10.606-33.738-18.975-55.5-22.431-10.415-1.654-43.365-1.641-55.5.021-32.057 4.391-57.617 12.213-88.5 27.081-92.875 44.713-158.977 120.752-205.248 236.102-23.62 58.882-38.832 113.462-67.155 240.944-3.849 17.325-8.614 38.475-10.589 47-16.758 72.358-44.618 126.977-85.641 167.899-19.617 19.57-35.838 31.181-50.225 35.951-15.938 5.285-24.381 6.175-68.142 7.184-52.308 1.205-71.457 2.719-95.422 7.546-29.061 5.854-60.449 18.455-87.078 34.96-48.828 30.263-106.37 92.304-144.65 155.96-39.862 66.287-64.412 135.769-74.256 210.161-3.393 25.64-4.384 45.463-3.805 76.123.807 42.737 5.641 70.838 18.187 105.716 25.124 69.852 77.257 127.402 148.063 163.448 9.628 4.901 13.078 7.114 12.194 7.82-.678.542-36.783 22.573-80.233 48.959-43.45 26.385-88.296 53.631-99.657 60.547l-20.657 12.573-27.456-38.174c-177.924-247.378-349.158-505.316-519.915-783.173-27.762-45.174-72.716-119.152-77.788-128.011l-2.297-4.012 3.268-6.488c1.797-3.569 158.294-303.939 347.77-667.489s355.065-681.7 367.974-707c37.1-72.71 52.008-99.024 77.049-136 23.343-34.468 45.96-71.623 69.393-114 65.129-117.777 106.244-216.273 116.942-280.146 2.796-16.69 3.044-39.79.531-49.354-2.436-9.271-6.123-16.308-11.205-21.391-9.697-9.696-19.675-12.018-48.452-11.275-17.808.46-26.719 1.272-46.75 4.259l-4.25.634.007-31.863c.007-35.048.613-52.131 4.992-140.864 4.06-82.251 5.002-110.326 4.995-148.897-.007-45.381-2.619-96.417-6.068-118.603-2.108-13.558-9.862-25.022-20.904-30.908-8.269-4.407-17.132-6.057-32.522-6.056-14.71.001-25.17 1.309-51 6.376-22.97 4.507-35.918 6.579-41.134 6.584-2.274.002-14.883-2.676-28.021-5.951s-27.874-6.65-32.747-7.5c-11.035-1.924-29.674-1.965-34.973-.076M7473 1914.594c-46.269 7.396-78.296 37.623-86.454 81.594-1.167 6.288-24.869 253.329-45.412 473.321-.569 6.1-.579 13.519-.023 19 2.504 24.714 13.918 55.031 25.045 66.523 7.069 7.301 23.078 12.96 47.844 16.91 6.875 1.097 75.454 8.776 152.398 17.066 158.397 17.065 143.849 16.348 161.244 7.955 18.413-8.883 36.926-25.246 43.367-38.33 3.137-6.371 3.245-6.989 2.778-15.881-.39-7.406-1.05-10.449-3.312-15.252-3.818-8.107-12.08-16.042-22.036-21.166-19.544-10.056-40.113-14.416-95.939-20.334-47.61-5.047-66.481-8.561-80.123-14.922-12.196-5.685-18.367-14.182-23.115-31.824-2.448-9.096-2.629-11.238-2.675-31.754-.056-24.789 1.279-35.976 6.942-58.139 3.223-12.616 9.621-30.896 11.463-32.748.487-.489 51.695-1.461 114.407-2.171l113.526-1.285 5.924-3.157c10.301-5.49 22.8-17.472 27.177-26.051 3.434-6.732 2.746-9.688-4.922-21.146-19.13-28.584-39.465-41.801-73.54-47.801-18.199-3.204-30.667-3.847-108.564-5.603-40.975-.924-74.569-1.729-74.654-1.789-.351-.25 25.309-164.598 25.77-165.06 1.487-1.486 17.808-2.706 35.884-2.682 22.756.03 39.461 1.32 92.5 7.141 59.317 6.511 66.857 7.122 95.009 7.702 45.883.945 67.732-3.438 81.544-16.357 7.523-7.038 10.202-12.899 10.742-23.507.396-7.776.171-9.242-2.222-14.468-6.849-14.96-27.121-34.282-41.73-39.775-2.594-.976-72.998-10.729-174.843-24.221-153.204-20.297-172.224-22.625-187.5-22.948-11.943-.253-19.826.092-26.5 1.159m627 38.078c-6.329.637-16.376 2.347-23.867 4.062-5.504 1.26-7.584 2.203-8.221 3.727-.47 1.121-24.792 124.664-54.051 274.539-52.957 271.274-53.196 272.556-53.188 285 .02 28.134 11.354 53.352 33.963 75.565 23.441 23.031 51.186 32.806 93.364 32.894 22.807.048 30.45-1.298 42.97-7.564 9.375-4.693 16.013-11.469 18.799-19.193 1.031-2.861 18.043-71.895 37.803-153.409 26.762-110.398 36.212-147.899 37.042-147 .613.664 50.074 74.107 109.913 163.207s111.719 165.523 115.289 169.83c24.107 29.083 63.788 49.358 110.184 56.296 15.658 2.342 43.723 2.363 53.858.042 41.716-9.557 83.965-40.87 110.652-82.01 10.095-15.561 47.318-91.075 75.742-153.658 96.513-212.493 136.267-359.295 110.734-408.92-3.64-7.074-5.933-9.671-13.986-15.839-10.401-7.967-20.57-14.121-34.5-20.879-35.762-17.351-71.454-22.339-103-14.394-8.502 2.142-26.355 10.522-27.761 13.032-.462.825-43.68 104.347-96.04 230.05-52.359 125.702-95.584 228.752-96.054 229-.471.247-58.175-92.002-128.232-204.998s-129.819-209.118-132.804-213.603c-36.047-54.167-88.77-89.062-144.15-95.406-8.41-.964-26.622-1.159-34.459-.371m-1115.5 12.361c-21.492 2.452-39.735 7.852-59 17.464-42.305 21.107-76.697 59.8-107.824 121.311-18.188 35.941-28.64 62.192-59.694 149.926-7.15 20.2-9.982 26.087-9.982 20.751 0-2.9-17.502-54.605-24.181-71.436-13.418-33.814-30.42-65.61-46.975-87.85-9.762-13.114-30.14-33.235-41.344-40.822-26.009-17.613-47.871-24.869-78.5-26.053-78.203-3.024-130.298 40.283-177.305 147.396-3.674 8.37-12.56 29.745-19.747 47.5-14.372 35.505-25.811 61.78-26.895 61.78-.385 0-2.083-4.838-3.774-10.75L6296.633 2180c-16.265-56.925-29.93-104.613-30.368-105.974-1.729-5.379-21.702-9.993-43.339-10.013-30.299-.027-56.086 7.909-71.216 21.916-13.827 12.802-26.876 38.705-32.301 64.124-2.961 13.873-2.45 28.485 1.957 55.947 22.966 143.111 43.125 247.582 75.257 390 11.125 49.306 13.637 59.158 17.909 70.229 7.992 20.712 17.902 36.26 32.428 50.878 14.941 15.035 26.344 21.367 43.199 23.988 11.02 1.714 44.854.569 56.877-1.924 35.244-7.309 57.794-24.058 62.834-46.671.613-2.75 16.633-89.375 35.599-192.5 37.593-204.395 36.938-201.337 47.628-222.525 2.767-5.486 8.365-14.925 12.439-20.975 7.292-10.829 23.905-31.5 25.316-31.5.397 0 19.105 72.563 41.573 161.25 22.467 88.688 42.171 165.45 43.786 170.584 15.066 47.891 46.484 80.23 85.289 87.789 11.268 2.195 46.789 2.513 59 .527 33.105-5.382 54.747-17.347 64.719-35.781 4.042-7.472 7.278-22.417 26.276-121.369 12.465-64.923 18.929-95.788 26.491-126.5 19.629-79.719 44.519-144.471 77.069-200.5 11.711-20.158 22.744-36.728 23.3-34.991.262.82 11.093 88.734 24.068 195.365 26.41 217.034 23.9 201.169 35.204 222.565 11.279 21.351 24.082 36.845 34.739 42.041 12.894 6.287 32.997 8.453 71.939 7.752 48.679-.877 86.366-7.995 110.997-20.964 9.192-4.84 20.162-14.785 21.297-19.307.497-1.98-3.8-29.28-13.526-85.931-48.387-281.841-50.25-292.255-57.687-322.53-22.268-90.65-59.201-142.278-119.192-166.618-11.244-4.562-31.663-9.805-46.204-11.864-13.718-1.943-44.306-2.762-55.49-1.485M5717 2212.699c-2.475.193-9.675 1.035-16 1.872-93.195 12.335-180.927 65.714-233.268 141.929-48.643 70.83-69.899 161.077-60.178 255.5 9.459 91.874 47.856 175.467 108.416 236.031 47.791 47.795 105.527 78.283 172.03 90.842 20.428 3.857 30.678 4.629 60.5 4.554 31.401-.079 44.027-1.354 69.222-6.992 96.224-21.529 175.972-86.337 213.789-173.737 38.949-90.016 43.095-208.474 10.875-310.698-37.758-119.789-119.76-203.787-225.386-230.871-13.234-3.394-31.92-6.626-46.856-8.104-9.54-.944-42.585-1.147-53.144-.326m-31.5 129.679c-13.8 4.512-22.829 10.1-34.855 21.571-30.078 28.689-50.6 76.788-59.329 139.051-2.512 17.922-2.496 70.018.028 88.5 10.439 76.436 38.98 140.992 86.435 195.5 15.854 18.211 33.704 30.437 54.938 37.628 11.35 3.843 19.74 3.755 28.42-.3 37.583-17.556 66.146-67.811 77.768-136.828 4.053-24.07 4.596-32.164 4.559-68-.032-30.474-.325-37.134-2.267-51.5-9.002-66.583-29.445-123.08-62.898-173.823-14.332-21.738-26.697-33.498-46.299-44.032-18.258-9.813-32.81-12.243-46.5-7.767m4236 29.264c-3.85.814-8.527 2.24-10.394 3.169-3.144 1.565-13.243 20.707-137.265 260.189-73.63 142.175-134.362 260.298-134.961 262.494-1.843 6.763-.626 22.927 2.358 31.312 7.598 21.347 26.284 43.767 43.457 52.14 24.048 11.726 65.345 11.603 87.798-.262 11.667-6.165 10.059-3.895 61.024-86.184 104.576-168.851 167.331-286.52 219.702-411.949 9.153-21.923 9.28-23.135 3.889-37.114-17.864-46.324-87.161-84.033-135.608-73.795m-4786.189 46.383c-26.365 2.55-59.135 16.296-71.923 30.17-4.532 4.917-7.658 12.907-9.311 23.805-1.788 11.787-2.31 28.291-1.202 38 .848 7.424 105.599 478.227 107.664 483.891.637 1.75 1.43 2.372-19.533-15.324-72.815-61.468-145.694-127.41-262.506-237.524-26.4-24.885-51.15-47.491-55-50.234-3.85-2.742-11.95-7.409-18-10.369-23.012-11.261-44.404-15.993-68.5-15.153-15.681.547-23.288 2.08-33.846 6.824-18.404 8.268-29.249 21.007-36.561 42.947-7.387 22.167-10.22 45.617-9.295 76.942.737 24.969 2.432 40.967 9.745 92 7.348 51.278 40.072 296.16 39.716 297.21-.142.42-47.949-76.067-106.238-169.973-58.288-93.905-109.098-175.462-112.911-181.237-8.053-12.197-24.047-28.684-32.845-33.855-17.123-10.064-33.558-13.054-53.06-9.653-30.965 5.4-50.304 22.237-60.313 52.508-2.627 7.947-2.813 9.606-2.849 25.5-.039 16.974-.034 17.015 3.511 27 2.954 8.323 21.859 41.902 112.748 200.268C4514.861 3196.415 4564 3282.2 4564 3282.401s-3.038.68-6.75 1.064c-57.796 5.973-110.111 40.997-156.61 104.845-43.02 59.072-79.856 144.818-104.472 243.19-16.401 65.546-25.912 126.203-31.359 200-1.644 22.276-1.635 97.223.014 117 5.084 60.988 14.649 105.299 30.507 141.333 21.994 49.973 62.203 81.351 125.154 97.666 32.67 8.467 63.5 12.565 124.016 16.486 82.35 5.335 102.02 7.105 128.222 11.539 34.598 5.854 50.043 11.069 86.778 29.303 145.507 72.223 226.255 99.855 345 118.056 24.946 3.824 37.205 5.482 141.5 19.13 45.26 5.923 106.218 14.457 110.75 15.505l2.25.52V4509h-2.824c-1.553 0-15.39-1.333-30.75-2.963-237.077-25.156-492.079-32.447-752.426-21.513-210.638 8.847-457.671 31.155-615 55.538-171.22 26.535-313.324 65.79-444 122.651-88.768 38.626-138.095 72.976-166.272 115.787-23.829 36.204-36.703 95.074-32.804 150 4.965 69.929 27.235 134.461 73.163 212 243.541 411.165 633.812 835.116 1155.128 1254.815l30.715 24.728-3.559 7.728c-30.102 65.377-48.645 126.49-60.754 200.229-27.904 169.922-8.317 375.178 55.394 580.5 13.848 44.63 27.687 82.854 51.228 141.5 75.683 188.542 167.079 372.615 285.253 574.5 8.371 14.3 120.737 204.875 249.704 423.5 128.966 218.625 235.032 398.531 235.701 399.791 1.102 2.074-1.096 6.805-23.23 50-98.346 191.92-193.219 381.808-269.902 540.209-305.338 630.724-521.578 1163.945-701.78 1730.5-17.926 56.359-30.062 95.956-238.463 778-109.235 357.5-201.113 657.875-204.174 667.5-7.429 23.363-12.511 35.891-31.848 78.5-28.966 63.829-37.891 89.29-41.996 119.802l-1.372 10.198 90.881 359.5c49.984 197.725 91.528 361.324 92.32 363.553 5.912 16.649 19.482 33.13 33.607 40.818 9.653 5.253 22.017 6.838 35.847 4.594 10.773-1.749 17.18-4.677 22.83-10.434 7.052-7.185 8.913-12.827 8.751-26.531-.17-14.458-3.313-27.494-16.011-66.41-11.901-36.468-16.671-53.711-18.838-68.09-1.521-10.09-1.84-26.464-.623-32 .585-2.665.746-2.777 1.436-1 .427 1.1 13.183 34.175 28.346 73.5s29.264 74.875 31.336 79c9.908 19.725 28.897 38.488 44.043 43.519 4.079 1.355 7.492 1.628 15.822 1.266 17.98-.781 32.972-7.383 50.251-22.128 4.197-3.581 8.548-7.8 9.67-9.376l2.039-2.864-32.773-25.638-32.772-25.639-34.271-77.088c-18.849-42.398-34.552-77.247-34.897-77.442-.344-.196-14.446.804-31.337 2.223s-30.979 2.311-31.306 1.983-33.168-114.924-72.977-254.658l-72.381-254.061 1.97-8.299c6.201-26.131 17.21-56.432 40.495-111.457 18.675-44.131 26.07-62.487 31.476-78.124 2.228-6.445 24.305-75.167 49.06-152.717 29.098-91.156 108.818-348.155 225.511-727 220.126-714.641 207.005-672.515 244.811-786 153.092-459.546 343.507-916.41 617.266-1481 59.852-123.437 162.156-329.061 234.335-471 69.764-137.188 71.353-140.531 75.956-159.741 5.627-23.489 2.478-45.868-9.826-69.825-2.665-5.189-21.176-35.759-41.135-67.934-187.78-302.708-360.044-594.655-513.051-869.5-70.169-126.044-118.354-220.63-161.745-317.5-165.284-368.999-209.124-668.212-131.791-899.5 14.332-42.864 32.672-83.205 54.482-119.837 4.434-7.447 8.026-13.904 7.984-14.351s-9.129-8.462-20.192-17.812c-67.342-56.912-186.57-159.469-252.231-216.963-223.48-195.684-378.406-348.497-547.557-540.089-162.879-184.488-290.521-351.813-371.297-486.735-45.582-76.136-80.152-151.402-89.391-194.627-2.459-11.501-2.69-14.483-2.688-34.586.003-18.996.303-23.34 2.198-31.814 10.177-45.505 36.02-82.545 76.564-109.737 20.845-13.982 72.427-36.738 128.671-56.768 209.644-74.659 522.298-125.169 883-142.652 300.19-14.55 615.028-3.499 826.5 29.011 37.836 5.816 43.349 6.42 58.792 6.44 23.795.032 37.845-4.021 47.537-13.714 6.427-6.427 8.346-11.829 12.036-33.884 9.48-56.666 10.75-107.431 4.036-161.382-2.346-18.852-7.495-48.372-8.892-50.984-2.892-5.404-43.185-21.825-72.575-29.578-36.258-9.565-64.342-13.676-149.434-21.877-50.48-4.865-65.786-6.535-88-9.603-81.735-11.289-146.321-30.102-206.201-60.066-113.938-57.014-205.867-88.208-289.799-98.336-23.503-2.836-38.531-3.632-86-4.559-50.303-.982-60.256-1.79-79.696-6.475-29.612-7.136-61.009-25.469-89.258-52.117l-7.091-6.69 3.273-2.224c7.05-4.791 23.823-13.625 34.772-18.315 84.142-36.04 197.785-31.046 338.5 14.876 37.914 12.373 70.98 25.118 123 47.411 45.09 19.322 75.874 30.909 112.678 42.412 89.085 27.841 170.553 43.117 268.322 50.312 22.926 1.687 103.022 1.697 124.5.016 80.589-6.31 138.69-21.129 157.811-40.249 9.533-9.533 6.602-19.631-7.811-26.914-16.745-8.461-36.218-9.351-130-5.94-51.109 1.859-108.506.494-154.5-3.674-88.392-8.01-177.28-28.598-263.844-61.112-39.571-14.863-63.13-25.254-118.656-52.33-21.175-10.326-46.375-21.932-56-25.79-50.898-20.405-100.805-32.879-156.5-39.115-43.741-4.898-100.26-3.788-150 2.947-41.241 5.584-93.049 17.419-133.338 30.461-6.236 2.019-11.505 3.503-11.708 3.3-.673-.673-3.366-28.967-4.542-47.717-1.353-21.564-.719-72.333 1.106-88.57.68-6.05 1.346-11.13 1.481-11.289.787-.927 27.607-11.96 42.501-17.484 87.044-32.279 175.486-40.583 268.204-25.182 72.081 11.973 134.306 32.33 267.296 87.446 110.372 45.743 162.72 65.215 217.5 80.904 135.955 38.938 259.986 42.035 386.395 9.647 14.113-3.616 17.449-4.822 19.3-6.973 7.059-8.207 8.414-37.405 2.012-43.351-1.214-1.128-4.907-2.591-8.207-3.252-10.307-2.066-47.45-2.292-78.5-.479-38.806 2.266-107.501 3.099-132.137 1.602-88.915-5.401-165.452-23.441-247.363-58.304-7.7-3.277-30.65-14.08-51-24.007-57.371-27.987-90.798-43.1-130.261-58.897-93.143-37.285-176.16-58.883-259.239-67.446-21.074-2.173-80.943-3.051-102.231-1.501-63.397 4.616-122.518 18.624-179.019 42.416l-10.75 4.526v-3.308c0-4.939 3.616-25.058 7.628-42.448 15.273-66.192 43.895-146.269 73.183-204.745 34.618-69.119 69.74-109.578 102.472-118.041 5.211-1.347 9.858-1.507 28.717-.991 85.821 2.351 184.775 24.858 301 68.465 54.598 20.484 103.442 41.118 200.5 84.699 70.25 31.543 110.602 49.424 137 60.707 145.253 62.083 250.018 91.911 343.5 97.798 9.625.606 98.05 3.792 196.5 7.079 198.814 6.639 194.144 6.334 228.5 14.924 81.588 20.399 148.006 76.463 177.415 149.754 12.364 30.815 17.706 59.612 17.666 95.231-.02 18.072-1.098 35.35-2.278 36.53-.222.222-20.832-5.651-45.801-13.051-34.162-10.125-45.598-13.149-46.204-12.217-1.683 2.587-3.921 11.49-4.46 17.738-1.797 20.876 12.977 38.573 46.12 55.241 8.384 4.216 43.952 20.137 53.885 24.119l2.842 1.14-.667 7.5c-5.043 56.702-24.66 119.112-53.884 171.433-23.18 41.498-47.537 73.484-80.79 106.096-37.131 36.415-59.491 50.728-90.844 58.153-15.666 3.71-40.98 4.251-66.5 1.421-21.078-2.337-33.962-2.655-40-.987-5.36 1.481-10.887 7.393-12.353 13.214-3.665 14.557 2.087 48.114 15.011 87.576 20.005 61.081 43.985 88.601 93.366 107.149 5.631 2.115 25.03 8.34 43.108 13.833 37.647 11.439 50.855 15.897 71.3 24.066 46.842 18.716 91.857 43.968 138.037 77.436 6.858 4.97 25.758 19.363 42 31.985 135.819 105.542 247.087 200.41 358.01 305.245 14.037 13.265 139.818 132.617 279.514 265.226l253.993 241.106 5.34-5.226c18.98-18.573 32.932-46.904 36.852-74.831l1.686-12.018-36.231-602.188-36.231-602.189-27.904-344c-15.347-189.2-28.842-351.875-29.989-361.5-2.96-24.831-5.991-44.814-15.089-99.5-18.943-113.849-23.524-164.877-19.285-214.792l.576-6.792 6.467 10.792c22.38 37.353 43.698 63.203 62.068 75.262 9.103 5.976 11.99 6.321 15.73 1.876 6.149-7.308 14.007-27.405 15.15-38.746.328-3.25-.089-9.376-.994-14.6-2.851-16.468-5.598-42.893-7.69-74-1.68-24.98-2.317-111.102-1.046-141.5 3.237-77.422 10.354-131.707 21.145-161.275 3.784-10.368 7.199-15.509 11.493-17.304 4.055-1.694 15.315-1.722 30.966-.077l11 1.156.5 227.5.5 227.5 4.092 8.5c4.061 8.433 8.685 15 10.564 15 2.042 0 7.967-5.471 22.168-20.466 8.072-8.523 14.676-14.912 14.676-14.197s-6.525 58.086-14.5 127.491-14.5 127.73-14.5 129.612 5.647 28.991 12.549 60.241c122.747 555.777 198.32 935.383 261.955 1315.819 24.969 149.275 52.812 330.733 56.926 371 7.346 71.894 6.653 147.184-1.993 216.5-13.192 105.762-43.5 194.129-87.768 255.899-27.48 38.346-58.507 65.447-96.732 84.492-39.434 19.648-84.024 27.836-134.437 24.689-116.777-7.291-220.38-29.372-317-67.561-73.342-28.989-170.045-74.941-250.5-119.035-116.379-63.781-225.232-135.246-334.775-219.789-17.004-13.123-23.137-18.398-22.762-19.579 1.244-3.921 5.639-32.359 7.158-46.316 2.005-18.427 2.293-58.983.539-75.8-5.598-53.656-21.918-101.008-47.027-136.451-7.027-9.918-22.844-26.045-30.133-30.722-15.431-9.901-26.685-8.872-29.889 2.733-.54 1.956-1.532 9.5-2.204 16.764l-1.222 13.207 5.067 12.485c13.344 32.875 21.434 62.987 25.923 96.484 2.644 19.726 2.393 60.91-.466 76.5-9.286 50.639-34.009 84.265-79.34 107.914-20.111 10.491-43.406 18.271-82.624 27.594-27.151 6.454-38.1 9.724-44.045 13.154-4.857 2.802-7.805 7.792-6.85 11.596 1.726 6.876 19.837 27.964 26.216 30.525 1.614.648 21.323 5.663 43.798 11.144 22.475 5.482 41.054 10.157 41.286 10.39.233.233-.513 2.798-1.657 5.7s-15.517 40.873-31.941 84.38c-72.205 191.27-106.164 274.611-149.727 367.454-56.014 119.38-120.04 228.414-184.178 313.649-4.966 6.6-8.719 12.273-8.338 12.606.38.333 162.016 47.519 359.191 104.857 374.645 108.948 394.258 114.737 452.103 133.45 289.455 93.643 587.268 218.577 777.897 326.331 155.977 88.167 254.186 169.283 293.307 242.256 12.894 24.052 18.634 49.147 18.673 81.644.063 51.683-12.241 100.763-49.475 197.356-64.027 166.097-127.624 311.325-197.939 452-31.757 63.535-1.054 5.604-386.357 728.996l-338.486 635.497.62 10.503c.972 16.455 6.755 37.312 15.785 56.936 4.789 10.408 15.909 30.068 17.008 30.068 2.294 0 61.915-88.054 89.039-131.5 39.503-63.277 77.052-127.987 121.563-209.5 44.584-81.644 296.904-548.694 331.98-614.5 92.638-173.799 178.87-344.472 244.54-484 81.633-173.446 163.99-368.495 210.859-499.386 32.238-90.03 42.095-168.455 28.86-229.614-12.579-58.128-62.754-132.733-130.268-193.696-68.806-62.129-170.446-125.839-324.209-203.221-317.528-159.797-727.263-304.341-1345.5-474.657-18.425-5.075-33.635-9.333-33.8-9.46s6.633-12.322 15.105-27.099c79.597-138.829 136.286-255.871 177.208-365.867 3.478-9.35 37.211-103.163 74.961-208.473 37.751-105.309 68.784-191.618 68.963-191.797s10.391 6.737 22.694 15.37c112.032 78.61 194.649 134.16 261.899 176.094 250.434 156.162 452.74 230.742 659.97 243.297 21.557 1.306 58.556 1.284 74.696-.045 87.836-7.233 160.657-39.037 219.688-95.946 32.732-31.556 59.229-69.844 86.159-124.5 77.891-158.082 93.312-344.275 48.948-591-1.879-10.45-71.383-378.293-154.453-817.428-116.371-615.17-151.041-800.166-151.051-806-.034-20.683 24.31-656.637 25.156-657.16 1.323-.818 43.269-1.78 128.357-2.945 140.661-1.925 297.972 1.893 435.5 10.57 273.135 17.233 528.652 52.812 799.592 111.337l13.092 2.828 40.195-31.541c26.131-20.504 39.745-31.791 38.908-32.258-2.191-1.222-60.17-21.325-81.787-28.357-52.658-17.132-87.092-25.813-144.621-36.459-288.11-53.318-575.686-86.347-849.379-97.552-77.167-3.16-117.586-3.922-207.5-3.916-124.879.009-210.027 2.888-322.5 10.905-55.6 3.962-59.138 4.541-119 19.469-50 12.468-56.731 13.808-100.5 19.999-482.653 68.274-951.903 202.111-1324.5 377.767-24.008 11.319-404.283 195.304-417.491 201.992l-4.991 2.527 8.991 8.519c26.379 24.994 51.135 37.157 82.225 40.397 27.069 2.822 62.518-5.303 95.766-21.95 4.95-2.478 22.275-11.491 38.5-20.027 62.952-33.121 152.024-76.827 219.5-107.706 330.171-151.09 675.405-261.195 1033-329.452 78.577-14.998 349.613-64.279 350.215-63.677.578.578-15.209 188.087-16.275 193.307-.359 1.757-1.385 2.319-5.194 2.846-38.066 5.262-61.906 33.725-72.639 86.723-4.667 23.048-5.999 40.032-6.017 76.742-.028 57.624 4.033 97.665 21.904 216 3.53 23.375 7.127 49.025 7.993 57 1.584 14.588 117.783 1811.496 117.281 1813.657-.25 1.08-31.131-28.016-90.268-85.05-222.294-214.391-261.667-251.962-337.026-321.607-123.542-114.176-248.273-220.795-327.495-279.94-111.611-83.326-223.893-143.227-357.175-190.547-11.717-4.16-21.979-7.814-22.804-8.12-.875-.324 2.044-1.912 7-3.809 86.653-33.16 161.083-89.432 216.587-163.747 56.928-76.222 93.232-169.016 104.42-266.9 8.973-78.501 1.445-159.667-21.074-227.211-26.322-78.95-77.4-145.365-143.764-186.934-43.81-27.44-91.52-43.589-145.545-49.262-10.189-1.07-61.528-2.497-178.71-4.966-176.157-3.711-206.998-4.659-230.414-7.083-97.513-10.096-196.001-39.261-342.5-101.426-66.929-28.399-341.862-148.587-341.239-149.172.406-.383 8.036-2.048 16.954-3.7 18.635-3.452 26.322-6.419 28.738-11.092 2.093-4.047 4.426-19.709 5.08-34.091.487-10.743-.848-22.18-20.291-173.75-11.448-89.238-20.695-162.25-20.55-162.25s40.444 35.662 89.555 79.25c108.777 96.544 109.884 97.469 139.974 117.09 59.603 38.865 115.782 57.056 165.529 53.598 28.246-1.963 54.873-11.457 77.481-27.626 21.338-15.261 37.08-38.065 47.156-68.312 5.499-16.507 7.66-28.55 8.255-46 .481-14.113.161-18.362-3.575-47.486-20.262-157.919-54.118-310.468-110.123-496.201-6.101-20.232-12.675-40.616-14.608-45.299-9.969-24.137-26.707-43.287-48.971-56.026-9.284-5.312-26.73-11.375-38.673-13.44-11.336-1.96-30.678-2.655-42.381-1.523m5087.194 93.101c-6.151.524-11.504 1.473-12.15 2.155-2.154 2.274-271.743 482.181-274.042 487.835-7.196 17.692-7.155 44.297.1 65.627 6.634 19.507 18.931 37.205 32.184 46.324 7.07 4.864 22.087 11.596 30.903 13.854 30.99 7.937 57.615 3.878 72.779-11.094 4.436-4.38 18.978-27.953 81.789-132.577 42.017-69.988 76.681-127.25 77.032-127.25s.901 1.463 1.221 3.25 1.925 10.239 3.566 18.781c4.419 23.008 9.322 55.864 16.113 107.969 13.41 102.888 21.485 143.966 36.615 186.267 24.527 68.57 66.621 110.441 126.168 125.497 9.787 2.475 12.366 2.71 29.717 2.712 14.761.002 20.896-.41 27.5-1.847 24.608-5.354 48.426-16.623 71.22-33.695 4.554-3.411 21.336-19.304 37.294-35.318 133.462-133.934 234.307-260.49 303.652-381.07 13.537-23.539 15.353-28.833 15.282-44.546-.045-9.827-.438-12.576-2.7-18.894-7.465-20.846-24.847-40.143-49.512-54.965-45.016-27.052-99.139-20.776-138.822 16.095-4.743 4.408-59.878 69.783-140.219 166.264-72.821 87.45-132.728 159.124-133.126 159.276-2.652 1.01-15.519-39.161-21.52-67.187-8.696-40.606-13.371-78.07-21.538-172.589-6.805-78.76-10.312-110.227-16.106-144.5-7.56-44.731-16.906-77.184-29.948-104-26.237-53.944-66.014-77.263-123.452-72.374m-2994.869 391.063c.43 13.998 6.143 289.759 6.533 315.311.092 6.05.323 9.425.513 7.5s2.819-58.175 5.841-125c3.62-80.022 5.98-123.89 6.913-128.5.78-3.85 2.997-13.384 4.927-21.187 6.346-25.657 6.959-36.863 2.518-46.052-3.761-7.781-13.31-14.278-24.548-16.701l-3.168-.683zm2080.757 259.561-23.142 39.1c-6.298 10.642-11.069 19.714-10.601 20.16s14.125 6.203 30.35 12.793c199.13 80.876 387.234 168.416 625.385 291.042 21.174 10.902 40.98 20.403 46.5 22.305 9.09 3.132 10.38 3.313 23.615 3.323 15.47.01 22.013-1.3 39.147-7.838 15.185-5.795 43.422-18.927 43.056-20.025-1.001-3.003-69.254-49.177-106.203-71.848-149.17-91.526-341.468-183.095-610.781-290.846-24.629-9.854-44.973-17.916-45.208-17.916-.236 0-5.689 8.887-12.118 19.75m-4760.318 324.267c-7.213 1.53-14.195 4.028-20.479 7.327-7.914 4.154-9.929 8.44-9.943 21.156-.013 10.637 1.714 15.604 6.236 17.943 5.366 2.774 25.194 7.347 50.245 11.586 95.863 16.221 187.919 41.639 290.366 80.171 47.034 17.69 89.453 35.023 174.5 71.3 86.771 37.013 121.205 51.08 166.6 68.061 169.699 63.478 306.193 83.673 461.9 68.339 16.587-1.633 22.829-2.673 29.703-4.949 8.718-2.886 21.714-8.98 29.111-13.649l3.945-2.49-.511-6.367c-.924-11.508-12.37-31.47-18.826-32.831-1.332-.281-47.422-3.037-102.422-6.125s-107.2-6.265-116-7.061c-99.765-9.023-185.99-31.46-286-74.42-27.443-11.789-45.317-20.022-101.442-46.726-58.937-28.042-69.329-32.87-99.058-46.016-109.511-48.426-209.347-77.554-321.192-93.71-57.56-8.315-125.074-14.013-136.733-11.539M10413.5 3699.93c-37.876 14.531-78.477 35.728-105.802 55.237-32.808 23.423-61.391 51.804-81.914 81.333-19.912 28.649-37.215 65.102-49.129 103.5-8.924 28.759-13.571 48.764-27.528 118.5-14.447 72.184-21.055 98.327-33.564 132.79-18.488 50.935-46.057 92.748-88.159 133.71-16.951 16.492-31.14 28.122-49.904 40.902-43.267 29.47-85.23 47.543-162.519 69.997-43.136 12.531-56.403 17.892-65.054 26.287-10.064 9.767-9.33 23.306 1.603 29.552 10.307 5.888 29.192 9.213 52.47 9.239 63.386.07 138.01-21.215 202.5-57.76 12.724-7.21 40.97-26.248 53.5-36.058 89.782-70.299 145.862-173.932 162.504-300.299 5.967-45.306 9.415-65.459 15.463-90.36 19.287-79.41 51.645-138.153 100.938-183.245 6.272-5.738 22.058-19.15 35.08-29.804 38.226-31.279 48.572-43.905 53.384-65.148 3.041-13.424 1.198-42.409-2.686-42.256-.651.025-5.683 1.773-11.183 3.883m447.5 260.995c-41.243 13.994-105.068 53.94-178 111.406-60.147 47.392-119.06 101.912-139.577 129.169-2.897 3.85-30.865 49.525-62.149 101.5-58.782 97.659-64.087 106.132-77.582 123.928-55.261 72.869-135.142 132.962-246.692 185.581-50.875 23.998-96.203 42.569-194.022 79.491-25.013 9.442-45.898 17.571-46.411 18.066-1.143 1.102 14.689 8.596 25.933 12.274 20.679 6.765 38.68 9.194 62 8.366 41.594-1.477 78.405-12.753 154-47.177 14.85-6.763 35.325-16.005 45.5-20.54 105.925-47.206 181.893-97.689 236.96-157.468 32.676-35.472 52.535-63.594 96.05-136.021 66.517-110.71 100.506-152.389 176.99-217.039 36.067-30.487 92.415-80.633 144.778-128.843 31.196-28.722 30.304-27.431 28.371-41.044-1.184-8.34-5.41-18.835-9.05-22.475-2.844-2.844-6.854-2.65-17.099.826m-4868.999.67c-6.015 3.438-11.057 7.612-26.501 21.937-23.617 21.906-32.76 29.048-45.25 35.346-7.87 3.967-18.41 6.484-24.005 5.731-3.397-.457-60.729-20.721-109.436-38.679l-8.117-2.993.63 10.281c.806 13.146 3.584 24.077 8.84 34.782 3.379 6.882 5.903 10.231 13.256 17.59 8.088 8.095 10.34 9.708 20.582 14.742 17.936 8.816 33.592 12.604 61 14.761 17.685 1.392 29.949.648 42.206-2.559 41.404-10.836 76.67-40.723 84.405-71.533 3.117-12.414.464-32.193-5.225-38.954-3.192-3.793-6.337-3.908-12.385-.452m-1811.153 141.576c-88.174 75.637-160.508 142.652-250.193 231.792-64.474 64.083-113.145 114.628-168.545 175.037l-23.385 25.5 4.387.676c6.932 1.068 33.601.928 42.914-.225 45.421-5.623 84.843-25.709 133.474-68.005 13.988-12.165 14.053-12.227 179.75-170.243L4248 4155.849v-5.466c0-17.414-9.282-40.618-21.764-54.412-5.637-6.229-15.373-11.971-20.298-11.971-2.117 0-7.836 4.37-25.09 19.171m5348.044 488.579c-5.584 7.504-8.556 13.142-11.465 21.75-2.225 6.584-2.703 9.77-2.702 18 .001 12.33 1.219 17.689 6.413 28.233 6.667 13.534 20 26.362 35.362 34.024 14.143 7.053 42.886 15.943 64 19.793 11.926 2.174 45.239 3.072 56.821 1.53 26.696-3.552 48.805-13.184 63.239-27.549 12.374-12.315 13.843-24.258 3.194-25.959-4.512-.72-26.333-2.255-58.254-4.098-53.282-3.075-72.79-6.76-93.884-17.735-15.805-8.222-34.631-24.441-50.616-43.607-4.125-4.945-7.741-9.023-8.037-9.062-.295-.038-2.127 2.067-4.071 4.68m2016.049 45.969c-8.657 9.861-17.382 26.477-20.903 39.811-7.952 30.115-1.86 63.195 16.701 90.675 2.119 3.137 13.318 16.862 24.887 30.5 276.925 326.451 503.051 700.975 676.099 1119.795 198.197 479.687 308.214 982.306 331.724 1515.5 3.546 80.41 4.042 107.154 4.039 217.5-.004 110.471-.411 131.76-4.018 210-24.698 535.745-147.456 1062.893-361.998 1554.5-48.818 111.863-108.655 234.263-166.211 340-227.735 418.368-520.304 795.211-868.765 1119.01-78.569 73.009-154.897 139.702-264.996 231.546-67.893 56.636-71.026 59.814-113.814 115.436-17.88 23.244-35.027 44.842-41.566 52.357-1.502 1.726-1.41 2.01 1.385 4.272 20.869 16.882 80.14-6.952 174.495-70.168 59.108-39.601 133.833-96.366 194-147.372 249.414-211.438 470.54-445.524 665.101-704.081 185.911-247.063 345.822-514.918 476.409-798 346.77-751.715 480.972-1597.476 387.406-2441.5-35.704-322.075-104.106-639.673-204.713-950.5-72.355-223.542-174.19-463.646-289.208-681.885-159.988-303.569-344.564-569.197-542.221-780.327-18.911-20.201-68.838-70.788-69.863-70.788-.387 0-2.173 1.674-3.97 3.719M3839 4944.009c-12.166 1.944-19.348 5.981-20.959 11.784-2.212 7.964-.126 25.115 4.413 36.287 1.468 3.613 85.714 124.901 233.755 336.535 255.103 364.686 248.839 355.657 311.123 448.385 73.049 108.752 100.909 149.927 124.5 184 103.229 149.095 189.848 257.786 271.661 340.884 13.204 13.411 44.707 44.293 70.007 68.626 63.637 61.204 92.443 90.6 119.053 121.49 72.611 84.291 110.462 162.913 122.951 255.39l.66 4.889-14.332-15.979a49583 49583 0 0 1-49.332-55.171c-37.772-42.294-37.369-41.935-50.115-44.636-9.658-2.046-28.493-1.883-34.854.301-19.892 6.831-17.63 40.199 8.285 122.206 2.694 8.525 9.713 30.292 15.598 48.372 26.731 82.119 37.492 125.413 39.398 158.499.734 12.741-.081 30.34-1.65 35.629-.874 2.947-.955 2.859-4.59-5-5.739-12.408-15.071-38.008-31.532-86.5-33.835-99.672-49.838-143.27-68.897-187.704-40.604-94.665-79.269-147.052-116.143-157.362-8.425-2.355-30-.963-30 1.936 0 .437 3.781 9.307 8.402 19.712 15.667 35.272 26.979 68.357 37.585 109.918 10.718 41.998 15.741 69.76 27.954 154.5 9.082 63.02 12.455 82.73 18.059 105.536 10.523 42.822 23.419 69.52 43.789 90.651 21.025 21.809 48.315 34.084 86.185 38.766 16.663 2.059 38.263.754 57.282-3.462 21.658-4.801 28.195-9.864 37.37-28.944 6.779-14.099 11.374-31.251 11.374-42.46 0-6.062-4.354-29.165-20.477-108.643-11.262-55.519-20.667-101.722-20.901-102.673-.325-1.327 1.242-.786 6.727 2.319 14.806 8.382 40.654 20.658 50.072 23.781 6.27 2.08 12.729 3.449 18.032 3.823 7.465.527 8.808.333 13.923-2.009 17.745-8.124 36.624-41.845 36.624-65.418 0-5.26-1.153-11.976-4.046-23.562-25.716-103.004-71.446-191.714-149.858-290.705-20.895-26.38-40.887-50.056-91.614-108.5-17.662-20.35-39.909-46.195-49.436-57.434l-17.322-20.435 2.487-2.065c1.367-1.136 13.242-11.081 26.387-22.099 107.585-90.173 226.382-174.986 373.902-266.94 19.25-11.999 35.326-22.099 35.724-22.445.94-.817-91.722-846.015-92.86-847.004-.475-.413-88.614-8.724-195.864-18.468l-195-17.716-462-60.588c-471.867-61.881-477.36-62.555-491.5-60.297m133.209 114.241c1.345 1.788 182.146 259.75 401.779 573.25s399.599 570.309 399.923 570.686 12.833-10.035 27.798-23.137c106.5-93.245 212.371-172.913 344.75-259.426l33.148-21.662-39.231-353.075c-21.578-194.191-39.469-353.313-39.76-353.603-.506-.507-1125.144-136.256-1128.985-136.274-1.705-.008-1.655.275.578 3.241m-696.337 44.345c-17.723 40.398-35.533 73.709-61.165 114.405-33.443 53.098-41.538 66.18-58.164 94-44.792 74.949-76.814 133.69-119.386 219-62.021 124.286-116.458 249.799-170.755 393.71-246.229 652.608-346.434 1343.19-293.874 2025.29 40.477 525.296 172.16 1038.85 388.47 1515 182.662 402.083 421.986 782.605 708.593 1126.651 76.787 92.176 146.424 170.368 232.756 261.349 68.721 72.422 208.936 209.52 263.653 257.792 14.181 12.511 26.348 17.127 47.302 17.947 18.383.719 30.103-2.147 36.399-8.902 8.244-8.845 11.922-39.501 7.379-61.514-3.542-17.164-5.743-20.129-35.014-47.17-117.691-108.724-224.909-216.318-324.066-325.202-340.007-373.359-614.839-785.716-822.751-1234.451-72.681-156.869-139.756-325.534-192.276-483.5-127.9-384.682-200.858-784.575-217.929-1194.5-4.882-117.248-4.701-254.153.494-373.5 22.139-508.535 130.306-1010.012 320.971-1488.07 48.793-122.34 96.483-228.536 157.143-349.93 40.969-81.986 70.357-137.37 110.634-208.5 26.572-46.927 27.444-48.537 30.725-56.802 5.224-13.158 6.989-21.795 6.989-34.198 0-16.813-4.414-31.599-14.477-48.494-3.443-5.782-4.184-7.745-3.243-8.592.671-.604 10.319-6.39 21.441-12.857l20.221-11.76-1.344-3.148c-2.401-5.622-35.82-78.137-36.203-78.554-.204-.222-1.339 1.803-2.523 4.5m2477.188 204.693c-1.009 2.317-8.813 20.412-17.342 40.212-26.254 60.951-41.39 92.16-51.783 106.77-12.339 17.347-32.802 34.359-52.821 43.914-47.015 22.44-114.265 23.344-165.33 2.224-14.933-6.176-17.293-6.417-25.117-2.565-7.959 3.918-17.869 12.877-20.689 18.702l-2.195 4.535 2.859 4.132c4.317 6.242 25.115 26.831 31.358 31.042 10.675 7.201 37.714 15.702 61.5 19.334 15.099 2.305 45.03 2.32 60.853.03 77.682-11.244 146.543-61.337 186.428-135.618 14.015-26.102 24.808-58.787 27.208-82.397 2.879-28.322-6.85-46.869-27.791-52.979l-5.302-1.547zm3917.996 405.766c-2.444.499-7.689 2.449-11.655 4.333-41.319 19.622-85.539 77.892-107.087 141.113-4.773 14.002-9.952 35.509-12.524 52-3.177 20.378-3.175 62.642.004 83 4.531 29.015 11.053 50.285 22.692 74 21.734 44.284 54.528 76.608 99.009 97.59 21.228 10.013 53.806 19.131 69.005 19.314 7.216.087 8.637-.233 14.5-3.256 13.301-6.86 24.364-17.956 27.14-27.222 2.404-8.023-4.302-17.057-17.267-23.261-4.055-1.94-17.498-6.982-29.873-11.203-34.726-11.846-50.064-19.334-67.5-32.956-28.289-22.101-45.174-54.498-52.12-100.006-2.607-17.074-2.638-57.423-.058-73 7.424-44.814 23.851-79.242 60.359-126.5 22.985-29.754 28.911-40.03 30.044-52.104.824-8.781-2.777-17.32-8.567-20.314-3.737-1.933-10.83-2.606-16.102-1.528M5600.33 7548.142c71.662 214.697 135.538 407.233 141.948 427.858 123.446 397.224 184.481 707.707 170.141 865.5-3.099 34.1-6.628 48.587-28.618 117.5-44.926 140.789-106.139 288.674-200.546 484.5-13.502 28.006-147.469 300.628-230.468 469-30.835 62.552-103.436 203.652-306.111 594.927l-265.688 512.927 1.84 3.573c4.742 9.207 30.406 24.737 50.672 30.663 12.043 3.521 27.243 3.942 32.425.898 3.094-1.818 28.85-50.817 267.285-508.5 145.123-278.568 275.494-528.988 289.714-556.488 172.807-334.203 296.426-599.842 398.585-856.5 44.545-111.913 59.192-153.446 71.943-204 13.565-53.779 19.231-95.216 20.238-148 .864-45.294-1.265-72.52-10.203-130.5-38.498-249.718-95.715-486.359-176.385-729.5-7.573-22.825-59.807-176.399-116.076-341.276-56.27-164.876-102.1-299.984-101.844-300.239.589-.59 1284.499 207.863 1285.317 208.681.335.334-28.179 68.046-63.363 150.471-69.779 163.469-84.01 197.182-111.805 264.863-116.279 283.132-232.492 596.416-378.001 1019-29.682 86.202-53.889 157.18-121.413 356l-13.925 41 2.254 1.902c1.24 1.046 5.434 3.384 9.321 5.196 14.121 6.581 33.582 10.565 51.952 10.633 14.425.054 21.948-1.763 27.027-6.528 3.151-2.957 22.598-55.485 253.492-684.703 137.543-374.825 255.648-696.37 262.455-714.545 54.048-144.3 117.604-291.068 191.599-442.455l16.374-33.5.362-8.642c.646-15.388-4.868-33.628-12.361-40.89l-3.325-3.223-31.821-4.31c-22.759-3.084-1473.733-236.257-1500.053-241.061l-3.232-.59zm4114.17-68.075c-44.563 10.27-82.573 22.127-122.5 38.214-20.317 8.186-1308.973 568.972-1314.583 572.069-1.943 1.072 7.504 12.601 139.832 170.65l141.915 169.5 291.533 372.39 291.534 372.391-38.686 139.956c-21.277 76.976-38.541 140.097-38.365 140.269 2.484 2.427 17.625 10.439 25.68 13.588 15.743 6.156 29.033 8.909 46.36 9.604l14.72.59.971-2.555c.534-1.405 103.633-358.657 229.107-793.894 185.906-644.857 239.516-829.471 289.615-997.339 33.813-113.3 61.709-206.788 61.99-207.75.664-2.27.903-2.299-19.123 2.317m-707 399.54c-316.8 135.985-575.936 247.542-575.859 247.905.241 1.123 738.63 930.488 739.281 930.488.338 0 34.305-117.562 75.484-261.25s134.001-464.148 206.271-712.135 131.27-451.194 131.111-451.57c-.158-.376-259.488 110.577-576.288 246.562M7399 9332.14c-54.811 4.087-104.282 15.978-139.27 33.476-42.184 21.096-102.89 69.399-147.812 117.613-57.646 61.87-101.496 122.909-186.258 259.271-263.85 424.471-488.529 898.129-677.845 1429-45.56 127.758-66.175 206.395-74.451 284-2.152 20.17-2.467 68.866-.551 85 8.588 72.317 38.951 120.307 92.64 146.423 41.83 20.348 92.516 25.559 137.013 14.086 32.428-8.362 66.041-26.122 98.034-51.8 15.067-12.093 46.604-43.466 61.528-61.209 52.509-62.427 102.965-148.077 154.931-263 5.347-11.825 50.15-113.75 99.562-226.5s89.93-205.134 90.04-205.297c.315-.468 409.322 22.335 409.721 22.843.196.25-.736 163.415-2.073 362.59l-2.43 362.136 6.63 33.364c12.757 64.197 21.937 94.668 38.409 127.487 23.847 47.514 60.097 80.182 113.02 101.854 33.558 13.742 67.006 19.889 108.162 19.877 26.192-.007 39.247-1.253 62.815-5.993 44.288-8.908 88.528-29.483 122.685-57.059 24.349-19.658 44.085-43.574 60.903-73.802 55.505-99.766 90.634-214.381 112.022-365.5 16.496-116.545 33.31-323.757 40.047-493.5 5.428-136.773 6.413-300.148 2.574-426.802-5.387-177.728-19.008-367.478-37.629-524.198-17.982-151.345-51.307-276.519-104.361-392-10.104-21.992-26.589-54.428-35.576-70-61.72-106.937-178.249-172.063-326.48-182.463-16.941-1.188-59.458-1.131-76 .103m-1221.368 73.961c-38.349 5.599-72.421 24.91-93.642 53.072-12.384 16.436-10.629 11.584-105.586 291.827-110.934 327.397-101.008 298.191-115.722 340.5-58.575 168.426-105.203 290.788-155.537 408.162-97.245 226.767-191.273 389.995-289.948 503.338-16.168 18.572-50.018 52.432-66.518 66.539-66.229 56.623-132.715 87.367-206.679 95.57-14.691 1.629-53.079 1.646-68 .029-57.158-6.192-104.265-19.916-194.5-56.666-53.781-21.904-71.112-28.243-93-34.017-46.816-12.349-78.004-7.238-101.51 16.636-10.509 10.673-17.318 23.087-21.228 38.7-2.894 11.558-3.112 37.994-.426 51.709 6.293 32.138 20.098 63.021 40.683 91.016 16.852 22.917 78.262 84.822 123.947 124.945 169.73 149.067 336.406 206.904 533.034 184.964 55.943-6.242 131.18-23.408 187.906-42.871 6.005-2.06 7.689-2.306 8.906-1.297 3.131 2.593 28.007 36.833 57.21 78.743 54.568 78.312 78.939 111.635 110.07 150.5 76.951 96.065 141.517 149.103 193.658 159.079 11.104 2.125 30.193 1.856 39.84-.56 39.262-9.835 76.07-55.358 87.626-108.371 1.923-8.826 2.216-13.21 2.248-33.648.032-20.977-.217-24.681-2.317-34.5-3.456-16.154-7.389-27.296-15.179-43-15.102-30.442-32.87-49.431-78.227-83.608-28.797-21.699-53.349-37.382-104.741-66.904-33.749-19.387-47.211-27.768-59.858-37.264-31.184-23.415-46.932-49.453-51.643-85.39-2.414-18.413-3.072-16.47 9.251-27.302 17.239-15.153 81.331-79.781 100.195-101.032 131.893-148.581 243.909-329.543 344.783-557 152.23-343.255 263.519-775.139 309.349-1200.5 3.723-34.55 3.624-46.864-.507-63.363-5.191-20.736-15.182-39.903-24.27-46.562-8.118-5.948-25.989-11.623-47.371-15.041-5.264-.842-56.296-5.131-113.405-9.532-103.448-7.972-124.421-9.014-138.892-6.901m4203.368 121.6c-156.267 1.067-359.004 13.15-558.563 33.291-46.503 4.694-65.73 7.43-98.437 14.012-72.598 14.61-120.593 34.74-145.319 60.951-11.833 12.543-16.681 23.862-16.681 38.94 0 13.738 4.024 25.888 12.908 38.97 31.936 47.028 120.822 81.086 254.592 97.551 32.761 4.033 49.201 5.125 287 19.074 220.846 12.954 228.271 13.453 236.639 15.905 10.876 3.188 18.824 6.711 21.218 9.407 1.785 2.011 1.793 2.471.199 11.895-2.975 17.594-5.212 24.444-16.592 50.803-85.867 198.898-184.32 393.782-310.691 615-44.365 77.662-79.53 137.507-172.758 294-109.417 183.67-141.22 237.767-192.237 327-55.47 97.023-118.752 212.089-124.243 225.912-6.741 16.968-9.41 33.13-9.345 56.588.118 43.395 13.016 82.06 35.073 105.148 20.492 21.448 49.341 33.321 93.334 38.41 20.153 2.331 69.669 1.557 95.403-1.491 149.761-17.741 355.41-85.303 626.5-205.826 131.401-58.419 218.159-105.82 285.71-156.098 44.541-33.152 78.629-67.397 96.198-96.643 13.882-23.108 18.361-38.89 18.448-65 .064-19.335-1.149-25.904-7.108-38.5-6.625-14.004-22.353-26.518-39.473-31.407-32.244-9.207-81.93-4.531-149.155 14.036-16.511 4.56-56.929 17.076-66.037 20.449-2.796 1.036-13.633 4.857-24.083 8.491-10.45 3.635-47.35 17.196-82 30.137s-74.25 27.313-88 31.938c-26.201 8.813-55.529 16.731-59.926 16.18-2.394-.3 7.628-14.212 136.014-188.824 178.5-242.767 181.511-246.871 198.326-270.34 96.677-134.929 189.119-284.753 275.397-446.345 35.361-66.228 68.438-131.654 84.049-166.247 33.688-74.651 57.844-152.038 70.659-226.359 9.456-54.848 10.621-79.441 5.03-106.214-6.914-33.111-25.51-62.75-52.533-83.73-20.805-16.152-43.069-26.409-84.419-38.891-121.873-36.789-296.367-53.802-535.097-52.173m-1563 6.902c-145.097 5.519-255.054 18.053-380.013 43.314-63.946 12.928-153.967 35.564-175.904 44.233-37.925 14.986-69.107 46.837-77.205 78.861-3.133 12.39-2.398 29.147 1.807 41.183 3.783 10.825 10.289 21.374 18.957 30.736 28.547 30.834 84.706 54.95 137.443 59.023 7.378.569 111.29 3.362 230.915 6.205s217.673 5.306 217.885 5.474-3.007 10.557-7.154 23.087c-42.676 128.947-91.803 247.647-159.666 385.781-13.497 27.472-277.516 550.774-333.995 662-99.596 196.133-153.93 331.253-186.02 462.599-12.074 49.419-14.621 67.713-13.703 98.401 1.903 63.554 24.548 124.402 64.944 174.5 43.591 54.061 108.79 84.515 190.461 88.962 21.159 1.152 40.594.306 80.119-3.486 297.995-28.589 563.019-90.877 815.629-191.697 36.715-14.653 45.296-18.708 59.048-27.904 39.764-26.589 64.452-69.443 64.452-111.875 0-12.336-1.869-24.372-5.384-34.679-3.321-9.738-10.625-23.601-16.088-30.536-14.024-17.802-53.037-33.748-96.028-39.251-9.363-1.198-57.956-2.414-221.149-5.535-115.032-2.199-214.82-3.999-221.75-3.999s-12.601-.402-12.601-.892c0-.491 44.378-84.304 98.617-186.25 127.948-240.486 385.792-729.49 403.298-764.858 33.525-67.731 61.52-134.973 103.25-248 42.062-113.926 48.777-133.352 56.164-162.5 10.816-42.673 16.166-81.384 17.344-125.5.816-30.551-1.531-67.695-5.201-82.302-7.381-29.382-34.991-60.673-76.158-86.31-51.324-31.963-128.303-60.573-209.314-77.794-49.623-10.549-85.32-14.295-187.5-19.677-18.753-.988-156.889-2.022-175.5-1.314m864.5 344.775c-17.038 5.571-38.19 19.912-44.553 30.208-1.955 3.163-2.01 3.661-.629 5.69.833 1.223 88.555 108.424 194.937 238.224 192.643 235.047 193.437 235.999 196.834 235.742 6.674-.505 17.887-7.037 26.008-15.151 6.076-6.07 8.534-9.494 12.273-17.091 6.074-12.341 7.955-21.291 7.355-35-.537-12.298-3.123-21.131-8.606-29.398-6.122-9.231-306.23-379.724-312.619-385.938-11.113-10.81-31.705-23.18-45.855-27.548-8.747-2.7-16.327-2.621-25.145.262m-2539.342 432.747c-74.975 182.627-136.165 332.202-135.978 332.388.408.409 318.064 13.576 318.44 13.2.424-.424-1.492-142.054-2.614-193.213-4.112-187.437-14.5-313.791-37.161-452-2.796-17.05-5.372-31.32-5.726-31.712s-61.986 148.71-136.961 331.337m2254.742-22.964c-12.32 25.35-22.4 46.653-22.4 47.34 0 .686 6.075 6.781 13.5 13.544 19.142 17.435 82.581 81.093 102.103 102.455 73.039 79.925 133.063 155.688 250.354 316 19.718 26.95 36.66 49.866 37.648 50.924 1.766 1.889 1.902 1.855 7.589-1.922 17.344-11.516 38.357-39.415 48.749-64.725 4.341-10.573 8.05-25.447 6.76-27.107-26.331-33.879-208.582-263.234-220.247-277.17-35.626-42.564-66.947-76.344-113.6-122.52-29.023-28.726-83.44-80.247-86.816-82.196-.873-.504-7.859 12.905-23.64 45.377m-250.049 482.602c-11.12 15.608-19.34 28.987-26.879 43.749-7.86 15.39-17.294 39.055-16.721 41.946.327 1.653 373.824 474.633 379.721 480.861 1.654 1.748 2.035 1.583 9.724-4.211 21.595-16.272 38.195-39.659 47.327-66.677l2.818-8.335-193.228-248.734c-106.276-136.804-193.653-248.869-194.171-249.035s-4.384 4.531-8.591 10.436M4684.5 11454.73c-49.829 86.147-81.204 143.63-103.711 190.012-22.262 45.878-468.057 995.877-467.971 997.258.051.825 61.08 166.846 135.619 368.935 74.54 202.089 135.417 367.544 135.283 367.678s-13.738-21.437-30.231-47.935c-37.671-60.522-40.429-64.715-47.336-71.957-6.074-6.369-9.685-8.721-13.387-8.721-3.836 0-41.311 16.606-40.964 18.152.166.742 16.997 45.794 37.402 100.117 33.885 90.21 37.271 98.715 39.07 98.144 1.084-.344 34.203-14.258 73.598-30.919 52.089-22.03 72.114-30.944 73.411-32.677.981-1.311 2.438-4.843 3.238-7.85 1.927-7.241 1.916-29.239-.019-38.374-.899-4.246-8.758-23.9-20.391-51-70.949-165.273-133.199-324.839-188.272-482.593-19.982-57.238-56.838-168.89-57.09-172.951-.053-.852 90.28-192.124 200.738-425.049 177.879-375.093 210.02-443.615 281.192-599.481 44.197-96.79 80.178-176.44 79.958-177s-15.865-6.593-34.768-13.405a27720 27720 0 0 1-35.392-12.77c-.562-.211-9.552 14.363-19.977 32.386m142.678 41.46c-6.941 12.131-18.132 38.785-24.482 58.31-4.671 14.362-7.696 24.852-7.696 26.687 0 2.166 67.315 48.666 129.563 89.499a4649 4649 0 0 0 658.327 359.47c548.471 244.298 1142.727 381.621 1756.11 405.81 120.713 4.761 268.931 4.76 389 0 333.326-13.217 660.008-58.488 989-137.054 313.501-74.867 615.881-183.907 947-341.493 39.95-19.014 155-76.06 155-76.856 0-1.642-5.554-14.823-9.194-21.82-10.846-20.847-27.325-34.588-47.064-39.242-8.081-1.905-25.445-1.907-35.394-.003-13.385 2.561-22.814 6.266-55.348 21.752-295.217 140.518-572.398 244.129-870 325.208-378.334 103.073-743.007 156.035-1140.5 165.637-54.548 1.318-218.657.679-265-1.031-49.509-1.827-97.565-4.029-133.5-6.117-741.717-43.095-1449.886-248.099-2020-584.758-10.725-6.333-107.413-64.8-214.862-129.927-107.45-65.126-195.938-118.632-196.64-118.901-.763-.293-2.503 1.653-4.32 4.829m5425.399 15.83c-14.161 2.984-27.698 7.734-41.386 14.524-12.64 6.271-31.191 17.795-31.191 19.377 0 1.121 548.896 893.089 559.734 909.579 14.652 22.295 28.338 41.324 67.244 93.5 41.527 55.691 49.974 67.375 64.704 89.5 24.031 36.095 40.807 66.393 54.441 98.319l3.979 9.319-6.037 28.3c-33.005 154.724-57.833 318.337-74.062 488.062-1.683 17.6-3.384 33.786-3.781 35.969-.481 2.646-2.496-18.859-6.044-64.5-5.504-70.814-5.9-74.969-7.141-74.969-.408 0-4.371 3.142-8.807 6.981-10.038 8.689-23.099 24.212-27.224 32.358-1.925 3.799-12.292 37.362-27.045 87.56-13.159 44.769-24.132 81.605-24.385 81.859-.788.787-6.255-3.587-10.476-8.381-5.923-6.73-8.321-13.904-8.313-24.877.007-9.712 1.267-16.279 7.301-38.048 7.223-26.056 8.297-32.412 8.357-49.452.058-16.625-1.092-23.173-5.929-33.744-6.183-13.512-14.814-13.699-26.624-.574-15.479 17.201-33.52 57.269-43.248 96.048-5.308 21.159-6.923 33.403-6.486 49.176.413 14.889-.228 12.815 9.451 30.559 13.203 24.202 32.226 31.579 63.113 24.477 15.741-3.62 36.176-12.898 70.03-31.794 8.938-4.989 18.613-9.822 21.5-10.739 4.128-1.312 11.545-1.827 34.748-2.411 32.272-.812 40.006-1.758 47.513-5.812 9.629-5.201 22.283-26.293 30.409-50.686 6.03-18.101 6.841-25.182 7.496-65.5 2.48-152.395 22.498-279.387 66.048-419 10.389-33.307 12.549-45.552 12.514-70.974-.053-40.105-12.167-81.193-37.313-126.562-21.332-38.487-40.607-65.443-99.995-139.847-39.611-49.626-54.915-69.629-68.253-89.21-4.906-7.202-130.869-210.473-279.919-451.715-245.011-396.557-271.24-438.618-273.5-438.586-1.375.019-6.515.881-11.423 1.914m-491.541 140.109c-29.405 5.481-53.691 10.193-53.971 10.472s-.033.821.547 1.203 26.185 24.546 56.899 53.696l55.845 53 113.072 124.52c91.147 100.375 169.013 184.315 401.572 432.896l288.5 308.377.314 22.603c.367 26.502-1.257 89.614-3.348 130.104-7.049 136.496-23.147 276.173-58.029 503.5-5.317 34.65-9.894 67.161-10.171 72.246-.469 8.603-.311 9.647 2.272 15 4.249 8.805 16.786 20.696 27.462 26.047 9.561 4.793 21.351 7.668 27.62 6.736 13.061-1.942 24.167-18.597 35.359-53.029 27.251-83.829 52.822-281.417 67.491-521.5 6.899-112.909 8.086-178.74 3.615-200.439-6.188-30.03-20.007-54.599-49.253-87.561-5.124-5.775-171.277-188.025-369.228-405s-360.18-394.807-360.508-395.181c-.328-.375-23.096 1.269-50.596 3.653s-50.135 4.206-50.3 4.048-4.469-26.101-9.565-57.652c-7.134-44.166-9.596-57.405-10.7-57.535-.789-.093-25.494 4.315-54.899 9.796"/></svg>