<svg xmlns="http://www.w3.org/2000/svg" width="15243" height="15244" viewBox="0 0 15243 15244" version="1.1">
	<path d="M 9325.625 1754.469 C 9320.510 1756.292, 9315.188 1761.568, 9314.030 1765.965 C 9310.038 1781.116, 9287.436 1931.635, 9276.560 2015.500 C 9260.019 2143.046, 9241.207 2324.874, 9228.502 2480 C 9227.083 2497.325, 9225.499 2512.266, 9224.982 2513.202 C 9224.466 2514.138, 9208.585 2534.163, 9189.692 2557.702 C 8845.708 2986.275, 8618.834 3300.313, 8448.977 3583 C 8364.431 3723.707, 8296.114 3854.260, 8246.853 3969.261 C 8198.139 4082.985, 8181.095 4140.909, 8172.338 4222.500 C 8169.868 4245.514, 8169.872 4302.982, 8172.346 4326.500 C 8176.718 4368.080, 8185.425 4407.761, 8198.572 4446.031 C 8211.067 4482.404, 8244.779 4568.302, 8264.373 4613.692 C 8290.101 4673.295, 8309.751 4713.016, 8361.733 4810.500 C 8532.115 5130.023, 8728.282 5445.290, 8946.139 5749.724 L 8965.621 5776.947 8961.345 5797.224 C 8954.393 5830.185, 8949.222 5863.415, 8945.974 5896 C 8944.223 5913.570, 8943.608 5960.861, 8944.908 5978 C 8950.205 6047.820, 8971.066 6099.935, 9010.444 6141.722 C 9026.862 6159.144, 9042.797 6171.730, 9079.500 6196.267 C 9119.740 6223.168, 9126.845 6229.591, 9142.261 6253.008 C 9166.511 6289.841, 9188.931 6335.151, 9210.049 6390 C 9218.744 6412.582, 9226.390 6433.793, 9244.476 6485.500 C 9274.809 6572.221, 9294.130 6619.982, 9314.475 6658.533 L 9320.825 6670.566 9303.663 6680.941 C 9294.223 6686.648, 9266.025 6703.685, 9241 6718.803 C 8904.250 6922.230, 8643.365 7088.094, 8423.500 7238.545 C 8156.480 7421.264, 7952.785 7578.659, 7801 7719.551 C 7774.926 7743.754, 7716.784 7801.572, 7699.487 7820.500 C 7662.712 7860.742, 7636.827 7901.270, 7618.682 7947.014 C 7596.421 8003.136, 7587.879 8066.393, 7592.017 8144.500 C 7600.857 8311.401, 7664.057 8462.290, 7792.381 8622.873 C 7837.646 8679.516, 7881.129 8727.193, 7953.476 8799.502 C 8107.229 8953.177, 8272.191 9099.792, 8537.500 9318.571 C 8634.761 9398.774, 8640.922 9403.740, 8658 9415.700 C 8697.863 9443.616, 8736.166 9459.470, 8776 9464.543 C 8792.083 9466.591, 8820.796 9466.108, 8836 9463.534 C 8847.043 9461.665, 8862.888 9458.092, 8864.871 9457.024 C 8866.333 9456.236, 8835.882 9431.063, 8698.500 9319.490 C 8476.498 9139.194, 8358.175 9039.935, 8242 8936.540 C 8122.711 8830.373, 8020.142 8730.839, 7943.086 8646.472 C 7892.880 8591.502, 7849.395 8538.638, 7816 8491.974 C 7743.357 8390.467, 7697.141 8273.552, 7685.365 8161.500 C 7683.183 8140.736, 7682.888 8091.616, 7684.840 8074 C 7692.379 8005.943, 7712.786 7950.108, 7747.522 7902.491 C 7766.724 7876.169, 7784.173 7858.634, 7860 7789.463 C 7948.838 7708.423, 8037.850 7634.563, 8121.485 7572.491 C 8409.573 7358.676, 8746.432 7132.723, 9090.500 6922.510 C 9192.315 6860.304, 9398.119 6738.214, 9438.738 6715.923 C 9442.169 6714.041, 9444.982 6712.010, 9444.988 6711.411 C 9444.995 6710.813, 9442.700 6705.638, 9439.888 6699.911 C 9404.142 6627.113, 9357.122 6524.909, 9329.744 6460.500 C 9290.106 6367.248, 9264.717 6297.533, 9233.966 6197.500 C 9226.188 6172.200, 9219.673 6151.346, 9219.487 6151.158 C 9219.301 6150.969, 9214.170 6149.966, 9208.084 6148.928 C 9136.219 6136.666, 9079.671 6098.630, 9053.266 6044.791 C 9044.293 6026.494, 9038.977 6008.282, 9034.792 5981.500 C 9031.821 5962.487, 9031.567 5916.003, 9034.317 5894.500 C 9038.985 5857.996, 9045.560 5826.551, 9059.030 5776.306 C 9062.381 5763.806, 9064.935 5752.860, 9064.705 5751.982 C 9064.476 5751.103, 9054.253 5736.235, 9041.988 5718.942 C 8791.780 5366.151, 8599.578 5060.290, 8453.531 4782.500 C 8434.768 4746.811, 8388.326 4653.601, 8372.067 4619 C 8334.056 4538.105, 8292.240 4439.993, 8279.980 4402.938 C 8270.747 4375.032, 8263.501 4341.491, 8259.794 4309.500 C 8257.793 4292.229, 8258.113 4239.905, 8260.329 4222 C 8263.822 4193.784, 8269.767 4166.462, 8278.066 4140.500 C 8287.669 4110.453, 8338.481 3987.252, 8369.005 3920 C 8410.003 3829.674, 8443.191 3766.684, 8497.303 3676.500 C 8642.847 3433.931, 8756.981 3260.873, 8874.546 3104.500 C 8886.124 3089.100, 8985.086 2959.950, 9094.462 2817.500 L 9293.327 2558.500 9330.569 2200.677 C 9351.053 2003.875, 9368.059 1842.607, 9368.361 1842.306 C 9369.326 1841.341, 9378.321 1847.203, 9383.904 1852.435 C 9394.737 1862.587, 9401.525 1877.279, 9402.622 1892.949 C 9402.962 1897.804, 9398.462 1965.653, 9390.016 2083 C 9382.791 2183.375, 9377.093 2267.213, 9377.353 2269.307 C 9378.325 2277.140, 9391.943 2294.780, 9401.946 2301.163 C 9408.640 2305.435, 9411.933 2305.017, 9417.018 2299.250 C 9422.532 2292.996, 9431.614 2274.252, 9432.885 2266.500 C 9433.426 2263.200, 9444.781 2164.425, 9458.118 2047 C 9471.455 1929.575, 9482.517 1833.304, 9482.702 1833.065 C 9483.433 1832.116, 9491.417 1840.896, 9495.921 1847.602 C 9501.809 1856.370, 9506.294 1866.991, 9508.546 1877.500 C 9511.964 1893.443, 9511.431 1900.925, 9491.092 2122.484 C 9480.592 2236.876, 9472.006 2334.526, 9472.013 2339.484 C 9472.037 2356.047, 9477.455 2375.323, 9482.438 2376.574 C 9483.678 2376.885, 9493.634 2375.017, 9504.560 2372.423 L 9524.427 2367.705 9557.372 2339.345 C 9575.492 2323.746, 9590.485 2311.152, 9590.690 2311.357 C 9591.207 2311.874, 9579.729 2342.821, 9570.979 2364.500 C 9553.206 2408.535, 9524.256 2469.338, 9495.749 2522.500 C 9488.376 2536.250, 9362.402 2765.525, 9215.807 3032 L 8949.270 3516.500 8769.635 3872.307 C 8670.836 4068, 8590 4228.298, 8590 4228.523 C 8590 4228.749, 8599.746 4245.711, 8611.658 4266.217 C 8787.868 4569.562, 8987.701 4875.046, 9254.729 5249.278 L 9288.106 5296.056 9293.886 5292.778 C 9297.064 5290.975, 9363.507 5252.600, 9441.536 5207.500 C 9578.722 5128.208, 9583.660 5125.252, 9591.078 5118 C 9612.813 5096.749, 9627.288 5057.875, 9625.706 5025 C 9625.344 5017.469, 9624.426 5011.181, 9623.046 5006.780 C 9620.994 5000.238, 9620.827 5000.033, 9616.719 4999.006 C 9606.255 4996.390, 9583.438 4988.486, 9572.412 4983.657 C 9504.935 4954.109, 9455.398 4900.719, 9434.642 4835.170 C 9422.798 4797.766, 9420.914 4760.943, 9428.597 4717 C 9444.527 4625.887, 9482.334 4537.346, 9531.291 4476.500 C 9580.804 4414.964, 9638.815 4380.044, 9709.196 4369.409 C 9716.103 4368.365, 9732.028 4367.589, 9757.500 4367.054 C 9799.350 4366.175, 9807.844 4365.288, 9830.974 4359.383 C 9915.025 4337.925, 9976.174 4269.776, 10016.155 4153 C 10030.411 4111.361, 10041.749 4065.355, 10054.475 3997.500 C 10063.965 3946.906, 10071.179 3918.418, 10084.386 3879.386 C 10096.030 3844.973, 10112.419 3806.759, 10127.223 3779.501 C 10176.521 3688.730, 10234.703 3635.450, 10300.952 3620.409 C 10317.263 3616.706, 10335.129 3615.400, 10350.591 3616.780 C 10362.683 3617.860, 10379.655 3620.803, 10384.749 3622.704 C 10386.053 3623.191, 10403.622 3645.387, 10426.554 3675.522 C 10448.310 3704.110, 10466.736 3728.134, 10467.500 3728.910 C 10468.265 3729.685, 10482.303 3734.296, 10498.695 3739.157 C 10564.044 3758.536, 10601.667 3772.269, 10646.493 3793.109 C 10660.610 3799.673, 10663.862 3801.548, 10662.811 3802.523 C 10662.090 3803.193, 10625.950 3827.701, 10582.500 3856.986 C 10539.050 3886.270, 10498.325 3914.110, 10492 3918.850 C 10446.910 3952.646, 10408.239 3993.011, 10379.277 4036.511 C 10353.827 4074.737, 10337.815 4107.294, 10306.924 4183.625 C 10286.581 4233.894, 10278.291 4252.763, 10266.122 4276.500 C 10245.388 4316.945, 10223.619 4347.408, 10195.012 4376.010 C 10156.985 4414.031, 10108.350 4448.035, 10048.500 4478.447 C 10013.316 4496.325, 9974.755 4512.635, 9910 4537.027 C 9873.716 4550.694, 9853.740 4559.144, 9843.920 4564.978 C 9836.691 4569.273, 9830.402 4575.551, 9829.424 4579.449 C 9827.964 4585.264, 9836.641 4596.251, 9846.731 4601.364 C 9856.126 4606.124, 9863.151 4607.376, 9880.500 4607.379 C 9908.918 4607.383, 9928.144 4603.370, 9998 4582.853 C 10035.220 4571.921, 10050.217 4566.929, 10073.252 4557.802 C 10093.557 4549.757, 10129.094 4532.514, 10146 4522.505 C 10219.174 4479.183, 10273.747 4423.228, 10320.585 4343.500 C 10333.589 4321.365, 10356.629 4274.938, 10372.941 4238 C 10380.835 4220.125, 10391.760 4195.375, 10397.219 4183 C 10418.451 4134.867, 10439.833 4094.644, 10457.642 4069.332 C 10473.766 4046.417, 10493.423 4025.292, 10512 4010.918 C 10521.246 4003.763, 10724.230 3860.937, 10727.500 3859.285 C 10728.600 3858.729, 10734.290 3857.995, 10740.144 3857.653 C 10756.548 3856.696, 10777.483 3853.479, 10813.008 3846.457 C 10859.454 3837.277, 10868.552 3835.976, 10891 3835.311 C 10919.926 3834.455, 10942.992 3837.937, 10970.500 3847.313 C 10996.194 3856.072, 11038.933 3877.305, 11041.027 3882.352 C 11044.343 3890.347, 11047.143 3914.933, 11047.137 3936 C 11047.122 3987.391, 11033.688 4036.207, 10997.012 4118.138 C 10992.027 4129.274, 10987.746 4138.587, 10987.499 4138.834 C 10987.252 4139.082, 10982.764 4135.187, 10977.527 4130.180 C 10958.437 4111.930, 10951.273 4107, 10943.844 4107 C 10936.678 4107, 10931.900 4111.425, 10916.823 4132.028 C 10913.793 4136.168, 10897.338 4155.166, 10880.257 4174.245 C 10863.175 4193.325, 10823.842 4237.635, 10792.850 4272.713 C 10696.833 4381.387, 10675.915 4404.540, 10634.453 4448.043 C 10598.973 4485.269, 10559.286 4522.697, 10528 4548.437 C 10426.167 4632.219, 10312.273 4695.948, 10069 4805.270 C 10045.075 4816.021, 10020.325 4827.084, 10014 4829.854 L 10002.500 4834.890 10002.736 4838.583 C 10003.690 4853.501, 10030.086 4869.934, 10053.177 4869.985 C 10057.883 4869.996, 10065.113 4868.649, 10077.677 4865.422 C 10255.805 4819.665, 10412.415 4744.130, 10552.666 4636.330 C 10600.342 4599.685, 10619.596 4581.779, 10667 4530 C 10705.352 4488.109, 10726.088 4467.773, 10749.249 4449.336 C 10760.391 4440.467, 10782.665 4425.090, 10781.488 4427.080 C 10779.700 4430.103, 10742.887 4478.448, 10728.627 4496.500 C 10644.952 4602.430, 10566.256 4683.207, 10484.925 4746.648 C 10353.683 4849.023, 10206.547 4914.200, 10020.215 4952.499 C 10017.257 4953.107, 10016.450 4954.132, 10012.085 4962.837 C 10000.108 4986.720, 9986.705 5020.762, 9979.538 5045.500 C 9967.595 5086.724, 9963.141 5119.763, 9964.371 5158 C 9964.944 5175.824, 9967.760 5202.093, 9969.258 5203.591 C 9969.535 5203.868, 9978.027 5204.525, 9988.130 5205.051 C 10171.507 5214.608, 10330.426 5279.953, 10469.428 5402.952 C 10508.320 5437.366, 10565.128 5497.765, 10612.437 5555 C 10672.199 5627.301, 10725.983 5705.547, 10770.188 5784.500 C 10775.423 5793.850, 10888.056 6002.875, 11020.485 6249 C 11152.913 6495.125, 11261.654 6696.927, 11262.132 6697.450 C 11264.353 6699.880, 11261.835 6444.739, 11257.983 6277 C 11249.931 5926.333, 11233.270 5580.041, 11206.456 5206 C 11199.756 5112.547, 11196.123 5065.924, 11194.455 5052 C 11191.322 5025.847, 11184.878 4993.467, 11175.391 4956.198 C 11159.228 4892.708, 11155.610 4877.830, 11151.992 4860 C 11139.558 4798.721, 11138.822 4752.546, 11149.573 4708.236 C 11151.076 4702.041, 11152.423 4697.091, 11152.567 4697.236 C 11152.710 4697.381, 11156.033 4707.175, 11159.950 4719 C 11170.687 4751.408, 11180.341 4769.969, 11191.631 4779.906 C 11201.708 4788.776, 11216.024 4793.118, 11230.141 4791.585 L 11236.782 4790.864 11237.428 4783.682 C 11237.784 4779.732, 11238.466 4715.075, 11238.943 4640 C 11239.455 4559.633, 11240.255 4498.154, 11240.888 4490.500 C 11244.486 4447.043, 11247.777 4421.207, 11253.498 4391.500 C 11258.662 4364.693, 11269.222 4324, 11271.015 4324 C 11272.353 4324, 11277.830 4335.524, 11281.444 4345.942 C 11287.626 4363.762, 11291.649 4387.867, 11294.139 4422 C 11295.464 4440.159, 11295.753 4499.248, 11295.035 4605 C 11294.543 4677.328, 11295.077 4692.504, 11299.096 4720.500 C 11303.253 4749.462, 11310.083 4768.127, 11319.876 4777.287 C 11322.647 4779.879, 11325.376 4782, 11325.940 4782 C 11328.434 4782, 11338.599 4757.294, 11343.584 4739.115 C 11349.353 4718.080, 11353.196 4695.668, 11355.949 4667 C 11358.123 4644.366, 11359.076 4615.601, 11359.991 4545 C 11361.150 4455.574, 11362.428 4433.645, 11368.561 4398 C 11371.013 4383.751, 11376.122 4362.391, 11377.793 4359.406 C 11378.804 4357.599, 11383.828 4383.942, 11388.014 4413 C 11406.141 4538.841, 11403.381 4664.443, 11378.509 4845.500 C 11375.069 4870.546, 11371.201 4896.598, 11354.087 5010 L 11346.164 5062.500 11388.129 5264 C 11457.849 5598.770, 11485.286 5738.488, 11519.479 5932.885 C 11558.827 6156.587, 11597.490 6418.427, 11610.454 6549 C 11630.564 6751.551, 11627.458 6920.988, 11601.444 7040.467 C 11589.879 7093.584, 11572.063 7141.748, 11552.036 7174.039 C 11527.823 7213.077, 11489.647 7235.363, 11439 7240.025 C 11411.830 7242.525, 11379.881 7237.181, 11352.825 7225.610 C 11339.622 7219.963, 11330.563 7214.834, 11315 7204.191 C 11212.098 7133.824, 11100.822 7016.363, 10972.353 6842.500 C 10918.352 6769.419, 10875.054 6706.891, 10775.886 6558.779 C 10696.895 6440.802, 10344.509 5925.106, 10336.563 5915.855 C 10329.138 5907.211, 10317.625 5897.192, 10304.162 5887.658 C 10293.665 5880.226, 10271.187 5866.473, 10270.572 5867.107 C 10270.093 5867.601, 10013 6651.277, 10013 6652.242 C 10013 6652.631, 10022.112 6660.257, 10033.250 6669.189 C 10148.811 6761.865, 10244.447 6857.139, 10322.153 6957 C 10373.682 7023.220, 10425.617 7104.230, 10457.746 7168.500 C 10556.716 7366.484, 10561.236 7600.720, 10471.348 7873.409 C 10449.499 7939.691, 10426.051 7998.750, 10391.709 8074 C 10323.474 8223.517, 10246.466 8373.875, 10161.446 8523.592 C 10102.229 8627.869, 10098.476 8634.058, 9831.330 9068 C 9716.378 9254.725, 9619.522 9412.546, 9616.096 9418.714 C 9609.328 9430.895, 9599.141 9452.647, 9592.779 9468.500 C 9586.180 9484.945, 9574.913 9516.246, 9575.413 9516.746 C 9575.669 9517.003, 9604.727 9501.527, 9639.987 9482.356 L 9704.095 9447.500 9785.736 9319 C 9964.872 9037.050, 10031.255 8930.870, 10119.277 8785.500 C 10235.244 8593.978, 10347.727 8394.112, 10413.337 8263 C 10456.218 8177.309, 10487.241 8108.074, 10516.845 8032 C 10549.659 7947.676, 10580.314 7852.609, 10599.964 7774.228 C 10629.420 7656.735, 10635.374 7521.209, 10617.918 7365.548 C 10609.035 7286.338, 10585.531 7212.790, 10539.445 7120 C 10512.340 7065.425, 10489.751 7024.851, 10471.335 6997.662 C 10384.215 6869.039, 10277.058 6751.720, 10133.848 6628.170 L 10116.196 6612.941 10120.963 6599.221 C 10123.584 6591.674, 10167.936 6462.084, 10219.523 6311.241 L 10313.318 6036.983 10329.827 6061.741 C 10425.987 6205.957, 10809.184 6778.584, 10820.516 6795 C 10943.885 6973.713, 11063.173 7114.847, 11182.033 7222.722 C 11256.203 7290.037, 11346.773 7326.541, 11432.500 7323.673 C 11484.581 7321.930, 11528.950 7307.419, 11569.500 7278.865 C 11580.795 7270.912, 11606.154 7245.706, 11615.643 7233 C 11669.808 7160.476, 11702.031 7051.587, 11713.446 6902.500 C 11717.775 6845.956, 11718.042 6760.185, 11714.072 6701 C 11699.968 6490.693, 11673.227 6284.802, 11627.509 6034.500 C 11603.662 5903.940, 11522.274 5472.830, 11516.975 5449 C 11513.611 5433.875, 11505.938 5402.150, 11499.923 5378.500 C 11493.908 5354.850, 11483.844 5315.250, 11477.558 5290.500 C 11451.535 5188.049, 11440.335 5126.528, 11436.048 5062.500 C 11434.845 5044.533, 11436.194 5025.620, 11448.558 4887.023 C 11454.722 4817.939, 11459.207 4763.386, 11461.469 4730 C 11471.939 4575.449, 11468.778 4456.307, 11451.413 4351.010 C 11447.815 4329.195, 11445.513 4317.108, 11444.860 4316.614 C 11444.662 4316.464, 11440.450 4315.311, 11435.500 4314.051 C 11415.653 4308.999, 11397.286 4300.823, 11372.500 4286.008 C 11337.367 4265.007, 11322.780 4260.107, 11295.182 4260.035 C 11287.857 4260.016, 11276.832 4260.721, 11270.682 4261.602 C 11257.991 4263.420, 11229.435 4270.442, 11217.535 4274.670 C 11210.388 4277.209, 11209.503 4277.808, 11208.925 4280.500 C 11190.295 4367.261, 11175.952 4460.142, 11162.522 4581 C 11161.085 4593.925, 11159.719 4605.425, 11159.485 4606.555 C 11159.081 4608.507, 11158.374 4608.610, 11145.280 4608.619 C 11129.330 4608.630, 11121.459 4610.197, 11110.235 4615.595 C 11101.836 4619.635, 11090.841 4629.397, 11085.011 4637.989 C 11057.061 4679.182, 11053.733 4757.813, 11074.597 4884 C 11078.624 4908.354, 11085.749 4945.123, 11096.495 4997 C 11100.540 5016.525, 11104.794 5038.350, 11105.948 5045.500 C 11107.757 5056.701, 11111.989 5145.632, 11136.524 5688.016 C 11152.186 6034.250, 11164.994 6318.425, 11164.987 6319.516 C 11164.951 6325.059, 11106.566 6217.492, 11031.997 6074.500 C 10976.556 5968.187, 10944.799 5908.529, 10916.221 5857 C 10812.332 5669.679, 10724.623 5541.029, 10626.130 5431.500 C 10595.003 5396.885, 10542.224 5346.167, 10507 5317.023 C 10377.252 5209.670, 10235.715 5146.775, 10078.500 5126.608 L 10061.500 5124.428 10060.672 5117.464 C 10059.394 5106.719, 10060.555 5080.033, 10062.872 5066.889 C 10066.555 5045.993, 10075.743 5021.539, 10080.291 5020.525 C 10081.506 5020.255, 10088.800 5018.859, 10096.500 5017.425 C 10235.299 4991.565, 10366.249 4933.195, 10486.490 4843.588 C 10589.165 4767.072, 10679.863 4676.910, 10827.592 4504.500 C 10969.206 4339.228, 10966.870 4342.094, 10997.900 4295.500 C 11074.103 4181.076, 11118.011 4059.213, 11129.594 3930 C 11134.543 3874.788, 11123.766 3840.003, 11092.406 3809.971 C 11056.885 3775.954, 10997.902 3757.646, 10908.500 3752.890 C 10883.858 3751.579, 10825.994 3752.279, 10786.500 3754.367 L 10762.500 3755.636 10753.500 3752.445 C 10734.762 3745.801, 10716.833 3737.960, 10669 3715.493 C 10600.996 3683.550, 10572.066 3671.851, 10538.060 3662.544 L 10526.500 3659.380 10492.707 3619.440 C 10440.177 3557.355, 10438.898 3555.897, 10432 3550.283 C 10418.970 3539.677, 10398.262 3531.308, 10376.500 3527.852 C 10366.085 3526.198, 10333.135 3526.211, 10321 3527.873 C 10288.943 3532.264, 10263.383 3540.086, 10232.500 3554.954 C 10139.625 3599.667, 10073.523 3675.706, 10027.252 3791.056 C 10003.632 3849.938, 9988.420 3904.518, 9960.097 4032 C 9956.248 4049.325, 9951.483 4070.475, 9949.508 4079 C 9932.750 4151.358, 9904.890 4205.977, 9863.867 4246.899 C 9844.250 4266.469, 9828.029 4278.080, 9813.642 4282.850 C 9797.704 4288.135, 9789.261 4289.025, 9745.500 4290.034 C 9693.192 4291.239, 9674.043 4292.753, 9650.078 4297.580 C 9621.017 4303.434, 9589.629 4316.035, 9563 4332.540 C 9514.172 4362.803, 9456.630 4424.844, 9418.350 4488.500 C 9378.488 4554.787, 9353.938 4624.269, 9344.094 4698.661 C 9340.701 4724.301, 9339.710 4744.124, 9340.289 4774.784 C 9341.096 4817.521, 9345.930 4845.622, 9358.476 4880.500 C 9383.600 4950.352, 9435.733 5007.902, 9506.539 5043.948 C 9516.167 5048.849, 9519.617 5051.062, 9518.733 5051.768 C 9518.055 5052.310, 9481.950 5074.341, 9438.500 5100.727 C 9395.050 5127.112, 9350.204 5154.358, 9338.843 5161.274 L 9318.186 5173.847 9290.730 5135.673 C 9112.806 4888.295, 8941.572 4630.357, 8770.815 4352.500 C 8743.053 4307.326, 8698.099 4233.348, 8693.027 4224.489 L 8690.730 4220.477 8693.998 4213.989 C 8695.795 4210.420, 8852.292 3910.050, 9041.768 3546.500 C 9231.244 3182.950, 9396.833 2864.800, 9409.742 2839.500 C 9446.842 2766.790, 9461.750 2740.476, 9486.791 2703.500 C 9510.134 2669.032, 9532.751 2631.877, 9556.184 2589.500 C 9621.313 2471.723, 9662.428 2373.227, 9673.126 2309.354 C 9675.922 2292.664, 9676.170 2269.564, 9673.657 2260 C 9671.221 2250.729, 9667.534 2243.692, 9662.452 2238.609 C 9652.755 2228.913, 9642.777 2226.591, 9614 2227.334 C 9596.192 2227.794, 9587.281 2228.606, 9567.250 2231.593 L 9563 2232.227 9563.007 2200.364 C 9563.014 2165.316, 9563.620 2148.233, 9567.999 2059.500 C 9572.059 1977.249, 9573.001 1949.174, 9572.994 1910.603 C 9572.987 1865.222, 9570.375 1814.186, 9566.926 1792 C 9564.818 1778.442, 9557.064 1766.978, 9546.022 1761.092 C 9537.753 1756.685, 9528.890 1755.035, 9513.500 1755.036 C 9498.790 1755.037, 9488.330 1756.345, 9462.500 1761.412 C 9439.530 1765.919, 9426.582 1767.991, 9421.366 1767.996 C 9419.092 1767.998, 9406.483 1765.320, 9393.345 1762.045 C 9380.207 1758.770, 9365.471 1755.395, 9360.598 1754.545 C 9349.563 1752.621, 9330.924 1752.580, 9325.625 1754.469 M 7473 1914.594 C 7426.731 1921.990, 7394.704 1952.217, 7386.546 1996.188 C 7385.379 2002.476, 7361.677 2249.517, 7341.134 2469.509 C 7340.565 2475.609, 7340.555 2483.028, 7341.111 2488.509 C 7343.615 2513.223, 7355.029 2543.540, 7366.156 2555.032 C 7373.225 2562.333, 7389.234 2567.992, 7414 2571.942 C 7420.875 2573.039, 7489.454 2580.718, 7566.398 2589.008 C 7724.795 2606.073, 7710.247 2605.356, 7727.642 2596.963 C 7746.055 2588.080, 7764.568 2571.717, 7771.009 2558.633 C 7774.146 2552.262, 7774.254 2551.644, 7773.787 2542.752 C 7773.397 2535.346, 7772.737 2532.303, 7770.475 2527.500 C 7766.657 2519.393, 7758.395 2511.458, 7748.439 2506.334 C 7728.895 2496.278, 7708.326 2491.918, 7652.500 2486 C 7604.890 2480.953, 7586.019 2477.439, 7572.377 2471.078 C 7560.181 2465.393, 7554.010 2456.896, 7549.262 2439.254 C 7546.814 2430.158, 7546.633 2428.016, 7546.587 2407.500 C 7546.531 2382.711, 7547.866 2371.524, 7553.529 2349.361 C 7556.752 2336.745, 7563.150 2318.465, 7564.992 2316.613 C 7565.479 2316.124, 7616.687 2315.152, 7679.399 2314.442 L 7792.925 2313.157 7798.849 2310 C 7809.150 2304.510, 7821.649 2292.528, 7826.026 2283.949 C 7829.460 2277.217, 7828.772 2274.261, 7821.104 2262.803 C 7801.974 2234.219, 7781.639 2221.002, 7747.564 2215.002 C 7729.365 2211.798, 7716.897 2211.155, 7639 2209.399 C 7598.025 2208.475, 7564.431 2207.670, 7564.346 2207.610 C 7563.995 2207.360, 7589.655 2043.012, 7590.116 2042.550 C 7591.603 2041.064, 7607.924 2039.844, 7626 2039.868 C 7648.756 2039.898, 7665.461 2041.188, 7718.500 2047.009 C 7777.817 2053.520, 7785.357 2054.131, 7813.509 2054.711 C 7859.392 2055.656, 7881.241 2051.273, 7895.053 2038.354 C 7902.576 2031.316, 7905.255 2025.455, 7905.795 2014.847 C 7906.191 2007.071, 7905.966 2005.605, 7903.573 2000.379 C 7896.724 1985.419, 7876.452 1966.097, 7861.843 1960.604 C 7859.249 1959.628, 7788.845 1949.875, 7687 1936.383 C 7533.796 1916.086, 7514.776 1913.758, 7499.500 1913.435 C 7487.557 1913.182, 7479.674 1913.527, 7473 1914.594 M 8100 1952.672 C 8093.671 1953.309, 8083.624 1955.019, 8076.133 1956.734 C 8070.629 1957.994, 8068.549 1958.937, 8067.912 1960.461 C 8067.442 1961.582, 8043.120 2085.125, 8013.861 2235 C 7960.904 2506.274, 7960.665 2507.556, 7960.673 2520 C 7960.693 2548.134, 7972.027 2573.352, 7994.636 2595.565 C 8018.077 2618.596, 8045.822 2628.371, 8088 2628.459 C 8110.807 2628.507, 8118.450 2627.161, 8130.970 2620.895 C 8140.345 2616.202, 8146.983 2609.426, 8149.769 2601.702 C 8150.800 2598.841, 8167.812 2529.807, 8187.572 2448.293 C 8214.334 2337.895, 8223.784 2300.394, 8224.614 2301.293 C 8225.227 2301.957, 8274.688 2375.400, 8334.527 2464.500 C 8394.366 2553.600, 8446.246 2630.023, 8449.816 2634.330 C 8473.923 2663.413, 8513.604 2683.688, 8560 2690.626 C 8575.658 2692.968, 8603.723 2692.989, 8613.858 2690.668 C 8655.574 2681.111, 8697.823 2649.798, 8724.510 2608.658 C 8734.605 2593.097, 8771.828 2517.583, 8800.252 2455 C 8896.765 2242.507, 8936.519 2095.705, 8910.986 2046.080 C 8907.346 2039.006, 8905.053 2036.409, 8897 2030.241 C 8886.599 2022.274, 8876.430 2016.120, 8862.500 2009.362 C 8826.738 1992.011, 8791.046 1987.023, 8759.500 1994.968 C 8750.998 1997.110, 8733.145 2005.490, 8731.739 2008 C 8731.277 2008.825, 8688.059 2112.347, 8635.699 2238.050 C 8583.340 2363.752, 8540.115 2466.802, 8539.645 2467.050 C 8539.174 2467.297, 8481.470 2375.048, 8411.413 2262.052 C 8341.356 2149.056, 8281.594 2052.934, 8278.609 2048.449 C 8242.562 1994.282, 8189.839 1959.387, 8134.459 1953.043 C 8126.049 1952.079, 8107.837 1951.884, 8100 1952.672 M 6984.500 1965.033 C 6963.008 1967.485, 6944.765 1972.885, 6925.500 1982.497 C 6883.195 2003.604, 6848.803 2042.297, 6817.676 2103.808 C 6799.488 2139.749, 6789.036 2166, 6757.982 2253.734 C 6750.832 2273.934, 6748 2279.821, 6748 2274.485 C 6748 2271.585, 6730.498 2219.880, 6723.819 2203.049 C 6710.401 2169.235, 6693.399 2137.439, 6676.844 2115.199 C 6667.082 2102.085, 6646.704 2081.964, 6635.500 2074.377 C 6609.491 2056.764, 6587.629 2049.508, 6557 2048.324 C 6478.797 2045.300, 6426.702 2088.607, 6379.695 2195.720 C 6376.021 2204.090, 6367.135 2225.465, 6359.948 2243.220 C 6345.576 2278.725, 6334.137 2305, 6333.053 2305 C 6332.668 2305, 6330.970 2300.162, 6329.279 2294.250 C 6327.589 2288.338, 6312.898 2236.925, 6296.633 2180 C 6280.368 2123.075, 6266.703 2075.387, 6266.265 2074.026 C 6264.536 2068.647, 6244.563 2064.033, 6222.926 2064.013 C 6192.627 2063.986, 6166.840 2071.922, 6151.710 2085.929 C 6137.883 2098.731, 6124.834 2124.634, 6119.409 2150.053 C 6116.448 2163.926, 6116.959 2178.538, 6121.366 2206 C 6144.332 2349.111, 6164.491 2453.582, 6196.623 2596 C 6207.748 2645.306, 6210.260 2655.158, 6214.532 2666.229 C 6222.524 2686.941, 6232.434 2702.489, 6246.960 2717.107 C 6261.901 2732.142, 6273.304 2738.474, 6290.159 2741.095 C 6301.179 2742.809, 6335.013 2741.664, 6347.036 2739.171 C 6382.280 2731.862, 6404.830 2715.113, 6409.870 2692.500 C 6410.483 2689.750, 6426.503 2603.125, 6445.469 2500 C 6483.062 2295.605, 6482.407 2298.663, 6493.097 2277.475 C 6495.864 2271.989, 6501.462 2262.550, 6505.536 2256.500 C 6512.828 2245.671, 6529.441 2225, 6530.852 2225 C 6531.249 2225, 6549.957 2297.563, 6572.425 2386.250 C 6594.892 2474.938, 6614.596 2551.700, 6616.211 2556.834 C 6631.277 2604.725, 6662.695 2637.064, 6701.500 2644.623 C 6712.768 2646.818, 6748.289 2647.136, 6760.500 2645.150 C 6793.605 2639.768, 6815.247 2627.803, 6825.219 2609.369 C 6829.261 2601.897, 6832.497 2586.952, 6851.495 2488 C 6863.960 2423.077, 6870.424 2392.212, 6877.986 2361.500 C 6897.615 2281.781, 6922.505 2217.029, 6955.055 2161 C 6966.766 2140.842, 6977.799 2124.272, 6978.355 2126.009 C 6978.617 2126.829, 6989.448 2214.743, 7002.423 2321.374 C 7028.833 2538.408, 7026.323 2522.543, 7037.627 2543.939 C 7048.906 2565.290, 7061.709 2580.784, 7072.366 2585.980 C 7085.260 2592.267, 7105.363 2594.433, 7144.305 2593.732 C 7192.984 2592.855, 7230.671 2585.737, 7255.302 2572.768 C 7264.494 2567.928, 7275.464 2557.983, 7276.599 2553.461 C 7277.096 2551.481, 7272.799 2524.181, 7263.073 2467.530 C 7214.686 2185.689, 7212.823 2175.275, 7205.386 2145 C 7183.118 2054.350, 7146.185 2002.722, 7086.194 1978.382 C 7074.950 1973.820, 7054.531 1968.577, 7039.990 1966.518 C 7026.272 1964.575, 6995.684 1963.756, 6984.500 1965.033 M 5717 2212.699 C 5714.525 2212.892, 5707.325 2213.734, 5701 2214.571 C 5607.805 2226.906, 5520.073 2280.285, 5467.732 2356.500 C 5419.089 2427.330, 5397.833 2517.577, 5407.554 2612 C 5417.013 2703.874, 5455.410 2787.467, 5515.970 2848.031 C 5563.761 2895.826, 5621.497 2926.314, 5688 2938.873 C 5708.428 2942.730, 5718.678 2943.502, 5748.500 2943.427 C 5779.901 2943.348, 5792.527 2942.073, 5817.722 2936.435 C 5913.946 2914.906, 5993.694 2850.098, 6031.511 2762.698 C 6070.460 2672.682, 6074.606 2554.224, 6042.386 2452 C 6004.628 2332.211, 5922.626 2248.213, 5817 2221.129 C 5803.766 2217.735, 5785.080 2214.503, 5770.144 2213.025 C 5760.604 2212.081, 5727.559 2211.878, 5717 2212.699 M 5685.500 2342.378 C 5671.700 2346.890, 5662.671 2352.478, 5650.645 2363.949 C 5620.567 2392.638, 5600.045 2440.737, 5591.316 2503 C 5588.804 2520.922, 5588.820 2573.018, 5591.344 2591.500 C 5601.783 2667.936, 5630.324 2732.492, 5677.779 2787 C 5693.633 2805.211, 5711.483 2817.437, 5732.717 2824.628 C 5744.067 2828.471, 5752.457 2828.383, 5761.137 2824.328 C 5798.720 2806.772, 5827.283 2756.517, 5838.905 2687.500 C 5842.958 2663.430, 5843.501 2655.336, 5843.464 2619.500 C 5843.432 2589.026, 5843.139 2582.366, 5841.197 2568 C 5832.195 2501.417, 5811.752 2444.920, 5778.299 2394.177 C 5763.967 2372.439, 5751.602 2360.679, 5732 2350.145 C 5713.742 2340.332, 5699.190 2337.902, 5685.500 2342.378 M 9921.500 2371.642 C 9917.650 2372.456, 9912.973 2373.882, 9911.106 2374.811 C 9907.962 2376.376, 9897.863 2395.518, 9773.841 2635 C 9700.211 2777.175, 9639.479 2895.298, 9638.880 2897.494 C 9637.037 2904.257, 9638.254 2920.421, 9641.238 2928.806 C 9648.836 2950.153, 9667.522 2972.573, 9684.695 2980.946 C 9708.743 2992.672, 9750.040 2992.549, 9772.493 2980.684 C 9784.160 2974.519, 9782.552 2976.789, 9833.517 2894.500 C 9938.093 2725.649, 10000.848 2607.980, 10053.219 2482.551 C 10062.372 2460.628, 10062.499 2459.416, 10057.108 2445.437 C 10039.244 2399.113, 9969.947 2361.404, 9921.500 2371.642 M 5135.311 2418.025 C 5108.946 2420.575, 5076.176 2434.321, 5063.388 2448.195 C 5058.856 2453.112, 5055.730 2461.102, 5054.077 2472 C 5052.289 2483.787, 5051.767 2500.291, 5052.875 2510 C 5053.723 2517.424, 5158.474 2988.227, 5160.539 2993.891 C 5161.176 2995.641, 5161.969 2996.263, 5141.006 2978.567 C 5068.191 2917.099, 4995.312 2851.157, 4878.500 2741.043 C 4852.100 2716.158, 4827.350 2693.552, 4823.500 2690.809 C 4819.650 2688.067, 4811.550 2683.400, 4805.500 2680.440 C 4782.488 2669.179, 4761.096 2664.447, 4737 2665.287 C 4721.319 2665.834, 4713.712 2667.367, 4703.154 2672.111 C 4684.750 2680.379, 4673.905 2693.118, 4666.593 2715.058 C 4659.206 2737.225, 4656.373 2760.675, 4657.298 2792 C 4658.035 2816.969, 4659.730 2832.967, 4667.043 2884 C 4674.391 2935.278, 4707.115 3180.160, 4706.759 3181.210 C 4706.617 3181.630, 4658.810 3105.143, 4600.521 3011.237 C 4542.233 2917.332, 4491.423 2835.775, 4487.610 2830 C 4479.557 2817.803, 4463.563 2801.316, 4454.765 2796.145 C 4437.642 2786.081, 4421.207 2783.091, 4401.705 2786.492 C 4370.740 2791.892, 4351.401 2808.729, 4341.392 2839 C 4338.765 2846.947, 4338.579 2848.606, 4338.543 2864.500 C 4338.504 2881.474, 4338.509 2881.515, 4342.054 2891.500 C 4345.008 2899.823, 4363.913 2933.402, 4454.802 3091.768 C 4514.861 3196.415, 4564 3282.200, 4564 3282.401 C 4564 3282.602, 4560.962 3283.081, 4557.250 3283.465 C 4499.454 3289.438, 4447.139 3324.462, 4400.640 3388.310 C 4357.620 3447.382, 4320.784 3533.128, 4296.168 3631.500 C 4279.767 3697.046, 4270.256 3757.703, 4264.809 3831.500 C 4263.165 3853.776, 4263.174 3928.723, 4264.823 3948.500 C 4269.907 4009.488, 4279.472 4053.799, 4295.330 4089.833 C 4317.324 4139.806, 4357.533 4171.184, 4420.484 4187.499 C 4453.154 4195.966, 4483.984 4200.064, 4544.500 4203.985 C 4626.850 4209.320, 4646.520 4211.090, 4672.722 4215.524 C 4707.320 4221.378, 4722.765 4226.593, 4759.500 4244.827 C 4905.007 4317.050, 4985.755 4344.682, 5104.500 4362.883 C 5129.446 4366.707, 5141.705 4368.365, 5246 4382.013 C 5291.260 4387.936, 5352.218 4396.470, 5356.750 4397.518 L 5359 4398.038 5359 4453.519 L 5359 4509 5356.176 4509 C 5354.623 4509, 5340.786 4507.667, 5325.426 4506.037 C 5088.349 4480.881, 4833.347 4473.590, 4573 4484.524 C 4362.362 4493.371, 4115.329 4515.679, 3958 4540.062 C 3786.780 4566.597, 3644.676 4605.852, 3514 4662.713 C 3425.232 4701.339, 3375.905 4735.689, 3347.728 4778.500 C 3323.899 4814.704, 3311.025 4873.574, 3314.924 4928.500 C 3319.889 4998.429, 3342.159 5062.961, 3388.087 5140.500 C 3631.628 5551.665, 4021.899 5975.616, 4543.215 6395.315 L 4573.930 6420.043 4570.371 6427.771 C 4540.269 6493.148, 4521.726 6554.261, 4509.617 6628 C 4481.713 6797.922, 4501.300 7003.178, 4565.011 7208.500 C 4578.859 7253.130, 4592.698 7291.354, 4616.239 7350 C 4691.922 7538.542, 4783.318 7722.615, 4901.492 7924.500 C 4909.863 7938.800, 5022.229 8129.375, 5151.196 8348 C 5280.162 8566.625, 5386.228 8746.531, 5386.897 8747.791 C 5387.999 8749.865, 5385.801 8754.596, 5363.667 8797.791 C 5265.321 8989.711, 5170.448 9179.599, 5093.765 9338 C 4788.427 9968.724, 4572.187 10501.945, 4391.985 11068.500 C 4374.059 11124.859, 4361.923 11164.456, 4153.522 11846.500 C 4044.287 12204, 3952.409 12504.375, 3949.348 12514 C 3941.919 12537.363, 3936.837 12549.891, 3917.500 12592.500 C 3888.534 12656.329, 3879.609 12681.790, 3875.504 12712.302 L 3874.132 12722.500 3965.013 13082 C 4014.997 13279.725, 4056.541 13443.324, 4057.333 13445.553 C 4063.245 13462.202, 4076.815 13478.683, 4090.940 13486.371 C 4100.593 13491.624, 4112.957 13493.209, 4126.787 13490.965 C 4137.560 13489.216, 4143.967 13486.288, 4149.617 13480.531 C 4156.669 13473.346, 4158.530 13467.704, 4158.368 13454 C 4158.198 13439.542, 4155.055 13426.506, 4142.357 13387.590 C 4130.456 13351.122, 4125.686 13333.879, 4123.519 13319.500 C 4121.998 13309.410, 4121.679 13293.036, 4122.896 13287.500 C 4123.481 13284.835, 4123.642 13284.723, 4124.332 13286.500 C 4124.759 13287.600, 4137.515 13320.675, 4152.678 13360 C 4167.841 13399.325, 4181.942 13434.875, 4184.014 13439 C 4193.922 13458.725, 4212.911 13477.488, 4228.057 13482.519 C 4232.136 13483.874, 4235.549 13484.147, 4243.879 13483.785 C 4261.859 13483.004, 4276.851 13476.402, 4294.130 13461.657 C 4298.327 13458.076, 4302.678 13453.857, 4303.800 13452.281 L 4305.839 13449.417 4273.066 13423.779 L 4240.294 13398.140 4206.023 13321.052 C 4187.174 13278.654, 4171.471 13243.805, 4171.126 13243.610 C 4170.782 13243.414, 4156.680 13244.414, 4139.789 13245.833 C 4122.898 13247.251, 4108.810 13248.144, 4108.483 13247.816 C 4108.155 13247.488, 4075.315 13132.892, 4035.506 12993.158 L 3963.125 12739.097 3965.095 12730.798 C 3971.296 12704.667, 3982.305 12674.366, 4005.590 12619.341 C 4024.265 12575.210, 4031.660 12556.854, 4037.066 12541.217 C 4039.294 12534.772, 4061.371 12466.050, 4086.126 12388.500 C 4115.224 12297.344, 4194.944 12040.345, 4311.637 11661.500 C 4531.763 10946.859, 4518.642 10988.985, 4556.448 10875.500 C 4709.540 10415.954, 4899.955 9959.090, 5173.714 9394.500 C 5233.566 9271.063, 5335.870 9065.439, 5408.049 8923.500 C 5477.813 8786.312, 5479.402 8782.969, 5484.005 8763.759 C 5489.632 8740.270, 5486.483 8717.891, 5474.179 8693.934 C 5471.514 8688.745, 5453.003 8658.175, 5433.044 8626 C 5245.264 8323.292, 5073 8031.345, 4919.993 7756.500 C 4849.824 7630.456, 4801.639 7535.870, 4758.248 7439 C 4592.964 7070.001, 4549.124 6770.788, 4626.457 6539.500 C 4640.789 6496.636, 4659.129 6456.295, 4680.939 6419.663 C 4685.373 6412.216, 4688.965 6405.759, 4688.923 6405.312 C 4688.881 6404.865, 4679.794 6396.850, 4668.731 6387.500 C 4601.389 6330.588, 4482.161 6228.031, 4416.500 6170.537 C 4193.020 5974.853, 4038.094 5822.040, 3868.943 5630.448 C 3706.064 5445.960, 3578.422 5278.635, 3497.646 5143.713 C 3452.064 5067.577, 3417.494 4992.311, 3408.255 4949.086 C 3405.796 4937.585, 3405.565 4934.603, 3405.567 4914.500 C 3405.570 4895.504, 3405.870 4891.160, 3407.765 4882.686 C 3417.942 4837.181, 3443.785 4800.141, 3484.329 4772.949 C 3505.174 4758.967, 3556.756 4736.211, 3613 4716.181 C 3822.644 4641.522, 4135.298 4591.012, 4496 4573.529 C 4796.190 4558.979, 5111.028 4570.030, 5322.500 4602.540 C 5360.336 4608.356, 5365.849 4608.960, 5381.292 4608.980 C 5405.087 4609.012, 5419.137 4604.959, 5428.829 4595.266 C 5435.256 4588.839, 5437.175 4583.437, 5440.865 4561.382 C 5450.345 4504.716, 5451.615 4453.951, 5444.901 4400 C 5442.555 4381.148, 5437.406 4351.628, 5436.009 4349.016 C 5433.117 4343.612, 5392.824 4327.191, 5363.434 4319.438 C 5327.176 4309.873, 5299.092 4305.762, 5214 4297.561 C 5163.520 4292.696, 5148.214 4291.026, 5126 4287.958 C 5044.265 4276.669, 4979.679 4257.856, 4919.799 4227.892 C 4805.861 4170.878, 4713.932 4139.684, 4630 4129.556 C 4606.497 4126.720, 4591.469 4125.924, 4544 4124.997 C 4493.697 4124.015, 4483.744 4123.207, 4464.304 4118.522 C 4434.692 4111.386, 4403.295 4093.053, 4375.046 4066.405 L 4367.955 4059.715 4371.228 4057.491 C 4378.278 4052.700, 4395.051 4043.866, 4406 4039.176 C 4490.142 4003.136, 4603.785 4008.130, 4744.500 4054.052 C 4782.414 4066.425, 4815.480 4079.170, 4867.500 4101.463 C 4912.590 4120.785, 4943.374 4132.372, 4980.178 4143.875 C 5069.263 4171.716, 5150.731 4186.992, 5248.500 4194.187 C 5271.426 4195.874, 5351.522 4195.884, 5373 4194.203 C 5453.589 4187.893, 5511.690 4173.074, 5530.811 4153.954 C 5540.344 4144.421, 5537.413 4134.323, 5523 4127.040 C 5506.255 4118.579, 5486.782 4117.689, 5393 4121.100 C 5341.891 4122.959, 5284.494 4121.594, 5238.500 4117.426 C 5150.108 4109.416, 5061.220 4088.828, 4974.656 4056.314 C 4935.085 4041.451, 4911.526 4031.060, 4856 4003.984 C 4834.825 3993.658, 4809.625 3982.052, 4800 3978.194 C 4749.102 3957.789, 4699.195 3945.315, 4643.500 3939.079 C 4599.759 3934.181, 4543.240 3935.291, 4493.500 3942.026 C 4452.259 3947.610, 4400.451 3959.445, 4360.162 3972.487 C 4353.926 3974.506, 4348.657 3975.990, 4348.454 3975.787 C 4347.781 3975.114, 4345.088 3946.820, 4343.912 3928.070 C 4342.559 3906.506, 4343.193 3855.737, 4345.018 3839.500 C 4345.698 3833.450, 4346.364 3828.370, 4346.499 3828.211 C 4347.286 3827.284, 4374.106 3816.251, 4389 3810.727 C 4476.044 3778.448, 4564.486 3770.144, 4657.204 3785.545 C 4729.285 3797.518, 4791.510 3817.875, 4924.500 3872.991 C 5034.872 3918.734, 5087.220 3938.206, 5142 3953.895 C 5277.955 3992.833, 5401.986 3995.930, 5528.395 3963.542 C 5542.508 3959.926, 5545.844 3958.720, 5547.695 3956.569 C 5554.754 3948.362, 5556.109 3919.164, 5549.707 3913.218 C 5548.493 3912.090, 5544.800 3910.627, 5541.500 3909.966 C 5531.193 3907.900, 5494.050 3907.674, 5463 3909.487 C 5424.194 3911.753, 5355.499 3912.586, 5330.863 3911.089 C 5241.948 3905.688, 5165.411 3887.648, 5083.500 3852.785 C 5075.800 3849.508, 5052.850 3838.705, 5032.500 3828.778 C 4975.129 3800.791, 4941.702 3785.678, 4902.239 3769.881 C 4809.096 3732.596, 4726.079 3710.998, 4643 3702.435 C 4621.926 3700.262, 4562.057 3699.384, 4540.769 3700.934 C 4477.372 3705.550, 4418.251 3719.558, 4361.750 3743.350 L 4351 3747.876 4351 3744.568 C 4351 3739.629, 4354.616 3719.510, 4358.628 3702.120 C 4373.901 3635.928, 4402.523 3555.851, 4431.811 3497.375 C 4466.429 3428.256, 4501.551 3387.797, 4534.283 3379.334 C 4539.494 3377.987, 4544.141 3377.827, 4563 3378.343 C 4648.821 3380.694, 4747.775 3403.201, 4864 3446.808 C 4918.598 3467.292, 4967.442 3487.926, 5064.500 3531.507 C 5134.750 3563.050, 5175.102 3580.931, 5201.500 3592.214 C 5346.753 3654.297, 5451.518 3684.125, 5545 3690.012 C 5554.625 3690.618, 5643.050 3693.804, 5741.500 3697.091 C 5940.314 3703.730, 5935.644 3703.425, 5970 3712.015 C 6051.588 3732.414, 6118.006 3788.478, 6147.415 3861.769 C 6159.779 3892.584, 6165.121 3921.381, 6165.081 3957 C 6165.061 3975.072, 6163.983 3992.350, 6162.803 3993.530 C 6162.581 3993.752, 6141.971 3987.879, 6117.002 3980.479 C 6082.840 3970.354, 6071.404 3967.330, 6070.798 3968.262 C 6069.115 3970.849, 6066.877 3979.752, 6066.338 3986 C 6064.541 4006.876, 6079.315 4024.573, 6112.458 4041.241 C 6120.842 4045.457, 6156.410 4061.378, 6166.343 4065.360 L 6169.185 4066.500 6168.518 4074 C 6163.475 4130.702, 6143.858 4193.112, 6114.634 4245.433 C 6091.454 4286.931, 6067.097 4318.917, 6033.844 4351.529 C 5996.713 4387.944, 5974.353 4402.257, 5943 4409.682 C 5927.334 4413.392, 5902.020 4413.933, 5876.500 4411.103 C 5855.422 4408.766, 5842.538 4408.448, 5836.500 4410.116 C 5831.140 4411.597, 5825.613 4417.509, 5824.147 4423.330 C 5820.482 4437.887, 5826.234 4471.444, 5839.158 4510.906 C 5859.163 4571.987, 5883.143 4599.507, 5932.524 4618.055 C 5938.155 4620.170, 5957.554 4626.395, 5975.632 4631.888 C 6013.279 4643.327, 6026.487 4647.785, 6046.932 4655.954 C 6093.774 4674.670, 6138.789 4699.922, 6184.969 4733.390 C 6191.827 4738.360, 6210.727 4752.753, 6226.969 4765.375 C 6362.788 4870.917, 6474.056 4965.785, 6584.979 5070.620 C 6599.016 5083.885, 6724.797 5203.237, 6864.493 5335.846 L 7118.486 5576.952 7123.826 5571.726 C 7142.806 5553.153, 7156.758 5524.822, 7160.678 5496.895 L 7162.364 5484.877 7126.133 4882.689 L 7089.902 4280.500 7061.998 3936.500 C 7046.651 3747.300, 7033.156 3584.625, 7032.009 3575 C 7029.049 3550.169, 7026.018 3530.186, 7016.920 3475.500 C 6997.977 3361.651, 6993.396 3310.623, 6997.635 3260.708 L 6998.211 3253.916 7004.678 3264.708 C 7027.058 3302.061, 7048.376 3327.911, 7066.746 3339.970 C 7075.849 3345.946, 7078.736 3346.291, 7082.476 3341.846 C 7088.625 3334.538, 7096.483 3314.441, 7097.626 3303.100 C 7097.954 3299.850, 7097.537 3293.724, 7096.632 3288.500 C 7093.781 3272.032, 7091.034 3245.607, 7088.942 3214.500 C 7087.262 3189.520, 7086.625 3103.398, 7087.896 3073 C 7091.133 2995.578, 7098.250 2941.293, 7109.041 2911.725 C 7112.825 2901.357, 7116.240 2896.216, 7120.534 2894.421 C 7124.589 2892.727, 7135.849 2892.699, 7151.500 2894.344 L 7162.500 2895.500 7163 3123 L 7163.500 3350.500 7167.592 3359 C 7171.653 3367.433, 7176.277 3374, 7178.156 3374 C 7180.198 3374, 7186.123 3368.529, 7200.324 3353.534 C 7208.396 3345.011, 7215 3338.622, 7215 3339.337 C 7215 3340.052, 7208.475 3397.423, 7200.500 3466.828 C 7192.525 3536.233, 7186 3594.558, 7186 3596.440 C 7186 3598.322, 7191.647 3625.431, 7198.549 3656.681 C 7321.296 4212.458, 7396.869 4592.064, 7460.504 4972.500 C 7485.473 5121.775, 7513.316 5303.233, 7517.430 5343.500 C 7524.776 5415.394, 7524.083 5490.684, 7515.437 5560 C 7502.245 5665.762, 7471.937 5754.129, 7427.669 5815.899 C 7400.189 5854.245, 7369.162 5881.346, 7330.937 5900.391 C 7291.503 5920.039, 7246.913 5928.227, 7196.500 5925.080 C 7079.723 5917.789, 6976.120 5895.708, 6879.500 5857.519 C 6806.158 5828.530, 6709.455 5782.578, 6629 5738.484 C 6512.621 5674.703, 6403.768 5603.238, 6294.225 5518.695 C 6277.221 5505.572, 6271.088 5500.297, 6271.463 5499.116 C 6272.707 5495.195, 6277.102 5466.757, 6278.621 5452.800 C 6280.626 5434.373, 6280.914 5393.817, 6279.160 5377 C 6273.562 5323.344, 6257.242 5275.992, 6232.133 5240.549 C 6225.106 5230.631, 6209.289 5214.504, 6202 5209.827 C 6186.569 5199.926, 6175.315 5200.955, 6172.111 5212.560 C 6171.571 5214.516, 6170.579 5222.060, 6169.907 5229.324 L 6168.685 5242.531 6173.752 5255.016 C 6187.096 5287.891, 6195.186 5318.003, 6199.675 5351.500 C 6202.319 5371.226, 6202.068 5412.410, 6199.209 5428 C 6189.923 5478.639, 6165.200 5512.265, 6119.869 5535.914 C 6099.758 5546.405, 6076.463 5554.185, 6037.245 5563.508 C 6010.094 5569.962, 5999.145 5573.232, 5993.200 5576.662 C 5988.343 5579.464, 5985.395 5584.454, 5986.350 5588.258 C 5988.076 5595.134, 6006.187 5616.222, 6012.566 5618.783 C 6014.180 5619.431, 6033.889 5624.446, 6056.364 5629.927 C 6078.839 5635.409, 6097.418 5640.084, 6097.650 5640.317 C 6097.883 5640.550, 6097.137 5643.115, 6095.993 5646.017 C 6094.849 5648.919, 6080.476 5686.890, 6064.052 5730.397 C 5991.847 5921.667, 5957.888 6005.008, 5914.325 6097.851 C 5858.311 6217.231, 5794.285 6326.265, 5730.147 6411.500 C 5725.181 6418.100, 5721.428 6423.773, 5721.809 6424.106 C 5722.189 6424.439, 5883.825 6471.625, 6081 6528.963 C 6455.645 6637.911, 6475.258 6643.700, 6533.103 6662.413 C 6822.558 6756.056, 7120.371 6880.990, 7311 6988.744 C 7466.977 7076.911, 7565.186 7158.027, 7604.307 7231 C 7617.201 7255.052, 7622.941 7280.147, 7622.980 7312.644 C 7623.043 7364.327, 7610.739 7413.407, 7573.505 7510 C 7509.478 7676.097, 7445.881 7821.325, 7375.566 7962 C 7343.809 8025.535, 7374.512 7967.604, 6989.209 8690.996 L 6650.723 9326.493 6651.343 9336.996 C 6652.315 9353.451, 6658.098 9374.308, 6667.128 9393.932 C 6671.917 9404.340, 6683.037 9424, 6684.136 9424 C 6686.430 9424, 6746.051 9335.946, 6773.175 9292.500 C 6812.678 9229.223, 6850.227 9164.513, 6894.738 9083 C 6939.322 9001.356, 7191.642 8534.306, 7226.718 8468.500 C 7319.356 8294.701, 7405.588 8124.028, 7471.258 7984.500 C 7552.891 7811.054, 7635.248 7616.005, 7682.117 7485.114 C 7714.355 7395.084, 7724.212 7316.659, 7710.977 7255.500 C 7698.398 7197.372, 7648.223 7122.767, 7580.709 7061.804 C 7511.903 6999.675, 7410.263 6935.965, 7256.500 6858.583 C 6938.972 6698.786, 6529.237 6554.242, 5911 6383.926 C 5892.575 6378.851, 5877.365 6374.593, 5877.200 6374.466 C 5877.036 6374.338, 5883.833 6362.144, 5892.305 6347.367 C 5971.902 6208.538, 6028.591 6091.496, 6069.513 5981.500 C 6072.991 5972.150, 6106.724 5878.337, 6144.474 5773.027 C 6182.225 5667.718, 6213.258 5581.409, 6213.437 5581.230 C 6213.616 5581.051, 6223.828 5587.967, 6236.131 5596.600 C 6348.163 5675.210, 6430.780 5730.760, 6498.030 5772.694 C 6748.464 5928.856, 6950.770 6003.436, 7158 6015.991 C 7179.557 6017.297, 7216.556 6017.275, 7232.696 6015.946 C 7320.532 6008.713, 7393.353 5976.909, 7452.384 5920 C 7485.116 5888.444, 7511.613 5850.156, 7538.543 5795.500 C 7616.434 5637.418, 7631.855 5451.225, 7587.491 5204.500 C 7585.612 5194.050, 7516.108 4826.207, 7433.038 4387.072 C 7316.667 3771.902, 7281.997 3586.906, 7281.987 3581.072 C 7281.953 3560.389, 7306.297 2924.435, 7307.143 2923.912 C 7308.466 2923.094, 7350.412 2922.132, 7435.500 2920.967 C 7576.161 2919.042, 7733.472 2922.860, 7871 2931.537 C 8144.135 2948.770, 8399.652 2984.349, 8670.592 3042.874 L 8683.684 3045.702 8723.879 3014.161 C 8750.010 2993.657, 8763.624 2982.370, 8762.787 2981.903 C 8760.596 2980.681, 8702.617 2960.578, 8681 2953.546 C 8628.342 2936.414, 8593.908 2927.733, 8536.379 2917.087 C 8248.269 2863.769, 7960.693 2830.740, 7687 2819.535 C 7609.833 2816.375, 7569.414 2815.613, 7479.500 2815.619 C 7354.621 2815.628, 7269.473 2818.507, 7157 2826.524 C 7101.400 2830.486, 7097.862 2831.065, 7038 2845.993 C 6988 2858.461, 6981.269 2859.801, 6937.500 2865.992 C 6454.847 2934.266, 5985.597 3068.103, 5613 3243.759 C 5588.992 3255.078, 5208.717 3439.063, 5195.509 3445.751 L 5190.518 3448.278 5199.509 3456.797 C 5225.888 3481.791, 5250.644 3493.954, 5281.734 3497.194 C 5308.803 3500.016, 5344.252 3491.891, 5377.500 3475.244 C 5382.450 3472.766, 5399.775 3463.753, 5416 3455.217 C 5478.952 3422.096, 5568.024 3378.390, 5635.500 3347.511 C 5965.671 3196.421, 6310.905 3086.316, 6668.500 3018.059 C 6747.077 3003.061, 7018.113 2953.780, 7018.715 2954.382 C 7019.293 2954.960, 7003.506 3142.469, 7002.440 3147.689 C 7002.081 3149.446, 7001.055 3150.008, 6997.246 3150.535 C 6959.180 3155.797, 6935.340 3184.260, 6924.607 3237.258 C 6919.940 3260.306, 6918.608 3277.290, 6918.590 3314 C 6918.562 3371.624, 6922.623 3411.665, 6940.494 3530 C 6944.024 3553.375, 6947.621 3579.025, 6948.487 3587 C 6950.071 3601.588, 7066.270 5398.496, 7065.768 5400.657 C 7065.518 5401.737, 7034.637 5372.641, 6975.500 5315.607 C 6753.206 5101.216, 6713.833 5063.645, 6638.474 4994 C 6514.932 4879.824, 6390.201 4773.205, 6310.979 4714.060 C 6199.368 4630.734, 6087.086 4570.833, 5953.804 4523.513 C 5942.087 4519.353, 5931.825 4515.699, 5931 4515.393 C 5930.125 4515.069, 5933.044 4513.481, 5938 4511.584 C 6024.653 4478.424, 6099.083 4422.152, 6154.587 4347.837 C 6211.515 4271.615, 6247.819 4178.821, 6259.007 4080.937 C 6267.980 4002.436, 6260.452 3921.270, 6237.933 3853.726 C 6211.611 3774.776, 6160.533 3708.361, 6094.169 3666.792 C 6050.359 3639.352, 6002.649 3623.203, 5948.624 3617.530 C 5938.435 3616.460, 5887.096 3615.033, 5769.914 3612.564 C 5593.757 3608.853, 5562.916 3607.905, 5539.500 3605.481 C 5441.987 3595.385, 5343.499 3566.220, 5197 3504.055 C 5130.071 3475.656, 4855.138 3355.468, 4855.761 3354.883 C 4856.167 3354.500, 4863.797 3352.835, 4872.715 3351.183 C 4891.350 3347.731, 4899.037 3344.764, 4901.453 3340.091 C 4903.546 3336.044, 4905.879 3320.382, 4906.533 3306 C 4907.020 3295.257, 4905.685 3283.820, 4886.242 3132.250 C 4874.794 3043.012, 4865.547 2970, 4865.692 2970 C 4865.836 2970, 4906.136 3005.662, 4955.247 3049.250 C 5064.024 3145.794, 5065.131 3146.719, 5095.221 3166.340 C 5154.824 3205.205, 5211.003 3223.396, 5260.750 3219.938 C 5288.996 3217.975, 5315.623 3208.481, 5338.231 3192.312 C 5359.569 3177.051, 5375.311 3154.247, 5385.387 3124 C 5390.886 3107.493, 5393.047 3095.450, 5393.642 3078 C 5394.123 3063.887, 5393.803 3059.638, 5390.067 3030.514 C 5369.805 2872.595, 5335.949 2720.046, 5279.944 2534.313 C 5273.843 2514.081, 5267.269 2493.697, 5265.336 2489.014 C 5255.367 2464.877, 5238.629 2445.727, 5216.365 2432.988 C 5207.081 2427.676, 5189.635 2421.613, 5177.692 2419.548 C 5166.356 2417.588, 5147.014 2416.893, 5135.311 2418.025 M 10222.505 2511.126 C 10216.354 2511.650, 10211.001 2512.599, 10210.355 2513.281 C 10208.201 2515.555, 9938.612 2995.462, 9936.313 3001.116 C 9929.117 3018.808, 9929.158 3045.413, 9936.413 3066.743 C 9943.047 3086.250, 9955.344 3103.948, 9968.597 3113.067 C 9975.667 3117.931, 9990.684 3124.663, 9999.500 3126.921 C 10030.490 3134.858, 10057.115 3130.799, 10072.279 3115.827 C 10076.715 3111.447, 10091.257 3087.874, 10154.068 2983.250 C 10196.085 2913.262, 10230.749 2856, 10231.100 2856 C 10231.451 2856, 10232.001 2857.463, 10232.321 2859.250 C 10232.642 2861.037, 10234.246 2869.489, 10235.887 2878.031 C 10240.306 2901.039, 10245.209 2933.895, 10252 2986 C 10265.410 3088.888, 10273.485 3129.966, 10288.615 3172.267 C 10313.142 3240.837, 10355.236 3282.708, 10414.783 3297.764 C 10424.570 3300.239, 10427.149 3300.474, 10444.500 3300.476 C 10459.261 3300.478, 10465.396 3300.066, 10472 3298.629 C 10496.608 3293.275, 10520.426 3282.006, 10543.220 3264.934 C 10547.774 3261.523, 10564.556 3245.630, 10580.514 3229.616 C 10713.976 3095.682, 10814.821 2969.126, 10884.166 2848.546 C 10897.703 2825.007, 10899.519 2819.713, 10899.448 2804 C 10899.403 2794.173, 10899.010 2791.424, 10896.748 2785.106 C 10889.283 2764.260, 10871.901 2744.963, 10847.236 2730.141 C 10802.220 2703.089, 10748.097 2709.365, 10708.414 2746.236 C 10703.671 2750.644, 10648.536 2816.019, 10568.195 2912.500 C 10495.374 2999.950, 10435.467 3071.624, 10435.069 3071.776 C 10432.417 3072.786, 10419.550 3032.615, 10413.549 3004.589 C 10404.853 2963.983, 10400.178 2926.519, 10392.011 2832 C 10385.206 2753.240, 10381.699 2721.773, 10375.905 2687.500 C 10368.345 2642.769, 10358.999 2610.316, 10345.957 2583.500 C 10319.720 2529.556, 10279.943 2506.237, 10222.505 2511.126 M 7227.636 2902.189 C 7228.066 2916.187, 7233.779 3191.948, 7234.169 3217.500 C 7234.261 3223.550, 7234.492 3226.925, 7234.682 3225 C 7234.872 3223.075, 7237.501 3166.825, 7240.523 3100 C 7244.143 3019.978, 7246.503 2976.110, 7247.436 2971.500 C 7248.216 2967.650, 7250.433 2958.116, 7252.363 2950.313 C 7258.709 2924.656, 7259.322 2913.450, 7254.881 2904.261 C 7251.120 2896.480, 7241.571 2889.983, 7230.333 2887.560 L 7227.165 2886.877 7227.636 2902.189 M 9308.393 3161.750 C 9301.964 3172.613, 9291.550 3190.207, 9285.251 3200.850 C 9278.953 3211.492, 9274.182 3220.564, 9274.650 3221.010 C 9275.117 3221.456, 9288.775 3227.213, 9305 3233.803 C 9504.130 3314.679, 9692.234 3402.219, 9930.385 3524.845 C 9951.559 3535.747, 9971.365 3545.248, 9976.885 3547.150 C 9985.975 3550.282, 9987.265 3550.463, 10000.500 3550.473 C 10015.970 3550.483, 10022.513 3549.173, 10039.647 3542.635 C 10054.832 3536.840, 10083.069 3523.708, 10082.703 3522.610 C 10081.702 3519.607, 10013.449 3473.433, 9976.500 3450.762 C 9827.330 3359.236, 9635.032 3267.667, 9365.719 3159.916 C 9341.090 3150.062, 9320.746 3142, 9320.511 3142 C 9320.275 3142, 9314.822 3150.887, 9308.393 3161.750 M 4548.075 3486.017 C 4540.862 3487.547, 4533.880 3490.045, 4527.596 3493.344 C 4519.682 3497.498, 4517.667 3501.784, 4517.653 3514.500 C 4517.640 3525.137, 4519.367 3530.104, 4523.889 3532.443 C 4529.255 3535.217, 4549.083 3539.790, 4574.134 3544.029 C 4669.997 3560.250, 4762.053 3585.668, 4864.500 3624.200 C 4911.534 3641.890, 4953.953 3659.223, 5039 3695.500 C 5125.771 3732.513, 5160.205 3746.580, 5205.600 3763.561 C 5375.299 3827.039, 5511.793 3847.234, 5667.500 3831.900 C 5684.087 3830.267, 5690.329 3829.227, 5697.203 3826.951 C 5705.921 3824.065, 5718.917 3817.971, 5726.314 3813.302 L 5730.259 3810.812 5729.748 3804.445 C 5728.824 3792.937, 5717.378 3772.975, 5710.922 3771.614 C 5709.590 3771.333, 5663.500 3768.577, 5608.500 3765.489 C 5553.500 3762.402, 5501.300 3759.224, 5492.500 3758.428 C 5392.735 3749.405, 5306.510 3726.968, 5206.500 3684.008 C 5179.057 3672.219, 5161.183 3663.986, 5105.058 3637.282 C 5046.121 3609.240, 5035.729 3604.412, 5006 3591.266 C 4896.489 3542.840, 4796.653 3513.712, 4684.808 3497.556 C 4627.248 3489.241, 4559.734 3483.543, 4548.075 3486.017 M 10413.500 3699.930 C 10375.624 3714.461, 10335.023 3735.658, 10307.698 3755.167 C 10274.890 3778.590, 10246.307 3806.971, 10225.784 3836.500 C 10205.872 3865.149, 10188.569 3901.602, 10176.655 3940 C 10167.731 3968.759, 10163.084 3988.764, 10149.127 4058.500 C 10134.680 4130.684, 10128.072 4156.827, 10115.563 4191.290 C 10097.075 4242.225, 10069.506 4284.038, 10027.404 4325 C 10010.453 4341.492, 9996.264 4353.122, 9977.500 4365.902 C 9934.233 4395.372, 9892.270 4413.445, 9814.981 4435.899 C 9771.845 4448.430, 9758.578 4453.791, 9749.927 4462.186 C 9739.863 4471.953, 9740.597 4485.492, 9751.530 4491.738 C 9761.837 4497.626, 9780.722 4500.951, 9804 4500.977 C 9867.386 4501.047, 9942.010 4479.762, 10006.500 4443.217 C 10019.224 4436.007, 10047.470 4416.969, 10060 4407.159 C 10149.782 4336.860, 10205.862 4233.227, 10222.504 4106.860 C 10228.471 4061.554, 10231.919 4041.401, 10237.967 4016.500 C 10257.254 3937.090, 10289.612 3878.347, 10338.905 3833.255 C 10345.177 3827.517, 10360.963 3814.105, 10373.985 3803.451 C 10412.211 3772.172, 10422.557 3759.546, 10427.369 3738.303 C 10430.410 3724.879, 10428.567 3695.894, 10424.683 3696.047 C 10424.032 3696.072, 10419 3697.820, 10413.500 3699.930 M 10861 3960.925 C 10819.757 3974.919, 10755.932 4014.865, 10683 4072.331 C 10622.853 4119.723, 10563.940 4174.243, 10543.423 4201.500 C 10540.526 4205.350, 10512.558 4251.025, 10481.274 4303 C 10422.492 4400.659, 10417.187 4409.132, 10403.692 4426.928 C 10348.431 4499.797, 10268.550 4559.890, 10157 4612.509 C 10106.125 4636.507, 10060.797 4655.078, 9962.978 4692 C 9937.965 4701.442, 9917.080 4709.571, 9916.567 4710.066 C 9915.424 4711.168, 9931.256 4718.662, 9942.500 4722.340 C 9963.179 4729.105, 9981.180 4731.534, 10004.500 4730.706 C 10046.094 4729.229, 10082.905 4717.953, 10158.500 4683.529 C 10173.350 4676.766, 10193.825 4667.524, 10204 4662.989 C 10309.925 4615.783, 10385.893 4565.300, 10440.960 4505.521 C 10473.636 4470.049, 10493.495 4441.927, 10537.010 4369.500 C 10603.527 4258.790, 10637.516 4217.111, 10714 4152.461 C 10750.067 4121.974, 10806.415 4071.828, 10858.778 4023.618 C 10889.974 3994.896, 10889.082 3996.187, 10887.149 3982.574 C 10885.965 3974.234, 10881.739 3963.739, 10878.099 3960.099 C 10875.255 3957.255, 10871.245 3957.449, 10861 3960.925 M 5992.001 3961.595 C 5985.986 3965.033, 5980.944 3969.207, 5965.500 3983.532 C 5941.883 4005.438, 5932.740 4012.580, 5920.250 4018.878 C 5912.380 4022.845, 5901.840 4025.362, 5896.245 4024.609 C 5892.848 4024.152, 5835.516 4003.888, 5786.809 3985.930 L 5778.692 3982.937 5779.322 3993.218 C 5780.128 4006.364, 5782.906 4017.295, 5788.162 4028 C 5791.541 4034.882, 5794.065 4038.231, 5801.418 4045.590 C 5809.506 4053.685, 5811.758 4055.298, 5822 4060.332 C 5839.936 4069.148, 5855.592 4072.936, 5883 4075.093 C 5900.685 4076.485, 5912.949 4075.741, 5925.206 4072.534 C 5966.610 4061.698, 6001.876 4031.811, 6009.611 4001.001 C 6012.728 3988.587, 6010.075 3968.808, 6004.386 3962.047 C 6001.194 3958.254, 5998.049 3958.139, 5992.001 3961.595 M 4180.848 4103.171 C 4092.674 4178.808, 4020.340 4245.823, 3930.655 4334.963 C 3866.181 4399.046, 3817.510 4449.591, 3762.110 4510 L 3738.725 4535.500 3743.112 4536.176 C 3750.044 4537.244, 3776.713 4537.104, 3786.026 4535.951 C 3831.447 4530.328, 3870.869 4510.242, 3919.500 4467.946 C 3933.488 4455.781, 3933.553 4455.719, 4099.250 4297.703 L 4248 4155.849 4248 4150.383 C 4248 4132.969, 4238.718 4109.765, 4226.236 4095.971 C 4220.599 4089.742, 4210.863 4084, 4205.938 4084 C 4203.821 4084, 4198.102 4088.370, 4180.848 4103.171 M 9528.892 4591.750 C 9523.308 4599.254, 9520.336 4604.892, 9517.427 4613.500 C 9515.202 4620.084, 9514.724 4623.270, 9514.725 4631.500 C 9514.726 4643.830, 9515.944 4649.189, 9521.138 4659.733 C 9527.805 4673.267, 9541.138 4686.095, 9556.500 4693.757 C 9570.643 4700.810, 9599.386 4709.700, 9620.500 4713.550 C 9632.426 4715.724, 9665.739 4716.622, 9677.321 4715.080 C 9704.017 4711.528, 9726.126 4701.896, 9740.560 4687.531 C 9752.934 4675.216, 9754.403 4663.273, 9743.754 4661.572 C 9739.242 4660.852, 9717.421 4659.317, 9685.500 4657.474 C 9632.218 4654.399, 9612.710 4650.714, 9591.616 4639.739 C 9575.811 4631.517, 9556.985 4615.298, 9541 4596.132 C 9536.875 4591.187, 9533.259 4587.109, 9532.963 4587.070 C 9532.668 4587.032, 9530.836 4589.137, 9528.892 4591.750 M 11544.941 4637.719 C 11536.284 4647.580, 11527.559 4664.196, 11524.038 4677.530 C 11516.086 4707.645, 11522.178 4740.725, 11540.739 4768.205 C 11542.858 4771.342, 11554.057 4785.067, 11565.626 4798.705 C 11842.551 5125.156, 12068.677 5499.680, 12241.725 5918.500 C 12439.922 6398.187, 12549.939 6900.806, 12573.449 7434 C 12576.995 7514.410, 12577.491 7541.154, 12577.488 7651.500 C 12577.484 7761.971, 12577.077 7783.260, 12573.470 7861.500 C 12548.772 8397.245, 12426.014 8924.393, 12211.472 9416 C 12162.654 9527.863, 12102.817 9650.263, 12045.261 9756 C 11817.526 10174.368, 11524.957 10551.211, 11176.496 10875.010 C 11097.927 10948.019, 11021.599 11014.712, 10911.500 11106.556 C 10843.607 11163.192, 10840.474 11166.370, 10797.686 11221.992 C 10779.806 11245.236, 10762.659 11266.834, 10756.120 11274.349 C 10754.618 11276.075, 10754.710 11276.359, 10757.505 11278.621 C 10778.374 11295.503, 10837.645 11271.669, 10932 11208.453 C 10991.108 11168.852, 11065.833 11112.087, 11126 11061.081 C 11375.414 10849.643, 11596.540 10615.557, 11791.101 10357 C 11977.012 10109.937, 12136.923 9842.082, 12267.510 9559 C 12614.280 8807.285, 12748.482 7961.524, 12654.916 7117.500 C 12619.212 6795.425, 12550.810 6477.827, 12450.203 6167 C 12377.848 5943.458, 12276.013 5703.354, 12160.995 5485.115 C 12001.007 5181.546, 11816.431 4915.918, 11618.774 4704.788 C 11599.863 4684.587, 11549.936 4634, 11548.911 4634 C 11548.524 4634, 11546.738 4635.674, 11544.941 4637.719 M 3839 4944.009 C 3826.834 4945.953, 3819.652 4949.990, 3818.041 4955.793 C 3815.829 4963.757, 3817.915 4980.908, 3822.454 4992.080 C 3823.922 4995.693, 3908.168 5116.981, 4056.209 5328.615 C 4311.312 5693.301, 4305.048 5684.272, 4367.332 5777 C 4440.381 5885.752, 4468.241 5926.927, 4491.832 5961 C 4595.061 6110.095, 4681.680 6218.786, 4763.493 6301.884 C 4776.697 6315.295, 4808.200 6346.177, 4833.500 6370.510 C 4897.137 6431.714, 4925.943 6461.110, 4952.553 6492 C 5025.164 6576.291, 5063.015 6654.913, 5075.504 6747.390 L 5076.164 6752.279 5061.832 6736.300 C 5053.949 6727.511, 5031.750 6702.684, 5012.500 6681.129 C 4974.728 6638.835, 4975.131 6639.194, 4962.385 6636.493 C 4952.727 6634.447, 4933.892 6634.610, 4927.531 6636.794 C 4907.639 6643.625, 4909.901 6676.993, 4935.816 6759 C 4938.510 6767.525, 4945.529 6789.292, 4951.414 6807.372 C 4978.145 6889.491, 4988.906 6932.785, 4990.812 6965.871 C 4991.546 6978.612, 4990.731 6996.211, 4989.162 7001.500 C 4988.288 7004.447, 4988.207 7004.359, 4984.572 6996.500 C 4978.833 6984.092, 4969.501 6958.492, 4953.040 6910 C 4919.205 6810.328, 4903.202 6766.730, 4884.143 6722.296 C 4843.539 6627.631, 4804.874 6575.244, 4768 6564.934 C 4759.575 6562.579, 4738 6563.971, 4738 6566.870 C 4738 6567.307, 4741.781 6576.177, 4746.402 6586.582 C 4762.069 6621.854, 4773.381 6654.939, 4783.987 6696.500 C 4794.705 6738.498, 4799.728 6766.260, 4811.941 6851 C 4821.023 6914.020, 4824.396 6933.730, 4830 6956.536 C 4840.523 6999.358, 4853.419 7026.056, 4873.789 7047.187 C 4894.814 7068.996, 4922.104 7081.271, 4959.974 7085.953 C 4976.637 7088.012, 4998.237 7086.707, 5017.256 7082.491 C 5038.914 7077.690, 5045.451 7072.627, 5054.626 7053.547 C 5061.405 7039.448, 5066 7022.296, 5066 7011.087 C 5066 7005.025, 5061.646 6981.922, 5045.523 6902.444 C 5034.261 6846.925, 5024.856 6800.722, 5024.622 6799.771 C 5024.297 6798.444, 5025.864 6798.985, 5031.349 6802.090 C 5046.155 6810.472, 5072.003 6822.748, 5081.421 6825.871 C 5087.691 6827.951, 5094.150 6829.320, 5099.453 6829.694 C 5106.918 6830.221, 5108.261 6830.027, 5113.376 6827.685 C 5131.121 6819.561, 5150 6785.840, 5150 6762.267 C 5150 6757.007, 5148.847 6750.291, 5145.954 6738.705 C 5120.238 6635.701, 5074.508 6546.991, 4996.096 6448 C 4975.201 6421.620, 4955.209 6397.944, 4904.482 6339.500 C 4886.820 6319.150, 4864.573 6293.305, 4855.046 6282.066 L 4837.724 6261.631 4840.211 6259.566 C 4841.578 6258.430, 4853.453 6248.485, 4866.598 6237.467 C 4974.183 6147.294, 5092.980 6062.481, 5240.500 5970.527 C 5259.750 5958.528, 5275.826 5948.428, 5276.224 5948.082 C 5277.164 5947.265, 5184.502 5102.067, 5183.364 5101.078 C 5182.889 5100.665, 5094.750 5092.354, 4987.500 5082.610 L 4792.500 5064.894 4330.500 5004.306 C 3858.633 4942.425, 3853.140 4941.751, 3839 4944.009 M 3972.209 5058.250 C 3973.554 5060.038, 4154.355 5318, 4373.988 5631.500 C 4593.621 5945, 4773.587 6201.809, 4773.911 6202.186 C 4774.235 6202.563, 4786.744 6192.151, 4801.709 6179.049 C 4908.209 6085.804, 5014.080 6006.136, 5146.459 5919.623 L 5179.607 5897.961 5140.376 5544.886 C 5118.798 5350.695, 5100.907 5191.573, 5100.616 5191.283 C 5100.110 5190.776, 3975.472 5055.027, 3971.631 5055.009 C 3969.926 5055.001, 3969.976 5055.284, 3972.209 5058.250 M 3275.872 5102.595 C 3258.149 5142.993, 3240.339 5176.304, 3214.707 5217 C 3181.264 5270.098, 3173.169 5283.180, 3156.543 5311 C 3111.751 5385.949, 3079.729 5444.690, 3037.157 5530 C 2975.136 5654.286, 2920.699 5779.799, 2866.402 5923.710 C 2620.173 6576.318, 2519.968 7266.900, 2572.528 7949 C 2613.005 8474.296, 2744.688 8987.850, 2960.998 9464 C 3143.660 9866.083, 3382.984 10246.605, 3669.591 10590.651 C 3746.378 10682.827, 3816.015 10761.019, 3902.347 10852 C 3971.068 10924.422, 4111.283 11061.520, 4166 11109.792 C 4180.181 11122.303, 4192.348 11126.919, 4213.302 11127.739 C 4231.685 11128.458, 4243.405 11125.592, 4249.701 11118.837 C 4257.945 11109.992, 4261.623 11079.336, 4257.080 11057.323 C 4253.538 11040.159, 4251.337 11037.194, 4222.066 11010.153 C 4104.375 10901.429, 3997.157 10793.835, 3898 10684.951 C 3557.993 10311.592, 3283.161 9899.235, 3075.249 9450.500 C 3002.568 9293.631, 2935.493 9124.966, 2882.973 8967 C 2755.073 8582.318, 2682.115 8182.425, 2665.044 7772.500 C 2660.162 7655.252, 2660.343 7518.347, 2665.538 7399 C 2687.677 6890.465, 2795.844 6388.988, 2986.509 5910.930 C 3035.302 5788.590, 3082.992 5682.394, 3143.652 5561 C 3184.621 5479.014, 3214.009 5423.630, 3254.286 5352.500 C 3280.858 5305.573, 3281.730 5303.963, 3285.011 5295.698 C 3290.235 5282.540, 3292 5273.903, 3292 5261.500 C 3292 5244.687, 3287.586 5229.901, 3277.523 5213.006 C 3274.080 5207.224, 3273.339 5205.261, 3274.280 5204.414 C 3274.951 5203.810, 3284.599 5198.024, 3295.721 5191.557 L 3315.942 5179.797 3314.598 5176.649 C 3312.197 5171.027, 3278.778 5098.512, 3278.395 5098.095 C 3278.191 5097.873, 3277.056 5099.898, 3275.872 5102.595 M 5753.060 5307.288 C 5752.051 5309.605, 5744.247 5327.700, 5735.718 5347.500 C 5709.464 5408.451, 5694.328 5439.660, 5683.935 5454.270 C 5671.596 5471.617, 5651.133 5488.629, 5631.114 5498.184 C 5584.099 5520.624, 5516.849 5521.528, 5465.784 5500.408 C 5450.851 5494.232, 5448.491 5493.991, 5440.667 5497.843 C 5432.708 5501.761, 5422.798 5510.720, 5419.978 5516.545 L 5417.783 5521.080 5420.642 5525.212 C 5424.959 5531.454, 5445.757 5552.043, 5452 5556.254 C 5462.675 5563.455, 5489.714 5571.956, 5513.500 5575.588 C 5528.599 5577.893, 5558.530 5577.908, 5574.353 5575.618 C 5652.035 5564.374, 5720.896 5514.281, 5760.781 5440 C 5774.796 5413.898, 5785.589 5381.213, 5787.989 5357.603 C 5790.868 5329.281, 5781.139 5310.734, 5760.198 5304.624 L 5754.896 5303.077 5753.060 5307.288 M 9671.056 5713.054 C 9668.612 5713.553, 9663.367 5715.503, 9659.401 5717.387 C 9618.082 5737.009, 9573.862 5795.279, 9552.314 5858.500 C 9547.541 5872.502, 9542.362 5894.009, 9539.790 5910.500 C 9536.613 5930.878, 9536.615 5973.142, 9539.794 5993.500 C 9544.325 6022.515, 9550.847 6043.785, 9562.486 6067.500 C 9584.220 6111.784, 9617.014 6144.108, 9661.495 6165.090 C 9682.723 6175.103, 9715.301 6184.221, 9730.500 6184.404 C 9737.716 6184.491, 9739.137 6184.171, 9745 6181.148 C 9758.301 6174.288, 9769.364 6163.192, 9772.140 6153.926 C 9774.544 6145.903, 9767.838 6136.869, 9754.873 6130.665 C 9750.818 6128.725, 9737.375 6123.683, 9725 6119.462 C 9690.274 6107.616, 9674.936 6100.128, 9657.500 6086.506 C 9629.211 6064.405, 9612.326 6032.008, 9605.380 5986.500 C 9602.773 5969.426, 9602.742 5929.077, 9605.322 5913.500 C 9612.746 5868.686, 9629.173 5834.258, 9665.681 5787 C 9688.666 5757.246, 9694.592 5746.970, 9695.725 5734.896 C 9696.549 5726.115, 9692.948 5717.576, 9687.158 5714.582 C 9683.421 5712.649, 9676.328 5711.976, 9671.056 5713.054 M 5600.330 7548.142 C 5671.992 7762.839, 5735.868 7955.375, 5742.278 7976 C 5865.724 8373.224, 5926.759 8683.707, 5912.419 8841.500 C 5909.320 8875.600, 5905.791 8890.087, 5883.801 8959 C 5838.875 9099.789, 5777.662 9247.674, 5683.255 9443.500 C 5669.753 9471.506, 5535.786 9744.128, 5452.787 9912.500 C 5421.952 9975.052, 5349.351 10116.152, 5146.676 10507.427 L 4880.988 11020.354 4882.828 11023.927 C 4887.570 11033.134, 4913.234 11048.664, 4933.500 11054.590 C 4945.543 11058.111, 4960.743 11058.532, 4965.925 11055.488 C 4969.019 11053.670, 4994.775 11004.671, 5233.210 10546.988 C 5378.333 10268.420, 5508.704 10018, 5522.924 9990.500 C 5695.731 9656.297, 5819.350 9390.658, 5921.509 9134 C 5966.054 9022.087, 5980.701 8980.554, 5993.452 8930 C 6007.017 8876.221, 6012.683 8834.784, 6013.690 8782 C 6014.554 8736.706, 6012.425 8709.480, 6003.487 8651.500 C 5964.989 8401.782, 5907.772 8165.141, 5827.102 7922 C 5819.529 7899.175, 5767.295 7745.601, 5711.026 7580.724 C 5654.756 7415.848, 5608.926 7280.740, 5609.182 7280.485 C 5609.771 7279.895, 6893.681 7488.348, 6894.499 7489.166 C 6894.834 7489.500, 6866.320 7557.212, 6831.136 7639.637 C 6761.357 7803.106, 6747.126 7836.819, 6719.331 7904.500 C 6603.052 8187.632, 6486.839 8500.916, 6341.330 8923.500 C 6311.648 9009.702, 6287.441 9080.680, 6219.917 9279.500 L 6205.992 9320.500 6208.246 9322.402 C 6209.486 9323.448, 6213.680 9325.786, 6217.567 9327.598 C 6231.688 9334.179, 6251.149 9338.163, 6269.519 9338.231 C 6283.944 9338.285, 6291.467 9336.468, 6296.546 9331.703 C 6299.697 9328.746, 6319.144 9276.218, 6550.038 8647 C 6687.581 8272.175, 6805.686 7950.630, 6812.493 7932.455 C 6866.541 7788.155, 6930.097 7641.387, 7004.092 7490 L 7020.466 7456.500 7020.828 7447.858 C 7021.474 7432.470, 7015.960 7414.230, 7008.467 7406.968 L 7005.142 7403.745 6973.321 7399.435 C 6950.562 7396.351, 5499.588 7163.178, 5473.268 7158.374 L 5470.036 7157.784 5600.330 7548.142 M 9714.500 7480.067 C 9669.937 7490.337, 9631.927 7502.194, 9592 7518.281 C 9571.683 7526.467, 8283.027 8087.253, 8277.417 8090.350 C 8275.474 8091.422, 8284.921 8102.951, 8417.249 8261 L 8559.164 8430.500 8850.697 8802.890 L 9142.231 9175.281 9103.545 9315.237 C 9082.268 9392.213, 9065.004 9455.334, 9065.180 9455.506 C 9067.664 9457.933, 9082.805 9465.945, 9090.860 9469.094 C 9106.603 9475.250, 9119.893 9478.003, 9137.220 9478.698 L 9151.940 9479.288 9152.911 9476.733 C 9153.445 9475.328, 9256.544 9118.076, 9382.018 8682.839 C 9567.924 8037.982, 9621.534 7853.368, 9671.633 7685.500 C 9705.446 7572.200, 9733.342 7478.712, 9733.623 7477.750 C 9734.287 7475.480, 9734.526 7475.451, 9714.500 7480.067 M 9007.500 7879.607 C 8690.700 8015.592, 8431.564 8127.149, 8431.641 8127.512 C 8431.882 8128.635, 9170.271 9058, 9170.922 9058 C 9171.260 9058, 9205.227 8940.438, 9246.406 8796.750 C 9287.585 8653.063, 9380.407 8332.602, 9452.677 8084.615 C 9524.947 7836.628, 9583.947 7633.421, 9583.788 7633.045 C 9583.630 7632.669, 9324.300 7743.622, 9007.500 7879.607 M 7399 9332.140 C 7344.189 9336.227, 7294.718 9348.118, 7259.730 9365.616 C 7217.546 9386.712, 7156.840 9435.015, 7111.918 9483.229 C 7054.272 9545.099, 7010.422 9606.138, 6925.660 9742.500 C 6661.810 10166.971, 6437.131 10640.629, 6247.815 11171.500 C 6202.255 11299.258, 6181.640 11377.895, 6173.364 11455.500 C 6171.212 11475.670, 6170.897 11524.366, 6172.813 11540.500 C 6181.401 11612.817, 6211.764 11660.807, 6265.453 11686.923 C 6307.283 11707.271, 6357.969 11712.482, 6402.466 11701.009 C 6434.894 11692.647, 6468.507 11674.887, 6500.500 11649.209 C 6515.567 11637.116, 6547.104 11605.743, 6562.028 11588 C 6614.537 11525.573, 6664.993 11439.923, 6716.959 11325 C 6722.306 11313.175, 6767.109 11211.250, 6816.521 11098.500 C 6865.933 10985.750, 6906.451 10893.366, 6906.561 10893.203 C 6906.876 10892.735, 7315.883 10915.538, 7316.282 10916.046 C 7316.478 10916.296, 7315.546 11079.461, 7314.209 11278.636 L 7311.779 11640.772 7318.409 11674.136 C 7331.166 11738.333, 7340.346 11768.804, 7356.818 11801.623 C 7380.665 11849.137, 7416.915 11881.805, 7469.838 11903.477 C 7503.396 11917.219, 7536.844 11923.366, 7578 11923.354 C 7604.192 11923.347, 7617.247 11922.101, 7640.815 11917.361 C 7685.103 11908.453, 7729.343 11887.878, 7763.500 11860.302 C 7787.849 11840.644, 7807.585 11816.728, 7824.403 11786.500 C 7879.908 11686.734, 7915.037 11572.119, 7936.425 11421 C 7952.921 11304.455, 7969.735 11097.243, 7976.472 10927.500 C 7981.900 10790.727, 7982.885 10627.352, 7979.046 10500.698 C 7973.659 10322.970, 7960.038 10133.220, 7941.417 9976.500 C 7923.435 9825.155, 7890.110 9699.981, 7837.056 9584.500 C 7826.952 9562.508, 7810.467 9530.072, 7801.480 9514.500 C 7739.760 9407.563, 7623.231 9342.437, 7475 9332.037 C 7458.059 9330.849, 7415.542 9330.906, 7399 9332.140 M 6177.632 9406.101 C 6139.283 9411.700, 6105.211 9431.011, 6083.990 9459.173 C 6071.606 9475.609, 6073.361 9470.757, 5978.404 9751 C 5867.470 10078.397, 5877.396 10049.191, 5862.682 10091.500 C 5804.107 10259.926, 5757.479 10382.288, 5707.145 10499.662 C 5609.900 10726.429, 5515.872 10889.657, 5417.197 11003 C 5401.029 11021.572, 5367.179 11055.432, 5350.679 11069.539 C 5284.450 11126.162, 5217.964 11156.906, 5144 11165.109 C 5129.309 11166.738, 5090.921 11166.755, 5076 11165.138 C 5018.842 11158.946, 4971.735 11145.222, 4881.500 11108.472 C 4827.719 11086.568, 4810.388 11080.229, 4788.500 11074.455 C 4741.684 11062.106, 4710.496 11067.217, 4686.990 11091.091 C 4676.481 11101.764, 4669.672 11114.178, 4665.762 11129.791 C 4662.868 11141.349, 4662.650 11167.785, 4665.336 11181.500 C 4671.629 11213.638, 4685.434 11244.521, 4706.019 11272.516 C 4722.871 11295.433, 4784.281 11357.338, 4829.966 11397.461 C 4999.696 11546.528, 5166.372 11604.365, 5363 11582.425 C 5418.943 11576.183, 5494.180 11559.017, 5550.906 11539.554 C 5556.911 11537.494, 5558.595 11537.248, 5559.812 11538.257 C 5562.943 11540.850, 5587.819 11575.090, 5617.022 11617 C 5671.590 11695.312, 5695.961 11728.635, 5727.092 11767.500 C 5804.043 11863.565, 5868.609 11916.603, 5920.750 11926.579 C 5931.854 11928.704, 5950.943 11928.435, 5960.590 11926.019 C 5999.852 11916.184, 6036.660 11870.661, 6048.216 11817.648 C 6050.139 11808.822, 6050.432 11804.438, 6050.464 11784 C 6050.496 11763.023, 6050.247 11759.319, 6048.147 11749.500 C 6044.691 11733.346, 6040.758 11722.204, 6032.968 11706.500 C 6017.866 11676.058, 6000.098 11657.069, 5954.741 11622.892 C 5925.944 11601.193, 5901.392 11585.510, 5850 11555.988 C 5816.251 11536.601, 5802.789 11528.220, 5790.142 11518.724 C 5758.958 11495.309, 5743.210 11469.271, 5738.499 11433.334 C 5736.085 11414.921, 5735.427 11416.864, 5747.750 11406.032 C 5764.989 11390.879, 5829.081 11326.251, 5847.945 11305 C 5979.838 11156.419, 6091.854 10975.457, 6192.728 10748 C 6344.958 10404.745, 6456.247 9972.861, 6502.077 9547.500 C 6505.800 9512.950, 6505.701 9500.636, 6501.570 9484.137 C 6496.379 9463.401, 6486.388 9444.234, 6477.300 9437.575 C 6469.182 9431.627, 6451.311 9425.952, 6429.929 9422.534 C 6424.665 9421.692, 6373.633 9417.403, 6316.524 9413.002 C 6213.076 9405.030, 6192.103 9403.988, 6177.632 9406.101 M 10381 9527.701 C 10224.733 9528.768, 10021.996 9540.851, 9822.437 9560.992 C 9775.934 9565.686, 9756.707 9568.422, 9724 9575.004 C 9651.402 9589.614, 9603.407 9609.744, 9578.681 9635.955 C 9566.848 9648.498, 9562 9659.817, 9562 9674.895 C 9562 9688.633, 9566.024 9700.783, 9574.908 9713.865 C 9606.844 9760.893, 9695.730 9794.951, 9829.500 9811.416 C 9862.261 9815.449, 9878.701 9816.541, 10116.500 9830.490 C 10337.346 9843.444, 10344.771 9843.943, 10353.139 9846.395 C 10364.015 9849.583, 10371.963 9853.106, 10374.357 9855.802 C 10376.142 9857.813, 10376.150 9858.273, 10374.556 9867.697 C 10371.581 9885.291, 10369.344 9892.141, 10357.964 9918.500 C 10272.097 10117.398, 10173.644 10312.282, 10047.273 10533.500 C 10002.908 10611.162, 9967.743 10671.007, 9874.515 10827.500 C 9765.098 11011.170, 9733.295 11065.267, 9682.278 11154.500 C 9626.808 11251.523, 9563.526 11366.589, 9558.035 11380.412 C 9551.294 11397.380, 9548.625 11413.542, 9548.690 11437 C 9548.808 11480.395, 9561.706 11519.060, 9583.763 11542.148 C 9604.255 11563.596, 9633.104 11575.469, 9677.097 11580.558 C 9697.250 11582.889, 9746.766 11582.115, 9772.500 11579.067 C 9922.261 11561.326, 10127.910 11493.764, 10399 11373.241 C 10530.401 11314.822, 10617.159 11267.421, 10684.710 11217.143 C 10729.251 11183.991, 10763.339 11149.746, 10780.908 11120.500 C 10794.790 11097.392, 10799.269 11081.610, 10799.356 11055.500 C 10799.420 11036.165, 10798.207 11029.596, 10792.248 11017 C 10785.623 11002.996, 10769.895 10990.482, 10752.775 10985.593 C 10720.531 10976.386, 10670.845 10981.062, 10603.620 10999.629 C 10587.109 11004.189, 10546.691 11016.705, 10537.583 11020.078 C 10534.787 11021.114, 10523.950 11024.935, 10513.500 11028.569 C 10503.050 11032.204, 10466.150 11045.765, 10431.500 11058.706 C 10396.850 11071.647, 10357.250 11086.019, 10343.500 11090.644 C 10317.299 11099.457, 10287.971 11107.375, 10283.574 11106.824 C 10281.180 11106.524, 10291.202 11092.612, 10419.588 10918 C 10598.088 10675.233, 10601.099 10671.129, 10617.914 10647.660 C 10714.591 10512.731, 10807.033 10362.907, 10893.311 10201.315 C 10928.672 10135.087, 10961.749 10069.661, 10977.360 10035.068 C 11011.048 9960.417, 11035.204 9883.030, 11048.019 9808.709 C 11057.475 9753.861, 11058.640 9729.268, 11053.049 9702.495 C 11046.135 9669.384, 11027.539 9639.745, 11000.516 9618.765 C 10979.711 9602.613, 10957.447 9592.356, 10916.097 9579.874 C 10794.224 9543.085, 10619.730 9526.072, 10381 9527.701 M 8818 9534.603 C 8672.903 9540.122, 8562.946 9552.656, 8437.987 9577.917 C 8374.041 9590.845, 8284.020 9613.481, 8262.083 9622.150 C 8224.158 9637.136, 8192.976 9668.987, 8184.878 9701.011 C 8181.745 9713.401, 8182.480 9730.158, 8186.685 9742.194 C 8190.468 9753.019, 8196.974 9763.568, 8205.642 9772.930 C 8234.189 9803.764, 8290.348 9827.880, 8343.085 9831.953 C 8350.463 9832.522, 8454.375 9835.315, 8574 9838.158 C 8693.625 9841.001, 8791.673 9843.464, 8791.885 9843.632 C 8792.097 9843.800, 8788.878 9854.189, 8784.731 9866.719 C 8742.055 9995.666, 8692.928 10114.366, 8625.065 10252.500 C 8611.568 10279.972, 8347.549 10803.274, 8291.070 10914.500 C 8191.474 11110.633, 8137.140 11245.753, 8105.050 11377.099 C 8092.976 11426.518, 8090.429 11444.812, 8091.347 11475.500 C 8093.250 11539.054, 8115.895 11599.902, 8156.291 11650 C 8199.882 11704.061, 8265.081 11734.515, 8346.752 11738.962 C 8367.911 11740.114, 8387.346 11739.268, 8426.871 11735.476 C 8724.866 11706.887, 8989.890 11644.599, 9242.500 11543.779 C 9279.215 11529.126, 9287.796 11525.071, 9301.548 11515.875 C 9341.312 11489.286, 9366 11446.432, 9366 11404 C 9366 11391.664, 9364.131 11379.628, 9360.616 11369.321 C 9357.295 11359.583, 9349.991 11345.720, 9344.528 11338.785 C 9330.504 11320.983, 9291.491 11305.037, 9248.500 11299.534 C 9239.137 11298.336, 9190.544 11297.120, 9027.351 11293.999 C 8912.319 11291.800, 8812.531 11290, 8805.601 11290 C 8798.670 11290, 8793 11289.598, 8793 11289.108 C 8793 11288.617, 8837.378 11204.804, 8891.617 11102.858 C 9019.565 10862.372, 9277.409 10373.368, 9294.915 10338 C 9328.440 10270.269, 9356.435 10203.027, 9398.165 10090 C 9440.227 9976.074, 9446.942 9956.648, 9454.329 9927.500 C 9465.145 9884.827, 9470.495 9846.116, 9471.673 9802 C 9472.489 9771.449, 9470.142 9734.305, 9466.472 9719.698 C 9459.091 9690.316, 9431.481 9659.025, 9390.314 9633.388 C 9338.990 9601.425, 9262.011 9572.815, 9181 9555.594 C 9131.377 9545.045, 9095.680 9541.299, 8993.500 9535.917 C 8974.747 9534.929, 8836.611 9533.895, 8818 9534.603 M 9682.500 9879.378 C 9665.462 9884.949, 9644.310 9899.290, 9637.947 9909.586 C 9635.992 9912.749, 9635.937 9913.247, 9637.318 9915.276 C 9638.151 9916.499, 9725.873 10023.700, 9832.255 10153.500 C 10024.898 10388.547, 10025.692 10389.499, 10029.089 10389.242 C 10035.763 10388.737, 10046.976 10382.205, 10055.097 10374.091 C 10061.173 10368.021, 10063.631 10364.597, 10067.370 10357 C 10073.444 10344.659, 10075.325 10335.709, 10074.725 10322 C 10074.188 10309.702, 10071.602 10300.869, 10066.119 10292.602 C 10059.997 10283.371, 9759.889 9912.878, 9753.500 9906.664 C 9742.387 9895.854, 9721.795 9883.484, 9707.645 9879.116 C 9698.898 9876.416, 9691.318 9876.495, 9682.500 9879.378 M 7143.158 10312.125 C 7068.183 10494.752, 7006.993 10644.327, 7007.180 10644.513 C 7007.588 10644.922, 7325.244 10658.089, 7325.620 10657.713 C 7326.044 10657.289, 7324.128 10515.659, 7323.006 10464.500 C 7318.894 10277.063, 7308.506 10150.709, 7285.845 10012.500 C 7283.049 9995.450, 7280.473 9981.180, 7280.119 9980.788 C 7279.765 9980.396, 7218.133 10129.498, 7143.158 10312.125 M 9397.900 10289.161 C 9385.580 10314.511, 9375.500 10335.814, 9375.500 10336.501 C 9375.500 10337.187, 9381.575 10343.282, 9389 10350.045 C 9408.142 10367.480, 9471.581 10431.138, 9491.103 10452.500 C 9564.142 10532.425, 9624.166 10608.188, 9741.457 10768.500 C 9761.175 10795.450, 9778.117 10818.366, 9779.105 10819.424 C 9780.871 10821.313, 9781.007 10821.279, 9786.694 10817.502 C 9804.038 10805.986, 9825.051 10778.087, 9835.443 10752.777 C 9839.784 10742.204, 9843.493 10727.330, 9842.203 10725.670 C 9815.872 10691.791, 9633.621 10462.436, 9621.956 10448.500 C 9586.330 10405.936, 9555.009 10372.156, 9508.356 10325.980 C 9479.333 10297.254, 9424.916 10245.733, 9421.540 10243.784 C 9420.667 10243.280, 9413.681 10256.689, 9397.900 10289.161 M 9147.851 10771.763 C 9136.731 10787.371, 9128.511 10800.750, 9120.972 10815.512 C 9113.112 10830.902, 9103.678 10854.567, 9104.251 10857.458 C 9104.578 10859.111, 9478.075 11332.091, 9483.972 11338.319 C 9485.626 11340.067, 9486.007 11339.902, 9493.696 11334.108 C 9515.291 11317.836, 9531.891 11294.449, 9541.023 11267.431 L 9543.841 11259.096 9350.613 11010.362 C 9244.337 10873.558, 9156.960 10761.493, 9156.442 10761.327 C 9155.924 10761.162, 9152.058 10765.858, 9147.851 10771.763 M 4684.500 11454.730 C 4634.671 11540.877, 4603.296 11598.360, 4580.789 11644.742 C 4558.527 11690.620, 4112.732 12640.619, 4112.818 12642 C 4112.869 12642.825, 4173.898 12808.846, 4248.437 13010.935 C 4322.977 13213.024, 4383.854 13378.479, 4383.720 13378.613 C 4383.586 13378.747, 4369.982 13357.176, 4353.489 13330.678 C 4315.818 13270.156, 4313.060 13265.963, 4306.153 13258.721 C 4300.079 13252.352, 4296.468 13250, 4292.766 13250 C 4288.930 13250, 4251.455 13266.606, 4251.802 13268.152 C 4251.968 13268.894, 4268.799 13313.946, 4289.204 13368.269 C 4323.089 13458.479, 4326.475 13466.984, 4328.274 13466.413 C 4329.358 13466.069, 4362.477 13452.155, 4401.872 13435.494 C 4453.961 13413.464, 4473.986 13404.550, 4475.283 13402.817 C 4476.264 13401.506, 4477.721 13397.974, 4478.521 13394.967 C 4480.448 13387.726, 4480.437 13365.728, 4478.502 13356.593 C 4477.603 13352.347, 4469.744 13332.693, 4458.111 13305.593 C 4387.162 13140.320, 4324.912 12980.754, 4269.839 12823 C 4249.857 12765.762, 4213.001 12654.110, 4212.749 12650.049 C 4212.696 12649.197, 4303.029 12457.925, 4413.487 12225 C 4591.366 11849.907, 4623.507 11781.385, 4694.679 11625.519 C 4738.876 11528.729, 4774.857 11449.079, 4774.637 11448.519 C 4774.417 11447.959, 4758.772 11441.926, 4739.869 11435.114 C 4720.966 11428.301, 4705.040 11422.555, 4704.477 11422.344 C 4703.915 11422.133, 4694.925 11436.707, 4684.500 11454.730 M 4827.178 11496.190 C 4820.237 11508.321, 4809.046 11534.975, 4802.696 11554.500 C 4798.025 11568.862, 4795 11579.352, 4795 11581.187 C 4795 11583.353, 4862.315 11629.853, 4924.563 11670.686 C 5133.898 11808.008, 5354.140 11928.267, 5582.890 12030.156 C 6131.361 12274.454, 6725.617 12411.777, 7339 12435.966 C 7459.713 12440.727, 7607.931 12440.726, 7728 12435.966 C 8061.326 12422.749, 8388.008 12377.478, 8717 12298.912 C 9030.501 12224.045, 9332.881 12115.005, 9664 11957.419 C 9703.950 11938.405, 9819 11881.359, 9819 11880.563 C 9819 11878.921, 9813.446 11865.740, 9809.806 11858.743 C 9798.960 11837.896, 9782.481 11824.155, 9762.742 11819.501 C 9754.661 11817.596, 9737.297 11817.594, 9727.348 11819.498 C 9713.963 11822.059, 9704.534 11825.764, 9672 11841.250 C 9376.783 11981.768, 9099.602 12085.379, 8802 12166.458 C 8423.666 12269.531, 8058.993 12322.493, 7661.500 12332.095 C 7606.952 12333.413, 7442.843 12332.774, 7396.500 12331.064 C 7346.991 12329.237, 7298.935 12327.035, 7263 12324.947 C 6521.283 12281.852, 5813.114 12076.848, 5243 11740.189 C 5232.275 11733.856, 5135.587 11675.389, 5028.138 11610.262 C 4920.688 11545.136, 4832.200 11491.630, 4831.498 11491.361 C 4830.735 11491.068, 4828.995 11493.014, 4827.178 11496.190 M 10252.577 11512.020 C 10238.416 11515.004, 10224.879 11519.754, 10211.191 11526.544 C 10198.551 11532.815, 10180 11544.339, 10180 11545.921 C 10180 11547.042, 10728.896 12439.010, 10739.734 12455.500 C 10754.386 12477.795, 10768.072 12496.824, 10806.978 12549 C 10848.505 12604.691, 10856.952 12616.375, 10871.682 12638.500 C 10895.713 12674.595, 10912.489 12704.893, 10926.123 12736.819 L 10930.102 12746.138 10924.065 12774.438 C 10891.060 12929.162, 10866.232 13092.775, 10850.003 13262.500 C 10848.320 13280.100, 10846.619 13296.286, 10846.222 13298.469 C 10845.741 13301.115, 10843.726 13279.610, 10840.178 13233.969 C 10834.674 13163.155, 10834.278 13159, 10833.037 13159 C 10832.629 13159, 10828.666 13162.142, 10824.230 13165.981 C 10814.192 13174.670, 10801.131 13190.193, 10797.006 13198.339 C 10795.081 13202.138, 10784.714 13235.701, 10769.961 13285.899 C 10756.802 13330.668, 10745.829 13367.504, 10745.576 13367.758 C 10744.788 13368.545, 10739.321 13364.171, 10735.100 13359.377 C 10729.177 13352.647, 10726.779 13345.473, 10726.787 13334.500 C 10726.794 13324.788, 10728.054 13318.221, 10734.088 13296.452 C 10741.311 13270.396, 10742.385 13264.040, 10742.445 13247 C 10742.503 13230.375, 10741.353 13223.827, 10736.516 13213.256 C 10730.333 13199.744, 10721.702 13199.557, 10709.892 13212.682 C 10694.413 13229.883, 10676.372 13269.951, 10666.644 13308.730 C 10661.336 13329.889, 10659.721 13342.133, 10660.158 13357.906 C 10660.571 13372.795, 10659.930 13370.721, 10669.609 13388.465 C 10682.812 13412.667, 10701.835 13420.044, 10732.722 13412.942 C 10748.463 13409.322, 10768.898 13400.044, 10802.752 13381.148 C 10811.690 13376.159, 10821.365 13371.326, 10824.252 13370.409 C 10828.380 13369.097, 10835.797 13368.582, 10859 13367.998 C 10891.272 13367.186, 10899.006 13366.240, 10906.513 13362.186 C 10916.142 13356.985, 10928.796 13335.893, 10936.922 13311.500 C 10942.952 13293.399, 10943.763 13286.318, 10944.418 13246 C 10946.898 13093.605, 10966.916 12966.613, 11010.466 12827 C 11020.855 12793.693, 11023.015 12781.448, 11022.980 12756.026 C 11022.927 12715.921, 11010.813 12674.833, 10985.667 12629.464 C 10964.335 12590.977, 10945.060 12564.021, 10885.672 12489.617 C 10846.061 12439.991, 10830.757 12419.988, 10817.419 12400.407 C 10812.513 12393.205, 10686.550 12189.934, 10537.500 11948.692 C 10292.489 11552.135, 10266.260 11510.074, 10264 11510.106 C 10262.625 11510.125, 10257.485 11510.987, 10252.577 11512.020 M 9761.036 11652.129 C 9731.631 11657.610, 9707.345 11662.322, 9707.065 11662.601 C 9706.786 11662.880, 9707.032 11663.422, 9707.612 11663.804 C 9708.192 11664.187, 9733.797 11688.350, 9764.511 11717.500 L 9820.356 11770.500 9933.428 11895.020 C 10024.575 11995.395, 10102.441 12079.335, 10335 12327.916 L 10623.500 12636.293 10623.814 12658.896 C 10624.181 12685.398, 10622.557 12748.510, 10620.466 12789 C 10613.417 12925.496, 10597.319 13065.173, 10562.437 13292.500 C 10557.120 13327.150, 10552.543 13359.661, 10552.266 13364.746 C 10551.797 13373.349, 10551.955 13374.393, 10554.538 13379.746 C 10558.787 13388.551, 10571.324 13400.442, 10582 13405.793 C 10591.561 13410.586, 10603.351 13413.461, 10609.620 13412.529 C 10622.681 13410.587, 10633.787 13393.932, 10644.979 13359.500 C 10672.230 13275.671, 10697.801 13078.083, 10712.470 12838 C 10719.369 12725.091, 10720.556 12659.260, 10716.085 12637.561 C 10709.897 12607.531, 10696.078 12582.962, 10666.832 12550 C 10661.708 12544.225, 10495.555 12361.975, 10297.604 12145 C 10099.652 11928.025, 9937.424 11750.193, 9937.096 11749.819 C 9936.768 11749.444, 9914 11751.088, 9886.500 11753.472 C 9859 11755.857, 9836.365 11757.678, 9836.200 11757.520 C 9836.035 11757.362, 9831.731 11731.419, 9826.635 11699.868 C 9819.501 11655.702, 9817.039 11642.463, 9815.935 11642.333 C 9815.146 11642.240, 9790.441 11646.648, 9761.036 11652.129" stroke="none" fill="#0a0a0a" fill-rule="evenodd"/>
</svg>